<?xml version="1.0" encoding="UTF-8" standalone="no"?>
<!-- Created with Inkscape (http://www.inkscape.org/) -->

<svg
   width="720mm"
   height="405mm"
   viewBox="0 0 720 405"
   version="1.1"
   id="svg1"
   xml:space="preserve"
   inkscape:export-xdpi="45.18441"
   inkscape:export-ydpi="45.18441"
   inkscape:version="1.4.3 (0d15f75, 2025-12-25)"
   sodipodi:docname="template.svg"
   xmlns:inkscape="http://www.inkscape.org/namespaces/inkscape"
   xmlns:sodipodi="http://sodipodi.sourceforge.net/DTD/sodipodi-0.dtd"
   xmlns="http://www.w3.org/2000/svg"
   xmlns:svg="http://www.w3.org/2000/svg"><sodipodi:namedview
     id="namedview1"
     pagecolor="#ffffff"
     bordercolor="#111111"
     borderopacity="1"
     inkscape:showpageshadow="0"
     inkscape:pageopacity="0"
     inkscape:pagecheckerboard="1"
     inkscape:deskcolor="#d1d1d1"
     inkscape:document-units="mm"
     inkscape:zoom="0.25178368"
     inkscape:cx="1312.6347"
     inkscape:cy="969.08584"
     inkscape:window-width="1710"
     inkscape:window-height="1045"
     inkscape:window-x="0"
     inkscape:window-y="62"
     inkscape:window-maximized="0"
     inkscape:current-layer="layer1" /><defs
     id="defs1"><inkscape:path-effect
       effect="fillet_chamfer"
       id="path-effect3"
       is_visible="true"
       lpeversion="1"
       nodesatellites_param="F,0,0,1,0,0,0,1 @ F,0,0,1,0,45.967641,0,1 @ F,0,0,1,0,0,0,1"
       radius="0"
       unit="px"
       method="auto"
       mode="F"
       chamfer_steps="1"
       flexible="false"
       use_knot_distance="true"
       apply_no_radius="true"
       apply_with_radius="true"
       only_selected="false"
       hide_knots="false" /><path
       d="M101.086812,30 L101.711812,30 L101.711812,27.106875 L101.722437,27.106875 L102.761812,30 L103.302437,30 L104.341812,27.106875 L104.352437,27.106875 L104.352437,30 L104.977437,30 L104.977437,26.25125 L104.063687,26.25125 L103.055562,29.18625 L103.044937,29.18625 L102.011187,26.25125 L101.086812,26.25125 L101.086812,30 Z M97.6274375,26.818125 L98.8136875,26.818125 L98.8136875,30 L99.4699375,30 L99.4699375,26.818125 L100.661812,26.818125 L100.661812,26.25125 L97.6274375,26.25125 L97.6274375,26.818125 Z M89.9999375,30 L119.999937,0 L101.943687,0 L71.9443125,30 L89.9999375,30 Z M85.6986875,13.065 L49.3818125,13.065 C38.3136875,13.065 36.3768125,13.651875 31.6361875,18.3925 C27.2024375,22.82625 20.0005625,30 20.0005625,30 L35.7324375,30 L39.4855625,26.246875 C41.9530625,23.779375 43.2255625,23.52375 48.4068125,23.52375 L75.2405625,23.52375 L85.6986875,13.065 Z M31.1518125,16.253125 C27.8774375,19.3425 20.7530625,26.263125 16.9130625,30 L-6.25e-05,30 C-6.25e-05,30 13.5524375,16.486875 21.0849375,9.0725 C28.8455625,1.685 32.7143125,0 46.9486875,0 L98.7643125,0 L87.5449375,11.21875 L48.0011875,11.21875 C37.9993125,11.21875 35.7518125,11.911875 31.1518125,16.253125 Z"
       id="path-1" /></defs><g
     inkscape:label="Layer 1"
     inkscape:groupmode="layer"
     id="layer1"><rect
       style="opacity:1;fill:#15151e;stroke:none;stroke-width:0.459853"
       id="rect1"
       width="719.54016"
       height="404.54016"
       x="0.2299265"
       y="0.2299265"
       inkscape:export-filename="../png/template.png"
       inkscape:export-xdpi="45.18441"
       inkscape:export-ydpi="45.18441"
       inkscape:label="background" /><path
       d="M 549.98062,297.49087 739.9615,107.51 H 625.61677 L 435.63984,297.49087 Z M 522.74211,190.24667 H 292.75839 c -70.09107,0 -82.35671,3.7165 -112.37764,33.73744 -28.07759,28.07759 -73.68488,73.50676 -73.68488,73.50676 h 99.62519 l 23.76739,-23.7674 c 15.62593,-15.62592 23.68429,-17.24472 56.49556,-17.24472 h 169.92997 z m -345.42876,20.18942 c -20.73562,19.56408 -65.85212,63.39029 -90.16967,87.05478 H -19.962 c 0,0 85.82387,-85.57451 133.52489,-132.52749 C 162.70857,118.18059 187.20818,107.51 277.35015,107.51 h 328.13259 l -71.04889,71.04493 H 284.01531 c -63.33882,0 -77.57156,4.38935 -106.70196,31.88116 z"
       id="Fill-1-6"
       style="fill:#201f2c;fill-opacity:1;fill-rule:evenodd;stroke:none;stroke-width:6.3327"
       sodipodi:nodetypes="ccccccssccssccccccsccsc"
       inkscape:label="logo" /><text
       xml:space="preserve"
       style="font-style:normal;font-variant:normal;font-weight:normal;font-stretch:normal;font-size:31.75px;line-height:100%;font-family:Formula1;-inkscape-font-specification:Formula1;text-align:start;word-spacing:0px;writing-mode:lr-tb;direction:ltr;text-anchor:start;opacity:1;fill:#ee0000;fill-opacity:1;stroke:none;stroke-width:0.223;stroke-opacity:1"
       x="28.402561"
       y="46.197952"
       id="text2"
       inkscape:label="round"><tspan
         sodipodi:role="line"
         style="font-style:normal;font-variant:normal;font-weight:normal;font-stretch:normal;font-size:31.75px;font-family:Formula1;-inkscape-font-specification:Formula1;fill:#ee0000;fill-opacity:1;stroke-width:0.223"
         x="28.402561"
         y="46.197952"
         id="tspan1">ROUND 01</tspan></text><path
       style="opacity:1;fill:none;fill-opacity:1;stroke:#ee0000;stroke-width:7.83601;stroke-linecap:butt;stroke-linejoin:miter;stroke-dasharray:none;stroke-opacity:1"
       d="m 187.88728,39.21919 h 456.58523 a 45.967641,45.967641 45 0 1 45.96764,45.967641 V 413.1696"
       id="path3"
       sodipodi:nodetypes="ccc"
       inkscape:path-effect="#path-effect3"
       inkscape:original-d="M 187.88728,39.21919 H 690.44015 V 413.1696"
       transform="matrix(0.86982237,0,0,1.0007021,74.217474,3.230212)" /><g
       id="g10"
       transform="translate(1.3716371)"
       inkscape:label="info"><text
         xml:space="preserve"
         style="font-style:normal;font-variant:normal;font-weight:normal;font-stretch:normal;font-size:44.9794px;line-height:100%;font-family:Formula1;-inkscape-font-specification:Formula1;text-align:start;word-spacing:0px;writing-mode:lr-tb;direction:ltr;text-anchor:start;opacity:1;fill:#ffffff;fill-opacity:1;stroke:none;stroke-width:7.83604;stroke-linecap:butt;stroke-linejoin:miter;stroke-dasharray:none;stroke-opacity:1"
         x="205.8817"
         y="110.78199"
         id="text3"
         inkscape:label="location"><tspan
           sodipodi:role="line"
           id="tspan3"
           style="font-style:normal;font-variant:normal;font-weight:500;font-stretch:normal;font-size:44.9794px;font-family:Formula1;-inkscape-font-specification:'Formula1 Medium';stroke:none;stroke-width:7.83603"
           x="205.8817"
           y="110.78199">AUSTRALIA</tspan></text><text
         xml:space="preserve"
         style="font-style:normal;font-variant:normal;font-weight:500;font-stretch:normal;font-size:26.4583px;line-height:100%;font-family:Formula1;-inkscape-font-specification:'Formula1 Medium';text-align:start;word-spacing:0px;writing-mode:lr-tb;direction:ltr;text-anchor:start;opacity:1;fill:#ffffff;fill-opacity:1;stroke:none;stroke-width:7.83601;stroke-linecap:butt;stroke-linejoin:miter;stroke-dasharray:none;stroke-opacity:1"
         x="204.55881"
         y="147.57129"
         id="text4"
         inkscape:label="session"><tspan
           sodipodi:role="line"
           id="tspan4"
           style="font-style:normal;font-variant:normal;font-weight:normal;font-stretch:normal;font-size:26.4583px;font-family:Formula1;-inkscape-font-specification:Formula1;fill:#ee0000;fill-opacity:1;stroke-width:7.836"
           x="204.55881"
           y="147.57129">QUALIFYING</tspan></text></g><g
       id="g3"
       inkscape:label="track"><text
         xml:space="preserve"
         style="font-style:normal;font-variant:normal;font-weight:normal;font-stretch:normal;font-size:19.0503px;line-height:100%;font-family:Formula1;-inkscape-font-specification:Formula1;text-align:center;word-spacing:0px;writing-mode:lr-tb;direction:ltr;text-anchor:middle;opacity:1;fill:#ee0000;fill-opacity:1;stroke:none;stroke-width:7.83615;stroke-linecap:butt;stroke-linejoin:miter;stroke-dasharray:none;stroke-opacity:1"
         x="436.95758"
         y="385.74637"
         id="text5"
         inkscape:label="track-name"><tspan
           sodipodi:role="line"
           id="tspan5"
           style="font-size:19.0503px;stroke-width:7.83614"
           x="436.95758"
           y="385.74637">Albert Park Circuit</tspan></text><g inkscape:label="embedded-track" transform=" translate(230.19147738965745, 87.42605773892494) scale(0.7497396145652029) rotate(-45, 249.8803952374686, 249.97743775980436) " > <path style="fill: none; stroke: #fff; stroke-width: 20; stroke-linejoin: round; stroke-dasharray: none; stroke-opacity: 1;" d="M294.629 449.112c-17.004-16.153-135.384-136.209-146.616-147.395-1.524-1.517-1.706-3.53.325-6.806 3.149-5.077 4.704-10.311 4.992-19.451.338-10.696-5.247-17.614-9.32-20.938a543.275 540.954 0 0 1-3.051-2.51c-7.815-6.483-24.853-22.693-36.79-37.604-7.19-8.982-18.233-21.829-21.922-27.231-3.69-5.402-20.837-34.579-23.657-41.495-.14-.345-.313-.741-.486-1.193-2.526-6.507 1.79-7.721 4.882-8.288 3.321-.61 15.573-2.62 24.47-4.568 6.013-1.313 7.515-6.538 7.381-10.805-.272-8.617-1.166-38.604-1.248-43.628-.044-2.674-1.14-6.564 2.014-9.31.177-.155.36-.297.536-.442 7.596-6.268 24.309-19.02 31.472-22.26 7.163-3.241 19.75-8.645 25.394-10.59.27-.093 8.895-3.4 9.197-3.512 6.839-2.512 16.371-9.01 25.802-14.913 2.85-1.783 5.222-1.533 7.408.73 4.11 4.254 8.482 8.26 13.591 10.778 5.11 2.519 10.96 3.55 16.713 4.107l.869.086c6.576.667 18.943 2.276 24.961 6.615 6.599 4.758 18.448 15.344 22.356 27.446 2.667 8.264 8.547 39.081 9.113 44.954.043.417.075.832.111 1.243.316 3.362.451 7.204-.38 12.615-.785 5.117-3.03 9.761-4.865 12.36-2.135 3.025-2.99 4.04-5.601 7.349-2.022 2.563-3.632 5.219-5.412 8.814-1.298 2.622-2.098 5.678-3.25 9.515-.6 1.996-.984 4.224-1.438 6.672-2.298 12.381-6.64 33.93-6.511 48.195.217 24.638 9.137 41.707 17.797 53.812 10.2 14.265 18.231 19.882 28.868 28.745 2.75 2.292 5.48 4.553 8.392 6.78 3.169 2.426 7.437 5.332 12.714 6.133 7.49 1.135 15.377.162 23.93.162 6.755 0 8.091.737 11.068 3.078 11.64 9.16 39.977 33.269 40.484 33.778 8.615 8.626 17.154 17.81 21.049 30.465 4.124 13.4 9.334 31.769 11.72 40.414 2.386 8.646 9.142 31.943 9.55 34.796.65 4.539 2.668 10.58-1.123 10.859-5.127.378-11.708 1.435-20.695 5.01-11.669 4.64-25.258 9.853-29.403 11.147-11.07 3.458-18.45 3.889-24.962-7.997-4.378-7.99-14.84-26.34-22.345-39.148-3.658-6.242-7.146-4.698-8.583-3.104-4.776 5.294-9.984 10.914-17.255 18.587-4.469 4.71-15.194 4.643-22.246-2.057z" /> <path style="fill: none; stroke: #000; stroke-width: 5; stroke-linejoin: round; stroke-dasharray: none; stroke-opacity: 1;" d="M294.629 449.112c-17.004-16.153-135.384-136.209-146.616-147.395-1.524-1.517-1.706-3.53.325-6.806 3.149-5.077 4.704-10.311 4.992-19.451.338-10.696-5.247-17.614-9.32-20.938a543.275 540.954 0 0 1-3.051-2.51c-7.815-6.483-24.853-22.693-36.79-37.604-7.19-8.982-18.233-21.829-21.922-27.231-3.69-5.402-20.837-34.579-23.657-41.495-.14-.345-.313-.741-.486-1.193-2.526-6.507 1.79-7.721 4.882-8.288 3.321-.61 15.573-2.62 24.47-4.568 6.013-1.313 7.515-6.538 7.381-10.805-.272-8.617-1.166-38.604-1.248-43.628-.044-2.674-1.14-6.564 2.014-9.31.177-.155.36-.297.536-.442 7.596-6.268 24.309-19.02 31.472-22.26 7.163-3.241 19.75-8.645 25.394-10.59.27-.093 8.895-3.4 9.197-3.512 6.839-2.512 16.371-9.01 25.802-14.913 2.85-1.783 5.222-1.533 7.408.73 4.11 4.254 8.482 8.26 13.591 10.778 5.11 2.519 10.96 3.55 16.713 4.107l.869.086c6.576.667 18.943 2.276 24.961 6.615 6.599 4.758 18.448 15.344 22.356 27.446 2.667 8.264 8.547 39.081 9.113 44.954.043.417.075.832.111 1.243.316 3.362.451 7.204-.38 12.615-.785 5.117-3.03 9.761-4.865 12.36-2.135 3.025-2.99 4.04-5.601 7.349-2.022 2.563-3.632 5.219-5.412 8.814-1.298 2.622-2.098 5.678-3.25 9.515-.6 1.996-.984 4.224-1.438 6.672-2.298 12.381-6.64 33.93-6.511 48.195.217 24.638 9.137 41.707 17.797 53.812 10.2 14.265 18.231 19.882 28.868 28.745 2.75 2.292 5.48 4.553 8.392 6.78 3.169 2.426 7.437 5.332 12.714 6.133 7.49 1.135 15.377.162 23.93.162 6.755 0 8.091.737 11.068 3.078 11.64 9.16 39.977 33.269 40.484 33.778 8.615 8.626 17.154 17.81 21.049 30.465 4.124 13.4 9.334 31.769 11.72 40.414 2.386 8.646 9.142 31.943 9.55 34.796.65 4.539 2.668 10.58-1.123 10.859-5.127.378-11.708 1.435-20.695 5.01-11.669 4.64-25.258 9.853-29.403 11.147-11.07 3.458-18.45 3.889-24.962-7.997-4.378-7.99-14.84-26.34-22.345-39.148-3.658-6.242-7.146-4.698-8.583-3.104-4.776 5.294-9.984 10.914-17.255 18.587-4.469 4.71-15.194 4.643-22.246-2.057z" /> </g></g><g
       id="g8"
       inkscape:label="date"
       transform="translate(26.39625,4.4877724)"><text
         xml:space="preserve"
         style="font-style:normal;font-variant:normal;font-weight:normal;font-stretch:normal;font-size:38.1px;line-height:100%;font-family:Formula1;-inkscape-font-specification:Formula1;text-align:center;word-spacing:0px;writing-mode:lr-tb;direction:ltr;text-anchor:middle;opacity:1;fill:#ee0000;fill-opacity:1;stroke:none;stroke-width:7.83601;stroke-linecap:butt;stroke-linejoin:miter;stroke-dasharray:none;stroke-opacity:1"
         x="73.904526"
         y="296.20868"
         id="text6"
         inkscape:label="day"><tspan
           sodipodi:role="line"
           id="tspan6"
           style="font-style:normal;font-variant:normal;font-weight:500;font-stretch:normal;font-size:38.1px;font-family:Formula1;-inkscape-font-specification:'Formula1 Medium';fill:#ffffff;fill-opacity:1;stroke-width:7.836"
           x="73.904526"
           y="296.20868">14</tspan></text><g
         id="g7"
         inkscape:label="month"><rect
           style="opacity:1;fill:#ffffff;fill-opacity:1;stroke:none;stroke-width:7.83601;stroke-linecap:butt;stroke-linejoin:miter;stroke-dasharray:none;stroke-opacity:1"
           id="rect7"
           width="135.10905"
           height="57.764015"
           x="10.769562"
           y="306.44302"
           ry="23.007711" /><text
           xml:space="preserve"
           style="font-style:normal;font-variant:normal;font-weight:500;font-stretch:normal;font-size:38.1px;line-height:100%;font-family:Formula1;-inkscape-font-specification:'Formula1 Medium';text-align:center;word-spacing:0px;writing-mode:lr-tb;direction:ltr;text-anchor:middle;opacity:1;fill:#15151e;fill-opacity:1;stroke:none;stroke-width:7.83601;stroke-linecap:butt;stroke-linejoin:miter;stroke-dasharray:none;stroke-opacity:1"
           x="76.800072"
           y="349.61252"
           id="text7"
           inkscape:label="month"><tspan
             sodipodi:role="line"
             id="tspan7"
             style="fill:#15151e;fill-opacity:1;stroke-width:7.836"
             x="76.800072"
             y="349.61252">MAR</tspan></text></g></g><g transform="translate(71.964256, 72.019316) scale(0.15632884375)" inkscape:label="flag"><mask id="a"><circle cx="256" cy="256" r="256" fill="#fff"/></mask><g mask="url(#a)"><path fill="#0052b4" d="M0 0h512v512H0z"/><path fill="#eee" d="m154 300 14 30 32-8-14 30 25 20-32 7 1 33-26-21-26 21 1-33-33-7 26-20-14-30 32 8zm222-27h47l-38 27 15-44 14 44zm7-162 7 15 16-4-7 15 12 10-15 3v17l-13-11-13 11v-17l-15-3 12-10-7-15 16 4zm57 67 7 15 16-4-7 15 12 10-15 3v16l-13-10-13 11v-17l-15-3 12-10-7-15 16 4zm-122 22 7 15 16-4-7 15 12 10-15 3v16l-13-10-13 11v-17l-15-3 12-10-7-15 16 4zm65 156 7 15 16-4-7 15 12 10-15 3v17l-13-11-13 11v-17l-15-3 12-10-7-15 16 4zM0 0v32l32 32L0 96v160h32l32-32 32 32h32v-83l83 83h45l-8-16 8-15v-14l-83-83h83V96l-32-32 32-32V0H96L64 32 32 0Z"/><path fill="#d80027" d="M32 0v32H0v64h32v160h64V96h160V32H96V0Zm96 128 128 128v-31l-97-97z"/></g></g></g></svg>
