<?xml version="1.0" encoding="UTF-8" standalone="no"?>
<!-- Created with Inkscape (http://www.inkscape.org/) -->

<svg
   width="720mm"
   height="405mm"
   viewBox="0 0 720 405"
   version="1.1"
   id="svg1"
   xml:space="preserve"
   inkscape:export-xdpi="45.18441"
   inkscape:export-ydpi="45.18441"
   inkscape:version="1.4.3 (0d15f75, 2025-12-25)"
   sodipodi:docname="template.svg"
   xmlns:inkscape="http://www.inkscape.org/namespaces/inkscape"
   xmlns:sodipodi="http://sodipodi.sourceforge.net/DTD/sodipodi-0.dtd"
   xmlns="http://www.w3.org/2000/svg"
   xmlns:svg="http://www.w3.org/2000/svg"><sodipodi:namedview
     id="namedview1"
     pagecolor="#ffffff"
     bordercolor="#111111"
     borderopacity="1"
     inkscape:showpageshadow="0"
     inkscape:pageopacity="0"
     inkscape:pagecheckerboard="1"
     inkscape:deskcolor="#d1d1d1"
     inkscape:document-units="mm"
     inkscape:zoom="0.25178368"
     inkscape:cx="1312.6347"
     inkscape:cy="969.08584"
     inkscape:window-width="1710"
     inkscape:window-height="1045"
     inkscape:window-x="0"
     inkscape:window-y="62"
     inkscape:window-maximized="0"
     inkscape:current-layer="layer1" /><defs
     id="defs1"><inkscape:path-effect
       effect="fillet_chamfer"
       id="path-effect3"
       is_visible="true"
       lpeversion="1"
       nodesatellites_param="F,0,0,1,0,0,0,1 @ F,0,0,1,0,45.967641,0,1 @ F,0,0,1,0,0,0,1"
       radius="0"
       unit="px"
       method="auto"
       mode="F"
       chamfer_steps="1"
       flexible="false"
       use_knot_distance="true"
       apply_no_radius="true"
       apply_with_radius="true"
       only_selected="false"
       hide_knots="false" /><path
       d="M101.086812,30 L101.711812,30 L101.711812,27.106875 L101.722437,27.106875 L102.761812,30 L103.302437,30 L104.341812,27.106875 L104.352437,27.106875 L104.352437,30 L104.977437,30 L104.977437,26.25125 L104.063687,26.25125 L103.055562,29.18625 L103.044937,29.18625 L102.011187,26.25125 L101.086812,26.25125 L101.086812,30 Z M97.6274375,26.818125 L98.8136875,26.818125 L98.8136875,30 L99.4699375,30 L99.4699375,26.818125 L100.661812,26.818125 L100.661812,26.25125 L97.6274375,26.25125 L97.6274375,26.818125 Z M89.9999375,30 L119.999937,0 L101.943687,0 L71.9443125,30 L89.9999375,30 Z M85.6986875,13.065 L49.3818125,13.065 C38.3136875,13.065 36.3768125,13.651875 31.6361875,18.3925 C27.2024375,22.82625 20.0005625,30 20.0005625,30 L35.7324375,30 L39.4855625,26.246875 C41.9530625,23.779375 43.2255625,23.52375 48.4068125,23.52375 L75.2405625,23.52375 L85.6986875,13.065 Z M31.1518125,16.253125 C27.8774375,19.3425 20.7530625,26.263125 16.9130625,30 L-6.25e-05,30 C-6.25e-05,30 13.5524375,16.486875 21.0849375,9.0725 C28.8455625,1.685 32.7143125,0 46.9486875,0 L98.7643125,0 L87.5449375,11.21875 L48.0011875,11.21875 C37.9993125,11.21875 35.7518125,11.911875 31.1518125,16.253125 Z"
       id="path-1" /></defs><g
     inkscape:label="Layer 1"
     inkscape:groupmode="layer"
     id="layer1"><rect
       style="opacity:1;fill:#15151e;stroke:none;stroke-width:0.459853"
       id="rect1"
       width="719.54016"
       height="404.54016"
       x="0.2299265"
       y="0.2299265"
       inkscape:export-filename="../png/template.png"
       inkscape:export-xdpi="45.18441"
       inkscape:export-ydpi="45.18441"
       inkscape:label="background" /><path
       d="M 549.98062,297.49087 739.9615,107.51 H 625.61677 L 435.63984,297.49087 Z M 522.74211,190.24667 H 292.75839 c -70.09107,0 -82.35671,3.7165 -112.37764,33.73744 -28.07759,28.07759 -73.68488,73.50676 -73.68488,73.50676 h 99.62519 l 23.76739,-23.7674 c 15.62593,-15.62592 23.68429,-17.24472 56.49556,-17.24472 h 169.92997 z m -345.42876,20.18942 c -20.73562,19.56408 -65.85212,63.39029 -90.16967,87.05478 H -19.962 c 0,0 85.82387,-85.57451 133.52489,-132.52749 C 162.70857,118.18059 187.20818,107.51 277.35015,107.51 h 328.13259 l -71.04889,71.04493 H 284.01531 c -63.33882,0 -77.57156,4.38935 -106.70196,31.88116 z"
       id="Fill-1-6"
       style="fill:#201f2c;fill-opacity:1;fill-rule:evenodd;stroke:none;stroke-width:6.3327"
       sodipodi:nodetypes="ccccccssccssccccccsccsc"
       inkscape:label="logo" /><text
       xml:space="preserve"
       style="font-style:normal;font-variant:normal;font-weight:normal;font-stretch:normal;font-size:31.75px;line-height:100%;font-family:Formula1;-inkscape-font-specification:Formula1;text-align:start;word-spacing:0px;writing-mode:lr-tb;direction:ltr;text-anchor:start;opacity:1;fill:#ee0000;fill-opacity:1;stroke:none;stroke-width:0.223;stroke-opacity:1"
       x="28.402561"
       y="46.197952"
       id="text2"
       inkscape:label="round"><tspan
         sodipodi:role="line"
         style="font-style:normal;font-variant:normal;font-weight:normal;font-stretch:normal;font-size:31.75px;font-family:Formula1;-inkscape-font-specification:Formula1;fill:#ee0000;fill-opacity:1;stroke-width:0.223"
         x="28.402561"
         y="46.197952"
         id="tspan1">ROUND 18</tspan></text><path
       style="opacity:1;fill:none;fill-opacity:1;stroke:#ee0000;stroke-width:7.83601;stroke-linecap:butt;stroke-linejoin:miter;stroke-dasharray:none;stroke-opacity:1"
       d="m 187.88728,39.21919 h 456.58523 a 45.967641,45.967641 45 0 1 45.96764,45.967641 V 413.1696"
       id="path3"
       sodipodi:nodetypes="ccc"
       inkscape:path-effect="#path-effect3"
       inkscape:original-d="M 187.88728,39.21919 H 690.44015 V 413.1696"
       transform="matrix(0.86982237,0,0,1.0007021,74.217474,3.230212)" /><g
       id="g10"
       transform="translate(1.3716371)"
       inkscape:label="info"><text
         xml:space="preserve"
         style="font-style:normal;font-variant:normal;font-weight:normal;font-stretch:normal;font-size:44.9794px;line-height:100%;font-family:Formula1;-inkscape-font-specification:Formula1;text-align:start;word-spacing:0px;writing-mode:lr-tb;direction:ltr;text-anchor:start;opacity:1;fill:#ffffff;fill-opacity:1;stroke:none;stroke-width:7.83604;stroke-linecap:butt;stroke-linejoin:miter;stroke-dasharray:none;stroke-opacity:1"
         x="205.8817"
         y="110.78199"
         id="text3"
         inkscape:label="location"><tspan
           sodipodi:role="line"
           id="tspan3"
           style="font-style:normal;font-variant:normal;font-weight:500;font-stretch:normal;font-size:44.9794px;font-family:Formula1;-inkscape-font-specification:'Formula1 Medium';stroke:none;stroke-width:7.83603"
           x="205.8817"
           y="110.78199">SINGAPORE</tspan></text><text
         xml:space="preserve"
         style="font-style:normal;font-variant:normal;font-weight:500;font-stretch:normal;font-size:26.4583px;line-height:100%;font-family:Formula1;-inkscape-font-specification:'Formula1 Medium';text-align:start;word-spacing:0px;writing-mode:lr-tb;direction:ltr;text-anchor:start;opacity:1;fill:#ffffff;fill-opacity:1;stroke:none;stroke-width:7.83601;stroke-linecap:butt;stroke-linejoin:miter;stroke-dasharray:none;stroke-opacity:1"
         x="204.55881"
         y="147.57129"
         id="text4"
         inkscape:label="session"><tspan
           sodipodi:role="line"
           id="tspan4"
           style="font-style:normal;font-variant:normal;font-weight:normal;font-stretch:normal;font-size:26.4583px;font-family:Formula1;-inkscape-font-specification:Formula1;fill:#ee0000;fill-opacity:1;stroke-width:7.836"
           x="204.55881"
           y="147.57129">QUALIFYING</tspan></text></g><g
       id="g3"
       inkscape:label="track"><text
         xml:space="preserve"
         style="font-style:normal;font-variant:normal;font-weight:normal;font-stretch:normal;font-size:19.0503px;line-height:100%;font-family:Formula1;-inkscape-font-specification:Formula1;text-align:center;word-spacing:0px;writing-mode:lr-tb;direction:ltr;text-anchor:middle;opacity:1;fill:#ee0000;fill-opacity:1;stroke:none;stroke-width:7.83615;stroke-linecap:butt;stroke-linejoin:miter;stroke-dasharray:none;stroke-opacity:1"
         x="436.95758"
         y="385.74637"
         id="text5"
         inkscape:label="track-name"><tspan
           sodipodi:role="line"
           id="tspan5"
           style="font-size:19.0503px;stroke-width:7.83614"
           x="436.95758"
           y="385.74637">Marina Bay Street Circuit</tspan></text><g inkscape:label="embedded-track" transform=" translate(273.8170104620706, 96.29017109164674) scale(0.650597321214402) rotate(0, 250.02131769356666, 250.04910242282145) " > <path style="fill: none; stroke: #fff; stroke-width: 20; stroke-linejoin: round; stroke-dasharray: none; stroke-opacity: 1;" d="M461.432 325.308c3.546.215 6.228-.46 8.285-3.467 2.658-3.883 10.644-15.694 13.506-20.689 2.248-3.924 1.906-8.228 1.362-12.25-.547-4.022-21.779-162.674-22.394-167.042-.55-3.905-2.982-6.455-8.02-5.625-5.037.832-10.535.682-15.509-2.08-5.826-3.236-7.566-5.548-9.382-9.324-2.012-4.185-5.031-6.738-7.791-6.78-4.919-.079-7.416 3.389-7.87 6.78-.944 7.05-1.516 14.7-1.89 19.263-.454 5.547.59 16.212 1.816 20.65 1.226 4.438 6.726 21.596 9.38 32.207 2.657 10.608 5.068 21.644 6.355 28.2 1.816 9.246-5.447 26.66-19.82 25.58-16.56-1.243-96.96-6.878-104.994-7.571-7.76-.67-17.023-1.387-24.511-4.784-9.874-4.479-92.876-54.296-99.618-58.388-4.267-2.589-5.307-2.724-7.762 1.528-11.374 19.692-20.682 35.827-31.12 56.305-1.838 3.606-3.541 4.266-6.334 1.284-4.19-4.477-26.419-27.808-32.683-34.534-5.78-6.204-20.57-6.21-25.67 4.612-6.504 13.799-56.755 104.28-59.206 108.974-1.382 2.644-2.983 6.481-2.427 10.392.47 3.318 2.756 6.781 5.287 8.641 3.575 2.63 8.469 6.402 12.552 9.457 2.35 1.759 5.615 2.859 10.003 3.783 3.281.692 4.549 2.145 4.69 10.942.077 4.74.304 10.324.304 14.178 0 5.64 3.442 6.28 6.278 8.59 8.916 7.264 16.457 13.176 21.79 17.106 1.07.79 6.672 4.662 8.285 7.396 3.404 5.78 5.447 8.784 7.15 11.096 2.722 3.694 7.75 2.688 8.625-2.08 1.93-10.519 14.526-87.49 17.477-105.29.646-3.9 2.514-10.388 3.065-11.788.098-.25 17.789-43.744 18.355-45.218.646-1.68 1.17-2.659 1.277-2.918 1.153-2.766 3.802-3.986 7.49-.75 5.372 4.713 45.155 39.55 51.182 44.959 5.529 4.963 13.647 8.282 20.848 8.815 2.986.222 39.063 1.437 74.063 3.358 33.248 1.827 65.538 4.368 67.03 4.47 3.065.208 6.169 2.43 6.129 6.819-.115 12.367 4.653 19.533 14.98 20.457 5.903.526 74.874 4.459 79.437 4.736z" /> <path style="fill: none; stroke: #000; stroke-width: 5; stroke-linejoin: round; stroke-dasharray: none; stroke-opacity: 1;" d="M461.432 325.308c3.546.215 6.228-.46 8.285-3.467 2.658-3.883 10.644-15.694 13.506-20.689 2.248-3.924 1.906-8.228 1.362-12.25-.547-4.022-21.779-162.674-22.394-167.042-.55-3.905-2.982-6.455-8.02-5.625-5.037.832-10.535.682-15.509-2.08-5.826-3.236-7.566-5.548-9.382-9.324-2.012-4.185-5.031-6.738-7.791-6.78-4.919-.079-7.416 3.389-7.87 6.78-.944 7.05-1.516 14.7-1.89 19.263-.454 5.547.59 16.212 1.816 20.65 1.226 4.438 6.726 21.596 9.38 32.207 2.657 10.608 5.068 21.644 6.355 28.2 1.816 9.246-5.447 26.66-19.82 25.58-16.56-1.243-96.96-6.878-104.994-7.571-7.76-.67-17.023-1.387-24.511-4.784-9.874-4.479-92.876-54.296-99.618-58.388-4.267-2.589-5.307-2.724-7.762 1.528-11.374 19.692-20.682 35.827-31.12 56.305-1.838 3.606-3.541 4.266-6.334 1.284-4.19-4.477-26.419-27.808-32.683-34.534-5.78-6.204-20.57-6.21-25.67 4.612-6.504 13.799-56.755 104.28-59.206 108.974-1.382 2.644-2.983 6.481-2.427 10.392.47 3.318 2.756 6.781 5.287 8.641 3.575 2.63 8.469 6.402 12.552 9.457 2.35 1.759 5.615 2.859 10.003 3.783 3.281.692 4.549 2.145 4.69 10.942.077 4.74.304 10.324.304 14.178 0 5.64 3.442 6.28 6.278 8.59 8.916 7.264 16.457 13.176 21.79 17.106 1.07.79 6.672 4.662 8.285 7.396 3.404 5.78 5.447 8.784 7.15 11.096 2.722 3.694 7.75 2.688 8.625-2.08 1.93-10.519 14.526-87.49 17.477-105.29.646-3.9 2.514-10.388 3.065-11.788.098-.25 17.789-43.744 18.355-45.218.646-1.68 1.17-2.659 1.277-2.918 1.153-2.766 3.802-3.986 7.49-.75 5.372 4.713 45.155 39.55 51.182 44.959 5.529 4.963 13.647 8.282 20.848 8.815 2.986.222 39.063 1.437 74.063 3.358 33.248 1.827 65.538 4.368 67.03 4.47 3.065.208 6.169 2.43 6.129 6.819-.115 12.367 4.653 19.533 14.98 20.457 5.903.526 74.874 4.459 79.437 4.736z" /> </g></g><g
       id="g8"
       inkscape:label="date"
       transform="translate(26.39625,4.4877724)"><text
         xml:space="preserve"
         style="font-style:normal;font-variant:normal;font-weight:normal;font-stretch:normal;font-size:38.1px;line-height:100%;font-family:Formula1;-inkscape-font-specification:Formula1;text-align:center;word-spacing:0px;writing-mode:lr-tb;direction:ltr;text-anchor:middle;opacity:1;fill:#ee0000;fill-opacity:1;stroke:none;stroke-width:7.83601;stroke-linecap:butt;stroke-linejoin:miter;stroke-dasharray:none;stroke-opacity:1"
         x="73.904526"
         y="296.20868"
         id="text6"
         inkscape:label="day"><tspan
           sodipodi:role="line"
           id="tspan6"
           style="font-style:normal;font-variant:normal;font-weight:500;font-stretch:normal;font-size:38.1px;font-family:Formula1;-inkscape-font-specification:'Formula1 Medium';fill:#ffffff;fill-opacity:1;stroke-width:7.836"
           x="73.904526"
           y="296.20868">10</tspan></text><g
         id="g7"
         inkscape:label="month"><rect
           style="opacity:1;fill:#ffffff;fill-opacity:1;stroke:none;stroke-width:7.83601;stroke-linecap:butt;stroke-linejoin:miter;stroke-dasharray:none;stroke-opacity:1"
           id="rect7"
           width="135.10905"
           height="57.764015"
           x="10.769562"
           y="306.44302"
           ry="23.007711" /><text
           xml:space="preserve"
           style="font-style:normal;font-variant:normal;font-weight:500;font-stretch:normal;font-size:38.1px;line-height:100%;font-family:Formula1;-inkscape-font-specification:'Formula1 Medium';text-align:center;word-spacing:0px;writing-mode:lr-tb;direction:ltr;text-anchor:middle;opacity:1;fill:#15151e;fill-opacity:1;stroke:none;stroke-width:7.83601;stroke-linecap:butt;stroke-linejoin:miter;stroke-dasharray:none;stroke-opacity:1"
           x="76.800072"
           y="349.61252"
           id="text7"
           inkscape:label="month"><tspan
             sodipodi:role="line"
             id="tspan7"
             style="fill:#15151e;fill-opacity:1;stroke-width:7.836"
             x="76.800072"
             y="349.61252">OCT</tspan></text></g></g><g transform="translate(71.964256, 72.019316) scale(0.15632884375)" inkscape:label="flag"><mask id="a"><circle cx="256" cy="256" r="256" fill="#fff"/></mask><g mask="url(#a)"><path fill="#d80027" d="M0 0h512v256l-256 32L0 256Z"/><path fill="#eee" d="M200 56a78 78 0 1 0 17 154 78 78 0 0 1 0-152q-8-2-17-2m56 5-5 17h-18l14 11-5 17 14-11 15 11-6-17 15-11h-18zm-43 34-6 17h-18l15 10-6 17 15-10 14 10-5-17 14-10h-18zm86 0-5 17h-18l14 10-5 17 14-10 15 10-6-17 15-10h-18zm-70 50-5 17h-18l14 10-5 17 14-10 15 10-6-17 15-10h-18zm54 0-6 17h-18l15 10-6 17 15-10 14 10-5-17 14-10h-18ZM0 256v256h512V256Z"/></g></g></g></svg>
