<?xml version="1.0" encoding="UTF-8" standalone="no"?>
<!-- Created with Inkscape (http://www.inkscape.org/) -->

<svg
   width="680mm"
   height="1000mm"
   viewBox="0 0 680 1000"
   version="1.1"
   id="svg1"
   inkscape:version="1.4.3 (0d15f75, 2025-12-25)"
   sodipodi:docname="template.svg"
   xmlns:inkscape="http://www.inkscape.org/namespaces/inkscape"
   xmlns:sodipodi="http://sodipodi.sourceforge.net/DTD/sodipodi-0.dtd"
   xmlns="http://www.w3.org/2000/svg"
   xmlns:svg="http://www.w3.org/2000/svg">
  <sodipodi:namedview
     id="namedview1"
     pagecolor="#505050"
     bordercolor="#eeeeee"
     borderopacity="1"
     inkscape:showpageshadow="0"
     inkscape:pageopacity="0"
     inkscape:pagecheckerboard="0"
     inkscape:deskcolor="#505050"
     inkscape:document-units="mm"
     inkscape:zoom="0.15208656"
     inkscape:cx="706.83434"
     inkscape:cy="2406.5243"
     inkscape:window-width="1710"
     inkscape:window-height="1045"
     inkscape:window-x="0"
     inkscape:window-y="62"
     inkscape:window-maximized="0"
     inkscape:current-layer="layer1" />
  <defs
     id="defs1">
    <inkscape:path-effect
       effect="fillet_chamfer"
       id="path-effect4"
       is_visible="true"
       lpeversion="1"
       nodesatellites_param="F,0,0,1,0,0,0,1 @ F,0,0,1,0,75,0,1 @ F,0,0,1,0,75,0,1 @ F,0,0,1,0,0,0,1"
       radius="0"
       unit="px"
       method="auto"
       mode="F"
       chamfer_steps="1"
       flexible="false"
       use_knot_distance="true"
       apply_no_radius="true"
       apply_with_radius="true"
       only_selected="false"
       hide_knots="false" />
    <inkscape:path-effect
       effect="fillet_chamfer"
       id="path-effect2"
       is_visible="true"
       lpeversion="1"
       nodesatellites_param="F,0,0,1,0,0,0,1 @ F,0,0,1,0,0,0,1 @ F,0,0,1,0,0,0,1 @ F,0,0,1,0,0,0,1"
       radius="0"
       unit="px"
       method="auto"
       mode="F"
       chamfer_steps="1"
       flexible="false"
       use_knot_distance="true"
       apply_no_radius="true"
       apply_with_radius="true"
       only_selected="false"
       hide_knots="false" />
    <inkscape:path-effect
       effect="fillet_chamfer"
       id="path-effect3"
       is_visible="true"
       lpeversion="1"
       nodesatellites_param="F,0,0,1,0,0,0,1 @ F,0,0,1,0,45.967641,0,1 @ F,0,0,1,0,0,0,1"
       radius="0"
       unit="px"
       method="auto"
       mode="F"
       chamfer_steps="1"
       flexible="false"
       use_knot_distance="true"
       apply_no_radius="true"
       apply_with_radius="true"
       only_selected="false"
       hide_knots="false" />
  </defs>
  <g
     inkscape:label="Layer 1"
     inkscape:groupmode="layer"
     id="layer1">
    <rect
       style="fill:#15151e;fill-opacity:1;stroke-width:0.653077"
       id="rect1"
       width="680"
       height="1000"
       x="-1.4210855e-14"
       y="0"
       ry="2.0972002"
       inkscape:label="background"
       sodipodi:insensitive="true" />
    <path
       d="M 89.999938,30 119.99994,0 H 101.94369 L 71.944312,30 Z M 85.698688,13.065 H 49.381813 c -11.068126,0 -13.005001,0.586875 -17.745626,5.3275 C 27.202437,22.82625 20.000562,30 20.000562,30 h 15.731876 l 3.753124,-3.753125 c 2.467501,-2.4675 3.740001,-2.723125 8.92125,-2.723125 h 26.83375 z M 31.151812,16.253125 C 27.877437,19.3425 20.753062,26.263125 16.913062,30 H -6.25e-5 c 0,0 13.5525005,-13.513125 21.0849995,-20.9275 C 28.845562,1.685 32.714312,0 46.948687,0 H 98.764313 L 87.544938,11.21875 H 48.001187 c -10.001874,0 -12.249375,0.693125 -16.849375,5.034375 z"
       id="Fill-1"
       style="fill:#201f2c;fill-rule:evenodd;stroke:none;stroke-width:1;fill-opacity:1"
       sodipodi:nodetypes="ccccccssccssccccccsccsc"
       inkscape:label="logo"
       transform="matrix(6.3326957,0,0,6.3326957,-39.961349,401.1145)" />
    <text
       xml:space="preserve"
       style="font-style:normal;font-variant:normal;font-weight:normal;font-stretch:normal;font-size:50.8px;line-height:100%;font-family:Formula1;-inkscape-font-specification:Formula1;text-align:start;word-spacing:0px;writing-mode:lr-tb;direction:ltr;text-anchor:start;opacity:1;fill:#ee0000;fill-opacity:1;stroke:none;stroke-width:0.223;stroke-opacity:1"
       x="21.697973"
       y="63.709557"
       id="text2"
       inkscape:label="round"><tspan
         sodipodi:role="line"
         style="font-style:normal;font-variant:normal;font-weight:normal;font-stretch:normal;font-size:50.8px;font-family:Formula1;-inkscape-font-specification:Formula1;fill:#ee0000;fill-opacity:1;stroke-width:0.223"
         x="21.697973"
         y="63.709557"
         id="tspan1">ROUND 21</tspan></text>
    <path
       style="display:inline;fill:none;fill-opacity:1;stroke:#ee0000;stroke-width:15;stroke-dasharray:none;stroke-opacity:1"
       d="M 352.06858,56.213936 H 580 a 75,75 45 0 1 75,75.000004 V 900 a 75,75 135 0 1 -75,75 H 0"
       id="path1"
       sodipodi:nodetypes="cccc"
       inkscape:path-effect="#path-effect4"
       inkscape:original-d="M 352.06858,56.213936 H 655 V 975 H 0" />
    <g
       id="g10"
       transform="translate(-61.769566,39.315292)"
       inkscape:label="info"
       style="display:inline">
      <g
         id="g9"
         transform="translate(0,-0.2293034)">
        
        <text
           xml:space="preserve"
           style="font-style:normal;font-variant:normal;font-weight:normal;font-stretch:normal;font-size:52.9167px;line-height:100%;font-family:Formula1;-inkscape-font-specification:Formula1;text-align:start;word-spacing:0px;writing-mode:lr-tb;direction:ltr;text-anchor:start;opacity:1;fill:#ffffff;fill-opacity:1;stroke:none;stroke-width:7.83601;stroke-linecap:butt;stroke-linejoin:miter;stroke-dasharray:none;stroke-opacity:1"
           x="206.93063"
           y="110.78185"
           id="text3"
           inkscape:label="location"><tspan
             sodipodi:role="line"
             id="tspan3"
             style="font-style:normal;font-variant:normal;font-weight:normal;font-stretch:normal;font-size:52.9167px;font-family:Formula1;-inkscape-font-specification:Formula1;stroke:none;stroke-width:7.836"
             x="206.93063"
             y="110.78185">BRAZIL</tspan></text>
        <text
           xml:space="preserve"
           style="font-style:normal;font-variant:normal;font-weight:normal;font-stretch:normal;font-size:35.2778px;line-height:100%;font-family:Formula1;-inkscape-font-specification:Formula1;text-align:start;word-spacing:0px;writing-mode:lr-tb;direction:ltr;text-anchor:start;opacity:1;fill:#ffffff;fill-opacity:1;stroke:none;stroke-width:7.83601;stroke-linecap:butt;stroke-linejoin:miter;stroke-dasharray:none;stroke-opacity:1"
           x="205.16676"
           y="151.7265"
           id="text4"
           inkscape:label="session"><tspan
             sodipodi:role="line"
             id="tspan4"
             style="font-style:normal;font-variant:normal;font-weight:normal;font-stretch:normal;font-size:35.2778px;font-family:Formula1;-inkscape-font-specification:Formula1;fill:#ee0000;fill-opacity:1;stroke-width:7.836"
             x="205.16676"
             y="151.7265">PRACTICE 03</tspan></text>
      </g>
      <g transform="translate(86.769573, 60.684713) scale(0.19690717578125)" inkscape:label="flag"><mask id="a"><circle cx="256" cy="256" r="256" fill="#fff"/></mask><g mask="url(#a)"><path fill="#6da544" d="M0 0h512v512H0z"/><path fill="#ffda44" d="M256 100.2 467.5 256 256 411.8 44.5 256z"/><path fill="#eee" d="M174.2 221a87 87 0 0 0-7.2 36.3l162 49.8a88.5 88.5 0 0 0 14.4-34c-40.6-65.3-119.7-80.3-169.1-52z"/><path fill="#0052b4" d="M255.7 167a89 89 0 0 0-41.9 10.6 89 89 0 0 0-39.6 43.4 181.7 181.7 0 0 1 169.1 52.2 89 89 0 0 0-9-59.4 89 89 0 0 0-78.6-46.8zM212 250.5a149 149 0 0 0-45 6.8 89 89 0 0 0 10.5 40.9 89 89 0 0 0 120.6 36.2 89 89 0 0 0 30.7-27.3A151 151 0 0 0 212 250.5z"/></g></g>
    </g>
    <g
       id="g8"
       inkscape:label="date"
       transform="translate(308.90368,536.87111)"
       style="display:inline">
      <text
         xml:space="preserve"
         style="font-style:normal;font-variant:normal;font-weight:normal;font-stretch:normal;font-size:88.1944px;line-height:100%;font-family:Formula1;-inkscape-font-specification:Formula1;text-align:center;word-spacing:0px;writing-mode:lr-tb;direction:ltr;text-anchor:middle;display:inline;opacity:1;fill:#ee0000;fill-opacity:1;stroke:none;stroke-width:7.83601;stroke-linecap:butt;stroke-linejoin:miter;stroke-dasharray:none;stroke-opacity:1"
         x="-122.88599"
         y="362.8576"
         id="text6"
         inkscape:label="day"><tspan
           sodipodi:role="line"
           id="tspan6"
           style="font-style:normal;font-variant:normal;font-weight:normal;font-stretch:normal;font-size:88.1944px;font-family:Formula1;-inkscape-font-specification:Formula1;fill:#ffffff;fill-opacity:1;stroke-width:7.836"
           x="-122.88599"
           y="362.8576">07</tspan></text>
      <g
         id="g7"
         inkscape:label="month"
         transform="translate(34.626847,5.5402955)"
         style="display:inline">
        <rect
           style="display:inline;opacity:1;fill:#ffffff;fill-opacity:1;stroke:none;stroke-width:16.1904;stroke-linecap:butt;stroke-linejoin:miter;stroke-dasharray:none;stroke-opacity:1"
           id="rect7"
           width="279.15674"
           height="119.34962"
           x="-59.869205"
           y="264.56961"
           ry="47.537582" />
        <text
           xml:space="preserve"
           style="font-style:normal;font-variant:normal;font-weight:normal;font-stretch:normal;font-size:88.1944px;line-height:100%;font-family:Formula1;-inkscape-font-specification:Formula1;text-align:center;word-spacing:0px;writing-mode:lr-tb;direction:ltr;text-anchor:middle;display:inline;opacity:1;fill:#15151e;fill-opacity:1;stroke:none;stroke-width:7.83601;stroke-linecap:butt;stroke-linejoin:miter;stroke-dasharray:none;stroke-opacity:1"
           x="78.165771"
           y="357.31732"
           id="text7"
           inkscape:label="month"><tspan
             sodipodi:role="line"
             id="tspan7"
             style="font-style:normal;font-variant:normal;font-weight:normal;font-stretch:normal;font-size:88.1944px;font-family:Formula1;-inkscape-font-specification:Formula1;fill:#15151e;fill-opacity:1;stroke-width:7.836"
             x="78.165771"
             y="357.31732">NOV</tspan></text>
      </g>
    </g>
    <g
       id="g3"
       inkscape:label="track"
       transform="matrix(1.2571293,0,0,1.2571293,-208.71205,272.34527)"
       style="display:inline">
      
      <text
         xml:space="preserve"
         style="font-style:normal;font-variant:normal;font-weight:normal;font-stretch:normal;font-size:25.8172px;line-height:100%;font-family:Formula1;-inkscape-font-specification:Formula1;text-align:center;word-spacing:0px;writing-mode:lr-tb;direction:ltr;text-anchor:middle;display:inline;opacity:1;fill:#ee0000;fill-opacity:1;stroke:none;stroke-width:7.83601;stroke-linecap:butt;stroke-linejoin:miter;stroke-dasharray:none;stroke-opacity:1"
         x="436.95645"
         y="394.58563"
         id="text5"
         inkscape:label="track-name"><tspan
           sodipodi:role="line"
           id="tspan5"
           style="font-style:normal;font-variant:normal;font-weight:normal;font-stretch:normal;font-size:25.8172px;font-family:Formula1;-inkscape-font-specification:Formula1;stroke-width:7.836"
           x="436.95645"
           y="394.58563">Autódromo José Carlos Pace</tspan></text>
      <g inkscape:label="embedded-track" transform=" translate(273.98051509413705, 96.49129903532815) scale(0.6500546716294168) rotate(90, 249.9785048825874, 249.94843565603745) " > <path style="fill: none; stroke: #fff; stroke-width: 20; stroke-linejoin: round; stroke-dasharray: none; stroke-opacity: 1;" d="M216.38 19.757c-17.923 4.414-27.502 8.15-29.356 9.005-18.27 8.424-32.89 17.454-41.726 25.47-11.632 10.552-16.108 21.908-19.57 36.02-4.061 16.556-16.797 66.138-24.74 100.06-3.879 16.555-4.247 36.566-.185 54.032 3.524 15.153 37.757 148.06 49.417 194.762 1.78 7.131 2.858 12.295 3.572 14.637 8.863 29.109 24.428 39.214 37.388 24.74 8.308-9.274 18.861-24.656 28.248-16.462 19.385 16.917 45.557 20.194 66.374 12.915 21.845-7.637 33.093-22.602 38.726-34.564 4.023-8.55 6.926-21.201 8.912-28.198 6.46-22.788 58.489-213.536 68.181-249.148 2.697-9.903-6.611-23.196-20.735-26.199-14.069-2.988-16.616-3.274-33.787-6.003-33.892-5.386-48.923 19.7-55.18 27.97-17.862 23.606-59.473 79.48-73.875 99.81-7.299 10.304-12.254 15.556-18.693 19.171-6.871 3.86-11.492 4.98-18.693 5.457-15.733 1.045-43.48-8.05-47.171-28.154-.778-4.232-1.627-8.452-2.374-12.605-2.733-15.174-4.86-29.288-6.119-37.97-2.03-14.008 11.078-22.014 29.17-6.55 13.644 11.663 27.325 9.64 34.34-3.458 5.474-10.222 3.693-17.099-3.325-24.377-9.62-9.98-22.155-22.559-26.586-27.473-3.537-3.923-7.569-10.732-9.232-16.737-1.486-5.368-5.17-19.466-7.568-29.835-1.978-8.542 12.737-17.465 20.677-7.46 9.464 11.93 18.92 22.85 29.54 32.567 20.68 18.92 52.023 22.238 74.591-13.463 21.538-34.077 30.701-48.147 36.584-58.697 2.926-5.25.988-16.44-7.043-19.441-17.76-6.638-20.77-7.914-36.555-12.28-16.496-4.56-24.376-2.182-43.207 2.458z" /> <path style="fill: none; stroke: #000; stroke-width: 5; stroke-linejoin: round; stroke-dasharray: none; stroke-opacity: 1;" d="M216.38 19.757c-17.923 4.414-27.502 8.15-29.356 9.005-18.27 8.424-32.89 17.454-41.726 25.47-11.632 10.552-16.108 21.908-19.57 36.02-4.061 16.556-16.797 66.138-24.74 100.06-3.879 16.555-4.247 36.566-.185 54.032 3.524 15.153 37.757 148.06 49.417 194.762 1.78 7.131 2.858 12.295 3.572 14.637 8.863 29.109 24.428 39.214 37.388 24.74 8.308-9.274 18.861-24.656 28.248-16.462 19.385 16.917 45.557 20.194 66.374 12.915 21.845-7.637 33.093-22.602 38.726-34.564 4.023-8.55 6.926-21.201 8.912-28.198 6.46-22.788 58.489-213.536 68.181-249.148 2.697-9.903-6.611-23.196-20.735-26.199-14.069-2.988-16.616-3.274-33.787-6.003-33.892-5.386-48.923 19.7-55.18 27.97-17.862 23.606-59.473 79.48-73.875 99.81-7.299 10.304-12.254 15.556-18.693 19.171-6.871 3.86-11.492 4.98-18.693 5.457-15.733 1.045-43.48-8.05-47.171-28.154-.778-4.232-1.627-8.452-2.374-12.605-2.733-15.174-4.86-29.288-6.119-37.97-2.03-14.008 11.078-22.014 29.17-6.55 13.644 11.663 27.325 9.64 34.34-3.458 5.474-10.222 3.693-17.099-3.325-24.377-9.62-9.98-22.155-22.559-26.586-27.473-3.537-3.923-7.569-10.732-9.232-16.737-1.486-5.368-5.17-19.466-7.568-29.835-1.978-8.542 12.737-17.465 20.677-7.46 9.464 11.93 18.92 22.85 29.54 32.567 20.68 18.92 52.023 22.238 74.591-13.463 21.538-34.077 30.701-48.147 36.584-58.697 2.926-5.25.988-16.44-7.043-19.441-17.76-6.638-20.77-7.914-36.555-12.28-16.496-4.56-24.376-2.182-43.207 2.458z" /> </g>
    </g>
    <text
       xml:space="preserve"
       style="font-size:202.494px;writing-mode:lr-tb;direction:ltr;display:inline;fill:none;fill-opacity:1;stroke:#ee0000;stroke-width:14.7;stroke-dasharray:none;stroke-opacity:1"
       x="48.206333"
       y="403.4614"
       id="text8"
       inkscape:label="year"><tspan
         sodipodi:role="line"
         id="tspan8"
         style="font-style:normal;font-variant:normal;font-weight:normal;font-stretch:normal;font-size:202.494px;font-family:Formula1;-inkscape-font-specification:Formula1;fill:#000000;fill-opacity:1;stroke:#ffffff;stroke-width:14.7;stroke-dasharray:none;stroke-opacity:1"
         x="48.206333"
         y="403.4614">2026</tspan></text>
  </g>
</svg>
