<?xml version="1.0" encoding="UTF-8" standalone="no"?>
<!-- Created with Inkscape (http://www.inkscape.org/) -->

<svg
   width="1000mm"
   height="185mm"
   viewBox="0 0 1000 185"
   version="1.1"
   id="svg1"
   inkscape:version="1.4.3 (0d15f75, 2025-12-25)"
   sodipodi:docname="template.csv"
   xmlns:inkscape="http://www.inkscape.org/namespaces/inkscape"
   xmlns:sodipodi="http://sodipodi.sourceforge.net/DTD/sodipodi-0.dtd"
   xmlns="http://www.w3.org/2000/svg"
   xmlns:svg="http://www.w3.org/2000/svg">
  <sodipodi:namedview
     id="namedview1"
     pagecolor="#505050"
     bordercolor="#eeeeee"
     borderopacity="1"
     inkscape:showpageshadow="0"
     inkscape:pageopacity="0"
     inkscape:pagecheckerboard="0"
     inkscape:deskcolor="#505050"
     inkscape:document-units="mm"
     inkscape:zoom="0.1227161"
     inkscape:cx="1295.6735"
     inkscape:cy="774.14452"
     inkscape:window-width="1710"
     inkscape:window-height="1045"
     inkscape:window-x="0"
     inkscape:window-y="62"
     inkscape:window-maximized="0"
     inkscape:current-layer="g9" />
  <defs
     id="defs1">
    <inkscape:path-effect
       effect="fillet_chamfer"
       id="path-effect4"
       is_visible="true"
       lpeversion="1"
       nodesatellites_param="F,0,0,1,0,0,0,1 @ F,0,0,1,0,75,0,1 @ F,0,0,1,0,75,0,1 @ F,0,0,1,0,0,0,1"
       radius="0"
       unit="px"
       method="auto"
       mode="F"
       chamfer_steps="1"
       flexible="false"
       use_knot_distance="true"
       apply_no_radius="true"
       apply_with_radius="true"
       only_selected="false"
       hide_knots="false" />
  </defs>
  <g
     inkscape:label="Layer 1"
     inkscape:groupmode="layer"
     id="layer1">
    <rect
       style="fill:#15151e;fill-opacity:1;stroke-width:0.34064"
       id="rect1"
       width="1000"
       height="185"
       x="0"
       y="0"
       ry="0.38798204"
       inkscape:label="background"
       sodipodi:insensitive="true" />
    <path
       d="M 762.49994,223.75 1025,-38.75 H 867.00776 l -262.4945,262.5 z M 724.86402,75.56875 H 407.09139 c -96.84612,0 -113.79379,5.135144 -155.27422,46.61563 C 213.02187,160.9797 150.00544,223.75 150.00544,223.75 h 137.65391 l 32.83983,-32.83984 C 342.08982,169.31951 353.2242,167.0828 398.56014,167.0828 H 633.35539 Z M 247.5789,103.46481 C 218.92812,130.49687 156.58981,191.05233 122.9898,223.75 H -25 c 0,0 118.58434,-118.23983 184.49374,-183.115632 C 227.39921,-24.006257 261.25076,-38.75 385.80153,-38.75 H 839.18822 L 741.01871,59.414059 H 395.01089 c -87.51638,0 -107.18202,6.064842 -147.43199,44.050751 z"
       id="Fill-1"
       style="fill:#201f2c;fill-opacity:1;fill-rule:evenodd;stroke:none;stroke-width:8.75"
       sodipodi:nodetypes="ccccccssccssccccccsccsc"
       inkscape:label="logo" />
    <path
       style="fill:none;stroke:#ee0000;stroke-width:15;stroke-dasharray:none;stroke-opacity:1"
       d="M 942.5,0 V 185"
       id="path1" />
    <g
       id="g10"
       transform="translate(43.405424,-18.592949)"
       inkscape:label="info"
       style="display:inline">
      <g
         id="g9"
         transform="translate(-30.33605,-0.22930279)">
        
        <text
           xml:space="preserve"
           style="font-style:normal;font-variant:normal;font-weight:normal;font-stretch:normal;font-size:52.9167px;line-height:100%;font-family:Formula1;-inkscape-font-specification:Formula1;text-align:start;word-spacing:0px;writing-mode:lr-tb;direction:ltr;text-anchor:start;opacity:1;fill:#ffffff;fill-opacity:1;stroke:none;stroke-width:7.83601;stroke-linecap:butt;stroke-linejoin:miter;stroke-dasharray:none;stroke-opacity:1"
           x="206.93063"
           y="99.14473"
           id="text3"
           inkscape:label="location"><tspan
             sodipodi:role="line"
             id="tspan3"
             style="font-style:normal;font-variant:normal;font-weight:normal;font-stretch:normal;font-size:52.9167px;font-family:Formula1;-inkscape-font-specification:Formula1;stroke:none;stroke-width:7.836"
             x="206.93063"
             y="99.14473">SAUDI ARABIA</tspan></text>
        
        <text
           xml:space="preserve"
           style="font-style:normal;font-variant:normal;font-weight:normal;font-stretch:normal;font-size:35.2778px;line-height:100%;font-family:Formula1;-inkscape-font-specification:Formula1;text-align:start;word-spacing:0px;writing-mode:lr-tb;direction:ltr;text-anchor:start;opacity:1;fill:#ffffff;fill-opacity:1;stroke:none;stroke-width:7.83601;stroke-linecap:butt;stroke-linejoin:miter;stroke-dasharray:none;stroke-opacity:1"
           x="204.63754"
           y="135.32277"
           id="text4"
           inkscape:label="full-name"><tspan
             sodipodi:role="line"
             id="tspan4"
             style="font-style:normal;font-variant:normal;font-weight:normal;font-stretch:normal;font-size:35.2778px;font-family:Formula1;-inkscape-font-specification:Formula1;fill:#ee0000;fill-opacity:1;stroke-width:7.836"
             x="204.63754"
             y="135.32277">SAUDI ARABIAN GRAND PRIX</tspan></text>
        
        <text
           xml:space="preserve"
           style="font-style:normal;font-variant:normal;font-weight:normal;font-stretch:normal;font-size:26.4581px;line-height:100%;font-family:Formula1;-inkscape-font-specification:Formula1;text-align:start;word-spacing:0px;writing-mode:lr-tb;direction:ltr;text-anchor:start;opacity:1;fill:#ffffff;fill-opacity:1;stroke:none;stroke-width:7.83594;stroke-linecap:butt;stroke-linejoin:miter;stroke-dasharray:none;stroke-opacity:1"
           x="206.26918"
           y="163.4783"
           id="text1"
           inkscape:label="track-name"><tspan
             sodipodi:role="line"
             id="tspan1"
             style="font-style:normal;font-variant:normal;font-weight:normal;font-stretch:normal;font-size:26.4581px;font-family:Formula1;-inkscape-font-specification:Formula1;fill:#ee0000;fill-opacity:1;stroke-width:7.83593"
             x="206.26918"
             y="163.4783">Jeddah Corniche Circuit</tspan></text>
      </g>
      <g transform="translate(6.594573999999994, 36.09295) scale(0.29296875)" inkscape:label="flag"><mask id="a"><circle cx="256" cy="256" r="256" fill="#fff"/></mask><g mask="url(#a)"><path fill="#496e2d" d="M0 0h512v512H0Z"/><path fill="#eee" d="M336 356v16H128l24 24h184v16h16v-16h32v-24h-32v-16zM131.4 174v41.4h-15.8v-26.7H97.8q-6.3 0-10.8 2.3a15 15 0 0 0-6.7 6.4 22 22 0 0 0-2.3 10.5q0 6 2.3 10.3 2.3 4 6.7 6 4.5 2.1 10.8 2.1H173V174h-13v41.4h-15.8V174zm52.9 0v52.3h12.8V174zm55.3 0v41.4h-11v-31h-12.8v31h-9.3v10.9h45.9V174zm24.3 0v52.3h12.8V174zm77.8 0v41.4H326v-26.7h-17.8q-6.3 0-10.8 2.3a15 15 0 0 0-6.7 6.4 22 22 0 0 0-2.3 10.5q0 6 2.3 10.3 2.3 4 6.7 6 4.5 2.1 10.8 2.1h46.5V174zm24.2 0v52.3h12.8V174zm55.3 0v41.4h-11v-31h-12.8v31h-9.3v10.9h46V174ZM97.8 199.6h5v15.8h-5q-2.4 0-4-.4-1.5-.5-2.2-2a13 13 0 0 1-.8-5.1q0-3.7.8-5.4 1-1.8 2.5-2.3 1.5-.6 3.7-.6m210.3 0h5v15.8h-5q-2.4 0-4-.4-1.5-.5-2.2-2a13 13 0 0 1-.8-5.1q0-3.7.8-5.4 1-1.8 2.5-2.3 1.6-.6 3.7-.6M114.8 247v28.5h-10.9V257H91.6q-4.4 0-7.4 1.6-3 1.4-4.6 4.4t-1.6 7.2q0 4.3 1.6 7 1.5 2.9 4.6 4.3t7.4 1.4h51.7v-36h-8.8v28.5h-10.9V247Zm36.3 0v36h8.8v-36Zm39.7 0v35.8q0 1.5-.6 2.7t-2 2q-1.5.6-4 .7t-4.2-.7-2.4-2q-.9-1.3-.9-3.1l.2-2.8 1.5-10.8-8.7-1.1-1.2 8.4-.6 6.4q0 3.7 2 6.7a14 14 0 0 0 5.9 4.8q3.6 1.7 8.3 1.7 4.5 0 8-1.6 3.6-1.6 5.5-4.6 2-2.8 2-6.7V247Zm159.5 10a36 36 0 0 0-10 1.4 40 40 0 0 0-1.3 7.4 57 57 0 0 0 0 9.6h-11v-2a20 20 0 0 0-1.9-9.2q-1.8-3.6-5.4-5.3a20 20 0 0 0-8.7-1.8h-4.2v7.5h4.2q2.7 0 4.3.8 1.5.7 2.2 2.6.6 1.8.7 5.4v2h-12.7v7.6H434v-12.8q0-5-1.6-7.8-1.5-3-4.7-4.1-3.2-1.4-8-1.3a36 36 0 0 0-10 1.4 40 40 0 0 0-1.4 7.4 57 57 0 0 0 0 9.6h-10.9v-4.8q0-4.2-2-7.2t-5.5-4.6a18 18 0 0 0-7.9-1.7q-2.1 0-4.2.4l-4.3.8.7 7a48 48 0 0 1 6.7-.6q4 0 6 1.5 1.7 1.5 1.7 4.4v4.9h-23.9v-5.3q0-5-1.6-7.8-1.6-3-4.8-4.1-3-1.4-8-1.3m-131.7.1q-4.3 0-7.4 1.6-3 1.4-4.6 4.4t-1.6 7.2q0 4.3 1.6 7 1.6 2.9 4.6 4.3t7.4 1.4h3.5v1.6q0 2.3-1.5 3.4-1.4 1.2-4.7 1.2l-3-.2q-1.8 0-4.3-.4l-1.2 7a59 59 0 0 0 8.5 1q4.5 0 7.8-1.4 3.4-1.5 5.3-4.2a11 11 0 0 0 1.9-6.4V283h22.9a15 15 0 0 0 7.9-2q1 .6 2.2 1 2.3 1 4.7 1h13.9v-14l-.3-3.3-1.3-8.6-8.7 1.3a118 118 0 0 1 1.4 10.5v6.6h-5l-1.9-.4-.9-.5q.7-2.7.7-6.2v-8.6h-8.8v8.6q0 3-.4 4.6-.3 1.5-1 2a5 5 0 0 1-2.5.5h-3v-13h-9v13H231V257zm73.8 0v26.6q0 2.7-1 4-1 1.5-2.8 1.5h-2.8l-.2 7.3 3.1.2q3.8 0 6.6-1.7t4.3-4.6 1.6-6.7V257zm58 7.4q2.1 0 3.3.5t1.7 1.7q.4 1.3.4 3.4v5.4h-8a71 71 0 0 1 0-8.6l.2-2.3zm69.3 0q2.2 0 3.4.5t1.6 1.7q.5 1.3.5 3.4v5.4h-8a71 71 0 0 1-.1-8.6l.2-2.3zm-328.1.1H95v10.9h-3.4q-1.7 0-2.7-.3-1-.4-1.6-1.4a9 9 0 0 1-.5-3.5q0-2.6.6-3.7A3 3 0 0 1 89 265a8 8 0 0 1 2.5-.4m127 0h3.5v10.9h-3.5q-1.6 0-2.7-.3-1-.4-1.6-1.4a9 9 0 0 1-.5-3.5q0-2.6.6-3.7a3 3 0 0 1 1.7-1.6 8 8 0 0 1 2.5-.4"/></g></g>
    </g>
  </g>
</svg>
