<?xml version="1.0" encoding="UTF-8" standalone="no"?>
<!-- Created with Inkscape (http://www.inkscape.org/) -->

<svg
   width="680mm"
   height="1000mm"
   viewBox="0 0 680 1000"
   version="1.1"
   id="svg1"
   inkscape:version="1.4.3 (0d15f75, 2025-12-25)"
   sodipodi:docname="template.svg"
   xmlns:inkscape="http://www.inkscape.org/namespaces/inkscape"
   xmlns:sodipodi="http://sodipodi.sourceforge.net/DTD/sodipodi-0.dtd"
   xmlns="http://www.w3.org/2000/svg"
   xmlns:svg="http://www.w3.org/2000/svg">
  <sodipodi:namedview
     id="namedview1"
     pagecolor="#505050"
     bordercolor="#eeeeee"
     borderopacity="1"
     inkscape:showpageshadow="0"
     inkscape:pageopacity="0"
     inkscape:pagecheckerboard="0"
     inkscape:deskcolor="#505050"
     inkscape:document-units="mm"
     inkscape:zoom="0.15208656"
     inkscape:cx="706.83434"
     inkscape:cy="2406.5243"
     inkscape:window-width="1710"
     inkscape:window-height="1045"
     inkscape:window-x="0"
     inkscape:window-y="62"
     inkscape:window-maximized="0"
     inkscape:current-layer="layer1" />
  <defs
     id="defs1">
    <inkscape:path-effect
       effect="fillet_chamfer"
       id="path-effect4"
       is_visible="true"
       lpeversion="1"
       nodesatellites_param="F,0,0,1,0,0,0,1 @ F,0,0,1,0,75,0,1 @ F,0,0,1,0,75,0,1 @ F,0,0,1,0,0,0,1"
       radius="0"
       unit="px"
       method="auto"
       mode="F"
       chamfer_steps="1"
       flexible="false"
       use_knot_distance="true"
       apply_no_radius="true"
       apply_with_radius="true"
       only_selected="false"
       hide_knots="false" />
    <inkscape:path-effect
       effect="fillet_chamfer"
       id="path-effect2"
       is_visible="true"
       lpeversion="1"
       nodesatellites_param="F,0,0,1,0,0,0,1 @ F,0,0,1,0,0,0,1 @ F,0,0,1,0,0,0,1 @ F,0,0,1,0,0,0,1"
       radius="0"
       unit="px"
       method="auto"
       mode="F"
       chamfer_steps="1"
       flexible="false"
       use_knot_distance="true"
       apply_no_radius="true"
       apply_with_radius="true"
       only_selected="false"
       hide_knots="false" />
    <inkscape:path-effect
       effect="fillet_chamfer"
       id="path-effect3"
       is_visible="true"
       lpeversion="1"
       nodesatellites_param="F,0,0,1,0,0,0,1 @ F,0,0,1,0,45.967641,0,1 @ F,0,0,1,0,0,0,1"
       radius="0"
       unit="px"
       method="auto"
       mode="F"
       chamfer_steps="1"
       flexible="false"
       use_knot_distance="true"
       apply_no_radius="true"
       apply_with_radius="true"
       only_selected="false"
       hide_knots="false" />
  </defs>
  <g
     inkscape:label="Layer 1"
     inkscape:groupmode="layer"
     id="layer1">
    <rect
       style="fill:#15151e;fill-opacity:1;stroke-width:0.653077"
       id="rect1"
       width="680"
       height="1000"
       x="-1.4210855e-14"
       y="0"
       ry="2.0972002"
       inkscape:label="background"
       sodipodi:insensitive="true" />
    <path
       d="M 89.999938,30 119.99994,0 H 101.94369 L 71.944312,30 Z M 85.698688,13.065 H 49.381813 c -11.068126,0 -13.005001,0.586875 -17.745626,5.3275 C 27.202437,22.82625 20.000562,30 20.000562,30 h 15.731876 l 3.753124,-3.753125 c 2.467501,-2.4675 3.740001,-2.723125 8.92125,-2.723125 h 26.83375 z M 31.151812,16.253125 C 27.877437,19.3425 20.753062,26.263125 16.913062,30 H -6.25e-5 c 0,0 13.5525005,-13.513125 21.0849995,-20.9275 C 28.845562,1.685 32.714312,0 46.948687,0 H 98.764313 L 87.544938,11.21875 H 48.001187 c -10.001874,0 -12.249375,0.693125 -16.849375,5.034375 z"
       id="Fill-1"
       style="fill:#201f2c;fill-rule:evenodd;stroke:none;stroke-width:1;fill-opacity:1"
       sodipodi:nodetypes="ccccccssccssccccccsccsc"
       inkscape:label="logo"
       transform="matrix(6.3326957,0,0,6.3326957,-39.961349,401.1145)" />
    <text
       xml:space="preserve"
       style="font-style:normal;font-variant:normal;font-weight:normal;font-stretch:normal;font-size:50.8px;line-height:100%;font-family:Formula1;-inkscape-font-specification:Formula1;text-align:start;word-spacing:0px;writing-mode:lr-tb;direction:ltr;text-anchor:start;opacity:1;fill:#ee0000;fill-opacity:1;stroke:none;stroke-width:0.223;stroke-opacity:1"
       x="21.697973"
       y="63.709557"
       id="text2"
       inkscape:label="round"><tspan
         sodipodi:role="line"
         style="font-style:normal;font-variant:normal;font-weight:normal;font-stretch:normal;font-size:50.8px;font-family:Formula1;-inkscape-font-specification:Formula1;fill:#ee0000;fill-opacity:1;stroke-width:0.223"
         x="21.697973"
         y="63.709557"
         id="tspan1">ROUND 20</tspan></text>
    <path
       style="display:inline;fill:none;fill-opacity:1;stroke:#ee0000;stroke-width:15;stroke-dasharray:none;stroke-opacity:1"
       d="M 352.06858,56.213936 H 580 a 75,75 45 0 1 75,75.000004 V 900 a 75,75 135 0 1 -75,75 H 0"
       id="path1"
       sodipodi:nodetypes="cccc"
       inkscape:path-effect="#path-effect4"
       inkscape:original-d="M 352.06858,56.213936 H 655 V 975 H 0" />
    <g
       id="g10"
       transform="translate(-61.769566,39.315292)"
       inkscape:label="info"
       style="display:inline">
      <g
         id="g9"
         transform="translate(0,-0.2293034)">
        
        <text
           xml:space="preserve"
           style="font-style:normal;font-variant:normal;font-weight:normal;font-stretch:normal;font-size:52.9167px;line-height:100%;font-family:Formula1;-inkscape-font-specification:Formula1;text-align:start;word-spacing:0px;writing-mode:lr-tb;direction:ltr;text-anchor:start;opacity:1;fill:#ffffff;fill-opacity:1;stroke:none;stroke-width:7.83601;stroke-linecap:butt;stroke-linejoin:miter;stroke-dasharray:none;stroke-opacity:1"
           x="206.93063"
           y="110.78185"
           id="text3"
           inkscape:label="location"><tspan
             sodipodi:role="line"
             id="tspan3"
             style="font-style:normal;font-variant:normal;font-weight:normal;font-stretch:normal;font-size:52.9167px;font-family:Formula1;-inkscape-font-specification:Formula1;stroke:none;stroke-width:7.836"
             x="206.93063"
             y="110.78185">MEXICO</tspan></text>
        <text
           xml:space="preserve"
           style="font-style:normal;font-variant:normal;font-weight:normal;font-stretch:normal;font-size:35.2778px;line-height:100%;font-family:Formula1;-inkscape-font-specification:Formula1;text-align:start;word-spacing:0px;writing-mode:lr-tb;direction:ltr;text-anchor:start;opacity:1;fill:#ffffff;fill-opacity:1;stroke:none;stroke-width:7.83601;stroke-linecap:butt;stroke-linejoin:miter;stroke-dasharray:none;stroke-opacity:1"
           x="205.16676"
           y="151.7265"
           id="text4"
           inkscape:label="session"><tspan
             sodipodi:role="line"
             id="tspan4"
             style="font-style:normal;font-variant:normal;font-weight:normal;font-stretch:normal;font-size:35.2778px;font-family:Formula1;-inkscape-font-specification:Formula1;fill:#ee0000;fill-opacity:1;stroke-width:7.836"
             x="205.16676"
             y="151.7265">QUALIFYING</tspan></text>
      </g>
      <g transform="translate(86.769573, 60.684713) scale(0.19690717578125)" inkscape:label="flag"><mask id="a"><circle cx="256" cy="256" r="256" fill="#fff"/></mask><g mask="url(#a)"><path fill="#eee" d="M144 0h223l33 256-33 256H144l-32-256z"/><path fill="#d80027" d="M368 0h144v512H368z"/><path fill="#751a46" d="M256 174c22 11 12 33 11 34l-2-4c-4-15-13-33-31-18v11q10 1 11 11-11 12-4 26l4 8-13 23 29-7 18 18v-11l11 11 23-11-35-21-2-13c22-2 34 4 51 29 9-83-45-86-64-86Z"/><path fill="#6da544" d="M209 183q-5 4-4 12 1 11 10 15c3 2 8 0 10 3 3 3-2 5-4 6q-8 5-9 14 3 10 12 15c2 2 7 4 5 7q-4 2-9-2-12-6-19-19c-2-3-1-10-7-10-7 2-4 10-2 14q8 14 21 23 9 8 20 3 10-6 4-17c-3-6-11-8-14-14-2-3 2-4 4-6q8-4 9-11-2-13-14-15-6 1-7-6c-1-3 3-7 0-11q-2-3-6-1"/><path fill="#496e2d" d="M0 0v512h144V0zm164 235a5 5 0 0 0-5 5 97 97 0 0 0 194 0 5 5 0 0 0-5-5 5 5 0 0 0-5 5 87 87 0 1 1-174 0 5 5 0 0 0-5-5m35 25-4 1q-3 4 1 8 23 21 54 24v17h12v-17q31-3 54-24 4-4 1-8-4-3-8 0a78 78 0 0 1-106 0z"/><path fill="#338af3" d="M256 316q-21 0-40-13l6-9c20 13 48 13 68 0l7 9q-18 13-41 13"/><rect width="34" height="22" x="239" y="299" fill="#ff9811" rx="11" ry="11"/><path fill="#ffda44" d="m234 186-12 11v11l18-9q4-3 1-7zm-62 79a10 10 0 0 0-10 10 10 10 0 0 0 10 10 10 10 0 0 0 10-10 10 10 0 0 0-10-10m169 0a10 10 0 0 0-10 10 10 10 0 0 0 10 10 10 10 0 0 0 10-10 10 10 0 0 0-10-10m-69 4-16 8v5l15-1 4-9zm-83 23a10 10 0 0 0-10 10 10 10 0 0 0 10 10 10 10 0 0 0 10-10 10 10 0 0 0-10-10m135 0a10 10 0 0 0-10 10 10 10 0 0 0 10 10 10 10 0 0 0 10-10 10 10 0 0 0-10-10m-108 21a10 10 0 0 0-10 10 10 10 0 0 0 10 10 10 10 0 0 0 10-10 10 10 0 0 0-10-10m81 0a10 10 0 0 0-10 10 10 10 0 0 0 10 10 10 10 0 0 0 10-10 10 10 0 0 0-10-10"/></g></g>
    </g>
    <g
       id="g8"
       inkscape:label="date"
       transform="translate(308.90368,536.87111)"
       style="display:inline">
      <text
         xml:space="preserve"
         style="font-style:normal;font-variant:normal;font-weight:normal;font-stretch:normal;font-size:88.1944px;line-height:100%;font-family:Formula1;-inkscape-font-specification:Formula1;text-align:center;word-spacing:0px;writing-mode:lr-tb;direction:ltr;text-anchor:middle;display:inline;opacity:1;fill:#ee0000;fill-opacity:1;stroke:none;stroke-width:7.83601;stroke-linecap:butt;stroke-linejoin:miter;stroke-dasharray:none;stroke-opacity:1"
         x="-122.88599"
         y="362.8576"
         id="text6"
         inkscape:label="day"><tspan
           sodipodi:role="line"
           id="tspan6"
           style="font-style:normal;font-variant:normal;font-weight:normal;font-stretch:normal;font-size:88.1944px;font-family:Formula1;-inkscape-font-specification:Formula1;fill:#ffffff;fill-opacity:1;stroke-width:7.836"
           x="-122.88599"
           y="362.8576">31</tspan></text>
      <g
         id="g7"
         inkscape:label="month"
         transform="translate(34.626847,5.5402955)"
         style="display:inline">
        <rect
           style="display:inline;opacity:1;fill:#ffffff;fill-opacity:1;stroke:none;stroke-width:16.1904;stroke-linecap:butt;stroke-linejoin:miter;stroke-dasharray:none;stroke-opacity:1"
           id="rect7"
           width="279.15674"
           height="119.34962"
           x="-59.869205"
           y="264.56961"
           ry="47.537582" />
        <text
           xml:space="preserve"
           style="font-style:normal;font-variant:normal;font-weight:normal;font-stretch:normal;font-size:88.1944px;line-height:100%;font-family:Formula1;-inkscape-font-specification:Formula1;text-align:center;word-spacing:0px;writing-mode:lr-tb;direction:ltr;text-anchor:middle;display:inline;opacity:1;fill:#15151e;fill-opacity:1;stroke:none;stroke-width:7.83601;stroke-linecap:butt;stroke-linejoin:miter;stroke-dasharray:none;stroke-opacity:1"
           x="78.165771"
           y="357.31732"
           id="text7"
           inkscape:label="month"><tspan
             sodipodi:role="line"
             id="tspan7"
             style="font-style:normal;font-variant:normal;font-weight:normal;font-stretch:normal;font-size:88.1944px;font-family:Formula1;-inkscape-font-specification:Formula1;fill:#15151e;fill-opacity:1;stroke-width:7.836"
             x="78.165771"
             y="357.31732">OCT</tspan></text>
      </g>
    </g>
    <g
       id="g3"
       inkscape:label="track"
       transform="matrix(1.2571293,0,0,1.2571293,-208.71205,272.34527)"
       style="display:inline">
      
      <text
         xml:space="preserve"
         style="font-style:normal;font-variant:normal;font-weight:normal;font-stretch:normal;font-size:22.9943px;line-height:100%;font-family:Formula1;-inkscape-font-specification:Formula1;text-align:center;word-spacing:0px;writing-mode:lr-tb;direction:ltr;text-anchor:middle;display:inline;opacity:1;fill:#ee0000;fill-opacity:1;stroke:none;stroke-width:7.83601;stroke-linecap:butt;stroke-linejoin:miter;stroke-dasharray:none;stroke-opacity:1"
         x="436.95645"
         y="394.58563"
         id="text5"
         inkscape:label="track-name"><tspan
           sodipodi:role="line"
           id="tspan5"
           style="font-style:normal;font-variant:normal;font-weight:normal;font-stretch:normal;font-size:22.9943px;font-family:Formula1;-inkscape-font-specification:Formula1;stroke-width:7.836"
           x="436.95645"
           y="394.58563">Autódromo Hermanos Rodríguez</tspan></text>
      <g inkscape:label="embedded-track" transform=" translate(284.3940772503101, 93.56176229045474) scale(0.6472165194176459) rotate(-8.5, 249.97727483579905, 249.9351531874637) " > <path style="fill: none; stroke: #fff; stroke-width: 20; stroke-linejoin: round; stroke-dasharray: none; stroke-opacity: 1;" d="M68.115 74.569c20.465 2.901 314.544 46.249 376.858 55.798 3.924.6 15.237 2.752 23.971 4.728 2.288.518 3.041 4.923 2.867 8.43-.259 5.27-.8 13.839-1.432 22.789-.391 5.532-.13 5.927 4.303 7.245 1.817.539 3.416.948 5.867 1.58 3.11.803 4.726 2.649 4.434 5.533-.652 6.454-1.302 9.35-2.085 12.514-.653 2.634-4.638 9.707-5.115 10.52-14.661 24.978-76.417 129.197-82.64 138.987-5.007 7.877-7.396 11.41-11.93 18.376-4.89 7.507-5.282 16.202 2.542 18.772 7.059 2.316 8.243 2.674 11.344 3.753 6.26 2.174 7.353 3.848 7.236 8.102-.19 6.925-2.15 7.506-8.018 11.261-3.145 2.013-17.624 10.48-35.597 21.538-3.6 2.213-7.043 2.173-10.173-2.172-1.702-2.363-1.732-7.806-.979-12.054 5.477-30.824 15.062-81.406 18.973-100.175 2.626-12.597-6.455-18.574-21.711-21.143-8.476-1.428-15.164-7.935-17.798-15.412-4.106-11.657-9.395-18.187-21.515-18.771-8.215-.396-18.571-1.037-29.73-1.384-12.714-.396-21.32-6.125-22.297-17.19-.292-3.298-1.019-12.145-1.37-15.806-.586-6.127-.59-7.897-8.606-11.46-9.78-4.347-25.232-10.275-43.42-16.796-4.432-1.588-6.016-2.568-17.621-4.201-27.061-3.808-73.36-10.324-102.563-14.599-5.872-.859-4.278-1.88-4.278-6.755 0-3.28.13-26.213.391-37.014.1-4.126.193-7.575.064-11.329-.194-5.73-9.658-5.764-11.539-2.174-1.76 3.36-3.47 6.48-4.5 7.707-4.302 5.137-8.017 4.742-15.255.989-8.029-4.165-14.003-3.877-17.798-4.149-3.119-.225-6.454-.198-9.78-.395-3.385-.202-4.553-2.229-4.108-5.73 2.735-21.49 22.76-44.2 53.008-39.913z" /> <path style="fill: none; stroke: #000; stroke-width: 5; stroke-linejoin: round; stroke-dasharray: none; stroke-opacity: 1;" d="M68.115 74.569c20.465 2.901 314.544 46.249 376.858 55.798 3.924.6 15.237 2.752 23.971 4.728 2.288.518 3.041 4.923 2.867 8.43-.259 5.27-.8 13.839-1.432 22.789-.391 5.532-.13 5.927 4.303 7.245 1.817.539 3.416.948 5.867 1.58 3.11.803 4.726 2.649 4.434 5.533-.652 6.454-1.302 9.35-2.085 12.514-.653 2.634-4.638 9.707-5.115 10.52-14.661 24.978-76.417 129.197-82.64 138.987-5.007 7.877-7.396 11.41-11.93 18.376-4.89 7.507-5.282 16.202 2.542 18.772 7.059 2.316 8.243 2.674 11.344 3.753 6.26 2.174 7.353 3.848 7.236 8.102-.19 6.925-2.15 7.506-8.018 11.261-3.145 2.013-17.624 10.48-35.597 21.538-3.6 2.213-7.043 2.173-10.173-2.172-1.702-2.363-1.732-7.806-.979-12.054 5.477-30.824 15.062-81.406 18.973-100.175 2.626-12.597-6.455-18.574-21.711-21.143-8.476-1.428-15.164-7.935-17.798-15.412-4.106-11.657-9.395-18.187-21.515-18.771-8.215-.396-18.571-1.037-29.73-1.384-12.714-.396-21.32-6.125-22.297-17.19-.292-3.298-1.019-12.145-1.37-15.806-.586-6.127-.59-7.897-8.606-11.46-9.78-4.347-25.232-10.275-43.42-16.796-4.432-1.588-6.016-2.568-17.621-4.201-27.061-3.808-73.36-10.324-102.563-14.599-5.872-.859-4.278-1.88-4.278-6.755 0-3.28.13-26.213.391-37.014.1-4.126.193-7.575.064-11.329-.194-5.73-9.658-5.764-11.539-2.174-1.76 3.36-3.47 6.48-4.5 7.707-4.302 5.137-8.017 4.742-15.255.989-8.029-4.165-14.003-3.877-17.798-4.149-3.119-.225-6.454-.198-9.78-.395-3.385-.202-4.553-2.229-4.108-5.73 2.735-21.49 22.76-44.2 53.008-39.913z" /> </g>
    </g>
    <text
       xml:space="preserve"
       style="font-size:202.494px;writing-mode:lr-tb;direction:ltr;display:inline;fill:none;fill-opacity:1;stroke:#ee0000;stroke-width:14.7;stroke-dasharray:none;stroke-opacity:1"
       x="48.206333"
       y="403.4614"
       id="text8"
       inkscape:label="year"><tspan
         sodipodi:role="line"
         id="tspan8"
         style="font-style:normal;font-variant:normal;font-weight:normal;font-stretch:normal;font-size:202.494px;font-family:Formula1;-inkscape-font-specification:Formula1;fill:#000000;fill-opacity:1;stroke:#ffffff;stroke-width:14.7;stroke-dasharray:none;stroke-opacity:1"
         x="48.206333"
         y="403.4614">2026</tspan></text>
  </g>
</svg>
