<?xml version="1.0" encoding="UTF-8" standalone="no"?>
<!-- Created with Inkscape (http://www.inkscape.org/) -->

<svg
   width="680mm"
   height="1000mm"
   viewBox="0 0 680 1000"
   version="1.1"
   id="svg1"
   inkscape:version="1.4.3 (0d15f75, 2025-12-25)"
   sodipodi:docname="template.svg"
   xmlns:inkscape="http://www.inkscape.org/namespaces/inkscape"
   xmlns:sodipodi="http://sodipodi.sourceforge.net/DTD/sodipodi-0.dtd"
   xmlns="http://www.w3.org/2000/svg"
   xmlns:svg="http://www.w3.org/2000/svg">
  <sodipodi:namedview
     id="namedview1"
     pagecolor="#505050"
     bordercolor="#eeeeee"
     borderopacity="1"
     inkscape:showpageshadow="0"
     inkscape:pageopacity="0"
     inkscape:pagecheckerboard="0"
     inkscape:deskcolor="#505050"
     inkscape:document-units="mm"
     inkscape:zoom="0.15208656"
     inkscape:cx="706.83434"
     inkscape:cy="2406.5243"
     inkscape:window-width="1710"
     inkscape:window-height="1045"
     inkscape:window-x="0"
     inkscape:window-y="62"
     inkscape:window-maximized="0"
     inkscape:current-layer="layer1" />
  <defs
     id="defs1">
    <inkscape:path-effect
       effect="fillet_chamfer"
       id="path-effect4"
       is_visible="true"
       lpeversion="1"
       nodesatellites_param="F,0,0,1,0,0,0,1 @ F,0,0,1,0,75,0,1 @ F,0,0,1,0,75,0,1 @ F,0,0,1,0,0,0,1"
       radius="0"
       unit="px"
       method="auto"
       mode="F"
       chamfer_steps="1"
       flexible="false"
       use_knot_distance="true"
       apply_no_radius="true"
       apply_with_radius="true"
       only_selected="false"
       hide_knots="false" />
    <inkscape:path-effect
       effect="fillet_chamfer"
       id="path-effect2"
       is_visible="true"
       lpeversion="1"
       nodesatellites_param="F,0,0,1,0,0,0,1 @ F,0,0,1,0,0,0,1 @ F,0,0,1,0,0,0,1 @ F,0,0,1,0,0,0,1"
       radius="0"
       unit="px"
       method="auto"
       mode="F"
       chamfer_steps="1"
       flexible="false"
       use_knot_distance="true"
       apply_no_radius="true"
       apply_with_radius="true"
       only_selected="false"
       hide_knots="false" />
    <inkscape:path-effect
       effect="fillet_chamfer"
       id="path-effect3"
       is_visible="true"
       lpeversion="1"
       nodesatellites_param="F,0,0,1,0,0,0,1 @ F,0,0,1,0,45.967641,0,1 @ F,0,0,1,0,0,0,1"
       radius="0"
       unit="px"
       method="auto"
       mode="F"
       chamfer_steps="1"
       flexible="false"
       use_knot_distance="true"
       apply_no_radius="true"
       apply_with_radius="true"
       only_selected="false"
       hide_knots="false" />
  </defs>
  <g
     inkscape:label="Layer 1"
     inkscape:groupmode="layer"
     id="layer1">
    <rect
       style="fill:#15151e;fill-opacity:1;stroke-width:0.653077"
       id="rect1"
       width="680"
       height="1000"
       x="-1.4210855e-14"
       y="0"
       ry="2.0972002"
       inkscape:label="background"
       sodipodi:insensitive="true" />
    <path
       d="M 89.999938,30 119.99994,0 H 101.94369 L 71.944312,30 Z M 85.698688,13.065 H 49.381813 c -11.068126,0 -13.005001,0.586875 -17.745626,5.3275 C 27.202437,22.82625 20.000562,30 20.000562,30 h 15.731876 l 3.753124,-3.753125 c 2.467501,-2.4675 3.740001,-2.723125 8.92125,-2.723125 h 26.83375 z M 31.151812,16.253125 C 27.877437,19.3425 20.753062,26.263125 16.913062,30 H -6.25e-5 c 0,0 13.5525005,-13.513125 21.0849995,-20.9275 C 28.845562,1.685 32.714312,0 46.948687,0 H 98.764313 L 87.544938,11.21875 H 48.001187 c -10.001874,0 -12.249375,0.693125 -16.849375,5.034375 z"
       id="Fill-1"
       style="fill:#201f2c;fill-rule:evenodd;stroke:none;stroke-width:1;fill-opacity:1"
       sodipodi:nodetypes="ccccccssccssccccccsccsc"
       inkscape:label="logo"
       transform="matrix(6.3326957,0,0,6.3326957,-39.961349,401.1145)" />
    <text
       xml:space="preserve"
       style="font-style:normal;font-variant:normal;font-weight:normal;font-stretch:normal;font-size:50.8px;line-height:100%;font-family:Formula1;-inkscape-font-specification:Formula1;text-align:start;word-spacing:0px;writing-mode:lr-tb;direction:ltr;text-anchor:start;opacity:1;fill:#ee0000;fill-opacity:1;stroke:none;stroke-width:0.223;stroke-opacity:1"
       x="21.697973"
       y="63.709557"
       id="text2"
       inkscape:label="round"><tspan
         sodipodi:role="line"
         style="font-style:normal;font-variant:normal;font-weight:normal;font-stretch:normal;font-size:50.8px;font-family:Formula1;-inkscape-font-specification:Formula1;fill:#ee0000;fill-opacity:1;stroke-width:0.223"
         x="21.697973"
         y="63.709557"
         id="tspan1">ROUND 22</tspan></text>
    <path
       style="display:inline;fill:none;fill-opacity:1;stroke:#ee0000;stroke-width:15;stroke-dasharray:none;stroke-opacity:1"
       d="M 352.06858,56.213936 H 580 a 75,75 45 0 1 75,75.000004 V 900 a 75,75 135 0 1 -75,75 H 0"
       id="path1"
       sodipodi:nodetypes="cccc"
       inkscape:path-effect="#path-effect4"
       inkscape:original-d="M 352.06858,56.213936 H 655 V 975 H 0" />
    <g
       id="g10"
       transform="translate(-61.769566,39.315292)"
       inkscape:label="info"
       style="display:inline">
      <g
         id="g9"
         transform="translate(0,-0.2293034)">
        
        <text
           xml:space="preserve"
           style="font-style:normal;font-variant:normal;font-weight:normal;font-stretch:normal;font-size:52.9167px;line-height:100%;font-family:Formula1;-inkscape-font-specification:Formula1;text-align:start;word-spacing:0px;writing-mode:lr-tb;direction:ltr;text-anchor:start;opacity:1;fill:#ffffff;fill-opacity:1;stroke:none;stroke-width:7.83601;stroke-linecap:butt;stroke-linejoin:miter;stroke-dasharray:none;stroke-opacity:1"
           x="206.93063"
           y="110.78185"
           id="text3"
           inkscape:label="location"><tspan
             sodipodi:role="line"
             id="tspan3"
             style="font-style:normal;font-variant:normal;font-weight:normal;font-stretch:normal;font-size:52.9167px;font-family:Formula1;-inkscape-font-specification:Formula1;stroke:none;stroke-width:7.836"
             x="206.93063"
             y="110.78185">LAS VEGAS</tspan></text>
        <text
           xml:space="preserve"
           style="font-style:normal;font-variant:normal;font-weight:normal;font-stretch:normal;font-size:35.2778px;line-height:100%;font-family:Formula1;-inkscape-font-specification:Formula1;text-align:start;word-spacing:0px;writing-mode:lr-tb;direction:ltr;text-anchor:start;opacity:1;fill:#ffffff;fill-opacity:1;stroke:none;stroke-width:7.83601;stroke-linecap:butt;stroke-linejoin:miter;stroke-dasharray:none;stroke-opacity:1"
           x="205.16676"
           y="151.7265"
           id="text4"
           inkscape:label="session"><tspan
             sodipodi:role="line"
             id="tspan4"
             style="font-style:normal;font-variant:normal;font-weight:normal;font-stretch:normal;font-size:35.2778px;font-family:Formula1;-inkscape-font-specification:Formula1;fill:#ee0000;fill-opacity:1;stroke-width:7.836"
             x="205.16676"
             y="151.7265">PRACTICE 01</tspan></text>
      </g>
      <g transform="translate(86.769573, 60.684713) scale(0.19690717578125)" inkscape:label="flag"><mask id="a"><circle cx="256" cy="256" r="256" fill="#fff"/></mask><g mask="url(#a)"><path fill="#eee" d="M256 0h256v64l-32 32 32 32v64l-32 32 32 32v64l-32 32 32 32v64l-256 32L0 448v-64l32-32-32-32v-64z"/><path fill="#d80027" d="M224 64h288v64H224Zm0 128h288v64H256ZM0 320h512v64H0Zm0 128h512v64H0Z"/><path fill="#0052b4" d="M0 0h256v256H0Z"/><path fill="#eee" d="m187 243 57-41h-70l57 41-22-67zm-81 0 57-41H93l57 41-22-67zm-81 0 57-41H12l57 41-22-67zm162-81 57-41h-70l57 41-22-67zm-81 0 57-41H93l57 41-22-67zm-81 0 57-41H12l57 41-22-67Zm162-82 57-41h-70l57 41-22-67Zm-81 0 57-41H93l57 41-22-67zm-81 0 57-41H12l57 41-22-67Z"/></g></g>
    </g>
    <g
       id="g8"
       inkscape:label="date"
       transform="translate(308.90368,536.87111)"
       style="display:inline">
      <text
         xml:space="preserve"
         style="font-style:normal;font-variant:normal;font-weight:normal;font-stretch:normal;font-size:88.1944px;line-height:100%;font-family:Formula1;-inkscape-font-specification:Formula1;text-align:center;word-spacing:0px;writing-mode:lr-tb;direction:ltr;text-anchor:middle;display:inline;opacity:1;fill:#ee0000;fill-opacity:1;stroke:none;stroke-width:7.83601;stroke-linecap:butt;stroke-linejoin:miter;stroke-dasharray:none;stroke-opacity:1"
         x="-122.88599"
         y="362.8576"
         id="text6"
         inkscape:label="day"><tspan
           sodipodi:role="line"
           id="tspan6"
           style="font-style:normal;font-variant:normal;font-weight:normal;font-stretch:normal;font-size:88.1944px;font-family:Formula1;-inkscape-font-specification:Formula1;fill:#ffffff;fill-opacity:1;stroke-width:7.836"
           x="-122.88599"
           y="362.8576">19</tspan></text>
      <g
         id="g7"
         inkscape:label="month"
         transform="translate(34.626847,5.5402955)"
         style="display:inline">
        <rect
           style="display:inline;opacity:1;fill:#ffffff;fill-opacity:1;stroke:none;stroke-width:16.1904;stroke-linecap:butt;stroke-linejoin:miter;stroke-dasharray:none;stroke-opacity:1"
           id="rect7"
           width="279.15674"
           height="119.34962"
           x="-59.869205"
           y="264.56961"
           ry="47.537582" />
        <text
           xml:space="preserve"
           style="font-style:normal;font-variant:normal;font-weight:normal;font-stretch:normal;font-size:88.1944px;line-height:100%;font-family:Formula1;-inkscape-font-specification:Formula1;text-align:center;word-spacing:0px;writing-mode:lr-tb;direction:ltr;text-anchor:middle;display:inline;opacity:1;fill:#15151e;fill-opacity:1;stroke:none;stroke-width:7.83601;stroke-linecap:butt;stroke-linejoin:miter;stroke-dasharray:none;stroke-opacity:1"
           x="78.165771"
           y="357.31732"
           id="text7"
           inkscape:label="month"><tspan
             sodipodi:role="line"
             id="tspan7"
             style="font-style:normal;font-variant:normal;font-weight:normal;font-stretch:normal;font-size:88.1944px;font-family:Formula1;-inkscape-font-specification:Formula1;fill:#15151e;fill-opacity:1;stroke-width:7.836"
             x="78.165771"
             y="357.31732">NOV</tspan></text>
      </g>
    </g>
    <g
       id="g3"
       inkscape:label="track"
       transform="matrix(1.2571293,0,0,1.2571293,-208.71205,272.34527)"
       style="display:inline">
      
      <text
         xml:space="preserve"
         style="font-style:normal;font-variant:normal;font-weight:normal;font-stretch:normal;font-size:25.8172px;line-height:100%;font-family:Formula1;-inkscape-font-specification:Formula1;text-align:center;word-spacing:0px;writing-mode:lr-tb;direction:ltr;text-anchor:middle;display:inline;opacity:1;fill:#ee0000;fill-opacity:1;stroke:none;stroke-width:7.83601;stroke-linecap:butt;stroke-linejoin:miter;stroke-dasharray:none;stroke-opacity:1"
         x="436.95645"
         y="394.58563"
         id="text5"
         inkscape:label="track-name"><tspan
           sodipodi:role="line"
           id="tspan5"
           style="font-style:normal;font-variant:normal;font-weight:normal;font-stretch:normal;font-size:25.8172px;font-family:Formula1;-inkscape-font-specification:Formula1;stroke-width:7.836"
           x="436.95645"
           y="394.58563">Las Vegas Strip Circuit</tspan></text>
      <g inkscape:label="embedded-track" transform=" translate(252.05203441559914, 74.50225672902324) scale(0.7376758937843357) rotate(0, 250.01247450051503, 250.06807478096542) " > <path style="fill: none; stroke: #fff; stroke-width: 20; stroke-linejoin: round; stroke-dasharray: none; stroke-opacity: 1;" d="M44.554 308.699c5.621 2.881 52.896 30.75 61.836 35.774 7.261 4.082 18.085 9.124 31.856 14.165 21.976 8.045 37.495 12.32 56.449 15.126 21.08 3.122 32.091 4.52 44.738 5.282 7.963.48 26.891.171 58.557.96 57.855 1.441 148.06 2.882 150.61 2.882 1.873 0 3.123-.801 3.279-4.322.19-4.316 1.534-7.813 4.216-10.564 2.681-2.75 7.964-8.563 7.964-11.284 0-8.248.702-133.012.937-151.02.148-11.395-2.811-30.251-16.865-41.536-7.364-5.914-39.35-33.613-46.612-40.575-3.316-3.18-9.106-1.364-11.711 2.64-4.685 7.203-4.758 15.367 6.324 27.131 6.559 6.963 12.184 12.623 7.73 23.53-4.216 10.323-13.351 20.648-37.711 20.648-13.743 0-151.305.48-159.745.48-3.747 0-9.135-5.509-9.135-9.364 0-4.162-.234-19.048-.234-31.212 0-13.605-11.009-40.096-35.368-40.096-4.222 0-9.37-1.2-9.135 4.562.331 8.16-5.856 9.844-11.712 7.203-4.23-1.908-8.891-4.78-11.946-6.723-6.075-3.864-10.956 2.726-11.243 12.965-.61 21.762-2.012 52.195-2.576 64.345-1.171 25.21-10.557 39.821-32.09 44.658-24.09 5.41-34.476 14.223-40.025 26.134-4.714 10.12-6.23 20.945-7.742 29.763-1.655 9.648 7.227 7.357 9.354 8.448z" /> <path style="fill: none; stroke: #000; stroke-width: 5; stroke-linejoin: round; stroke-dasharray: none; stroke-opacity: 1;" d="M44.554 308.699c5.621 2.881 52.896 30.75 61.836 35.774 7.261 4.082 18.085 9.124 31.856 14.165 21.976 8.045 37.495 12.32 56.449 15.126 21.08 3.122 32.091 4.52 44.738 5.282 7.963.48 26.891.171 58.557.96 57.855 1.441 148.06 2.882 150.61 2.882 1.873 0 3.123-.801 3.279-4.322.19-4.316 1.534-7.813 4.216-10.564 2.681-2.75 7.964-8.563 7.964-11.284 0-8.248.702-133.012.937-151.02.148-11.395-2.811-30.251-16.865-41.536-7.364-5.914-39.35-33.613-46.612-40.575-3.316-3.18-9.106-1.364-11.711 2.64-4.685 7.203-4.758 15.367 6.324 27.131 6.559 6.963 12.184 12.623 7.73 23.53-4.216 10.323-13.351 20.648-37.711 20.648-13.743 0-151.305.48-159.745.48-3.747 0-9.135-5.509-9.135-9.364 0-4.162-.234-19.048-.234-31.212 0-13.605-11.009-40.096-35.368-40.096-4.222 0-9.37-1.2-9.135 4.562.331 8.16-5.856 9.844-11.712 7.203-4.23-1.908-8.891-4.78-11.946-6.723-6.075-3.864-10.956 2.726-11.243 12.965-.61 21.762-2.012 52.195-2.576 64.345-1.171 25.21-10.557 39.821-32.09 44.658-24.09 5.41-34.476 14.223-40.025 26.134-4.714 10.12-6.23 20.945-7.742 29.763-1.655 9.648 7.227 7.357 9.354 8.448z" /> </g>
    </g>
    <text
       xml:space="preserve"
       style="font-size:202.494px;writing-mode:lr-tb;direction:ltr;display:inline;fill:none;fill-opacity:1;stroke:#ee0000;stroke-width:14.7;stroke-dasharray:none;stroke-opacity:1"
       x="48.206333"
       y="403.4614"
       id="text8"
       inkscape:label="year"><tspan
         sodipodi:role="line"
         id="tspan8"
         style="font-style:normal;font-variant:normal;font-weight:normal;font-stretch:normal;font-size:202.494px;font-family:Formula1;-inkscape-font-specification:Formula1;fill:#000000;fill-opacity:1;stroke:#ffffff;stroke-width:14.7;stroke-dasharray:none;stroke-opacity:1"
         x="48.206333"
         y="403.4614">2026</tspan></text>
  </g>
</svg>
