<?xml version="1.0" encoding="UTF-8" standalone="no"?>
<!-- Created with Inkscape (http://www.inkscape.org/) -->

<svg
   width="680mm"
   height="1000mm"
   viewBox="0 0 680 1000"
   version="1.1"
   id="svg1"
   inkscape:version="1.4.3 (0d15f75, 2025-12-25)"
   sodipodi:docname="template.svg"
   xmlns:inkscape="http://www.inkscape.org/namespaces/inkscape"
   xmlns:sodipodi="http://sodipodi.sourceforge.net/DTD/sodipodi-0.dtd"
   xmlns="http://www.w3.org/2000/svg"
   xmlns:svg="http://www.w3.org/2000/svg">
  <sodipodi:namedview
     id="namedview1"
     pagecolor="#505050"
     bordercolor="#eeeeee"
     borderopacity="1"
     inkscape:showpageshadow="0"
     inkscape:pageopacity="0"
     inkscape:pagecheckerboard="0"
     inkscape:deskcolor="#505050"
     inkscape:document-units="mm"
     inkscape:zoom="0.15208656"
     inkscape:cx="706.83434"
     inkscape:cy="2406.5243"
     inkscape:window-width="1710"
     inkscape:window-height="1045"
     inkscape:window-x="0"
     inkscape:window-y="62"
     inkscape:window-maximized="0"
     inkscape:current-layer="layer1" />
  <defs
     id="defs1">
    <inkscape:path-effect
       effect="fillet_chamfer"
       id="path-effect4"
       is_visible="true"
       lpeversion="1"
       nodesatellites_param="F,0,0,1,0,0,0,1 @ F,0,0,1,0,75,0,1 @ F,0,0,1,0,75,0,1 @ F,0,0,1,0,0,0,1"
       radius="0"
       unit="px"
       method="auto"
       mode="F"
       chamfer_steps="1"
       flexible="false"
       use_knot_distance="true"
       apply_no_radius="true"
       apply_with_radius="true"
       only_selected="false"
       hide_knots="false" />
    <inkscape:path-effect
       effect="fillet_chamfer"
       id="path-effect2"
       is_visible="true"
       lpeversion="1"
       nodesatellites_param="F,0,0,1,0,0,0,1 @ F,0,0,1,0,0,0,1 @ F,0,0,1,0,0,0,1 @ F,0,0,1,0,0,0,1"
       radius="0"
       unit="px"
       method="auto"
       mode="F"
       chamfer_steps="1"
       flexible="false"
       use_knot_distance="true"
       apply_no_radius="true"
       apply_with_radius="true"
       only_selected="false"
       hide_knots="false" />
    <inkscape:path-effect
       effect="fillet_chamfer"
       id="path-effect3"
       is_visible="true"
       lpeversion="1"
       nodesatellites_param="F,0,0,1,0,0,0,1 @ F,0,0,1,0,45.967641,0,1 @ F,0,0,1,0,0,0,1"
       radius="0"
       unit="px"
       method="auto"
       mode="F"
       chamfer_steps="1"
       flexible="false"
       use_knot_distance="true"
       apply_no_radius="true"
       apply_with_radius="true"
       only_selected="false"
       hide_knots="false" />
  </defs>
  <g
     inkscape:label="Layer 1"
     inkscape:groupmode="layer"
     id="layer1">
    <rect
       style="fill:#15151e;fill-opacity:1;stroke-width:0.653077"
       id="rect1"
       width="680"
       height="1000"
       x="-1.4210855e-14"
       y="0"
       ry="2.0972002"
       inkscape:label="background"
       sodipodi:insensitive="true" />
    <path
       d="M 89.999938,30 119.99994,0 H 101.94369 L 71.944312,30 Z M 85.698688,13.065 H 49.381813 c -11.068126,0 -13.005001,0.586875 -17.745626,5.3275 C 27.202437,22.82625 20.000562,30 20.000562,30 h 15.731876 l 3.753124,-3.753125 c 2.467501,-2.4675 3.740001,-2.723125 8.92125,-2.723125 h 26.83375 z M 31.151812,16.253125 C 27.877437,19.3425 20.753062,26.263125 16.913062,30 H -6.25e-5 c 0,0 13.5525005,-13.513125 21.0849995,-20.9275 C 28.845562,1.685 32.714312,0 46.948687,0 H 98.764313 L 87.544938,11.21875 H 48.001187 c -10.001874,0 -12.249375,0.693125 -16.849375,5.034375 z"
       id="Fill-1"
       style="fill:#201f2c;fill-rule:evenodd;stroke:none;stroke-width:1;fill-opacity:1"
       sodipodi:nodetypes="ccccccssccssccccccsccsc"
       inkscape:label="logo"
       transform="matrix(6.3326957,0,0,6.3326957,-39.961349,401.1145)" />
    <text
       xml:space="preserve"
       style="font-style:normal;font-variant:normal;font-weight:normal;font-stretch:normal;font-size:50.8px;line-height:100%;font-family:Formula1;-inkscape-font-specification:Formula1;text-align:start;word-spacing:0px;writing-mode:lr-tb;direction:ltr;text-anchor:start;opacity:1;fill:#ee0000;fill-opacity:1;stroke:none;stroke-width:0.223;stroke-opacity:1"
       x="21.697973"
       y="63.709557"
       id="text2"
       inkscape:label="round"><tspan
         sodipodi:role="line"
         style="font-style:normal;font-variant:normal;font-weight:normal;font-stretch:normal;font-size:50.8px;font-family:Formula1;-inkscape-font-specification:Formula1;fill:#ee0000;fill-opacity:1;stroke-width:0.223"
         x="21.697973"
         y="63.709557"
         id="tspan1">ROUND 07</tspan></text>
    <path
       style="display:inline;fill:none;fill-opacity:1;stroke:#ee0000;stroke-width:15;stroke-dasharray:none;stroke-opacity:1"
       d="M 352.06858,56.213936 H 580 a 75,75 45 0 1 75,75.000004 V 900 a 75,75 135 0 1 -75,75 H 0"
       id="path1"
       sodipodi:nodetypes="cccc"
       inkscape:path-effect="#path-effect4"
       inkscape:original-d="M 352.06858,56.213936 H 655 V 975 H 0" />
    <g
       id="g10"
       transform="translate(-61.769566,39.315292)"
       inkscape:label="info"
       style="display:inline">
      <g
         id="g9"
         transform="translate(0,-0.2293034)">
        
        <text
           xml:space="preserve"
           style="font-style:normal;font-variant:normal;font-weight:normal;font-stretch:normal;font-size:31.4941px;line-height:100%;font-family:Formula1;-inkscape-font-specification:Formula1;text-align:start;word-spacing:0px;writing-mode:lr-tb;direction:ltr;text-anchor:start;opacity:1;fill:#ffffff;fill-opacity:1;stroke:none;stroke-width:7.83601;stroke-linecap:butt;stroke-linejoin:miter;stroke-dasharray:none;stroke-opacity:1"
           x="206.93063"
           y="110.78185"
           id="text3"
           inkscape:label="location"><tspan
             sodipodi:role="line"
             id="tspan3"
             style="font-style:normal;font-variant:normal;font-weight:normal;font-stretch:normal;font-size:31.4941px;font-family:Formula1;-inkscape-font-specification:Formula1;stroke:none;stroke-width:7.836"
             x="206.93063"
             y="110.78185">BARCELONA-CATALUNYA</tspan></text>
        <text
           xml:space="preserve"
           style="font-style:normal;font-variant:normal;font-weight:normal;font-stretch:normal;font-size:35.2778px;line-height:100%;font-family:Formula1;-inkscape-font-specification:Formula1;text-align:start;word-spacing:0px;writing-mode:lr-tb;direction:ltr;text-anchor:start;opacity:1;fill:#ffffff;fill-opacity:1;stroke:none;stroke-width:7.83601;stroke-linecap:butt;stroke-linejoin:miter;stroke-dasharray:none;stroke-opacity:1"
           x="205.16676"
           y="151.7265"
           id="text4"
           inkscape:label="session"><tspan
             sodipodi:role="line"
             id="tspan4"
             style="font-style:normal;font-variant:normal;font-weight:normal;font-stretch:normal;font-size:35.2778px;font-family:Formula1;-inkscape-font-specification:Formula1;fill:#ee0000;fill-opacity:1;stroke-width:7.836"
             x="205.16676"
             y="151.7265">RACE</tspan></text>
      </g>
      <g transform="translate(86.769573, 60.684713) scale(0.19690717578125)" inkscape:label="flag"><mask id="a"><circle cx="256" cy="256" r="256" fill="#fff"/></mask><g mask="url(#a)"><path fill="#ffda44" d="m0 128 256-32 256 32v256l-256 32L0 384Z"/><path fill="#eee" d="M196 168q-11 1-15 11l-5-1q-15 1-16 16c-1 15 7 16 16 16q11 0 15-11a16 16 0 0 0 17-4 16 16 0 0 0 17 4 16 16 0 1 0 10-20 16 16 0 0 0-27-5q-4-6-12-6m0 8q8 1 8 8 0 8-8 8-7 0-8-8 1-7 8-8m24 0q8 1 8 8 0 8-8 8-7 0-8-8 1-7 8-8m-44 10 4 1 4 8q-1 7-8 7-9 0-8-8 1-7 8-8m64 0q8 1 8 8 0 8-8 8-7 0-8-7l4-8zm-112 38v80h16v-80zm80 0v40c-26 0-48 14-48 32s22 32 48 32 48-14 48-32v-72zm64 0v80h16v-80z"/><path fill="#ff9811" d="M200 160h16v32h-16z"/><path fill="#d80027" d="M0 0v128h512V0zm208 184c-22 0-40 11-40 24l8 8h64l8-8c0-13-18-24-40-24m-72 8a8 8 0 0 0-8 8v8a8 8 0 1 0 16 0v-8a8 8 0 0 0-8-8m144 0a8 8 0 0 0-8 8v8a8 8 0 1 0 16 0v-8a8 8 0 0 0-8-8m-120 32v24h-38a4 4 0 0 0-4 4 4 4 0 0 0 4 4h38v40a24 24 0 0 0 24 24 24 24 0 0 0 24-24 24 24 0 0 0 24 24 24 24 0 0 0 24-24v-24h-48v-48zm72 8a10 10 0 0 0-10 10v12a10 10 0 1 0 20 0v-12a10 10 0 0 0-10-10m24 16v8h38a4 4 0 0 0 4-4 4 4 0 0 0-4-4zm-134 24a4 4 0 0 0-4 4 4 4 0 0 0 4 4h28a4 4 0 0 0 4-4 4 4 0 0 0-4-4zm144 0a4 4 0 0 0-4 4 4 4 0 0 0 4 4h28a4 4 0 0 0 4-4 4 4 0 0 0-4-4zM0 384v128h512V384z"/><path fill="#ffda44" d="M186 196a6 6 0 0 0-6 6 6 6 0 0 0 6 6 6 6 0 0 0 6-6 6 6 0 0 0-6-6m22 0a6 6 0 0 0-6 6 6 6 0 0 0 6 6 6 6 0 0 0 6-6 6 6 0 0 0-6-6m22 0a6 6 0 0 0-6 6 6 6 0 0 0 6 6 6 6 0 0 0 6-6 6 6 0 0 0-6-6"/><path fill="#ff9811" d="M128 208a8 8 0 1 0 0 16h16a8 8 0 1 0 0-16zm144 0a8 8 0 1 0 0 16h16a8 8 0 1 0 0-16zm-96 8v8h64v-8zm-8 16v8h8v16h-8v8h32v-8h-8v-16h8v-8zm-8 40v24q1 12 9 19v-43zm19 0v47h10v-47zm20 0v43q9-7 9-19v-24zm-71 32a8 8 0 1 0 0 16h16a8 8 0 1 0 0-16zm144 0a8 8 0 1 0 0 16h16a8 8 0 1 0 0-16z"/><path fill="#338af3" d="M208 256a16 16 0 0 0-16 16 16 16 0 0 0 16 16 16 16 0 0 0 16-16 16 16 0 0 0-16-16m-80 64a8 8 0 1 0 0 16h16a8 8 0 1 0 0-16zm144 0a8 8 0 1 0 0 16h16a8 8 0 1 0 0-16z"/></g></g>
    </g>
    <g
       id="g8"
       inkscape:label="date"
       transform="translate(308.90368,536.87111)"
       style="display:inline">
      <text
         xml:space="preserve"
         style="font-style:normal;font-variant:normal;font-weight:normal;font-stretch:normal;font-size:88.1944px;line-height:100%;font-family:Formula1;-inkscape-font-specification:Formula1;text-align:center;word-spacing:0px;writing-mode:lr-tb;direction:ltr;text-anchor:middle;display:inline;opacity:1;fill:#ee0000;fill-opacity:1;stroke:none;stroke-width:7.83601;stroke-linecap:butt;stroke-linejoin:miter;stroke-dasharray:none;stroke-opacity:1"
         x="-122.88599"
         y="362.8576"
         id="text6"
         inkscape:label="day"><tspan
           sodipodi:role="line"
           id="tspan6"
           style="font-style:normal;font-variant:normal;font-weight:normal;font-stretch:normal;font-size:88.1944px;font-family:Formula1;-inkscape-font-specification:Formula1;fill:#ffffff;fill-opacity:1;stroke-width:7.836"
           x="-122.88599"
           y="362.8576">14</tspan></text>
      <g
         id="g7"
         inkscape:label="month"
         transform="translate(34.626847,5.5402955)"
         style="display:inline">
        <rect
           style="display:inline;opacity:1;fill:#ffffff;fill-opacity:1;stroke:none;stroke-width:16.1904;stroke-linecap:butt;stroke-linejoin:miter;stroke-dasharray:none;stroke-opacity:1"
           id="rect7"
           width="279.15674"
           height="119.34962"
           x="-59.869205"
           y="264.56961"
           ry="47.537582" />
        <text
           xml:space="preserve"
           style="font-style:normal;font-variant:normal;font-weight:normal;font-stretch:normal;font-size:88.1944px;line-height:100%;font-family:Formula1;-inkscape-font-specification:Formula1;text-align:center;word-spacing:0px;writing-mode:lr-tb;direction:ltr;text-anchor:middle;display:inline;opacity:1;fill:#15151e;fill-opacity:1;stroke:none;stroke-width:7.83601;stroke-linecap:butt;stroke-linejoin:miter;stroke-dasharray:none;stroke-opacity:1"
           x="78.165771"
           y="357.31732"
           id="text7"
           inkscape:label="month"><tspan
             sodipodi:role="line"
             id="tspan7"
             style="font-style:normal;font-variant:normal;font-weight:normal;font-stretch:normal;font-size:88.1944px;font-family:Formula1;-inkscape-font-specification:Formula1;fill:#15151e;fill-opacity:1;stroke-width:7.836"
             x="78.165771"
             y="357.31732">MAY</tspan></text>
      </g>
    </g>
    <g
       id="g3"
       inkscape:label="track"
       transform="matrix(1.2571293,0,0,1.2571293,-208.71205,272.34527)"
       style="display:inline">
      
      <text
         xml:space="preserve"
         style="font-style:normal;font-variant:normal;font-weight:normal;font-stretch:normal;font-size:24.9317px;line-height:100%;font-family:Formula1;-inkscape-font-specification:Formula1;text-align:center;word-spacing:0px;writing-mode:lr-tb;direction:ltr;text-anchor:middle;display:inline;opacity:1;fill:#ee0000;fill-opacity:1;stroke:none;stroke-width:7.83601;stroke-linecap:butt;stroke-linejoin:miter;stroke-dasharray:none;stroke-opacity:1"
         x="436.95645"
         y="394.58563"
         id="text5"
         inkscape:label="track-name"><tspan
           sodipodi:role="line"
           id="tspan5"
           style="font-style:normal;font-variant:normal;font-weight:normal;font-stretch:normal;font-size:24.9317px;font-family:Formula1;-inkscape-font-specification:Formula1;stroke-width:7.836"
           x="436.95645"
           y="394.58563">Circuit de Barcelona-Catalunya</tspan></text>
      <g inkscape:label="embedded-track" transform=" translate(246.87741299755635, 60.07056672025695) scale(0.7946567313530623) rotate(57.75, 250.1034772510237, 250.00088055256336) " > <path style="fill: none; stroke: #fff; stroke-width: 20; stroke-linejoin: round; stroke-dasharray: none; stroke-opacity: 1;" d="M436.09 105.316c-11.496 18.032-213.437 339.032-220.733 350.704-6.656 10.65-17.427 12.344-24.445 7.624-6.155-4.14-7.935-5.411-11.658-7.585-3.59-2.097-14.448-4.739-24.849 2.904-10.811 7.948-17.856 13.285-28.116 20.533-15.249 10.77-45.437 5.85-57.241-10.287-15.49-21.177-16.04-55.243.243-81.808 9.197-15.004 45.986-73.94 51.553-82.048 6.839-9.961 17.184-12.223 29.044-6.455 16.679 8.111 18.514 37.238 11.375 48.81-7.988 12.948-36.407 59.453-39.815 65.348-8.956 15.49 5.28 27.61 18.998 21.178 7.745-3.632 43.566-20.937 50.1-24.204 12.586-6.292 19.247-13.666 26.464-21.096 5.486-5.647 22.675-32.663 27.148-39.531 3.388-5.204 2.783-15.49-5.084-20.574-5.388-3.482-9.197-5.687-12.061-7.664-2.637-1.82-7.983-5.663-12.264-15.45-3.388-7.745-25.17-59.177-28.316-67.406-3.98-10.41-1.676-24.194 7.503-34.127 1.917-2.074 7.728-6.638 17.105-11.296 23.397-11.617 72.137-36.55 78.499-39.774 10.155-5.149 61.318-32.028 86.434-45.203 3.296-1.728 6.809-4.904 8.925-8.711 1.8-3.243 1.889-10.257-3.74-15.182-12.322-10.782-26.568-9.388-36.378-6.747-7.628 2.054-11.725 4.671-16.092 8.181-3.904 3.139-7.62 6.124-12.647 10.18-4.182 3.374-21.542 4.84-28.924-5.325-7.752-10.674-7.48-23.381 2.54-31.829 9.238-7.785 38.362-32.07 46.713-38.846 3.286-2.667 16.224-6.485 24.993-4.126 8.917 2.647 16.077 6.158 24.31 11.174 11.264 8.52 6.556 4.618 17.915 11.996 9.637 6.263 18.666 12.172 23.827 15.606 11.941 7.955 23.257 28.164 8.674 51.036z" /> <path style="fill: none; stroke: #000; stroke-width: 5; stroke-linejoin: round; stroke-dasharray: none; stroke-opacity: 1;" d="M436.09 105.316c-11.496 18.032-213.437 339.032-220.733 350.704-6.656 10.65-17.427 12.344-24.445 7.624-6.155-4.14-7.935-5.411-11.658-7.585-3.59-2.097-14.448-4.739-24.849 2.904-10.811 7.948-17.856 13.285-28.116 20.533-15.249 10.77-45.437 5.85-57.241-10.287-15.49-21.177-16.04-55.243.243-81.808 9.197-15.004 45.986-73.94 51.553-82.048 6.839-9.961 17.184-12.223 29.044-6.455 16.679 8.111 18.514 37.238 11.375 48.81-7.988 12.948-36.407 59.453-39.815 65.348-8.956 15.49 5.28 27.61 18.998 21.178 7.745-3.632 43.566-20.937 50.1-24.204 12.586-6.292 19.247-13.666 26.464-21.096 5.486-5.647 22.675-32.663 27.148-39.531 3.388-5.204 2.783-15.49-5.084-20.574-5.388-3.482-9.197-5.687-12.061-7.664-2.637-1.82-7.983-5.663-12.264-15.45-3.388-7.745-25.17-59.177-28.316-67.406-3.98-10.41-1.676-24.194 7.503-34.127 1.917-2.074 7.728-6.638 17.105-11.296 23.397-11.617 72.137-36.55 78.499-39.774 10.155-5.149 61.318-32.028 86.434-45.203 3.296-1.728 6.809-4.904 8.925-8.711 1.8-3.243 1.889-10.257-3.74-15.182-12.322-10.782-26.568-9.388-36.378-6.747-7.628 2.054-11.725 4.671-16.092 8.181-3.904 3.139-7.62 6.124-12.647 10.18-4.182 3.374-21.542 4.84-28.924-5.325-7.752-10.674-7.48-23.381 2.54-31.829 9.238-7.785 38.362-32.07 46.713-38.846 3.286-2.667 16.224-6.485 24.993-4.126 8.917 2.647 16.077 6.158 24.31 11.174 11.264 8.52 6.556 4.618 17.915 11.996 9.637 6.263 18.666 12.172 23.827 15.606 11.941 7.955 23.257 28.164 8.674 51.036z" /> </g>
    </g>
    <text
       xml:space="preserve"
       style="font-size:202.494px;writing-mode:lr-tb;direction:ltr;display:inline;fill:none;fill-opacity:1;stroke:#ee0000;stroke-width:14.7;stroke-dasharray:none;stroke-opacity:1"
       x="48.206333"
       y="403.4614"
       id="text8"
       inkscape:label="year"><tspan
         sodipodi:role="line"
         id="tspan8"
         style="font-style:normal;font-variant:normal;font-weight:normal;font-stretch:normal;font-size:202.494px;font-family:Formula1;-inkscape-font-specification:Formula1;fill:#000000;fill-opacity:1;stroke:#ffffff;stroke-width:14.7;stroke-dasharray:none;stroke-opacity:1"
         x="48.206333"
         y="403.4614">2026</tspan></text>
  </g>
</svg>
