<?xml version="1.0" encoding="UTF-8" standalone="no"?>
<!-- Created with Inkscape (http://www.inkscape.org/) -->

<svg
   width="720mm"
   height="405mm"
   viewBox="0 0 720 405"
   version="1.1"
   id="svg1"
   xml:space="preserve"
   inkscape:export-xdpi="45.18441"
   inkscape:export-ydpi="45.18441"
   inkscape:version="1.4.3 (0d15f75, 2025-12-25)"
   sodipodi:docname="template.svg"
   xmlns:inkscape="http://www.inkscape.org/namespaces/inkscape"
   xmlns:sodipodi="http://sodipodi.sourceforge.net/DTD/sodipodi-0.dtd"
   xmlns="http://www.w3.org/2000/svg"
   xmlns:svg="http://www.w3.org/2000/svg"><sodipodi:namedview
     id="namedview1"
     pagecolor="#ffffff"
     bordercolor="#111111"
     borderopacity="1"
     inkscape:showpageshadow="0"
     inkscape:pageopacity="0"
     inkscape:pagecheckerboard="1"
     inkscape:deskcolor="#d1d1d1"
     inkscape:document-units="mm"
     inkscape:zoom="0.25178368"
     inkscape:cx="1312.6347"
     inkscape:cy="969.08584"
     inkscape:window-width="1710"
     inkscape:window-height="1045"
     inkscape:window-x="0"
     inkscape:window-y="62"
     inkscape:window-maximized="0"
     inkscape:current-layer="layer1" /><defs
     id="defs1"><inkscape:path-effect
       effect="fillet_chamfer"
       id="path-effect3"
       is_visible="true"
       lpeversion="1"
       nodesatellites_param="F,0,0,1,0,0,0,1 @ F,0,0,1,0,45.967641,0,1 @ F,0,0,1,0,0,0,1"
       radius="0"
       unit="px"
       method="auto"
       mode="F"
       chamfer_steps="1"
       flexible="false"
       use_knot_distance="true"
       apply_no_radius="true"
       apply_with_radius="true"
       only_selected="false"
       hide_knots="false" /><path
       d="M101.086812,30 L101.711812,30 L101.711812,27.106875 L101.722437,27.106875 L102.761812,30 L103.302437,30 L104.341812,27.106875 L104.352437,27.106875 L104.352437,30 L104.977437,30 L104.977437,26.25125 L104.063687,26.25125 L103.055562,29.18625 L103.044937,29.18625 L102.011187,26.25125 L101.086812,26.25125 L101.086812,30 Z M97.6274375,26.818125 L98.8136875,26.818125 L98.8136875,30 L99.4699375,30 L99.4699375,26.818125 L100.661812,26.818125 L100.661812,26.25125 L97.6274375,26.25125 L97.6274375,26.818125 Z M89.9999375,30 L119.999937,0 L101.943687,0 L71.9443125,30 L89.9999375,30 Z M85.6986875,13.065 L49.3818125,13.065 C38.3136875,13.065 36.3768125,13.651875 31.6361875,18.3925 C27.2024375,22.82625 20.0005625,30 20.0005625,30 L35.7324375,30 L39.4855625,26.246875 C41.9530625,23.779375 43.2255625,23.52375 48.4068125,23.52375 L75.2405625,23.52375 L85.6986875,13.065 Z M31.1518125,16.253125 C27.8774375,19.3425 20.7530625,26.263125 16.9130625,30 L-6.25e-05,30 C-6.25e-05,30 13.5524375,16.486875 21.0849375,9.0725 C28.8455625,1.685 32.7143125,0 46.9486875,0 L98.7643125,0 L87.5449375,11.21875 L48.0011875,11.21875 C37.9993125,11.21875 35.7518125,11.911875 31.1518125,16.253125 Z"
       id="path-1" /></defs><g
     inkscape:label="Layer 1"
     inkscape:groupmode="layer"
     id="layer1"><rect
       style="opacity:1;fill:#15151e;stroke:none;stroke-width:0.459853"
       id="rect1"
       width="719.54016"
       height="404.54016"
       x="0.2299265"
       y="0.2299265"
       inkscape:export-filename="../png/template.png"
       inkscape:export-xdpi="45.18441"
       inkscape:export-ydpi="45.18441"
       inkscape:label="background" /><path
       d="M 549.98062,297.49087 739.9615,107.51 H 625.61677 L 435.63984,297.49087 Z M 522.74211,190.24667 H 292.75839 c -70.09107,0 -82.35671,3.7165 -112.37764,33.73744 -28.07759,28.07759 -73.68488,73.50676 -73.68488,73.50676 h 99.62519 l 23.76739,-23.7674 c 15.62593,-15.62592 23.68429,-17.24472 56.49556,-17.24472 h 169.92997 z m -345.42876,20.18942 c -20.73562,19.56408 -65.85212,63.39029 -90.16967,87.05478 H -19.962 c 0,0 85.82387,-85.57451 133.52489,-132.52749 C 162.70857,118.18059 187.20818,107.51 277.35015,107.51 h 328.13259 l -71.04889,71.04493 H 284.01531 c -63.33882,0 -77.57156,4.38935 -106.70196,31.88116 z"
       id="Fill-1-6"
       style="fill:#201f2c;fill-opacity:1;fill-rule:evenodd;stroke:none;stroke-width:6.3327"
       sodipodi:nodetypes="ccccccssccssccccccsccsc"
       inkscape:label="logo" /><text
       xml:space="preserve"
       style="font-style:normal;font-variant:normal;font-weight:normal;font-stretch:normal;font-size:31.75px;line-height:100%;font-family:Formula1;-inkscape-font-specification:Formula1;text-align:start;word-spacing:0px;writing-mode:lr-tb;direction:ltr;text-anchor:start;opacity:1;fill:#ee0000;fill-opacity:1;stroke:none;stroke-width:0.223;stroke-opacity:1"
       x="28.402561"
       y="46.197952"
       id="text2"
       inkscape:label="round"><tspan
         sodipodi:role="line"
         style="font-style:normal;font-variant:normal;font-weight:normal;font-stretch:normal;font-size:31.75px;font-family:Formula1;-inkscape-font-specification:Formula1;fill:#ee0000;fill-opacity:1;stroke-width:0.223"
         x="28.402561"
         y="46.197952"
         id="tspan1">ROUND 07</tspan></text><path
       style="opacity:1;fill:none;fill-opacity:1;stroke:#ee0000;stroke-width:7.83601;stroke-linecap:butt;stroke-linejoin:miter;stroke-dasharray:none;stroke-opacity:1"
       d="m 187.88728,39.21919 h 456.58523 a 45.967641,45.967641 45 0 1 45.96764,45.967641 V 413.1696"
       id="path3"
       sodipodi:nodetypes="ccc"
       inkscape:path-effect="#path-effect3"
       inkscape:original-d="M 187.88728,39.21919 H 690.44015 V 413.1696"
       transform="matrix(0.86982237,0,0,1.0007021,74.217474,3.230212)" /><g
       id="g10"
       transform="translate(1.3716371)"
       inkscape:label="info"><text
         xml:space="preserve"
         style="font-style:normal;font-variant:normal;font-weight:normal;font-stretch:normal;font-size:29.7719px;line-height:100%;font-family:Formula1;-inkscape-font-specification:Formula1;text-align:start;word-spacing:0px;writing-mode:lr-tb;direction:ltr;text-anchor:start;opacity:1;fill:#ffffff;fill-opacity:1;stroke:none;stroke-width:7.83604;stroke-linecap:butt;stroke-linejoin:miter;stroke-dasharray:none;stroke-opacity:1"
         x="205.8817"
         y="110.78199"
         id="text3"
         inkscape:label="location"><tspan
           sodipodi:role="line"
           id="tspan3"
           style="font-style:normal;font-variant:normal;font-weight:500;font-stretch:normal;font-size:29.7719px;font-family:Formula1;-inkscape-font-specification:'Formula1 Medium';stroke:none;stroke-width:7.83603"
           x="205.8817"
           y="110.78199">BARCELONA-CATALUNYA</tspan></text><text
         xml:space="preserve"
         style="font-style:normal;font-variant:normal;font-weight:500;font-stretch:normal;font-size:26.4583px;line-height:100%;font-family:Formula1;-inkscape-font-specification:'Formula1 Medium';text-align:start;word-spacing:0px;writing-mode:lr-tb;direction:ltr;text-anchor:start;opacity:1;fill:#ffffff;fill-opacity:1;stroke:none;stroke-width:7.83601;stroke-linecap:butt;stroke-linejoin:miter;stroke-dasharray:none;stroke-opacity:1"
         x="204.55881"
         y="147.57129"
         id="text4"
         inkscape:label="session"><tspan
           sodipodi:role="line"
           id="tspan4"
           style="font-style:normal;font-variant:normal;font-weight:normal;font-stretch:normal;font-size:26.4583px;font-family:Formula1;-inkscape-font-specification:Formula1;fill:#ee0000;fill-opacity:1;stroke-width:7.836"
           x="204.55881"
           y="147.57129">PRACTICE 03</tspan></text></g><g
       id="g3"
       inkscape:label="track"><text
         xml:space="preserve"
         style="font-style:normal;font-variant:normal;font-weight:normal;font-stretch:normal;font-size:19.0503px;line-height:100%;font-family:Formula1;-inkscape-font-specification:Formula1;text-align:center;word-spacing:0px;writing-mode:lr-tb;direction:ltr;text-anchor:middle;opacity:1;fill:#ee0000;fill-opacity:1;stroke:none;stroke-width:7.83615;stroke-linecap:butt;stroke-linejoin:miter;stroke-dasharray:none;stroke-opacity:1"
         x="436.95758"
         y="385.74637"
         id="text5"
         inkscape:label="track-name"><tspan
           sodipodi:role="line"
           id="tspan5"
           style="font-size:19.0503px;stroke-width:7.83614"
           x="436.95758"
           y="385.74637">Circuit de Barcelona-Catalunya</tspan></text><g inkscape:label="embedded-track" transform=" translate(246.87741299755635, 60.07056672025695) scale(0.7946567313530623) rotate(57.75, 250.1034772510237, 250.00088055256336) " > <path style="fill: none; stroke: #fff; stroke-width: 20; stroke-linejoin: round; stroke-dasharray: none; stroke-opacity: 1;" d="M436.09 105.316c-11.496 18.032-213.437 339.032-220.733 350.704-6.656 10.65-17.427 12.344-24.445 7.624-6.155-4.14-7.935-5.411-11.658-7.585-3.59-2.097-14.448-4.739-24.849 2.904-10.811 7.948-17.856 13.285-28.116 20.533-15.249 10.77-45.437 5.85-57.241-10.287-15.49-21.177-16.04-55.243.243-81.808 9.197-15.004 45.986-73.94 51.553-82.048 6.839-9.961 17.184-12.223 29.044-6.455 16.679 8.111 18.514 37.238 11.375 48.81-7.988 12.948-36.407 59.453-39.815 65.348-8.956 15.49 5.28 27.61 18.998 21.178 7.745-3.632 43.566-20.937 50.1-24.204 12.586-6.292 19.247-13.666 26.464-21.096 5.486-5.647 22.675-32.663 27.148-39.531 3.388-5.204 2.783-15.49-5.084-20.574-5.388-3.482-9.197-5.687-12.061-7.664-2.637-1.82-7.983-5.663-12.264-15.45-3.388-7.745-25.17-59.177-28.316-67.406-3.98-10.41-1.676-24.194 7.503-34.127 1.917-2.074 7.728-6.638 17.105-11.296 23.397-11.617 72.137-36.55 78.499-39.774 10.155-5.149 61.318-32.028 86.434-45.203 3.296-1.728 6.809-4.904 8.925-8.711 1.8-3.243 1.889-10.257-3.74-15.182-12.322-10.782-26.568-9.388-36.378-6.747-7.628 2.054-11.725 4.671-16.092 8.181-3.904 3.139-7.62 6.124-12.647 10.18-4.182 3.374-21.542 4.84-28.924-5.325-7.752-10.674-7.48-23.381 2.54-31.829 9.238-7.785 38.362-32.07 46.713-38.846 3.286-2.667 16.224-6.485 24.993-4.126 8.917 2.647 16.077 6.158 24.31 11.174 11.264 8.52 6.556 4.618 17.915 11.996 9.637 6.263 18.666 12.172 23.827 15.606 11.941 7.955 23.257 28.164 8.674 51.036z" /> <path style="fill: none; stroke: #000; stroke-width: 5; stroke-linejoin: round; stroke-dasharray: none; stroke-opacity: 1;" d="M436.09 105.316c-11.496 18.032-213.437 339.032-220.733 350.704-6.656 10.65-17.427 12.344-24.445 7.624-6.155-4.14-7.935-5.411-11.658-7.585-3.59-2.097-14.448-4.739-24.849 2.904-10.811 7.948-17.856 13.285-28.116 20.533-15.249 10.77-45.437 5.85-57.241-10.287-15.49-21.177-16.04-55.243.243-81.808 9.197-15.004 45.986-73.94 51.553-82.048 6.839-9.961 17.184-12.223 29.044-6.455 16.679 8.111 18.514 37.238 11.375 48.81-7.988 12.948-36.407 59.453-39.815 65.348-8.956 15.49 5.28 27.61 18.998 21.178 7.745-3.632 43.566-20.937 50.1-24.204 12.586-6.292 19.247-13.666 26.464-21.096 5.486-5.647 22.675-32.663 27.148-39.531 3.388-5.204 2.783-15.49-5.084-20.574-5.388-3.482-9.197-5.687-12.061-7.664-2.637-1.82-7.983-5.663-12.264-15.45-3.388-7.745-25.17-59.177-28.316-67.406-3.98-10.41-1.676-24.194 7.503-34.127 1.917-2.074 7.728-6.638 17.105-11.296 23.397-11.617 72.137-36.55 78.499-39.774 10.155-5.149 61.318-32.028 86.434-45.203 3.296-1.728 6.809-4.904 8.925-8.711 1.8-3.243 1.889-10.257-3.74-15.182-12.322-10.782-26.568-9.388-36.378-6.747-7.628 2.054-11.725 4.671-16.092 8.181-3.904 3.139-7.62 6.124-12.647 10.18-4.182 3.374-21.542 4.84-28.924-5.325-7.752-10.674-7.48-23.381 2.54-31.829 9.238-7.785 38.362-32.07 46.713-38.846 3.286-2.667 16.224-6.485 24.993-4.126 8.917 2.647 16.077 6.158 24.31 11.174 11.264 8.52 6.556 4.618 17.915 11.996 9.637 6.263 18.666 12.172 23.827 15.606 11.941 7.955 23.257 28.164 8.674 51.036z" /> </g></g><g
       id="g8"
       inkscape:label="date"
       transform="translate(26.39625,4.4877724)"><text
         xml:space="preserve"
         style="font-style:normal;font-variant:normal;font-weight:normal;font-stretch:normal;font-size:38.1px;line-height:100%;font-family:Formula1;-inkscape-font-specification:Formula1;text-align:center;word-spacing:0px;writing-mode:lr-tb;direction:ltr;text-anchor:middle;opacity:1;fill:#ee0000;fill-opacity:1;stroke:none;stroke-width:7.83601;stroke-linecap:butt;stroke-linejoin:miter;stroke-dasharray:none;stroke-opacity:1"
         x="73.904526"
         y="296.20868"
         id="text6"
         inkscape:label="day"><tspan
           sodipodi:role="line"
           id="tspan6"
           style="font-style:normal;font-variant:normal;font-weight:500;font-stretch:normal;font-size:38.1px;font-family:Formula1;-inkscape-font-specification:'Formula1 Medium';fill:#ffffff;fill-opacity:1;stroke-width:7.836"
           x="73.904526"
           y="296.20868">13</tspan></text><g
         id="g7"
         inkscape:label="month"><rect
           style="opacity:1;fill:#ffffff;fill-opacity:1;stroke:none;stroke-width:7.83601;stroke-linecap:butt;stroke-linejoin:miter;stroke-dasharray:none;stroke-opacity:1"
           id="rect7"
           width="135.10905"
           height="57.764015"
           x="10.769562"
           y="306.44302"
           ry="23.007711" /><text
           xml:space="preserve"
           style="font-style:normal;font-variant:normal;font-weight:500;font-stretch:normal;font-size:38.1px;line-height:100%;font-family:Formula1;-inkscape-font-specification:'Formula1 Medium';text-align:center;word-spacing:0px;writing-mode:lr-tb;direction:ltr;text-anchor:middle;opacity:1;fill:#15151e;fill-opacity:1;stroke:none;stroke-width:7.83601;stroke-linecap:butt;stroke-linejoin:miter;stroke-dasharray:none;stroke-opacity:1"
           x="76.800072"
           y="349.61252"
           id="text7"
           inkscape:label="month"><tspan
             sodipodi:role="line"
             id="tspan7"
             style="fill:#15151e;fill-opacity:1;stroke-width:7.836"
             x="76.800072"
             y="349.61252">MAY</tspan></text></g></g><g transform="translate(71.964256, 72.019316) scale(0.15632884375)" inkscape:label="flag"><mask id="a"><circle cx="256" cy="256" r="256" fill="#fff"/></mask><g mask="url(#a)"><path fill="#ffda44" d="m0 128 256-32 256 32v256l-256 32L0 384Z"/><path fill="#eee" d="M196 168q-11 1-15 11l-5-1q-15 1-16 16c-1 15 7 16 16 16q11 0 15-11a16 16 0 0 0 17-4 16 16 0 0 0 17 4 16 16 0 1 0 10-20 16 16 0 0 0-27-5q-4-6-12-6m0 8q8 1 8 8 0 8-8 8-7 0-8-8 1-7 8-8m24 0q8 1 8 8 0 8-8 8-7 0-8-8 1-7 8-8m-44 10 4 1 4 8q-1 7-8 7-9 0-8-8 1-7 8-8m64 0q8 1 8 8 0 8-8 8-7 0-8-7l4-8zm-112 38v80h16v-80zm80 0v40c-26 0-48 14-48 32s22 32 48 32 48-14 48-32v-72zm64 0v80h16v-80z"/><path fill="#ff9811" d="M200 160h16v32h-16z"/><path fill="#d80027" d="M0 0v128h512V0zm208 184c-22 0-40 11-40 24l8 8h64l8-8c0-13-18-24-40-24m-72 8a8 8 0 0 0-8 8v8a8 8 0 1 0 16 0v-8a8 8 0 0 0-8-8m144 0a8 8 0 0 0-8 8v8a8 8 0 1 0 16 0v-8a8 8 0 0 0-8-8m-120 32v24h-38a4 4 0 0 0-4 4 4 4 0 0 0 4 4h38v40a24 24 0 0 0 24 24 24 24 0 0 0 24-24 24 24 0 0 0 24 24 24 24 0 0 0 24-24v-24h-48v-48zm72 8a10 10 0 0 0-10 10v12a10 10 0 1 0 20 0v-12a10 10 0 0 0-10-10m24 16v8h38a4 4 0 0 0 4-4 4 4 0 0 0-4-4zm-134 24a4 4 0 0 0-4 4 4 4 0 0 0 4 4h28a4 4 0 0 0 4-4 4 4 0 0 0-4-4zm144 0a4 4 0 0 0-4 4 4 4 0 0 0 4 4h28a4 4 0 0 0 4-4 4 4 0 0 0-4-4zM0 384v128h512V384z"/><path fill="#ffda44" d="M186 196a6 6 0 0 0-6 6 6 6 0 0 0 6 6 6 6 0 0 0 6-6 6 6 0 0 0-6-6m22 0a6 6 0 0 0-6 6 6 6 0 0 0 6 6 6 6 0 0 0 6-6 6 6 0 0 0-6-6m22 0a6 6 0 0 0-6 6 6 6 0 0 0 6 6 6 6 0 0 0 6-6 6 6 0 0 0-6-6"/><path fill="#ff9811" d="M128 208a8 8 0 1 0 0 16h16a8 8 0 1 0 0-16zm144 0a8 8 0 1 0 0 16h16a8 8 0 1 0 0-16zm-96 8v8h64v-8zm-8 16v8h8v16h-8v8h32v-8h-8v-16h8v-8zm-8 40v24q1 12 9 19v-43zm19 0v47h10v-47zm20 0v43q9-7 9-19v-24zm-71 32a8 8 0 1 0 0 16h16a8 8 0 1 0 0-16zm144 0a8 8 0 1 0 0 16h16a8 8 0 1 0 0-16z"/><path fill="#338af3" d="M208 256a16 16 0 0 0-16 16 16 16 0 0 0 16 16 16 16 0 0 0 16-16 16 16 0 0 0-16-16m-80 64a8 8 0 1 0 0 16h16a8 8 0 1 0 0-16zm144 0a8 8 0 1 0 0 16h16a8 8 0 1 0 0-16z"/></g></g></g></svg>
