<?xml version="1.0" encoding="UTF-8" standalone="no"?>
<!-- Created with Inkscape (http://www.inkscape.org/) -->

<svg
   width="720mm"
   height="405mm"
   viewBox="0 0 720 405"
   version="1.1"
   id="svg1"
   xml:space="preserve"
   inkscape:export-xdpi="45.18441"
   inkscape:export-ydpi="45.18441"
   inkscape:version="1.4.3 (0d15f75, 2025-12-25)"
   sodipodi:docname="template.svg"
   xmlns:inkscape="http://www.inkscape.org/namespaces/inkscape"
   xmlns:sodipodi="http://sodipodi.sourceforge.net/DTD/sodipodi-0.dtd"
   xmlns="http://www.w3.org/2000/svg"
   xmlns:svg="http://www.w3.org/2000/svg"><sodipodi:namedview
     id="namedview1"
     pagecolor="#ffffff"
     bordercolor="#111111"
     borderopacity="1"
     inkscape:showpageshadow="0"
     inkscape:pageopacity="0"
     inkscape:pagecheckerboard="1"
     inkscape:deskcolor="#d1d1d1"
     inkscape:document-units="mm"
     inkscape:zoom="0.25178368"
     inkscape:cx="1312.6347"
     inkscape:cy="969.08584"
     inkscape:window-width="1710"
     inkscape:window-height="1045"
     inkscape:window-x="0"
     inkscape:window-y="62"
     inkscape:window-maximized="0"
     inkscape:current-layer="layer1" /><defs
     id="defs1"><inkscape:path-effect
       effect="fillet_chamfer"
       id="path-effect3"
       is_visible="true"
       lpeversion="1"
       nodesatellites_param="F,0,0,1,0,0,0,1 @ F,0,0,1,0,45.967641,0,1 @ F,0,0,1,0,0,0,1"
       radius="0"
       unit="px"
       method="auto"
       mode="F"
       chamfer_steps="1"
       flexible="false"
       use_knot_distance="true"
       apply_no_radius="true"
       apply_with_radius="true"
       only_selected="false"
       hide_knots="false" /><path
       d="M101.086812,30 L101.711812,30 L101.711812,27.106875 L101.722437,27.106875 L102.761812,30 L103.302437,30 L104.341812,27.106875 L104.352437,27.106875 L104.352437,30 L104.977437,30 L104.977437,26.25125 L104.063687,26.25125 L103.055562,29.18625 L103.044937,29.18625 L102.011187,26.25125 L101.086812,26.25125 L101.086812,30 Z M97.6274375,26.818125 L98.8136875,26.818125 L98.8136875,30 L99.4699375,30 L99.4699375,26.818125 L100.661812,26.818125 L100.661812,26.25125 L97.6274375,26.25125 L97.6274375,26.818125 Z M89.9999375,30 L119.999937,0 L101.943687,0 L71.9443125,30 L89.9999375,30 Z M85.6986875,13.065 L49.3818125,13.065 C38.3136875,13.065 36.3768125,13.651875 31.6361875,18.3925 C27.2024375,22.82625 20.0005625,30 20.0005625,30 L35.7324375,30 L39.4855625,26.246875 C41.9530625,23.779375 43.2255625,23.52375 48.4068125,23.52375 L75.2405625,23.52375 L85.6986875,13.065 Z M31.1518125,16.253125 C27.8774375,19.3425 20.7530625,26.263125 16.9130625,30 L-6.25e-05,30 C-6.25e-05,30 13.5524375,16.486875 21.0849375,9.0725 C28.8455625,1.685 32.7143125,0 46.9486875,0 L98.7643125,0 L87.5449375,11.21875 L48.0011875,11.21875 C37.9993125,11.21875 35.7518125,11.911875 31.1518125,16.253125 Z"
       id="path-1" /></defs><g
     inkscape:label="Layer 1"
     inkscape:groupmode="layer"
     id="layer1"><rect
       style="opacity:1;fill:#15151e;stroke:none;stroke-width:0.459853"
       id="rect1"
       width="719.54016"
       height="404.54016"
       x="0.2299265"
       y="0.2299265"
       inkscape:export-filename="../png/template.png"
       inkscape:export-xdpi="45.18441"
       inkscape:export-ydpi="45.18441"
       inkscape:label="background" /><path
       d="M 549.98062,297.49087 739.9615,107.51 H 625.61677 L 435.63984,297.49087 Z M 522.74211,190.24667 H 292.75839 c -70.09107,0 -82.35671,3.7165 -112.37764,33.73744 -28.07759,28.07759 -73.68488,73.50676 -73.68488,73.50676 h 99.62519 l 23.76739,-23.7674 c 15.62593,-15.62592 23.68429,-17.24472 56.49556,-17.24472 h 169.92997 z m -345.42876,20.18942 c -20.73562,19.56408 -65.85212,63.39029 -90.16967,87.05478 H -19.962 c 0,0 85.82387,-85.57451 133.52489,-132.52749 C 162.70857,118.18059 187.20818,107.51 277.35015,107.51 h 328.13259 l -71.04889,71.04493 H 284.01531 c -63.33882,0 -77.57156,4.38935 -106.70196,31.88116 z"
       id="Fill-1-6"
       style="fill:#201f2c;fill-opacity:1;fill-rule:evenodd;stroke:none;stroke-width:6.3327"
       sodipodi:nodetypes="ccccccssccssccccccsccsc"
       inkscape:label="logo" /><text
       xml:space="preserve"
       style="font-style:normal;font-variant:normal;font-weight:normal;font-stretch:normal;font-size:31.75px;line-height:100%;font-family:Formula1;-inkscape-font-specification:Formula1;text-align:start;word-spacing:0px;writing-mode:lr-tb;direction:ltr;text-anchor:start;opacity:1;fill:#ee0000;fill-opacity:1;stroke:none;stroke-width:0.223;stroke-opacity:1"
       x="28.402561"
       y="46.197952"
       id="text2"
       inkscape:label="round"><tspan
         sodipodi:role="line"
         style="font-style:normal;font-variant:normal;font-weight:normal;font-stretch:normal;font-size:31.75px;font-family:Formula1;-inkscape-font-specification:Formula1;fill:#ee0000;fill-opacity:1;stroke-width:0.223"
         x="28.402561"
         y="46.197952"
         id="tspan1">ROUND 13</tspan></text><path
       style="opacity:1;fill:none;fill-opacity:1;stroke:#ee0000;stroke-width:7.83601;stroke-linecap:butt;stroke-linejoin:miter;stroke-dasharray:none;stroke-opacity:1"
       d="m 187.88728,39.21919 h 456.58523 a 45.967641,45.967641 45 0 1 45.96764,45.967641 V 413.1696"
       id="path3"
       sodipodi:nodetypes="ccc"
       inkscape:path-effect="#path-effect3"
       inkscape:original-d="M 187.88728,39.21919 H 690.44015 V 413.1696"
       transform="matrix(0.86982237,0,0,1.0007021,74.217474,3.230212)" /><g
       id="g10"
       transform="translate(1.3716371)"
       inkscape:label="info"><text
         xml:space="preserve"
         style="font-style:normal;font-variant:normal;font-weight:normal;font-stretch:normal;font-size:44.9794px;line-height:100%;font-family:Formula1;-inkscape-font-specification:Formula1;text-align:start;word-spacing:0px;writing-mode:lr-tb;direction:ltr;text-anchor:start;opacity:1;fill:#ffffff;fill-opacity:1;stroke:none;stroke-width:7.83604;stroke-linecap:butt;stroke-linejoin:miter;stroke-dasharray:none;stroke-opacity:1"
         x="205.8817"
         y="110.78199"
         id="text3"
         inkscape:label="location"><tspan
           sodipodi:role="line"
           id="tspan3"
           style="font-style:normal;font-variant:normal;font-weight:500;font-stretch:normal;font-size:44.9794px;font-family:Formula1;-inkscape-font-specification:'Formula1 Medium';stroke:none;stroke-width:7.83603"
           x="205.8817"
           y="110.78199">ITALY</tspan></text><text
         xml:space="preserve"
         style="font-style:normal;font-variant:normal;font-weight:500;font-stretch:normal;font-size:26.4583px;line-height:100%;font-family:Formula1;-inkscape-font-specification:'Formula1 Medium';text-align:start;word-spacing:0px;writing-mode:lr-tb;direction:ltr;text-anchor:start;opacity:1;fill:#ffffff;fill-opacity:1;stroke:none;stroke-width:7.83601;stroke-linecap:butt;stroke-linejoin:miter;stroke-dasharray:none;stroke-opacity:1"
         x="204.55881"
         y="147.57129"
         id="text4"
         inkscape:label="session"><tspan
           sodipodi:role="line"
           id="tspan4"
           style="font-style:normal;font-variant:normal;font-weight:normal;font-stretch:normal;font-size:26.4583px;font-family:Formula1;-inkscape-font-specification:Formula1;fill:#ee0000;fill-opacity:1;stroke-width:7.836"
           x="204.55881"
           y="147.57129">QUALIFYING</tspan></text></g><g
       id="g3"
       inkscape:label="track"><text
         xml:space="preserve"
         style="font-style:normal;font-variant:normal;font-weight:normal;font-stretch:normal;font-size:19.0503px;line-height:100%;font-family:Formula1;-inkscape-font-specification:Formula1;text-align:center;word-spacing:0px;writing-mode:lr-tb;direction:ltr;text-anchor:middle;opacity:1;fill:#ee0000;fill-opacity:1;stroke:none;stroke-width:7.83615;stroke-linecap:butt;stroke-linejoin:miter;stroke-dasharray:none;stroke-opacity:1"
         x="436.95758"
         y="385.74637"
         id="text5"
         inkscape:label="track-name"><tspan
           sodipodi:role="line"
           id="tspan5"
           style="font-size:19.0503px;stroke-width:7.83614"
           x="436.95758"
           y="385.74637">Monza Circuit</tspan></text><g inkscape:label="embedded-track" transform=" translate(237.09526178825558, 59.3579681119019) scale(0.7990456537410413) rotate(-94.5, 249.96402555324164, 250.1031164697159) " > <path style="fill: none; stroke: #fff; stroke-width: 20; stroke-linejoin: round; stroke-dasharray: none; stroke-opacity: 1;" d="M218.372 50.51c17.128-1.458 28.349-2.045 40.274-3.238 9.544-.954 18.648-.863 32.116-1.38 3.542-.136 3.729-.748 5.353-5.354 1.036-2.935 1.478-4.501 4.144-4.835 5.525-.69 9.921-1.651 11.443-2.091 14.149-4.09 33.715-10.744 48.213-17.291 6.233-2.814 20.461 2.978 21.497 16.187 1.036 13.21 3.53 38.46 4.015 45.973.518 8.029.022 9.197-4.533 11.655-9.842 5.31-36.237 19.593-46.102 25.511-14.892 8.936-29.224 17.864-38.59 26.03-10.102 8.806-73.808 64.464-80.377 70.318-3.39 3.023-6.907 6.216-12.087 10.705-3.24 2.809-2.08 5.871-1.38 10.878 1.035 7.425-.519 16.403-8.289 21.756-5.758 3.967-6.446 5.425-7.248 12.962-4.732 44.498-20.042 187.268-21.674 201.017-1.813 15.28-17.22 18.9-29.267 11.784-24.993-14.763-21.878-47.89-20.85-65.527.408-6.966 12.017-143.36 19.435-230.17.309-3.611.466-5.692 5.3-5.347 5.184.37 5.612-1.727 3.54-7.77-3.737-10.9-5.649-24.2-5.06-31.068 1.369-15.987 2.231-26.008 2.297-26.732 1.804-19.481 7.9-39.11 33.93-52.707 14.168-7.4 25.64-9.712 43.9-11.266z" /> <path style="fill: none; stroke: #000; stroke-width: 5; stroke-linejoin: round; stroke-dasharray: none; stroke-opacity: 1;" d="M218.372 50.51c17.128-1.458 28.349-2.045 40.274-3.238 9.544-.954 18.648-.863 32.116-1.38 3.542-.136 3.729-.748 5.353-5.354 1.036-2.935 1.478-4.501 4.144-4.835 5.525-.69 9.921-1.651 11.443-2.091 14.149-4.09 33.715-10.744 48.213-17.291 6.233-2.814 20.461 2.978 21.497 16.187 1.036 13.21 3.53 38.46 4.015 45.973.518 8.029.022 9.197-4.533 11.655-9.842 5.31-36.237 19.593-46.102 25.511-14.892 8.936-29.224 17.864-38.59 26.03-10.102 8.806-73.808 64.464-80.377 70.318-3.39 3.023-6.907 6.216-12.087 10.705-3.24 2.809-2.08 5.871-1.38 10.878 1.035 7.425-.519 16.403-8.289 21.756-5.758 3.967-6.446 5.425-7.248 12.962-4.732 44.498-20.042 187.268-21.674 201.017-1.813 15.28-17.22 18.9-29.267 11.784-24.993-14.763-21.878-47.89-20.85-65.527.408-6.966 12.017-143.36 19.435-230.17.309-3.611.466-5.692 5.3-5.347 5.184.37 5.612-1.727 3.54-7.77-3.737-10.9-5.649-24.2-5.06-31.068 1.369-15.987 2.231-26.008 2.297-26.732 1.804-19.481 7.9-39.11 33.93-52.707 14.168-7.4 25.64-9.712 43.9-11.266z" /> </g></g><g
       id="g8"
       inkscape:label="date"
       transform="translate(26.39625,4.4877724)"><text
         xml:space="preserve"
         style="font-style:normal;font-variant:normal;font-weight:normal;font-stretch:normal;font-size:38.1px;line-height:100%;font-family:Formula1;-inkscape-font-specification:Formula1;text-align:center;word-spacing:0px;writing-mode:lr-tb;direction:ltr;text-anchor:middle;opacity:1;fill:#ee0000;fill-opacity:1;stroke:none;stroke-width:7.83601;stroke-linecap:butt;stroke-linejoin:miter;stroke-dasharray:none;stroke-opacity:1"
         x="73.904526"
         y="296.20868"
         id="text6"
         inkscape:label="day"><tspan
           sodipodi:role="line"
           id="tspan6"
           style="font-style:normal;font-variant:normal;font-weight:500;font-stretch:normal;font-size:38.1px;font-family:Formula1;-inkscape-font-specification:'Formula1 Medium';fill:#ffffff;fill-opacity:1;stroke-width:7.836"
           x="73.904526"
           y="296.20868">05</tspan></text><g
         id="g7"
         inkscape:label="month"><rect
           style="opacity:1;fill:#ffffff;fill-opacity:1;stroke:none;stroke-width:7.83601;stroke-linecap:butt;stroke-linejoin:miter;stroke-dasharray:none;stroke-opacity:1"
           id="rect7"
           width="135.10905"
           height="57.764015"
           x="10.769562"
           y="306.44302"
           ry="23.007711" /><text
           xml:space="preserve"
           style="font-style:normal;font-variant:normal;font-weight:500;font-stretch:normal;font-size:38.1px;line-height:100%;font-family:Formula1;-inkscape-font-specification:'Formula1 Medium';text-align:center;word-spacing:0px;writing-mode:lr-tb;direction:ltr;text-anchor:middle;opacity:1;fill:#15151e;fill-opacity:1;stroke:none;stroke-width:7.83601;stroke-linecap:butt;stroke-linejoin:miter;stroke-dasharray:none;stroke-opacity:1"
           x="76.800072"
           y="349.61252"
           id="text7"
           inkscape:label="month"><tspan
             sodipodi:role="line"
             id="tspan7"
             style="fill:#15151e;fill-opacity:1;stroke-width:7.836"
             x="76.800072"
             y="349.61252">SEP</tspan></text></g></g><g transform="translate(71.964256, 72.019316) scale(0.15632884375)" inkscape:label="flag"><mask id="a"><circle cx="256" cy="256" r="256" fill="#fff"/></mask><g mask="url(#a)"><path fill="#eee" d="M167 0h178l25.9 252.3L345 512H167l-29.8-253.4z"/><path fill="#6da544" d="M0 0h167v512H0z"/><path fill="#d80027" d="M345 0h167v512H345z"/></g></g></g></svg>
