<?xml version="1.0" encoding="UTF-8" standalone="no"?>
<!-- Created with Inkscape (http://www.inkscape.org/) -->

<svg
   width="680mm"
   height="1000mm"
   viewBox="0 0 680 1000"
   version="1.1"
   id="svg1"
   inkscape:version="1.4.3 (0d15f75, 2025-12-25)"
   sodipodi:docname="template.svg"
   xmlns:inkscape="http://www.inkscape.org/namespaces/inkscape"
   xmlns:sodipodi="http://sodipodi.sourceforge.net/DTD/sodipodi-0.dtd"
   xmlns="http://www.w3.org/2000/svg"
   xmlns:svg="http://www.w3.org/2000/svg">
  <sodipodi:namedview
     id="namedview1"
     pagecolor="#505050"
     bordercolor="#eeeeee"
     borderopacity="1"
     inkscape:showpageshadow="0"
     inkscape:pageopacity="0"
     inkscape:pagecheckerboard="0"
     inkscape:deskcolor="#505050"
     inkscape:document-units="mm"
     inkscape:zoom="0.15208656"
     inkscape:cx="706.83434"
     inkscape:cy="2406.5243"
     inkscape:window-width="1710"
     inkscape:window-height="1045"
     inkscape:window-x="0"
     inkscape:window-y="62"
     inkscape:window-maximized="0"
     inkscape:current-layer="layer1" />
  <defs
     id="defs1">
    <inkscape:path-effect
       effect="fillet_chamfer"
       id="path-effect4"
       is_visible="true"
       lpeversion="1"
       nodesatellites_param="F,0,0,1,0,0,0,1 @ F,0,0,1,0,75,0,1 @ F,0,0,1,0,75,0,1 @ F,0,0,1,0,0,0,1"
       radius="0"
       unit="px"
       method="auto"
       mode="F"
       chamfer_steps="1"
       flexible="false"
       use_knot_distance="true"
       apply_no_radius="true"
       apply_with_radius="true"
       only_selected="false"
       hide_knots="false" />
    <inkscape:path-effect
       effect="fillet_chamfer"
       id="path-effect2"
       is_visible="true"
       lpeversion="1"
       nodesatellites_param="F,0,0,1,0,0,0,1 @ F,0,0,1,0,0,0,1 @ F,0,0,1,0,0,0,1 @ F,0,0,1,0,0,0,1"
       radius="0"
       unit="px"
       method="auto"
       mode="F"
       chamfer_steps="1"
       flexible="false"
       use_knot_distance="true"
       apply_no_radius="true"
       apply_with_radius="true"
       only_selected="false"
       hide_knots="false" />
    <inkscape:path-effect
       effect="fillet_chamfer"
       id="path-effect3"
       is_visible="true"
       lpeversion="1"
       nodesatellites_param="F,0,0,1,0,0,0,1 @ F,0,0,1,0,45.967641,0,1 @ F,0,0,1,0,0,0,1"
       radius="0"
       unit="px"
       method="auto"
       mode="F"
       chamfer_steps="1"
       flexible="false"
       use_knot_distance="true"
       apply_no_radius="true"
       apply_with_radius="true"
       only_selected="false"
       hide_knots="false" />
  </defs>
  <g
     inkscape:label="Layer 1"
     inkscape:groupmode="layer"
     id="layer1">
    <rect
       style="fill:#15151e;fill-opacity:1;stroke-width:0.653077"
       id="rect1"
       width="680"
       height="1000"
       x="-1.4210855e-14"
       y="0"
       ry="2.0972002"
       inkscape:label="background"
       sodipodi:insensitive="true" />
    <path
       d="M 89.999938,30 119.99994,0 H 101.94369 L 71.944312,30 Z M 85.698688,13.065 H 49.381813 c -11.068126,0 -13.005001,0.586875 -17.745626,5.3275 C 27.202437,22.82625 20.000562,30 20.000562,30 h 15.731876 l 3.753124,-3.753125 c 2.467501,-2.4675 3.740001,-2.723125 8.92125,-2.723125 h 26.83375 z M 31.151812,16.253125 C 27.877437,19.3425 20.753062,26.263125 16.913062,30 H -6.25e-5 c 0,0 13.5525005,-13.513125 21.0849995,-20.9275 C 28.845562,1.685 32.714312,0 46.948687,0 H 98.764313 L 87.544938,11.21875 H 48.001187 c -10.001874,0 -12.249375,0.693125 -16.849375,5.034375 z"
       id="Fill-1"
       style="fill:#201f2c;fill-rule:evenodd;stroke:none;stroke-width:1;fill-opacity:1"
       sodipodi:nodetypes="ccccccssccssccccccsccsc"
       inkscape:label="logo"
       transform="matrix(6.3326957,0,0,6.3326957,-39.961349,401.1145)" />
    <text
       xml:space="preserve"
       style="font-style:normal;font-variant:normal;font-weight:normal;font-stretch:normal;font-size:50.8px;line-height:100%;font-family:Formula1;-inkscape-font-specification:Formula1;text-align:start;word-spacing:0px;writing-mode:lr-tb;direction:ltr;text-anchor:start;opacity:1;fill:#ee0000;fill-opacity:1;stroke:none;stroke-width:0.223;stroke-opacity:1"
       x="21.697973"
       y="63.709557"
       id="text2"
       inkscape:label="round"><tspan
         sodipodi:role="line"
         style="font-style:normal;font-variant:normal;font-weight:normal;font-stretch:normal;font-size:50.8px;font-family:Formula1;-inkscape-font-specification:Formula1;fill:#ee0000;fill-opacity:1;stroke-width:0.223"
         x="21.697973"
         y="63.709557"
         id="tspan1">ROUND 05</tspan></text>
    <path
       style="display:inline;fill:none;fill-opacity:1;stroke:#ee0000;stroke-width:15;stroke-dasharray:none;stroke-opacity:1"
       d="M 352.06858,56.213936 H 580 a 75,75 45 0 1 75,75.000004 V 900 a 75,75 135 0 1 -75,75 H 0"
       id="path1"
       sodipodi:nodetypes="cccc"
       inkscape:path-effect="#path-effect4"
       inkscape:original-d="M 352.06858,56.213936 H 655 V 975 H 0" />
    <g
       id="g10"
       transform="translate(-61.769566,39.315292)"
       inkscape:label="info"
       style="display:inline">
      <g
         id="g9"
         transform="translate(0,-0.2293034)">
        
        <text
           xml:space="preserve"
           style="font-style:normal;font-variant:normal;font-weight:normal;font-stretch:normal;font-size:52.9167px;line-height:100%;font-family:Formula1;-inkscape-font-specification:Formula1;text-align:start;word-spacing:0px;writing-mode:lr-tb;direction:ltr;text-anchor:start;opacity:1;fill:#ffffff;fill-opacity:1;stroke:none;stroke-width:7.83601;stroke-linecap:butt;stroke-linejoin:miter;stroke-dasharray:none;stroke-opacity:1"
           x="206.93063"
           y="110.78185"
           id="text3"
           inkscape:label="location"><tspan
             sodipodi:role="line"
             id="tspan3"
             style="font-style:normal;font-variant:normal;font-weight:normal;font-stretch:normal;font-size:52.9167px;font-family:Formula1;-inkscape-font-specification:Formula1;stroke:none;stroke-width:7.836"
             x="206.93063"
             y="110.78185">SAUDI ARABIA</tspan></text>
        <text
           xml:space="preserve"
           style="font-style:normal;font-variant:normal;font-weight:normal;font-stretch:normal;font-size:35.2778px;line-height:100%;font-family:Formula1;-inkscape-font-specification:Formula1;text-align:start;word-spacing:0px;writing-mode:lr-tb;direction:ltr;text-anchor:start;opacity:1;fill:#ffffff;fill-opacity:1;stroke:none;stroke-width:7.83601;stroke-linecap:butt;stroke-linejoin:miter;stroke-dasharray:none;stroke-opacity:1"
           x="205.16676"
           y="151.7265"
           id="text4"
           inkscape:label="session"><tspan
             sodipodi:role="line"
             id="tspan4"
             style="font-style:normal;font-variant:normal;font-weight:normal;font-stretch:normal;font-size:35.2778px;font-family:Formula1;-inkscape-font-specification:Formula1;fill:#ee0000;fill-opacity:1;stroke-width:7.836"
             x="205.16676"
             y="151.7265">QUALIFYING</tspan></text>
      </g>
      <g transform="translate(86.769573, 60.684713) scale(0.19690717578125)" inkscape:label="flag"><mask id="a"><circle cx="256" cy="256" r="256" fill="#fff"/></mask><g mask="url(#a)"><path fill="#496e2d" d="M0 0h512v512H0Z"/><path fill="#eee" d="M336 356v16H128l24 24h184v16h16v-16h32v-24h-32v-16zM131.4 174v41.4h-15.8v-26.7H97.8q-6.3 0-10.8 2.3a15 15 0 0 0-6.7 6.4 22 22 0 0 0-2.3 10.5q0 6 2.3 10.3 2.3 4 6.7 6 4.5 2.1 10.8 2.1H173V174h-13v41.4h-15.8V174zm52.9 0v52.3h12.8V174zm55.3 0v41.4h-11v-31h-12.8v31h-9.3v10.9h45.9V174zm24.3 0v52.3h12.8V174zm77.8 0v41.4H326v-26.7h-17.8q-6.3 0-10.8 2.3a15 15 0 0 0-6.7 6.4 22 22 0 0 0-2.3 10.5q0 6 2.3 10.3 2.3 4 6.7 6 4.5 2.1 10.8 2.1h46.5V174zm24.2 0v52.3h12.8V174zm55.3 0v41.4h-11v-31h-12.8v31h-9.3v10.9h46V174ZM97.8 199.6h5v15.8h-5q-2.4 0-4-.4-1.5-.5-2.2-2a13 13 0 0 1-.8-5.1q0-3.7.8-5.4 1-1.8 2.5-2.3 1.5-.6 3.7-.6m210.3 0h5v15.8h-5q-2.4 0-4-.4-1.5-.5-2.2-2a13 13 0 0 1-.8-5.1q0-3.7.8-5.4 1-1.8 2.5-2.3 1.6-.6 3.7-.6M114.8 247v28.5h-10.9V257H91.6q-4.4 0-7.4 1.6-3 1.4-4.6 4.4t-1.6 7.2q0 4.3 1.6 7 1.5 2.9 4.6 4.3t7.4 1.4h51.7v-36h-8.8v28.5h-10.9V247Zm36.3 0v36h8.8v-36Zm39.7 0v35.8q0 1.5-.6 2.7t-2 2q-1.5.6-4 .7t-4.2-.7-2.4-2q-.9-1.3-.9-3.1l.2-2.8 1.5-10.8-8.7-1.1-1.2 8.4-.6 6.4q0 3.7 2 6.7a14 14 0 0 0 5.9 4.8q3.6 1.7 8.3 1.7 4.5 0 8-1.6 3.6-1.6 5.5-4.6 2-2.8 2-6.7V247Zm159.5 10a36 36 0 0 0-10 1.4 40 40 0 0 0-1.3 7.4 57 57 0 0 0 0 9.6h-11v-2a20 20 0 0 0-1.9-9.2q-1.8-3.6-5.4-5.3a20 20 0 0 0-8.7-1.8h-4.2v7.5h4.2q2.7 0 4.3.8 1.5.7 2.2 2.6.6 1.8.7 5.4v2h-12.7v7.6H434v-12.8q0-5-1.6-7.8-1.5-3-4.7-4.1-3.2-1.4-8-1.3a36 36 0 0 0-10 1.4 40 40 0 0 0-1.4 7.4 57 57 0 0 0 0 9.6h-10.9v-4.8q0-4.2-2-7.2t-5.5-4.6a18 18 0 0 0-7.9-1.7q-2.1 0-4.2.4l-4.3.8.7 7a48 48 0 0 1 6.7-.6q4 0 6 1.5 1.7 1.5 1.7 4.4v4.9h-23.9v-5.3q0-5-1.6-7.8-1.6-3-4.8-4.1-3-1.4-8-1.3m-131.7.1q-4.3 0-7.4 1.6-3 1.4-4.6 4.4t-1.6 7.2q0 4.3 1.6 7 1.6 2.9 4.6 4.3t7.4 1.4h3.5v1.6q0 2.3-1.5 3.4-1.4 1.2-4.7 1.2l-3-.2q-1.8 0-4.3-.4l-1.2 7a59 59 0 0 0 8.5 1q4.5 0 7.8-1.4 3.4-1.5 5.3-4.2a11 11 0 0 0 1.9-6.4V283h22.9a15 15 0 0 0 7.9-2q1 .6 2.2 1 2.3 1 4.7 1h13.9v-14l-.3-3.3-1.3-8.6-8.7 1.3a118 118 0 0 1 1.4 10.5v6.6h-5l-1.9-.4-.9-.5q.7-2.7.7-6.2v-8.6h-8.8v8.6q0 3-.4 4.6-.3 1.5-1 2a5 5 0 0 1-2.5.5h-3v-13h-9v13H231V257zm73.8 0v26.6q0 2.7-1 4-1 1.5-2.8 1.5h-2.8l-.2 7.3 3.1.2q3.8 0 6.6-1.7t4.3-4.6 1.6-6.7V257zm58 7.4q2.1 0 3.3.5t1.7 1.7q.4 1.3.4 3.4v5.4h-8a71 71 0 0 1 0-8.6l.2-2.3zm69.3 0q2.2 0 3.4.5t1.6 1.7q.5 1.3.5 3.4v5.4h-8a71 71 0 0 1-.1-8.6l.2-2.3zm-328.1.1H95v10.9h-3.4q-1.7 0-2.7-.3-1-.4-1.6-1.4a9 9 0 0 1-.5-3.5q0-2.6.6-3.7A3 3 0 0 1 89 265a8 8 0 0 1 2.5-.4m127 0h3.5v10.9h-3.5q-1.6 0-2.7-.3-1-.4-1.6-1.4a9 9 0 0 1-.5-3.5q0-2.6.6-3.7a3 3 0 0 1 1.7-1.6 8 8 0 0 1 2.5-.4"/></g></g>
    </g>
    <g
       id="g8"
       inkscape:label="date"
       transform="translate(308.90368,536.87111)"
       style="display:inline">
      <text
         xml:space="preserve"
         style="font-style:normal;font-variant:normal;font-weight:normal;font-stretch:normal;font-size:88.1944px;line-height:100%;font-family:Formula1;-inkscape-font-specification:Formula1;text-align:center;word-spacing:0px;writing-mode:lr-tb;direction:ltr;text-anchor:middle;display:inline;opacity:1;fill:#ee0000;fill-opacity:1;stroke:none;stroke-width:7.83601;stroke-linecap:butt;stroke-linejoin:miter;stroke-dasharray:none;stroke-opacity:1"
         x="-122.88599"
         y="362.8576"
         id="text6"
         inkscape:label="day"><tspan
           sodipodi:role="line"
           id="tspan6"
           style="font-style:normal;font-variant:normal;font-weight:normal;font-stretch:normal;font-size:88.1944px;font-family:Formula1;-inkscape-font-specification:Formula1;fill:#ffffff;fill-opacity:1;stroke-width:7.836"
           x="-122.88599"
           y="362.8576">18</tspan></text>
      <g
         id="g7"
         inkscape:label="month"
         transform="translate(34.626847,5.5402955)"
         style="display:inline">
        <rect
           style="display:inline;opacity:1;fill:#ffffff;fill-opacity:1;stroke:none;stroke-width:16.1904;stroke-linecap:butt;stroke-linejoin:miter;stroke-dasharray:none;stroke-opacity:1"
           id="rect7"
           width="279.15674"
           height="119.34962"
           x="-59.869205"
           y="264.56961"
           ry="47.537582" />
        <text
           xml:space="preserve"
           style="font-style:normal;font-variant:normal;font-weight:normal;font-stretch:normal;font-size:88.1944px;line-height:100%;font-family:Formula1;-inkscape-font-specification:Formula1;text-align:center;word-spacing:0px;writing-mode:lr-tb;direction:ltr;text-anchor:middle;display:inline;opacity:1;fill:#15151e;fill-opacity:1;stroke:none;stroke-width:7.83601;stroke-linecap:butt;stroke-linejoin:miter;stroke-dasharray:none;stroke-opacity:1"
           x="78.165771"
           y="357.31732"
           id="text7"
           inkscape:label="month"><tspan
             sodipodi:role="line"
             id="tspan7"
             style="font-style:normal;font-variant:normal;font-weight:normal;font-stretch:normal;font-size:88.1944px;font-family:Formula1;-inkscape-font-specification:Formula1;fill:#15151e;fill-opacity:1;stroke-width:7.836"
             x="78.165771"
             y="357.31732">APR</tspan></text>
      </g>
    </g>
    <g
       id="g3"
       inkscape:label="track"
       transform="matrix(1.2571293,0,0,1.2571293,-208.71205,272.34527)"
       style="display:inline">
      
      <text
         xml:space="preserve"
         style="font-style:normal;font-variant:normal;font-weight:normal;font-stretch:normal;font-size:25.8172px;line-height:100%;font-family:Formula1;-inkscape-font-specification:Formula1;text-align:center;word-spacing:0px;writing-mode:lr-tb;direction:ltr;text-anchor:middle;display:inline;opacity:1;fill:#ee0000;fill-opacity:1;stroke:none;stroke-width:7.83601;stroke-linecap:butt;stroke-linejoin:miter;stroke-dasharray:none;stroke-opacity:1"
         x="436.95645"
         y="394.58563"
         id="text5"
         inkscape:label="track-name"><tspan
           sodipodi:role="line"
           id="tspan5"
           style="font-style:normal;font-variant:normal;font-weight:normal;font-stretch:normal;font-size:25.8172px;font-family:Formula1;-inkscape-font-specification:Formula1;stroke-width:7.836"
           x="436.95645"
           y="394.58563">Jeddah Corniche Circuit</tspan></text>
      <g inkscape:label="embedded-track" transform=" translate(240.28270084632388, 62.75717849481002) scale(0.7848417086564597) rotate(0, 249.98354061679407, 250.0048947972982) " > <path style="fill: none; stroke: #fff; stroke-width: 20; stroke-linejoin: round; stroke-dasharray: none; stroke-opacity: 1;" d="M441.899 135.118a56956.844 56956.844 0 0 1-32.942 21.303c-9.373 6.056-12.405 8-15.927 10.544-3.522 2.54-7.533 5.676-21.403 17.137a11706.519 11992.905 0 0 0-49.791 41.468c-12.193 10.215-12.85 10.854-13.327 11.411a5.23 5.359 0 0 0-.971 1.471 2.93 3 0 0 0 .06 2.428 4.535 4.646 0 0 0 .9 1.2c.442.465 1.043 1.007 1.53 1.503.492.5.862.948 1.12 1.324a2.865 2.935 0 0 1 .453.987 2.358 2.416 0 0 1 .026.988 4.89 5.01 0 0 1-1.134 2.54 3.893 3.988 0 0 1-1.031.87 8.882 9.1 0 0 1-1.777.79 19.994 20.483 0 0 1-2.608.62c-.956.167-1.954.295-2.808.387a28.917 29.624 0 0 1-2.611.17c-1.036.024-2.393.009-3.855.04-1.463.023-3.032.092-4.165.205a14.552 14.552 0 0 0-2.518.464c-.699.194-1.402.407-2.316.748-.915.337-2.041.797-3.213 1.332a59.618 59.618 0 0 0-3.647 1.82 78.907 78.907 0 0 0-3.984 2.284c-1.42.875-2.967 1.874-4.448 2.788-1.486.914-2.91 1.738-4.294 2.555-1.39.813-2.744 1.626-4.01 2.385-1.266.755-2.445 1.46-3.564 2.11-1.115.651-2.173 1.251-3.258 1.867a330.363 330.363 0 0 0-3.288 1.885c-1.088.643-2.162 1.294-3.243 1.898a80.904 80.904 0 0 1-3.239 1.68 87.344 89.48 0 0 1-2.91 1.382c-.816.364-1.41.597-1.852.806a7.056 7.229 0 0 0-1.028.608 6.78 6.78 0 0 0-.812.62 2.808 2.877 0 0 0-.62.758c-.129.256-.152.5-.144 1.007.011.503.053 1.278.072 2.06a38.619 39.564 0 0 1-.212 5.018 16.315 16.315 0 0 1-.37 2.09 8.806 9.022 0 0 1-.544 1.503 14.192 14.54 0 0 1-.87 1.68 27.212 27.878 0 0 1-2.04 2.866 25.413 26.035 0 0 1-5.14 4.251 16.509 16.913 0 0 1-4.476 2.025 17.594 18.024 0 0 1-5.597.647 17.45 17.877 0 0 1-2.355-.194 20.863 21.373 0 0 1-2.162-.515c-.725-.205-1.474-.426-2.192-.612a25.954 26.589 0 0 0-2.184-.476 19.487 19.964 0 0 0-2.294-.26 12.193 12.49 0 0 0-2.162.09 16.1 16.495 0 0 0-2.181.453c-.695.193-1.334.426-1.988.697a20.477 20.978 0 0 0-3.916 2.09c-.661.453-1.353.968-2.124 1.51-.767.543-1.61 1.12-2.343 1.673a17.083 17.501 0 0 0-1.958 1.685 14.944 15.31 0 0 0-2.865 4.12 11.614 11.614 0 0 0-.718 2.013 29.688 30.414 0 0 0-.476 2.207c-.144.774-.28 1.58-.416 2.242a15.961 15.961 0 0 1-.408 1.634 5.941 6.087 0 0 1-.499 1.211c-.2.349-.453.659-.775 1.034-.328.372-.729.813-1.235 1.224a10.715 10.977 0 0 1-1.867 1.173c-.749.387-1.63.767-2.548 1.15a128.39 131.53 0 0 1-3.817 1.495 620.756 620.756 0 0 1-6.603 2.462c-1.765.65-2.389.867-2.963 1.003a8.704 8.917 0 0 1-1.776.209 36.994 37.899 0 0 1-4.158-.155 5.56 5.696 0 0 1-1.236-.31 13.901 14.241 0 0 1-4.308-2.54 14.721 15.081 0 0 1-1.387-1.463c-.443-.511-.881-1.046-1.316-1.56a29.37 30.089 0 0 0-1.285-1.445 17.027 17.443 0 0 0-2.419-2.071 13.961 14.303 0 0 0-1.387-.852 10.292 10.543 0 0 0-1.368-.585 8.315 8.518 0 0 0-1.376-.364 12.658 12.967 0 0 0-1.59-.147 8.825 9.041 0 0 0-1.562.078c-.559.077-1.21.232-1.908.41-.696.178-1.444.387-2.105.577-.666.19-1.248.356-1.883.53a35.338 36.203 0 0 1-2.222.53 40.667 41.662 0 0 1-3.088.504 32.39 32.39 0 0 1-3.583.248c-1.387.027-3.069 0-4.8-.008a141.73 145.198 0 0 0-4.701.046c-1.18.04-1.747.109-2.518.213a49.511 50.723 0 0 0-2.781.446 55.672 57.034 0 0 0-3.349.774c-1.172.31-2.381.654-3.715 1.077a114.65 114.65 0 0 0-4.282 1.44c-1.467.526-2.922 1.084-4.407 1.645-1.486.566-2.997 1.139-4.55 1.758-1.55.62-3.138 1.29-8.694 3.717-5.555 2.428-15.068 6.614-22.805 10.006-7.74 3.391-13.697 5.986-16.788 7.352-3.088 1.363-3.304 1.499-3.595 1.704a11.754 12.042 0 0 0-1.035.844 16.6 17.006 0 0 0-2.268 2.556 9.63 9.866 0 0 0-1.538 3.175c-.136.48-.19.832-.22 1.521-.026.69-.026 1.716.11 2.64.136.93.408 1.751.692 2.448a9.585 9.82 0 0 0 2.23 3.38c.491.492 1.035.953 1.644 1.37a15.86 15.86 0 0 0 1.84 1.077c.556.271.99.453 1.709.558.718.108 1.72.15 2.66.15.941 0 1.822-.038 2.703-.154a22.254 22.798 0 0 0 5.064-1.278 19.047 19.047 0 0 0 2.54-1.239 24.058 24.058 0 0 0 2.434-1.591c.71-.53 1.259-1.026 1.822-1.572a31.54 31.54 0 0 0 1.757-1.843 40.297 41.283 0 0 0 3.515-4.627c.48-.705.9-1.336 1.35-1.975.453-.643.93-1.293 1.473-1.936.548-.639 1.16-1.27 1.701-1.843.537-.573 1.002-1.092 1.607-1.704a41.367 42.379 0 0 1 4.856-4.181 38.022 38.952 0 0 1 6.803-4.093 52.686 53.975 0 0 1 4.505-1.905 39.181 39.181 0 0 1 4.196-1.25 55.581 56.94 0 0 1 6.973-1.182c.903-.08 1.606-.096 2.645-.1 1.047-.008 2.427-.008 3.425.015.994.02 1.602.058 2.286.14.68.077 1.444.205 2.306.333.858.127 1.821.263 2.668.38.847.115 1.576.208 2.389.255a47.648 48.814 0 0 0 8.806-.504 21.052 21.567 0 0 0 2.653-.592c.801-.236 1.557-.519 2.521-.864.96-.348 2.124-.75 3.073-1.045.945-.286 1.682-.465 2.29-.558a6.693 6.693 0 0 1 1.66-.061 9.396 9.396 0 0 1 1.674.29c.472.136.782.298 1.247.589.472.29 1.096.712 1.648 1.215.555.504 1.043 1.1 1.493 1.677.453.58.861 1.142 1.254 1.66.393.516.768.984 1.18 1.434a12.17 12.468 0 0 0 3.046 2.462c.605.356 1.247.69 1.791.96.545.268.994.465 1.474.6.48.136.983.202 1.67.26.681.058 1.55.104 2.352.128.805.023 1.55.023 2.38-.043a22.072 22.612 0 0 0 2.794-.426 40.44 41.43 0 0 0 3.447-.902 70.839 72.572 0 0 0 7.861-2.904 77.494 77.494 0 0 0 3.515-1.626 52.335 53.615 0 0 0 6.266-3.69 35.452 36.319 0 0 0 2.593-1.975 61.572 61.572 0 0 0 2.695-2.42c1.028-.972 2.249-2.16 3.371-3.283 1.127-1.123 2.155-2.176 3.334-3.38 1.179-1.2 2.506-2.556 3.832-3.826 1.323-1.27 2.657-2.459 3.89-3.554 1.231-1.096 2.369-2.095 3.355-2.893.99-.797 1.83-1.394 2.835-2.067 1.002-.678 2.166-1.433 3.1-1.975a24.264 24.858 0 0 1 2.426-1.216 78.995 80.928 0 0 1 6.028-2.431 96.858 96.858 0 0 1 4.225-1.406c1.474-.465 2.967-.89 4.43-1.42a41.24 41.24 0 0 0 4.263-1.825 65.404 67.004 0 0 0 7.257-4.247 69.626 69.626 0 0 0 3.643-2.734 68.246 68.246 0 0 0 3.288-2.772 38.745 38.745 0 0 0 2.91-2.896 54.146 54.146 0 0 0 2.926-3.543c.884-1.17 1.599-2.234 2.305-3.28.715-1.045 1.418-2.075 2.162-3.059a76.554 78.426 0 0 1 5.552-6.408 47.236 48.392 0 0 1 5.866-5.083 77.625 77.625 0 0 1 3.428-2.42 64.63 66.21 0 0 1 4.252-2.595 96.656 96.656 0 0 1 5.458-2.826 81.032 83.015 0 0 1 5.506-2.405 64.285 64.285 0 0 1 5.061-1.746 79.29 79.29 0 0 1 5.356-1.405 116.597 119.45 0 0 1 5.926-1.185 81.01 81.01 0 0 1 4.913-.697c1.33-.143 2.306-.202 3.077-.271.763-.066 1.323-.14 1.852-.302.54-.163 1.058-.415 1.512-.643.464-.232.869-.438 1.28-.763.413-.325.832-.766 1.3-1.32.473-.554.984-1.224 1.41-1.862a11.527 11.81 0 0 0 .983-1.809 9.75 9.75 0 0 0 .54-1.626c.144-.573.277-1.22.44-1.858.162-.643.355-1.278.604-2.014a23.13 23.696 0 0 1 .918-2.362 14.47 14.47 0 0 1 1.285-2.215 18.248 18.248 0 0 1 1.626-1.974 13.8 13.8 0 0 1 1.784-1.58c.687-.515 1.53-1.072 3.197-2.18l5.67-3.775c1.511-1.007 2.051-1.347 2.788-1.704.737-.348 1.679-.712 2.442-1.01.767-.295 1.36-.527 2.215-.658.85-.136 1.965-.175 3.197-.144 1.236.027 2.597.124 4.66.368 2.068.248 4.838.643 7.484.987a511.7 511.7 0 0 0 7.725.941c2.563.298 5.163.597 7.491.76 2.332.162 4.384.189 6.15.173a43.69 44.76 0 0 0 4.822-.255 46.326 46.326 0 0 0 4.985-.906 55.291 55.291 0 0 0 4.747-1.36c1.523-.506 3-1.06 4.471-1.668a52.61 53.898 0 0 0 4.46-2.075c1.534-.806 3.13-1.75 4.92-2.912 1.789-1.162 3.765-2.544 5.776-3.961a498.175 510.362 0 0 0 5.892-4.22 166.728 166.728 0 0 0 5.004-3.768 116.979 119.84 0 0 0 8.277-7.179 76.467 76.467 0 0 0 3.874-3.949 101.328 103.807 0 0 0 8.18-10.272 140.112 140.112 0 0 0 3.639-5.537 74.283 74.283 0 0 0 2.732-4.724 93.206 95.486 0 0 0 5.095-11.356 91.73 91.73 0 0 0 1.897-5.506c.632-2.045 1.323-4.492 2.011-6.977.688-2.486 1.38-5.007 1.965-7.187.598-2.18 1.089-4.011 1.58-5.835.492-1.82.983-3.632 1.304-4.956.325-1.328.491-2.168.53-2.981.037-.806-.039-1.592-.352-2.455a10.643 10.903 0 0 0-1.384-2.54 6.973 7.144 0 0 0-1.625-1.665 5.643 5.78 0 0 0-2.044-.93 8.164 8.363 0 0 0-2.669-.135c-.88.105-1.663.376-2.846 1.107-1.175.728-2.747 1.921-3.534 2.517-.786.593-.786.593-8.643 5.673z" /> <path style="fill: none; stroke: #000; stroke-width: 5; stroke-linejoin: round; stroke-dasharray: none; stroke-opacity: 1;" d="M441.899 135.118a56956.844 56956.844 0 0 1-32.942 21.303c-9.373 6.056-12.405 8-15.927 10.544-3.522 2.54-7.533 5.676-21.403 17.137a11706.519 11992.905 0 0 0-49.791 41.468c-12.193 10.215-12.85 10.854-13.327 11.411a5.23 5.359 0 0 0-.971 1.471 2.93 3 0 0 0 .06 2.428 4.535 4.646 0 0 0 .9 1.2c.442.465 1.043 1.007 1.53 1.503.492.5.862.948 1.12 1.324a2.865 2.935 0 0 1 .453.987 2.358 2.416 0 0 1 .026.988 4.89 5.01 0 0 1-1.134 2.54 3.893 3.988 0 0 1-1.031.87 8.882 9.1 0 0 1-1.777.79 19.994 20.483 0 0 1-2.608.62c-.956.167-1.954.295-2.808.387a28.917 29.624 0 0 1-2.611.17c-1.036.024-2.393.009-3.855.04-1.463.023-3.032.092-4.165.205a14.552 14.552 0 0 0-2.518.464c-.699.194-1.402.407-2.316.748-.915.337-2.041.797-3.213 1.332a59.618 59.618 0 0 0-3.647 1.82 78.907 78.907 0 0 0-3.984 2.284c-1.42.875-2.967 1.874-4.448 2.788-1.486.914-2.91 1.738-4.294 2.555-1.39.813-2.744 1.626-4.01 2.385-1.266.755-2.445 1.46-3.564 2.11-1.115.651-2.173 1.251-3.258 1.867a330.363 330.363 0 0 0-3.288 1.885c-1.088.643-2.162 1.294-3.243 1.898a80.904 80.904 0 0 1-3.239 1.68 87.344 89.48 0 0 1-2.91 1.382c-.816.364-1.41.597-1.852.806a7.056 7.229 0 0 0-1.028.608 6.78 6.78 0 0 0-.812.62 2.808 2.877 0 0 0-.62.758c-.129.256-.152.5-.144 1.007.011.503.053 1.278.072 2.06a38.619 39.564 0 0 1-.212 5.018 16.315 16.315 0 0 1-.37 2.09 8.806 9.022 0 0 1-.544 1.503 14.192 14.54 0 0 1-.87 1.68 27.212 27.878 0 0 1-2.04 2.866 25.413 26.035 0 0 1-5.14 4.251 16.509 16.913 0 0 1-4.476 2.025 17.594 18.024 0 0 1-5.597.647 17.45 17.877 0 0 1-2.355-.194 20.863 21.373 0 0 1-2.162-.515c-.725-.205-1.474-.426-2.192-.612a25.954 26.589 0 0 0-2.184-.476 19.487 19.964 0 0 0-2.294-.26 12.193 12.49 0 0 0-2.162.09 16.1 16.495 0 0 0-2.181.453c-.695.193-1.334.426-1.988.697a20.477 20.978 0 0 0-3.916 2.09c-.661.453-1.353.968-2.124 1.51-.767.543-1.61 1.12-2.343 1.673a17.083 17.501 0 0 0-1.958 1.685 14.944 15.31 0 0 0-2.865 4.12 11.614 11.614 0 0 0-.718 2.013 29.688 30.414 0 0 0-.476 2.207c-.144.774-.28 1.58-.416 2.242a15.961 15.961 0 0 1-.408 1.634 5.941 6.087 0 0 1-.499 1.211c-.2.349-.453.659-.775 1.034-.328.372-.729.813-1.235 1.224a10.715 10.977 0 0 1-1.867 1.173c-.749.387-1.63.767-2.548 1.15a128.39 131.53 0 0 1-3.817 1.495 620.756 620.756 0 0 1-6.603 2.462c-1.765.65-2.389.867-2.963 1.003a8.704 8.917 0 0 1-1.776.209 36.994 37.899 0 0 1-4.158-.155 5.56 5.696 0 0 1-1.236-.31 13.901 14.241 0 0 1-4.308-2.54 14.721 15.081 0 0 1-1.387-1.463c-.443-.511-.881-1.046-1.316-1.56a29.37 30.089 0 0 0-1.285-1.445 17.027 17.443 0 0 0-2.419-2.071 13.961 14.303 0 0 0-1.387-.852 10.292 10.543 0 0 0-1.368-.585 8.315 8.518 0 0 0-1.376-.364 12.658 12.967 0 0 0-1.59-.147 8.825 9.041 0 0 0-1.562.078c-.559.077-1.21.232-1.908.41-.696.178-1.444.387-2.105.577-.666.19-1.248.356-1.883.53a35.338 36.203 0 0 1-2.222.53 40.667 41.662 0 0 1-3.088.504 32.39 32.39 0 0 1-3.583.248c-1.387.027-3.069 0-4.8-.008a141.73 145.198 0 0 0-4.701.046c-1.18.04-1.747.109-2.518.213a49.511 50.723 0 0 0-2.781.446 55.672 57.034 0 0 0-3.349.774c-1.172.31-2.381.654-3.715 1.077a114.65 114.65 0 0 0-4.282 1.44c-1.467.526-2.922 1.084-4.407 1.645-1.486.566-2.997 1.139-4.55 1.758-1.55.62-3.138 1.29-8.694 3.717-5.555 2.428-15.068 6.614-22.805 10.006-7.74 3.391-13.697 5.986-16.788 7.352-3.088 1.363-3.304 1.499-3.595 1.704a11.754 12.042 0 0 0-1.035.844 16.6 17.006 0 0 0-2.268 2.556 9.63 9.866 0 0 0-1.538 3.175c-.136.48-.19.832-.22 1.521-.026.69-.026 1.716.11 2.64.136.93.408 1.751.692 2.448a9.585 9.82 0 0 0 2.23 3.38c.491.492 1.035.953 1.644 1.37a15.86 15.86 0 0 0 1.84 1.077c.556.271.99.453 1.709.558.718.108 1.72.15 2.66.15.941 0 1.822-.038 2.703-.154a22.254 22.798 0 0 0 5.064-1.278 19.047 19.047 0 0 0 2.54-1.239 24.058 24.058 0 0 0 2.434-1.591c.71-.53 1.259-1.026 1.822-1.572a31.54 31.54 0 0 0 1.757-1.843 40.297 41.283 0 0 0 3.515-4.627c.48-.705.9-1.336 1.35-1.975.453-.643.93-1.293 1.473-1.936.548-.639 1.16-1.27 1.701-1.843.537-.573 1.002-1.092 1.607-1.704a41.367 42.379 0 0 1 4.856-4.181 38.022 38.952 0 0 1 6.803-4.093 52.686 53.975 0 0 1 4.505-1.905 39.181 39.181 0 0 1 4.196-1.25 55.581 56.94 0 0 1 6.973-1.182c.903-.08 1.606-.096 2.645-.1 1.047-.008 2.427-.008 3.425.015.994.02 1.602.058 2.286.14.68.077 1.444.205 2.306.333.858.127 1.821.263 2.668.38.847.115 1.576.208 2.389.255a47.648 48.814 0 0 0 8.806-.504 21.052 21.567 0 0 0 2.653-.592c.801-.236 1.557-.519 2.521-.864.96-.348 2.124-.75 3.073-1.045.945-.286 1.682-.465 2.29-.558a6.693 6.693 0 0 1 1.66-.061 9.396 9.396 0 0 1 1.674.29c.472.136.782.298 1.247.589.472.29 1.096.712 1.648 1.215.555.504 1.043 1.1 1.493 1.677.453.58.861 1.142 1.254 1.66.393.516.768.984 1.18 1.434a12.17 12.468 0 0 0 3.046 2.462c.605.356 1.247.69 1.791.96.545.268.994.465 1.474.6.48.136.983.202 1.67.26.681.058 1.55.104 2.352.128.805.023 1.55.023 2.38-.043a22.072 22.612 0 0 0 2.794-.426 40.44 41.43 0 0 0 3.447-.902 70.839 72.572 0 0 0 7.861-2.904 77.494 77.494 0 0 0 3.515-1.626 52.335 53.615 0 0 0 6.266-3.69 35.452 36.319 0 0 0 2.593-1.975 61.572 61.572 0 0 0 2.695-2.42c1.028-.972 2.249-2.16 3.371-3.283 1.127-1.123 2.155-2.176 3.334-3.38 1.179-1.2 2.506-2.556 3.832-3.826 1.323-1.27 2.657-2.459 3.89-3.554 1.231-1.096 2.369-2.095 3.355-2.893.99-.797 1.83-1.394 2.835-2.067 1.002-.678 2.166-1.433 3.1-1.975a24.264 24.858 0 0 1 2.426-1.216 78.995 80.928 0 0 1 6.028-2.431 96.858 96.858 0 0 1 4.225-1.406c1.474-.465 2.967-.89 4.43-1.42a41.24 41.24 0 0 0 4.263-1.825 65.404 67.004 0 0 0 7.257-4.247 69.626 69.626 0 0 0 3.643-2.734 68.246 68.246 0 0 0 3.288-2.772 38.745 38.745 0 0 0 2.91-2.896 54.146 54.146 0 0 0 2.926-3.543c.884-1.17 1.599-2.234 2.305-3.28.715-1.045 1.418-2.075 2.162-3.059a76.554 78.426 0 0 1 5.552-6.408 47.236 48.392 0 0 1 5.866-5.083 77.625 77.625 0 0 1 3.428-2.42 64.63 66.21 0 0 1 4.252-2.595 96.656 96.656 0 0 1 5.458-2.826 81.032 83.015 0 0 1 5.506-2.405 64.285 64.285 0 0 1 5.061-1.746 79.29 79.29 0 0 1 5.356-1.405 116.597 119.45 0 0 1 5.926-1.185 81.01 81.01 0 0 1 4.913-.697c1.33-.143 2.306-.202 3.077-.271.763-.066 1.323-.14 1.852-.302.54-.163 1.058-.415 1.512-.643.464-.232.869-.438 1.28-.763.413-.325.832-.766 1.3-1.32.473-.554.984-1.224 1.41-1.862a11.527 11.81 0 0 0 .983-1.809 9.75 9.75 0 0 0 .54-1.626c.144-.573.277-1.22.44-1.858.162-.643.355-1.278.604-2.014a23.13 23.696 0 0 1 .918-2.362 14.47 14.47 0 0 1 1.285-2.215 18.248 18.248 0 0 1 1.626-1.974 13.8 13.8 0 0 1 1.784-1.58c.687-.515 1.53-1.072 3.197-2.18l5.67-3.775c1.511-1.007 2.051-1.347 2.788-1.704.737-.348 1.679-.712 2.442-1.01.767-.295 1.36-.527 2.215-.658.85-.136 1.965-.175 3.197-.144 1.236.027 2.597.124 4.66.368 2.068.248 4.838.643 7.484.987a511.7 511.7 0 0 0 7.725.941c2.563.298 5.163.597 7.491.76 2.332.162 4.384.189 6.15.173a43.69 44.76 0 0 0 4.822-.255 46.326 46.326 0 0 0 4.985-.906 55.291 55.291 0 0 0 4.747-1.36c1.523-.506 3-1.06 4.471-1.668a52.61 53.898 0 0 0 4.46-2.075c1.534-.806 3.13-1.75 4.92-2.912 1.789-1.162 3.765-2.544 5.776-3.961a498.175 510.362 0 0 0 5.892-4.22 166.728 166.728 0 0 0 5.004-3.768 116.979 119.84 0 0 0 8.277-7.179 76.467 76.467 0 0 0 3.874-3.949 101.328 103.807 0 0 0 8.18-10.272 140.112 140.112 0 0 0 3.639-5.537 74.283 74.283 0 0 0 2.732-4.724 93.206 95.486 0 0 0 5.095-11.356 91.73 91.73 0 0 0 1.897-5.506c.632-2.045 1.323-4.492 2.011-6.977.688-2.486 1.38-5.007 1.965-7.187.598-2.18 1.089-4.011 1.58-5.835.492-1.82.983-3.632 1.304-4.956.325-1.328.491-2.168.53-2.981.037-.806-.039-1.592-.352-2.455a10.643 10.903 0 0 0-1.384-2.54 6.973 7.144 0 0 0-1.625-1.665 5.643 5.78 0 0 0-2.044-.93 8.164 8.363 0 0 0-2.669-.135c-.88.105-1.663.376-2.846 1.107-1.175.728-2.747 1.921-3.534 2.517-.786.593-.786.593-8.643 5.673z" /> </g>
    </g>
    <text
       xml:space="preserve"
       style="font-size:202.494px;writing-mode:lr-tb;direction:ltr;display:inline;fill:none;fill-opacity:1;stroke:#ee0000;stroke-width:14.7;stroke-dasharray:none;stroke-opacity:1"
       x="48.206333"
       y="403.4614"
       id="text8"
       inkscape:label="year"><tspan
         sodipodi:role="line"
         id="tspan8"
         style="font-style:normal;font-variant:normal;font-weight:normal;font-stretch:normal;font-size:202.494px;font-family:Formula1;-inkscape-font-specification:Formula1;fill:#000000;fill-opacity:1;stroke:#ffffff;stroke-width:14.7;stroke-dasharray:none;stroke-opacity:1"
         x="48.206333"
         y="403.4614">2026</tspan></text>
  </g>
</svg>
