<?xml version="1.0" encoding="UTF-8" standalone="no"?>
<!-- Created with Inkscape (http://www.inkscape.org/) -->

<svg
   width="1000mm"
   height="185mm"
   viewBox="0 0 1000 185"
   version="1.1"
   id="svg1"
   inkscape:version="1.4.3 (0d15f75, 2025-12-25)"
   sodipodi:docname="template.csv"
   xmlns:inkscape="http://www.inkscape.org/namespaces/inkscape"
   xmlns:sodipodi="http://sodipodi.sourceforge.net/DTD/sodipodi-0.dtd"
   xmlns="http://www.w3.org/2000/svg"
   xmlns:svg="http://www.w3.org/2000/svg">
  <sodipodi:namedview
     id="namedview1"
     pagecolor="#505050"
     bordercolor="#eeeeee"
     borderopacity="1"
     inkscape:showpageshadow="0"
     inkscape:pageopacity="0"
     inkscape:pagecheckerboard="0"
     inkscape:deskcolor="#505050"
     inkscape:document-units="mm"
     inkscape:zoom="0.1227161"
     inkscape:cx="1295.6735"
     inkscape:cy="774.14452"
     inkscape:window-width="1710"
     inkscape:window-height="1045"
     inkscape:window-x="0"
     inkscape:window-y="62"
     inkscape:window-maximized="0"
     inkscape:current-layer="g9" />
  <defs
     id="defs1">
    <inkscape:path-effect
       effect="fillet_chamfer"
       id="path-effect4"
       is_visible="true"
       lpeversion="1"
       nodesatellites_param="F,0,0,1,0,0,0,1 @ F,0,0,1,0,75,0,1 @ F,0,0,1,0,75,0,1 @ F,0,0,1,0,0,0,1"
       radius="0"
       unit="px"
       method="auto"
       mode="F"
       chamfer_steps="1"
       flexible="false"
       use_knot_distance="true"
       apply_no_radius="true"
       apply_with_radius="true"
       only_selected="false"
       hide_knots="false" />
  </defs>
  <g
     inkscape:label="Layer 1"
     inkscape:groupmode="layer"
     id="layer1">
    <rect
       style="fill:#15151e;fill-opacity:1;stroke-width:0.34064"
       id="rect1"
       width="1000"
       height="185"
       x="0"
       y="0"
       ry="0.38798204"
       inkscape:label="background"
       sodipodi:insensitive="true" />
    <path
       d="M 762.49994,223.75 1025,-38.75 H 867.00776 l -262.4945,262.5 z M 724.86402,75.56875 H 407.09139 c -96.84612,0 -113.79379,5.135144 -155.27422,46.61563 C 213.02187,160.9797 150.00544,223.75 150.00544,223.75 h 137.65391 l 32.83983,-32.83984 C 342.08982,169.31951 353.2242,167.0828 398.56014,167.0828 H 633.35539 Z M 247.5789,103.46481 C 218.92812,130.49687 156.58981,191.05233 122.9898,223.75 H -25 c 0,0 118.58434,-118.23983 184.49374,-183.115632 C 227.39921,-24.006257 261.25076,-38.75 385.80153,-38.75 H 839.18822 L 741.01871,59.414059 H 395.01089 c -87.51638,0 -107.18202,6.064842 -147.43199,44.050751 z"
       id="Fill-1"
       style="fill:#201f2c;fill-opacity:1;fill-rule:evenodd;stroke:none;stroke-width:8.75"
       sodipodi:nodetypes="ccccccssccssccccccsccsc"
       inkscape:label="logo" />
    <path
       style="fill:none;stroke:#ee0000;stroke-width:15;stroke-dasharray:none;stroke-opacity:1"
       d="M 942.5,0 V 185"
       id="path1" />
    <g
       id="g10"
       transform="translate(43.405424,-18.592949)"
       inkscape:label="info"
       style="display:inline">
      <g
         id="g9"
         transform="translate(-30.33605,-0.22930279)">
        
        <text
           xml:space="preserve"
           style="font-style:normal;font-variant:normal;font-weight:normal;font-stretch:normal;font-size:52.9167px;line-height:100%;font-family:Formula1;-inkscape-font-specification:Formula1;text-align:start;word-spacing:0px;writing-mode:lr-tb;direction:ltr;text-anchor:start;opacity:1;fill:#ffffff;fill-opacity:1;stroke:none;stroke-width:7.83601;stroke-linecap:butt;stroke-linejoin:miter;stroke-dasharray:none;stroke-opacity:1"
           x="206.93063"
           y="99.14473"
           id="text3"
           inkscape:label="location"><tspan
             sodipodi:role="line"
             id="tspan3"
             style="font-style:normal;font-variant:normal;font-weight:normal;font-stretch:normal;font-size:52.9167px;font-family:Formula1;-inkscape-font-specification:Formula1;stroke:none;stroke-width:7.836"
             x="206.93063"
             y="99.14473">MEXICO</tspan></text>
        
        <text
           xml:space="preserve"
           style="font-style:normal;font-variant:normal;font-weight:normal;font-stretch:normal;font-size:28.1647px;line-height:100%;font-family:Formula1;-inkscape-font-specification:Formula1;text-align:start;word-spacing:0px;writing-mode:lr-tb;direction:ltr;text-anchor:start;opacity:1;fill:#ffffff;fill-opacity:1;stroke:none;stroke-width:7.83601;stroke-linecap:butt;stroke-linejoin:miter;stroke-dasharray:none;stroke-opacity:1"
           x="204.63754"
           y="135.32277"
           id="text4"
           inkscape:label="full-name"><tspan
             sodipodi:role="line"
             id="tspan4"
             style="font-style:normal;font-variant:normal;font-weight:normal;font-stretch:normal;font-size:28.1647px;font-family:Formula1;-inkscape-font-specification:Formula1;fill:#ee0000;fill-opacity:1;stroke-width:7.836"
             x="204.63754"
             y="135.32277">GRAN PREMIO DE LA CIUDAD DE MÉXICO</tspan></text>
        
        <text
           xml:space="preserve"
           style="font-style:normal;font-variant:normal;font-weight:normal;font-stretch:normal;font-size:26.4581px;line-height:100%;font-family:Formula1;-inkscape-font-specification:Formula1;text-align:start;word-spacing:0px;writing-mode:lr-tb;direction:ltr;text-anchor:start;opacity:1;fill:#ffffff;fill-opacity:1;stroke:none;stroke-width:7.83594;stroke-linecap:butt;stroke-linejoin:miter;stroke-dasharray:none;stroke-opacity:1"
           x="206.26918"
           y="163.4783"
           id="text1"
           inkscape:label="track-name"><tspan
             sodipodi:role="line"
             id="tspan1"
             style="font-style:normal;font-variant:normal;font-weight:normal;font-stretch:normal;font-size:26.4581px;font-family:Formula1;-inkscape-font-specification:Formula1;fill:#ee0000;fill-opacity:1;stroke-width:7.83593"
             x="206.26918"
             y="163.4783">Autódromo Hermanos Rodríguez</tspan></text>
      </g>
      <g transform="translate(6.594573999999994, 36.09295) scale(0.29296875)" inkscape:label="flag"><mask id="a"><circle cx="256" cy="256" r="256" fill="#fff"/></mask><g mask="url(#a)"><path fill="#eee" d="M144 0h223l33 256-33 256H144l-32-256z"/><path fill="#d80027" d="M368 0h144v512H368z"/><path fill="#751a46" d="M256 174c22 11 12 33 11 34l-2-4c-4-15-13-33-31-18v11q10 1 11 11-11 12-4 26l4 8-13 23 29-7 18 18v-11l11 11 23-11-35-21-2-13c22-2 34 4 51 29 9-83-45-86-64-86Z"/><path fill="#6da544" d="M209 183q-5 4-4 12 1 11 10 15c3 2 8 0 10 3 3 3-2 5-4 6q-8 5-9 14 3 10 12 15c2 2 7 4 5 7q-4 2-9-2-12-6-19-19c-2-3-1-10-7-10-7 2-4 10-2 14q8 14 21 23 9 8 20 3 10-6 4-17c-3-6-11-8-14-14-2-3 2-4 4-6q8-4 9-11-2-13-14-15-6 1-7-6c-1-3 3-7 0-11q-2-3-6-1"/><path fill="#496e2d" d="M0 0v512h144V0zm164 235a5 5 0 0 0-5 5 97 97 0 0 0 194 0 5 5 0 0 0-5-5 5 5 0 0 0-5 5 87 87 0 1 1-174 0 5 5 0 0 0-5-5m35 25-4 1q-3 4 1 8 23 21 54 24v17h12v-17q31-3 54-24 4-4 1-8-4-3-8 0a78 78 0 0 1-106 0z"/><path fill="#338af3" d="M256 316q-21 0-40-13l6-9c20 13 48 13 68 0l7 9q-18 13-41 13"/><rect width="34" height="22" x="239" y="299" fill="#ff9811" rx="11" ry="11"/><path fill="#ffda44" d="m234 186-12 11v11l18-9q4-3 1-7zm-62 79a10 10 0 0 0-10 10 10 10 0 0 0 10 10 10 10 0 0 0 10-10 10 10 0 0 0-10-10m169 0a10 10 0 0 0-10 10 10 10 0 0 0 10 10 10 10 0 0 0 10-10 10 10 0 0 0-10-10m-69 4-16 8v5l15-1 4-9zm-83 23a10 10 0 0 0-10 10 10 10 0 0 0 10 10 10 10 0 0 0 10-10 10 10 0 0 0-10-10m135 0a10 10 0 0 0-10 10 10 10 0 0 0 10 10 10 10 0 0 0 10-10 10 10 0 0 0-10-10m-108 21a10 10 0 0 0-10 10 10 10 0 0 0 10 10 10 10 0 0 0 10-10 10 10 0 0 0-10-10m81 0a10 10 0 0 0-10 10 10 10 0 0 0 10 10 10 10 0 0 0 10-10 10 10 0 0 0-10-10"/></g></g>
    </g>
  </g>
</svg>
