<?xml version="1.0" encoding="UTF-8" standalone="no"?>
<!-- Created with Inkscape (http://www.inkscape.org/) -->

<svg
   width="720mm"
   height="405mm"
   viewBox="0 0 720 405"
   version="1.1"
   id="svg1"
   xml:space="preserve"
   inkscape:export-xdpi="45.18441"
   inkscape:export-ydpi="45.18441"
   inkscape:version="1.4.3 (0d15f75, 2025-12-25)"
   sodipodi:docname="template.svg"
   xmlns:inkscape="http://www.inkscape.org/namespaces/inkscape"
   xmlns:sodipodi="http://sodipodi.sourceforge.net/DTD/sodipodi-0.dtd"
   xmlns="http://www.w3.org/2000/svg"
   xmlns:svg="http://www.w3.org/2000/svg"><sodipodi:namedview
     id="namedview1"
     pagecolor="#ffffff"
     bordercolor="#111111"
     borderopacity="1"
     inkscape:showpageshadow="0"
     inkscape:pageopacity="0"
     inkscape:pagecheckerboard="1"
     inkscape:deskcolor="#d1d1d1"
     inkscape:document-units="mm"
     inkscape:zoom="0.25178368"
     inkscape:cx="1312.6347"
     inkscape:cy="969.08584"
     inkscape:window-width="1710"
     inkscape:window-height="1045"
     inkscape:window-x="0"
     inkscape:window-y="62"
     inkscape:window-maximized="0"
     inkscape:current-layer="layer1" /><defs
     id="defs1"><inkscape:path-effect
       effect="fillet_chamfer"
       id="path-effect3"
       is_visible="true"
       lpeversion="1"
       nodesatellites_param="F,0,0,1,0,0,0,1 @ F,0,0,1,0,45.967641,0,1 @ F,0,0,1,0,0,0,1"
       radius="0"
       unit="px"
       method="auto"
       mode="F"
       chamfer_steps="1"
       flexible="false"
       use_knot_distance="true"
       apply_no_radius="true"
       apply_with_radius="true"
       only_selected="false"
       hide_knots="false" /><path
       d="M101.086812,30 L101.711812,30 L101.711812,27.106875 L101.722437,27.106875 L102.761812,30 L103.302437,30 L104.341812,27.106875 L104.352437,27.106875 L104.352437,30 L104.977437,30 L104.977437,26.25125 L104.063687,26.25125 L103.055562,29.18625 L103.044937,29.18625 L102.011187,26.25125 L101.086812,26.25125 L101.086812,30 Z M97.6274375,26.818125 L98.8136875,26.818125 L98.8136875,30 L99.4699375,30 L99.4699375,26.818125 L100.661812,26.818125 L100.661812,26.25125 L97.6274375,26.25125 L97.6274375,26.818125 Z M89.9999375,30 L119.999937,0 L101.943687,0 L71.9443125,30 L89.9999375,30 Z M85.6986875,13.065 L49.3818125,13.065 C38.3136875,13.065 36.3768125,13.651875 31.6361875,18.3925 C27.2024375,22.82625 20.0005625,30 20.0005625,30 L35.7324375,30 L39.4855625,26.246875 C41.9530625,23.779375 43.2255625,23.52375 48.4068125,23.52375 L75.2405625,23.52375 L85.6986875,13.065 Z M31.1518125,16.253125 C27.8774375,19.3425 20.7530625,26.263125 16.9130625,30 L-6.25e-05,30 C-6.25e-05,30 13.5524375,16.486875 21.0849375,9.0725 C28.8455625,1.685 32.7143125,0 46.9486875,0 L98.7643125,0 L87.5449375,11.21875 L48.0011875,11.21875 C37.9993125,11.21875 35.7518125,11.911875 31.1518125,16.253125 Z"
       id="path-1" /></defs><g
     inkscape:label="Layer 1"
     inkscape:groupmode="layer"
     id="layer1"><rect
       style="opacity:1;fill:#15151e;stroke:none;stroke-width:0.459853"
       id="rect1"
       width="719.54016"
       height="404.54016"
       x="0.2299265"
       y="0.2299265"
       inkscape:export-filename="../png/template.png"
       inkscape:export-xdpi="45.18441"
       inkscape:export-ydpi="45.18441"
       inkscape:label="background" /><path
       d="M 549.98062,297.49087 739.9615,107.51 H 625.61677 L 435.63984,297.49087 Z M 522.74211,190.24667 H 292.75839 c -70.09107,0 -82.35671,3.7165 -112.37764,33.73744 -28.07759,28.07759 -73.68488,73.50676 -73.68488,73.50676 h 99.62519 l 23.76739,-23.7674 c 15.62593,-15.62592 23.68429,-17.24472 56.49556,-17.24472 h 169.92997 z m -345.42876,20.18942 c -20.73562,19.56408 -65.85212,63.39029 -90.16967,87.05478 H -19.962 c 0,0 85.82387,-85.57451 133.52489,-132.52749 C 162.70857,118.18059 187.20818,107.51 277.35015,107.51 h 328.13259 l -71.04889,71.04493 H 284.01531 c -63.33882,0 -77.57156,4.38935 -106.70196,31.88116 z"
       id="Fill-1-6"
       style="fill:#201f2c;fill-opacity:1;fill-rule:evenodd;stroke:none;stroke-width:6.3327"
       sodipodi:nodetypes="ccccccssccssccccccsccsc"
       inkscape:label="logo" /><text
       xml:space="preserve"
       style="font-style:normal;font-variant:normal;font-weight:normal;font-stretch:normal;font-size:31.75px;line-height:100%;font-family:Formula1;-inkscape-font-specification:Formula1;text-align:start;word-spacing:0px;writing-mode:lr-tb;direction:ltr;text-anchor:start;opacity:1;fill:#ee0000;fill-opacity:1;stroke:none;stroke-width:0.223;stroke-opacity:1"
       x="28.402561"
       y="46.197952"
       id="text2"
       inkscape:label="round"><tspan
         sodipodi:role="line"
         style="font-style:normal;font-variant:normal;font-weight:normal;font-stretch:normal;font-size:31.75px;font-family:Formula1;-inkscape-font-specification:Formula1;fill:#ee0000;fill-opacity:1;stroke-width:0.223"
         x="28.402561"
         y="46.197952"
         id="tspan1">ROUND 20</tspan></text><path
       style="opacity:1;fill:none;fill-opacity:1;stroke:#ee0000;stroke-width:7.83601;stroke-linecap:butt;stroke-linejoin:miter;stroke-dasharray:none;stroke-opacity:1"
       d="m 187.88728,39.21919 h 456.58523 a 45.967641,45.967641 45 0 1 45.96764,45.967641 V 413.1696"
       id="path3"
       sodipodi:nodetypes="ccc"
       inkscape:path-effect="#path-effect3"
       inkscape:original-d="M 187.88728,39.21919 H 690.44015 V 413.1696"
       transform="matrix(0.86982237,0,0,1.0007021,74.217474,3.230212)" /><g
       id="g10"
       transform="translate(1.3716371)"
       inkscape:label="info"><text
         xml:space="preserve"
         style="font-style:normal;font-variant:normal;font-weight:normal;font-stretch:normal;font-size:44.9794px;line-height:100%;font-family:Formula1;-inkscape-font-specification:Formula1;text-align:start;word-spacing:0px;writing-mode:lr-tb;direction:ltr;text-anchor:start;opacity:1;fill:#ffffff;fill-opacity:1;stroke:none;stroke-width:7.83604;stroke-linecap:butt;stroke-linejoin:miter;stroke-dasharray:none;stroke-opacity:1"
         x="205.8817"
         y="110.78199"
         id="text3"
         inkscape:label="location"><tspan
           sodipodi:role="line"
           id="tspan3"
           style="font-style:normal;font-variant:normal;font-weight:500;font-stretch:normal;font-size:44.9794px;font-family:Formula1;-inkscape-font-specification:'Formula1 Medium';stroke:none;stroke-width:7.83603"
           x="205.8817"
           y="110.78199">MEXICO</tspan></text><text
         xml:space="preserve"
         style="font-style:normal;font-variant:normal;font-weight:500;font-stretch:normal;font-size:26.4583px;line-height:100%;font-family:Formula1;-inkscape-font-specification:'Formula1 Medium';text-align:start;word-spacing:0px;writing-mode:lr-tb;direction:ltr;text-anchor:start;opacity:1;fill:#ffffff;fill-opacity:1;stroke:none;stroke-width:7.83601;stroke-linecap:butt;stroke-linejoin:miter;stroke-dasharray:none;stroke-opacity:1"
         x="204.55881"
         y="147.57129"
         id="text4"
         inkscape:label="session"><tspan
           sodipodi:role="line"
           id="tspan4"
           style="font-style:normal;font-variant:normal;font-weight:normal;font-stretch:normal;font-size:26.4583px;font-family:Formula1;-inkscape-font-specification:Formula1;fill:#ee0000;fill-opacity:1;stroke-width:7.836"
           x="204.55881"
           y="147.57129">PRACTICE 02</tspan></text></g><g
       id="g3"
       inkscape:label="track"><text
         xml:space="preserve"
         style="font-style:normal;font-variant:normal;font-weight:normal;font-stretch:normal;font-size:19.0503px;line-height:100%;font-family:Formula1;-inkscape-font-specification:Formula1;text-align:center;word-spacing:0px;writing-mode:lr-tb;direction:ltr;text-anchor:middle;opacity:1;fill:#ee0000;fill-opacity:1;stroke:none;stroke-width:7.83615;stroke-linecap:butt;stroke-linejoin:miter;stroke-dasharray:none;stroke-opacity:1"
         x="436.95758"
         y="385.74637"
         id="text5"
         inkscape:label="track-name"><tspan
           sodipodi:role="line"
           id="tspan5"
           style="font-size:19.0503px;stroke-width:7.83614"
           x="436.95758"
           y="385.74637">Autódromo Hermanos Rodríguez</tspan></text><g inkscape:label="embedded-track" transform=" translate(284.3940772503101, 93.56176229045474) scale(0.6472165194176459) rotate(-8.5, 249.97727483579905, 249.9351531874637) " > <path style="fill: none; stroke: #fff; stroke-width: 20; stroke-linejoin: round; stroke-dasharray: none; stroke-opacity: 1;" d="M68.115 74.569c20.465 2.901 314.544 46.249 376.858 55.798 3.924.6 15.237 2.752 23.971 4.728 2.288.518 3.041 4.923 2.867 8.43-.259 5.27-.8 13.839-1.432 22.789-.391 5.532-.13 5.927 4.303 7.245 1.817.539 3.416.948 5.867 1.58 3.11.803 4.726 2.649 4.434 5.533-.652 6.454-1.302 9.35-2.085 12.514-.653 2.634-4.638 9.707-5.115 10.52-14.661 24.978-76.417 129.197-82.64 138.987-5.007 7.877-7.396 11.41-11.93 18.376-4.89 7.507-5.282 16.202 2.542 18.772 7.059 2.316 8.243 2.674 11.344 3.753 6.26 2.174 7.353 3.848 7.236 8.102-.19 6.925-2.15 7.506-8.018 11.261-3.145 2.013-17.624 10.48-35.597 21.538-3.6 2.213-7.043 2.173-10.173-2.172-1.702-2.363-1.732-7.806-.979-12.054 5.477-30.824 15.062-81.406 18.973-100.175 2.626-12.597-6.455-18.574-21.711-21.143-8.476-1.428-15.164-7.935-17.798-15.412-4.106-11.657-9.395-18.187-21.515-18.771-8.215-.396-18.571-1.037-29.73-1.384-12.714-.396-21.32-6.125-22.297-17.19-.292-3.298-1.019-12.145-1.37-15.806-.586-6.127-.59-7.897-8.606-11.46-9.78-4.347-25.232-10.275-43.42-16.796-4.432-1.588-6.016-2.568-17.621-4.201-27.061-3.808-73.36-10.324-102.563-14.599-5.872-.859-4.278-1.88-4.278-6.755 0-3.28.13-26.213.391-37.014.1-4.126.193-7.575.064-11.329-.194-5.73-9.658-5.764-11.539-2.174-1.76 3.36-3.47 6.48-4.5 7.707-4.302 5.137-8.017 4.742-15.255.989-8.029-4.165-14.003-3.877-17.798-4.149-3.119-.225-6.454-.198-9.78-.395-3.385-.202-4.553-2.229-4.108-5.73 2.735-21.49 22.76-44.2 53.008-39.913z" /> <path style="fill: none; stroke: #000; stroke-width: 5; stroke-linejoin: round; stroke-dasharray: none; stroke-opacity: 1;" d="M68.115 74.569c20.465 2.901 314.544 46.249 376.858 55.798 3.924.6 15.237 2.752 23.971 4.728 2.288.518 3.041 4.923 2.867 8.43-.259 5.27-.8 13.839-1.432 22.789-.391 5.532-.13 5.927 4.303 7.245 1.817.539 3.416.948 5.867 1.58 3.11.803 4.726 2.649 4.434 5.533-.652 6.454-1.302 9.35-2.085 12.514-.653 2.634-4.638 9.707-5.115 10.52-14.661 24.978-76.417 129.197-82.64 138.987-5.007 7.877-7.396 11.41-11.93 18.376-4.89 7.507-5.282 16.202 2.542 18.772 7.059 2.316 8.243 2.674 11.344 3.753 6.26 2.174 7.353 3.848 7.236 8.102-.19 6.925-2.15 7.506-8.018 11.261-3.145 2.013-17.624 10.48-35.597 21.538-3.6 2.213-7.043 2.173-10.173-2.172-1.702-2.363-1.732-7.806-.979-12.054 5.477-30.824 15.062-81.406 18.973-100.175 2.626-12.597-6.455-18.574-21.711-21.143-8.476-1.428-15.164-7.935-17.798-15.412-4.106-11.657-9.395-18.187-21.515-18.771-8.215-.396-18.571-1.037-29.73-1.384-12.714-.396-21.32-6.125-22.297-17.19-.292-3.298-1.019-12.145-1.37-15.806-.586-6.127-.59-7.897-8.606-11.46-9.78-4.347-25.232-10.275-43.42-16.796-4.432-1.588-6.016-2.568-17.621-4.201-27.061-3.808-73.36-10.324-102.563-14.599-5.872-.859-4.278-1.88-4.278-6.755 0-3.28.13-26.213.391-37.014.1-4.126.193-7.575.064-11.329-.194-5.73-9.658-5.764-11.539-2.174-1.76 3.36-3.47 6.48-4.5 7.707-4.302 5.137-8.017 4.742-15.255.989-8.029-4.165-14.003-3.877-17.798-4.149-3.119-.225-6.454-.198-9.78-.395-3.385-.202-4.553-2.229-4.108-5.73 2.735-21.49 22.76-44.2 53.008-39.913z" /> </g></g><g
       id="g8"
       inkscape:label="date"
       transform="translate(26.39625,4.4877724)"><text
         xml:space="preserve"
         style="font-style:normal;font-variant:normal;font-weight:normal;font-stretch:normal;font-size:38.1px;line-height:100%;font-family:Formula1;-inkscape-font-specification:Formula1;text-align:center;word-spacing:0px;writing-mode:lr-tb;direction:ltr;text-anchor:middle;opacity:1;fill:#ee0000;fill-opacity:1;stroke:none;stroke-width:7.83601;stroke-linecap:butt;stroke-linejoin:miter;stroke-dasharray:none;stroke-opacity:1"
         x="73.904526"
         y="296.20868"
         id="text6"
         inkscape:label="day"><tspan
           sodipodi:role="line"
           id="tspan6"
           style="font-style:normal;font-variant:normal;font-weight:500;font-stretch:normal;font-size:38.1px;font-family:Formula1;-inkscape-font-specification:'Formula1 Medium';fill:#ffffff;fill-opacity:1;stroke-width:7.836"
           x="73.904526"
           y="296.20868">30</tspan></text><g
         id="g7"
         inkscape:label="month"><rect
           style="opacity:1;fill:#ffffff;fill-opacity:1;stroke:none;stroke-width:7.83601;stroke-linecap:butt;stroke-linejoin:miter;stroke-dasharray:none;stroke-opacity:1"
           id="rect7"
           width="135.10905"
           height="57.764015"
           x="10.769562"
           y="306.44302"
           ry="23.007711" /><text
           xml:space="preserve"
           style="font-style:normal;font-variant:normal;font-weight:500;font-stretch:normal;font-size:38.1px;line-height:100%;font-family:Formula1;-inkscape-font-specification:'Formula1 Medium';text-align:center;word-spacing:0px;writing-mode:lr-tb;direction:ltr;text-anchor:middle;opacity:1;fill:#15151e;fill-opacity:1;stroke:none;stroke-width:7.83601;stroke-linecap:butt;stroke-linejoin:miter;stroke-dasharray:none;stroke-opacity:1"
           x="76.800072"
           y="349.61252"
           id="text7"
           inkscape:label="month"><tspan
             sodipodi:role="line"
             id="tspan7"
             style="fill:#15151e;fill-opacity:1;stroke-width:7.836"
             x="76.800072"
             y="349.61252">OCT</tspan></text></g></g><g transform="translate(71.964256, 72.019316) scale(0.15632884375)" inkscape:label="flag"><mask id="a"><circle cx="256" cy="256" r="256" fill="#fff"/></mask><g mask="url(#a)"><path fill="#eee" d="M144 0h223l33 256-33 256H144l-32-256z"/><path fill="#d80027" d="M368 0h144v512H368z"/><path fill="#751a46" d="M256 174c22 11 12 33 11 34l-2-4c-4-15-13-33-31-18v11q10 1 11 11-11 12-4 26l4 8-13 23 29-7 18 18v-11l11 11 23-11-35-21-2-13c22-2 34 4 51 29 9-83-45-86-64-86Z"/><path fill="#6da544" d="M209 183q-5 4-4 12 1 11 10 15c3 2 8 0 10 3 3 3-2 5-4 6q-8 5-9 14 3 10 12 15c2 2 7 4 5 7q-4 2-9-2-12-6-19-19c-2-3-1-10-7-10-7 2-4 10-2 14q8 14 21 23 9 8 20 3 10-6 4-17c-3-6-11-8-14-14-2-3 2-4 4-6q8-4 9-11-2-13-14-15-6 1-7-6c-1-3 3-7 0-11q-2-3-6-1"/><path fill="#496e2d" d="M0 0v512h144V0zm164 235a5 5 0 0 0-5 5 97 97 0 0 0 194 0 5 5 0 0 0-5-5 5 5 0 0 0-5 5 87 87 0 1 1-174 0 5 5 0 0 0-5-5m35 25-4 1q-3 4 1 8 23 21 54 24v17h12v-17q31-3 54-24 4-4 1-8-4-3-8 0a78 78 0 0 1-106 0z"/><path fill="#338af3" d="M256 316q-21 0-40-13l6-9c20 13 48 13 68 0l7 9q-18 13-41 13"/><rect width="34" height="22" x="239" y="299" fill="#ff9811" rx="11" ry="11"/><path fill="#ffda44" d="m234 186-12 11v11l18-9q4-3 1-7zm-62 79a10 10 0 0 0-10 10 10 10 0 0 0 10 10 10 10 0 0 0 10-10 10 10 0 0 0-10-10m169 0a10 10 0 0 0-10 10 10 10 0 0 0 10 10 10 10 0 0 0 10-10 10 10 0 0 0-10-10m-69 4-16 8v5l15-1 4-9zm-83 23a10 10 0 0 0-10 10 10 10 0 0 0 10 10 10 10 0 0 0 10-10 10 10 0 0 0-10-10m135 0a10 10 0 0 0-10 10 10 10 0 0 0 10 10 10 10 0 0 0 10-10 10 10 0 0 0-10-10m-108 21a10 10 0 0 0-10 10 10 10 0 0 0 10 10 10 10 0 0 0 10-10 10 10 0 0 0-10-10m81 0a10 10 0 0 0-10 10 10 10 0 0 0 10 10 10 10 0 0 0 10-10 10 10 0 0 0-10-10"/></g></g></g></svg>
