<?xml version="1.0" encoding="UTF-8" standalone="no"?>
<!-- Created with Inkscape (http://www.inkscape.org/) -->

<svg
   width="720mm"
   height="405mm"
   viewBox="0 0 720 405"
   version="1.1"
   id="svg1"
   xml:space="preserve"
   inkscape:export-xdpi="45.18441"
   inkscape:export-ydpi="45.18441"
   inkscape:version="1.4.3 (0d15f75, 2025-12-25)"
   sodipodi:docname="template.svg"
   xmlns:inkscape="http://www.inkscape.org/namespaces/inkscape"
   xmlns:sodipodi="http://sodipodi.sourceforge.net/DTD/sodipodi-0.dtd"
   xmlns="http://www.w3.org/2000/svg"
   xmlns:svg="http://www.w3.org/2000/svg"><sodipodi:namedview
     id="namedview1"
     pagecolor="#ffffff"
     bordercolor="#111111"
     borderopacity="1"
     inkscape:showpageshadow="0"
     inkscape:pageopacity="0"
     inkscape:pagecheckerboard="1"
     inkscape:deskcolor="#d1d1d1"
     inkscape:document-units="mm"
     inkscape:zoom="0.25178368"
     inkscape:cx="1312.6347"
     inkscape:cy="969.08584"
     inkscape:window-width="1710"
     inkscape:window-height="1045"
     inkscape:window-x="0"
     inkscape:window-y="62"
     inkscape:window-maximized="0"
     inkscape:current-layer="layer1" /><defs
     id="defs1"><inkscape:path-effect
       effect="fillet_chamfer"
       id="path-effect3"
       is_visible="true"
       lpeversion="1"
       nodesatellites_param="F,0,0,1,0,0,0,1 @ F,0,0,1,0,45.967641,0,1 @ F,0,0,1,0,0,0,1"
       radius="0"
       unit="px"
       method="auto"
       mode="F"
       chamfer_steps="1"
       flexible="false"
       use_knot_distance="true"
       apply_no_radius="true"
       apply_with_radius="true"
       only_selected="false"
       hide_knots="false" /><path
       d="M101.086812,30 L101.711812,30 L101.711812,27.106875 L101.722437,27.106875 L102.761812,30 L103.302437,30 L104.341812,27.106875 L104.352437,27.106875 L104.352437,30 L104.977437,30 L104.977437,26.25125 L104.063687,26.25125 L103.055562,29.18625 L103.044937,29.18625 L102.011187,26.25125 L101.086812,26.25125 L101.086812,30 Z M97.6274375,26.818125 L98.8136875,26.818125 L98.8136875,30 L99.4699375,30 L99.4699375,26.818125 L100.661812,26.818125 L100.661812,26.25125 L97.6274375,26.25125 L97.6274375,26.818125 Z M89.9999375,30 L119.999937,0 L101.943687,0 L71.9443125,30 L89.9999375,30 Z M85.6986875,13.065 L49.3818125,13.065 C38.3136875,13.065 36.3768125,13.651875 31.6361875,18.3925 C27.2024375,22.82625 20.0005625,30 20.0005625,30 L35.7324375,30 L39.4855625,26.246875 C41.9530625,23.779375 43.2255625,23.52375 48.4068125,23.52375 L75.2405625,23.52375 L85.6986875,13.065 Z M31.1518125,16.253125 C27.8774375,19.3425 20.7530625,26.263125 16.9130625,30 L-6.25e-05,30 C-6.25e-05,30 13.5524375,16.486875 21.0849375,9.0725 C28.8455625,1.685 32.7143125,0 46.9486875,0 L98.7643125,0 L87.5449375,11.21875 L48.0011875,11.21875 C37.9993125,11.21875 35.7518125,11.911875 31.1518125,16.253125 Z"
       id="path-1" /></defs><g
     inkscape:label="Layer 1"
     inkscape:groupmode="layer"
     id="layer1"><rect
       style="opacity:1;fill:#15151e;stroke:none;stroke-width:0.459853"
       id="rect1"
       width="719.54016"
       height="404.54016"
       x="0.2299265"
       y="0.2299265"
       inkscape:export-filename="../png/template.png"
       inkscape:export-xdpi="45.18441"
       inkscape:export-ydpi="45.18441"
       inkscape:label="background" /><path
       d="M 549.98062,297.49087 739.9615,107.51 H 625.61677 L 435.63984,297.49087 Z M 522.74211,190.24667 H 292.75839 c -70.09107,0 -82.35671,3.7165 -112.37764,33.73744 -28.07759,28.07759 -73.68488,73.50676 -73.68488,73.50676 h 99.62519 l 23.76739,-23.7674 c 15.62593,-15.62592 23.68429,-17.24472 56.49556,-17.24472 h 169.92997 z m -345.42876,20.18942 c -20.73562,19.56408 -65.85212,63.39029 -90.16967,87.05478 H -19.962 c 0,0 85.82387,-85.57451 133.52489,-132.52749 C 162.70857,118.18059 187.20818,107.51 277.35015,107.51 h 328.13259 l -71.04889,71.04493 H 284.01531 c -63.33882,0 -77.57156,4.38935 -106.70196,31.88116 z"
       id="Fill-1-6"
       style="fill:#201f2c;fill-opacity:1;fill-rule:evenodd;stroke:none;stroke-width:6.3327"
       sodipodi:nodetypes="ccccccssccssccccccsccsc"
       inkscape:label="logo" /><text
       xml:space="preserve"
       style="font-style:normal;font-variant:normal;font-weight:normal;font-stretch:normal;font-size:31.75px;line-height:100%;font-family:Formula1;-inkscape-font-specification:Formula1;text-align:start;word-spacing:0px;writing-mode:lr-tb;direction:ltr;text-anchor:start;opacity:1;fill:#ee0000;fill-opacity:1;stroke:none;stroke-width:0.223;stroke-opacity:1"
       x="28.402561"
       y="46.197952"
       id="text2"
       inkscape:label="round"><tspan
         sodipodi:role="line"
         style="font-style:normal;font-variant:normal;font-weight:normal;font-stretch:normal;font-size:31.75px;font-family:Formula1;-inkscape-font-specification:Formula1;fill:#ee0000;fill-opacity:1;stroke-width:0.223"
         x="28.402561"
         y="46.197952"
         id="tspan1">ROUND 03</tspan></text><path
       style="opacity:1;fill:none;fill-opacity:1;stroke:#ee0000;stroke-width:7.83601;stroke-linecap:butt;stroke-linejoin:miter;stroke-dasharray:none;stroke-opacity:1"
       d="m 187.88728,39.21919 h 456.58523 a 45.967641,45.967641 45 0 1 45.96764,45.967641 V 413.1696"
       id="path3"
       sodipodi:nodetypes="ccc"
       inkscape:path-effect="#path-effect3"
       inkscape:original-d="M 187.88728,39.21919 H 690.44015 V 413.1696"
       transform="matrix(0.86982237,0,0,1.0007021,74.217474,3.230212)" /><g
       id="g10"
       transform="translate(1.3716371)"
       inkscape:label="info"><text
         xml:space="preserve"
         style="font-style:normal;font-variant:normal;font-weight:normal;font-stretch:normal;font-size:44.9794px;line-height:100%;font-family:Formula1;-inkscape-font-specification:Formula1;text-align:start;word-spacing:0px;writing-mode:lr-tb;direction:ltr;text-anchor:start;opacity:1;fill:#ffffff;fill-opacity:1;stroke:none;stroke-width:7.83604;stroke-linecap:butt;stroke-linejoin:miter;stroke-dasharray:none;stroke-opacity:1"
         x="205.8817"
         y="110.78199"
         id="text3"
         inkscape:label="location"><tspan
           sodipodi:role="line"
           id="tspan3"
           style="font-style:normal;font-variant:normal;font-weight:500;font-stretch:normal;font-size:44.9794px;font-family:Formula1;-inkscape-font-specification:'Formula1 Medium';stroke:none;stroke-width:7.83603"
           x="205.8817"
           y="110.78199">JAPAN</tspan></text><text
         xml:space="preserve"
         style="font-style:normal;font-variant:normal;font-weight:500;font-stretch:normal;font-size:26.4583px;line-height:100%;font-family:Formula1;-inkscape-font-specification:'Formula1 Medium';text-align:start;word-spacing:0px;writing-mode:lr-tb;direction:ltr;text-anchor:start;opacity:1;fill:#ffffff;fill-opacity:1;stroke:none;stroke-width:7.83601;stroke-linecap:butt;stroke-linejoin:miter;stroke-dasharray:none;stroke-opacity:1"
         x="204.55881"
         y="147.57129"
         id="text4"
         inkscape:label="session"><tspan
           sodipodi:role="line"
           id="tspan4"
           style="font-style:normal;font-variant:normal;font-weight:normal;font-stretch:normal;font-size:26.4583px;font-family:Formula1;-inkscape-font-specification:Formula1;fill:#ee0000;fill-opacity:1;stroke-width:7.836"
           x="204.55881"
           y="147.57129">PRACTICE 02</tspan></text></g><g
       id="g3"
       inkscape:label="track"><text
         xml:space="preserve"
         style="font-style:normal;font-variant:normal;font-weight:normal;font-stretch:normal;font-size:19.0503px;line-height:100%;font-family:Formula1;-inkscape-font-specification:Formula1;text-align:center;word-spacing:0px;writing-mode:lr-tb;direction:ltr;text-anchor:middle;opacity:1;fill:#ee0000;fill-opacity:1;stroke:none;stroke-width:7.83615;stroke-linecap:butt;stroke-linejoin:miter;stroke-dasharray:none;stroke-opacity:1"
         x="436.95758"
         y="385.74637"
         id="text5"
         inkscape:label="track-name"><tspan
           sodipodi:role="line"
           id="tspan5"
           style="font-size:19.0503px;stroke-width:7.83614"
           x="436.95758"
           y="385.74637">Suzuka Circuit</tspan></text><g inkscape:label="embedded-track" transform=" translate(247.04276725100158, 69.45150732846365) scale(0.7580208624651018) rotate(0, 249.91059234562934, 250.01942473616495) " > <path style="fill: none; stroke: #fff; stroke-width: 20; stroke-linejoin: round; stroke-dasharray: none; stroke-opacity: 1;" d="M214.902 264.546c-4.263.328-5.803-.797-6.964-6.36-1.16-5.565-10.35-52.063-12.284-61.7-1.12-5.576-.962-14.257 1.644-19.872 2.999-6.458 5.822-12.607 7.255-15.698 1.836-3.975.773-6.955-2.322-8.247-2.978-1.244-5.03-.101-7.35 4.074-2.322 4.173-12.672 21.262-15.283 25.733-2.153 3.687-8.92 17.507-26.309 19.871-10.163 1.38-19.687 1.207-28.146-.199-7.964-1.324-15.005-3.757-20.119-6.358-17.369-8.84-26.889-12.917-38.592-41.034-6.216-14.93-8.706-20.865-9.866-24.045-1.16-3.18-6.259-10.384-16.25-9.637-5.32.397-8.334.725-13.348 1.987-9.865 2.484-14.279 11.485-11.026 20.368 3.675 10.035 7.145 12.684 21.666 23.845 27.276 20.965 40.187 27.009 54.455 33.086 18.664 7.949 100.496 37.755 115.585 42.823 8.293 2.785 13.156 3.078 23.89-1.69 14.312-6.358 24.468-14.207 34.047-24.242 9.108-9.546 20.215-18.976 30.565-27.522 3.32-2.742 4.453-1.049 5.706.199 3 2.98 3.77 3.676 5.32 4.967 1.752 1.463 2.812 1.8 4.836.1 2.128-1.789 6.544-5.557 7.643-6.258 8.992-5.762 12.435-7.209 19.143-5.619 1.707.405 3.45.887 5.23 1.446 13.93 4.372 17.894 8.247 32.694 25.634 8.66 10.175 94.452 116.714 100.98 124.992 7.834 9.934 7.94 13.91 6.482 23.744-1.546 10.433-6.74 21.182-17.704 19.971-8.994-.993-11.294-7.23-14.509-12.32-3.577-5.663-9.067-15.082-13.154-21.461-5.028-7.85-5.807-13.238-19.345-13.91-14.025-.695-19.964-2.105-23.407-17.685-.967-4.372-1.38-5.691-3.289-12.32-2.513-8.744-8.513-14.227-18.764-13.811-14.702.596-23.273-2.344-27.661-12.519-3.772-8.743-.236-15.137 1.933-20.765 1.837-4.77 6.382-16.195 2.71-23.35-3.676-7.153-7.966-9.22-12.866-11.524-5.707-2.683-17.812-8.054-30.855-6.757-14.994 1.49-27.083 9.837-35.207 20.17-6.979 8.877-17.12 21.656-19.442 24.839-2.321 3.181-3.96 3.926-6.287 4.173-6.577.693-23.699 2.285-31.435 2.881z" /> <path style="fill: none; stroke: #000; stroke-width: 5; stroke-linejoin: round; stroke-dasharray: none; stroke-opacity: 1;" d="M214.902 264.546c-4.263.328-5.803-.797-6.964-6.36-1.16-5.565-10.35-52.063-12.284-61.7-1.12-5.576-.962-14.257 1.644-19.872 2.999-6.458 5.822-12.607 7.255-15.698 1.836-3.975.773-6.955-2.322-8.247-2.978-1.244-5.03-.101-7.35 4.074-2.322 4.173-12.672 21.262-15.283 25.733-2.153 3.687-8.92 17.507-26.309 19.871-10.163 1.38-19.687 1.207-28.146-.199-7.964-1.324-15.005-3.757-20.119-6.358-17.369-8.84-26.889-12.917-38.592-41.034-6.216-14.93-8.706-20.865-9.866-24.045-1.16-3.18-6.259-10.384-16.25-9.637-5.32.397-8.334.725-13.348 1.987-9.865 2.484-14.279 11.485-11.026 20.368 3.675 10.035 7.145 12.684 21.666 23.845 27.276 20.965 40.187 27.009 54.455 33.086 18.664 7.949 100.496 37.755 115.585 42.823 8.293 2.785 13.156 3.078 23.89-1.69 14.312-6.358 24.468-14.207 34.047-24.242 9.108-9.546 20.215-18.976 30.565-27.522 3.32-2.742 4.453-1.049 5.706.199 3 2.98 3.77 3.676 5.32 4.967 1.752 1.463 2.812 1.8 4.836.1 2.128-1.789 6.544-5.557 7.643-6.258 8.992-5.762 12.435-7.209 19.143-5.619 1.707.405 3.45.887 5.23 1.446 13.93 4.372 17.894 8.247 32.694 25.634 8.66 10.175 94.452 116.714 100.98 124.992 7.834 9.934 7.94 13.91 6.482 23.744-1.546 10.433-6.74 21.182-17.704 19.971-8.994-.993-11.294-7.23-14.509-12.32-3.577-5.663-9.067-15.082-13.154-21.461-5.028-7.85-5.807-13.238-19.345-13.91-14.025-.695-19.964-2.105-23.407-17.685-.967-4.372-1.38-5.691-3.289-12.32-2.513-8.744-8.513-14.227-18.764-13.811-14.702.596-23.273-2.344-27.661-12.519-3.772-8.743-.236-15.137 1.933-20.765 1.837-4.77 6.382-16.195 2.71-23.35-3.676-7.153-7.966-9.22-12.866-11.524-5.707-2.683-17.812-8.054-30.855-6.757-14.994 1.49-27.083 9.837-35.207 20.17-6.979 8.877-17.12 21.656-19.442 24.839-2.321 3.181-3.96 3.926-6.287 4.173-6.577.693-23.699 2.285-31.435 2.881z" /> </g></g><g
       id="g8"
       inkscape:label="date"
       transform="translate(26.39625,4.4877724)"><text
         xml:space="preserve"
         style="font-style:normal;font-variant:normal;font-weight:normal;font-stretch:normal;font-size:38.1px;line-height:100%;font-family:Formula1;-inkscape-font-specification:Formula1;text-align:center;word-spacing:0px;writing-mode:lr-tb;direction:ltr;text-anchor:middle;opacity:1;fill:#ee0000;fill-opacity:1;stroke:none;stroke-width:7.83601;stroke-linecap:butt;stroke-linejoin:miter;stroke-dasharray:none;stroke-opacity:1"
         x="73.904526"
         y="296.20868"
         id="text6"
         inkscape:label="day"><tspan
           sodipodi:role="line"
           id="tspan6"
           style="font-style:normal;font-variant:normal;font-weight:500;font-stretch:normal;font-size:38.1px;font-family:Formula1;-inkscape-font-specification:'Formula1 Medium';fill:#ffffff;fill-opacity:1;stroke-width:7.836"
           x="73.904526"
           y="296.20868">27</tspan></text><g
         id="g7"
         inkscape:label="month"><rect
           style="opacity:1;fill:#ffffff;fill-opacity:1;stroke:none;stroke-width:7.83601;stroke-linecap:butt;stroke-linejoin:miter;stroke-dasharray:none;stroke-opacity:1"
           id="rect7"
           width="135.10905"
           height="57.764015"
           x="10.769562"
           y="306.44302"
           ry="23.007711" /><text
           xml:space="preserve"
           style="font-style:normal;font-variant:normal;font-weight:500;font-stretch:normal;font-size:38.1px;line-height:100%;font-family:Formula1;-inkscape-font-specification:'Formula1 Medium';text-align:center;word-spacing:0px;writing-mode:lr-tb;direction:ltr;text-anchor:middle;opacity:1;fill:#15151e;fill-opacity:1;stroke:none;stroke-width:7.83601;stroke-linecap:butt;stroke-linejoin:miter;stroke-dasharray:none;stroke-opacity:1"
           x="76.800072"
           y="349.61252"
           id="text7"
           inkscape:label="month"><tspan
             sodipodi:role="line"
             id="tspan7"
             style="fill:#15151e;fill-opacity:1;stroke-width:7.836"
             x="76.800072"
             y="349.61252">MAR</tspan></text></g></g><g transform="translate(71.964256, 72.019316) scale(0.15632884375)" inkscape:label="flag"><mask id="a"><circle cx="256" cy="256" r="256" fill="#fff"/></mask><g mask="url(#a)"><path fill="#eee" d="M0 0h512v512H0z"/><circle cx="256" cy="256" r="111.3" fill="#d80027"/></g></g></g></svg>
