<?xml version="1.0" encoding="UTF-8" standalone="no"?>
<!-- Created with Inkscape (http://www.inkscape.org/) -->

<svg
   width="680mm"
   height="1000mm"
   viewBox="0 0 680 1000"
   version="1.1"
   id="svg1"
   inkscape:version="1.4.3 (0d15f75, 2025-12-25)"
   sodipodi:docname="template.svg"
   xmlns:inkscape="http://www.inkscape.org/namespaces/inkscape"
   xmlns:sodipodi="http://sodipodi.sourceforge.net/DTD/sodipodi-0.dtd"
   xmlns="http://www.w3.org/2000/svg"
   xmlns:svg="http://www.w3.org/2000/svg">
  <sodipodi:namedview
     id="namedview1"
     pagecolor="#505050"
     bordercolor="#eeeeee"
     borderopacity="1"
     inkscape:showpageshadow="0"
     inkscape:pageopacity="0"
     inkscape:pagecheckerboard="0"
     inkscape:deskcolor="#505050"
     inkscape:document-units="mm"
     inkscape:zoom="0.15208656"
     inkscape:cx="706.83434"
     inkscape:cy="2406.5243"
     inkscape:window-width="1710"
     inkscape:window-height="1045"
     inkscape:window-x="0"
     inkscape:window-y="62"
     inkscape:window-maximized="0"
     inkscape:current-layer="layer1" />
  <defs
     id="defs1">
    <inkscape:path-effect
       effect="fillet_chamfer"
       id="path-effect4"
       is_visible="true"
       lpeversion="1"
       nodesatellites_param="F,0,0,1,0,0,0,1 @ F,0,0,1,0,75,0,1 @ F,0,0,1,0,75,0,1 @ F,0,0,1,0,0,0,1"
       radius="0"
       unit="px"
       method="auto"
       mode="F"
       chamfer_steps="1"
       flexible="false"
       use_knot_distance="true"
       apply_no_radius="true"
       apply_with_radius="true"
       only_selected="false"
       hide_knots="false" />
    <inkscape:path-effect
       effect="fillet_chamfer"
       id="path-effect2"
       is_visible="true"
       lpeversion="1"
       nodesatellites_param="F,0,0,1,0,0,0,1 @ F,0,0,1,0,0,0,1 @ F,0,0,1,0,0,0,1 @ F,0,0,1,0,0,0,1"
       radius="0"
       unit="px"
       method="auto"
       mode="F"
       chamfer_steps="1"
       flexible="false"
       use_knot_distance="true"
       apply_no_radius="true"
       apply_with_radius="true"
       only_selected="false"
       hide_knots="false" />
    <inkscape:path-effect
       effect="fillet_chamfer"
       id="path-effect3"
       is_visible="true"
       lpeversion="1"
       nodesatellites_param="F,0,0,1,0,0,0,1 @ F,0,0,1,0,45.967641,0,1 @ F,0,0,1,0,0,0,1"
       radius="0"
       unit="px"
       method="auto"
       mode="F"
       chamfer_steps="1"
       flexible="false"
       use_knot_distance="true"
       apply_no_radius="true"
       apply_with_radius="true"
       only_selected="false"
       hide_knots="false" />
  </defs>
  <g
     inkscape:label="Layer 1"
     inkscape:groupmode="layer"
     id="layer1">
    <rect
       style="fill:#15151e;fill-opacity:1;stroke-width:0.653077"
       id="rect1"
       width="680"
       height="1000"
       x="-1.4210855e-14"
       y="0"
       ry="2.0972002"
       inkscape:label="background"
       sodipodi:insensitive="true" />
    <path
       d="M 89.999938,30 119.99994,0 H 101.94369 L 71.944312,30 Z M 85.698688,13.065 H 49.381813 c -11.068126,0 -13.005001,0.586875 -17.745626,5.3275 C 27.202437,22.82625 20.000562,30 20.000562,30 h 15.731876 l 3.753124,-3.753125 c 2.467501,-2.4675 3.740001,-2.723125 8.92125,-2.723125 h 26.83375 z M 31.151812,16.253125 C 27.877437,19.3425 20.753062,26.263125 16.913062,30 H -6.25e-5 c 0,0 13.5525005,-13.513125 21.0849995,-20.9275 C 28.845562,1.685 32.714312,0 46.948687,0 H 98.764313 L 87.544938,11.21875 H 48.001187 c -10.001874,0 -12.249375,0.693125 -16.849375,5.034375 z"
       id="Fill-1"
       style="fill:#201f2c;fill-rule:evenodd;stroke:none;stroke-width:1;fill-opacity:1"
       sodipodi:nodetypes="ccccccssccssccccccsccsc"
       inkscape:label="logo"
       transform="matrix(6.3326957,0,0,6.3326957,-39.961349,401.1145)" />
    <text
       xml:space="preserve"
       style="font-style:normal;font-variant:normal;font-weight:normal;font-stretch:normal;font-size:50.8px;line-height:100%;font-family:Formula1;-inkscape-font-specification:Formula1;text-align:start;word-spacing:0px;writing-mode:lr-tb;direction:ltr;text-anchor:start;opacity:1;fill:#ee0000;fill-opacity:1;stroke:none;stroke-width:0.223;stroke-opacity:1"
       x="21.697973"
       y="63.709557"
       id="text2"
       inkscape:label="round"><tspan
         sodipodi:role="line"
         style="font-style:normal;font-variant:normal;font-weight:normal;font-stretch:normal;font-size:50.8px;font-family:Formula1;-inkscape-font-specification:Formula1;fill:#ee0000;fill-opacity:1;stroke-width:0.223"
         x="21.697973"
         y="63.709557"
         id="tspan1">ROUND 16</tspan></text>
    <path
       style="display:inline;fill:none;fill-opacity:1;stroke:#ee0000;stroke-width:15;stroke-dasharray:none;stroke-opacity:1"
       d="M 352.06858,56.213936 H 580 a 75,75 45 0 1 75,75.000004 V 900 a 75,75 135 0 1 -75,75 H 0"
       id="path1"
       sodipodi:nodetypes="cccc"
       inkscape:path-effect="#path-effect4"
       inkscape:original-d="M 352.06858,56.213936 H 655 V 975 H 0" />
    <g
       id="g10"
       transform="translate(-61.769566,39.315292)"
       inkscape:label="info"
       style="display:inline">
      <g
         id="g9"
         transform="translate(0,-0.2293034)">
        
        <text
           xml:space="preserve"
           style="font-style:normal;font-variant:normal;font-weight:normal;font-stretch:normal;font-size:52.9167px;line-height:100%;font-family:Formula1;-inkscape-font-specification:Formula1;text-align:start;word-spacing:0px;writing-mode:lr-tb;direction:ltr;text-anchor:start;opacity:1;fill:#ffffff;fill-opacity:1;stroke:none;stroke-width:7.83601;stroke-linecap:butt;stroke-linejoin:miter;stroke-dasharray:none;stroke-opacity:1"
           x="206.93063"
           y="110.78185"
           id="text3"
           inkscape:label="location"><tspan
             sodipodi:role="line"
             id="tspan3"
             style="font-style:normal;font-variant:normal;font-weight:normal;font-stretch:normal;font-size:52.9167px;font-family:Formula1;-inkscape-font-specification:Formula1;stroke:none;stroke-width:7.836"
             x="206.93063"
             y="110.78185">SPAIN</tspan></text>
        <text
           xml:space="preserve"
           style="font-style:normal;font-variant:normal;font-weight:normal;font-stretch:normal;font-size:35.2778px;line-height:100%;font-family:Formula1;-inkscape-font-specification:Formula1;text-align:start;word-spacing:0px;writing-mode:lr-tb;direction:ltr;text-anchor:start;opacity:1;fill:#ffffff;fill-opacity:1;stroke:none;stroke-width:7.83601;stroke-linecap:butt;stroke-linejoin:miter;stroke-dasharray:none;stroke-opacity:1"
           x="205.16676"
           y="151.7265"
           id="text4"
           inkscape:label="session"><tspan
             sodipodi:role="line"
             id="tspan4"
             style="font-style:normal;font-variant:normal;font-weight:normal;font-stretch:normal;font-size:35.2778px;font-family:Formula1;-inkscape-font-specification:Formula1;fill:#ee0000;fill-opacity:1;stroke-width:7.836"
             x="205.16676"
             y="151.7265">RACE</tspan></text>
      </g>
      <g transform="translate(86.769573, 60.684713) scale(0.19690717578125)" inkscape:label="flag"><mask id="a"><circle cx="256" cy="256" r="256" fill="#fff"/></mask><g mask="url(#a)"><path fill="#ffda44" d="m0 128 256-32 256 32v256l-256 32L0 384Z"/><path fill="#eee" d="M196 168q-11 1-15 11l-5-1q-15 1-16 16c-1 15 7 16 16 16q11 0 15-11a16 16 0 0 0 17-4 16 16 0 0 0 17 4 16 16 0 1 0 10-20 16 16 0 0 0-27-5q-4-6-12-6m0 8q8 1 8 8 0 8-8 8-7 0-8-8 1-7 8-8m24 0q8 1 8 8 0 8-8 8-7 0-8-8 1-7 8-8m-44 10 4 1 4 8q-1 7-8 7-9 0-8-8 1-7 8-8m64 0q8 1 8 8 0 8-8 8-7 0-8-7l4-8zm-112 38v80h16v-80zm80 0v40c-26 0-48 14-48 32s22 32 48 32 48-14 48-32v-72zm64 0v80h16v-80z"/><path fill="#ff9811" d="M200 160h16v32h-16z"/><path fill="#d80027" d="M0 0v128h512V0zm208 184c-22 0-40 11-40 24l8 8h64l8-8c0-13-18-24-40-24m-72 8a8 8 0 0 0-8 8v8a8 8 0 1 0 16 0v-8a8 8 0 0 0-8-8m144 0a8 8 0 0 0-8 8v8a8 8 0 1 0 16 0v-8a8 8 0 0 0-8-8m-120 32v24h-38a4 4 0 0 0-4 4 4 4 0 0 0 4 4h38v40a24 24 0 0 0 24 24 24 24 0 0 0 24-24 24 24 0 0 0 24 24 24 24 0 0 0 24-24v-24h-48v-48zm72 8a10 10 0 0 0-10 10v12a10 10 0 1 0 20 0v-12a10 10 0 0 0-10-10m24 16v8h38a4 4 0 0 0 4-4 4 4 0 0 0-4-4zm-134 24a4 4 0 0 0-4 4 4 4 0 0 0 4 4h28a4 4 0 0 0 4-4 4 4 0 0 0-4-4zm144 0a4 4 0 0 0-4 4 4 4 0 0 0 4 4h28a4 4 0 0 0 4-4 4 4 0 0 0-4-4zM0 384v128h512V384z"/><path fill="#ffda44" d="M186 196a6 6 0 0 0-6 6 6 6 0 0 0 6 6 6 6 0 0 0 6-6 6 6 0 0 0-6-6m22 0a6 6 0 0 0-6 6 6 6 0 0 0 6 6 6 6 0 0 0 6-6 6 6 0 0 0-6-6m22 0a6 6 0 0 0-6 6 6 6 0 0 0 6 6 6 6 0 0 0 6-6 6 6 0 0 0-6-6"/><path fill="#ff9811" d="M128 208a8 8 0 1 0 0 16h16a8 8 0 1 0 0-16zm144 0a8 8 0 1 0 0 16h16a8 8 0 1 0 0-16zm-96 8v8h64v-8zm-8 16v8h8v16h-8v8h32v-8h-8v-16h8v-8zm-8 40v24q1 12 9 19v-43zm19 0v47h10v-47zm20 0v43q9-7 9-19v-24zm-71 32a8 8 0 1 0 0 16h16a8 8 0 1 0 0-16zm144 0a8 8 0 1 0 0 16h16a8 8 0 1 0 0-16z"/><path fill="#338af3" d="M208 256a16 16 0 0 0-16 16 16 16 0 0 0 16 16 16 16 0 0 0 16-16 16 16 0 0 0-16-16m-80 64a8 8 0 1 0 0 16h16a8 8 0 1 0 0-16zm144 0a8 8 0 1 0 0 16h16a8 8 0 1 0 0-16z"/></g></g>
    </g>
    <g
       id="g8"
       inkscape:label="date"
       transform="translate(308.90368,536.87111)"
       style="display:inline">
      <text
         xml:space="preserve"
         style="font-style:normal;font-variant:normal;font-weight:normal;font-stretch:normal;font-size:88.1944px;line-height:100%;font-family:Formula1;-inkscape-font-specification:Formula1;text-align:center;word-spacing:0px;writing-mode:lr-tb;direction:ltr;text-anchor:middle;display:inline;opacity:1;fill:#ee0000;fill-opacity:1;stroke:none;stroke-width:7.83601;stroke-linecap:butt;stroke-linejoin:miter;stroke-dasharray:none;stroke-opacity:1"
         x="-122.88599"
         y="362.8576"
         id="text6"
         inkscape:label="day"><tspan
           sodipodi:role="line"
           id="tspan6"
           style="font-style:normal;font-variant:normal;font-weight:normal;font-stretch:normal;font-size:88.1944px;font-family:Formula1;-inkscape-font-specification:Formula1;fill:#ffffff;fill-opacity:1;stroke-width:7.836"
           x="-122.88599"
           y="362.8576">13</tspan></text>
      <g
         id="g7"
         inkscape:label="month"
         transform="translate(34.626847,5.5402955)"
         style="display:inline">
        <rect
           style="display:inline;opacity:1;fill:#ffffff;fill-opacity:1;stroke:none;stroke-width:16.1904;stroke-linecap:butt;stroke-linejoin:miter;stroke-dasharray:none;stroke-opacity:1"
           id="rect7"
           width="279.15674"
           height="119.34962"
           x="-59.869205"
           y="264.56961"
           ry="47.537582" />
        <text
           xml:space="preserve"
           style="font-style:normal;font-variant:normal;font-weight:normal;font-stretch:normal;font-size:88.1944px;line-height:100%;font-family:Formula1;-inkscape-font-specification:Formula1;text-align:center;word-spacing:0px;writing-mode:lr-tb;direction:ltr;text-anchor:middle;display:inline;opacity:1;fill:#15151e;fill-opacity:1;stroke:none;stroke-width:7.83601;stroke-linecap:butt;stroke-linejoin:miter;stroke-dasharray:none;stroke-opacity:1"
           x="78.165771"
           y="357.31732"
           id="text7"
           inkscape:label="month"><tspan
             sodipodi:role="line"
             id="tspan7"
             style="font-style:normal;font-variant:normal;font-weight:normal;font-stretch:normal;font-size:88.1944px;font-family:Formula1;-inkscape-font-specification:Formula1;fill:#15151e;fill-opacity:1;stroke-width:7.836"
             x="78.165771"
             y="357.31732">SEP</tspan></text>
      </g>
    </g>
    <g
       id="g3"
       inkscape:label="track"
       transform="matrix(1.2571293,0,0,1.2571293,-208.71205,272.34527)"
       style="display:inline">
      
      <text
         xml:space="preserve"
         style="font-style:normal;font-variant:normal;font-weight:normal;font-stretch:normal;font-size:25.8172px;line-height:100%;font-family:Formula1;-inkscape-font-specification:Formula1;text-align:center;word-spacing:0px;writing-mode:lr-tb;direction:ltr;text-anchor:middle;display:inline;opacity:1;fill:#ee0000;fill-opacity:1;stroke:none;stroke-width:7.83601;stroke-linecap:butt;stroke-linejoin:miter;stroke-dasharray:none;stroke-opacity:1"
         x="436.95645"
         y="394.58563"
         id="text5"
         inkscape:label="track-name"><tspan
           sodipodi:role="line"
           id="tspan5"
           style="font-style:normal;font-variant:normal;font-weight:normal;font-stretch:normal;font-size:25.8172px;font-family:Formula1;-inkscape-font-specification:Formula1;stroke-width:7.836"
           x="436.95645"
           y="394.58563">Madring</tspan></text>
      <g inkscape:label="embedded-track" transform=" translate(265.6918486035405, 88.18495651012509) scale(0.6831930773196059) rotate(0, 249.9854976085518, 249.9827595735121) " > <path style="fill: none; stroke: #fff; stroke-width: 20; stroke-linejoin: round; stroke-dasharray: none; stroke-opacity: 1;" d="M130.321 338.227c-3.32.594-4.154 4.666-2.204 7.041 1.953 2.373 4.907 5.042 5.492 10.38.586 5.338.976 10.999 1.22 16.683.2 4.648-1.448 10.698-6.468 11.493-7.81 1.236-54.176 9.162-60.036 10.133-6.712 1.113-13.62-1.655-14.398-6.798-.781-5.14-22.404-141.414-23.185-145.566-.779-4.152-2.075-5.067-6.712-5.19-5.004-.132-8.317-2.16-8.542-7.291-.244-5.562-.488-12.357-.488-16.189 0-7.786 5.369-16.806 15.498-22.984 5.537-3.379 78.226-48.87 89.078-55.607 18.914-11.74 45.539-16.623 65.771-14.581 21.518 2.173 31.606 11.493 35.755 15.57 1.99 1.957 5.59 3.584 9.884.619 4.298-2.966 6.065-2.08 11.227-3.213 3.727-.819 13.633-3.614 16.107-4.449 5.857-1.977 16.062-12.956 26.236-14.828 8.054-1.483 16.718-2.349 22.94-5.437 3.661-1.817 5.172-.975 8.177 2.965 5.37 7.045 12.325 5.438 19.159.62 5.537-3.906 11.54-6.007 20.379-5.81 16.474.372 82.404 1.94 91.518 1.855 25.992-.247 40.525 24.758 37.95 42.014-3.783 25.333-34.778 40.409-57.23 22.49-8.942-7.136-50.284-39.851-59.183-47.576-6.833-5.931-14.521-3.831-17.45.125-5.2 7.02-16.351 22.49-20.867 28.546-1.9 2.546-5.125 5.314-10.982 5.314h-29.042c-20.367 0-30.629 19.03-31.238 32.5-.445 9.836-.594 23.109-.732 28.174-.123 4.449.816 7.444 4.393 12.235 3.783 5.067 1.587 6.797-3.052 9.638-3.307 2.027-25.018 13.365-33.314 18.166-9.396 5.437-11.99 15.552-8.176 28.793.855 2.966 1.943 5.617 2.452 7.655 3.65 14.587-7.84 28.68-20.879 30.899-19.059 3.234-69.058 11.611-69.058 11.611z"/> <path style="fill: none; stroke: #000; stroke-width: 5; stroke-linejoin: round; stroke-dasharray: none; stroke-opacity: 1;" d="M130.321 338.227c-3.32.594-4.154 4.666-2.204 7.041 1.953 2.373 4.907 5.042 5.492 10.38.586 5.338.976 10.999 1.22 16.683.2 4.648-1.448 10.698-6.468 11.493-7.81 1.236-54.176 9.162-60.036 10.133-6.712 1.113-13.62-1.655-14.398-6.798-.781-5.14-22.404-141.414-23.185-145.566-.779-4.152-2.075-5.067-6.712-5.19-5.004-.132-8.317-2.16-8.542-7.291-.244-5.562-.488-12.357-.488-16.189 0-7.786 5.369-16.806 15.498-22.984 5.537-3.379 78.226-48.87 89.078-55.607 18.914-11.74 45.539-16.623 65.771-14.581 21.518 2.173 31.606 11.493 35.755 15.57 1.99 1.957 5.59 3.584 9.884.619 4.298-2.966 6.065-2.08 11.227-3.213 3.727-.819 13.633-3.614 16.107-4.449 5.857-1.977 16.062-12.956 26.236-14.828 8.054-1.483 16.718-2.349 22.94-5.437 3.661-1.817 5.172-.975 8.177 2.965 5.37 7.045 12.325 5.438 19.159.62 5.537-3.906 11.54-6.007 20.379-5.81 16.474.372 82.404 1.94 91.518 1.855 25.992-.247 40.525 24.758 37.95 42.014-3.783 25.333-34.778 40.409-57.23 22.49-8.942-7.136-50.284-39.851-59.183-47.576-6.833-5.931-14.521-3.831-17.45.125-5.2 7.02-16.351 22.49-20.867 28.546-1.9 2.546-5.125 5.314-10.982 5.314h-29.042c-20.367 0-30.629 19.03-31.238 32.5-.445 9.836-.594 23.109-.732 28.174-.123 4.449.816 7.444 4.393 12.235 3.783 5.067 1.587 6.797-3.052 9.638-3.307 2.027-25.018 13.365-33.314 18.166-9.396 5.437-11.99 15.552-8.176 28.793.855 2.966 1.943 5.617 2.452 7.655 3.65 14.587-7.84 28.68-20.879 30.899-19.059 3.234-69.058 11.611-69.058 11.611z"/> </g>
    </g>
    <text
       xml:space="preserve"
       style="font-size:202.494px;writing-mode:lr-tb;direction:ltr;display:inline;fill:none;fill-opacity:1;stroke:#ee0000;stroke-width:14.7;stroke-dasharray:none;stroke-opacity:1"
       x="48.206333"
       y="403.4614"
       id="text8"
       inkscape:label="year"><tspan
         sodipodi:role="line"
         id="tspan8"
         style="font-style:normal;font-variant:normal;font-weight:normal;font-stretch:normal;font-size:202.494px;font-family:Formula1;-inkscape-font-specification:Formula1;fill:#000000;fill-opacity:1;stroke:#ffffff;stroke-width:14.7;stroke-dasharray:none;stroke-opacity:1"
         x="48.206333"
         y="403.4614">2026</tspan></text>
  </g>
</svg>
