<?xml version="1.0" encoding="UTF-8" standalone="no"?>
<!-- Created with Inkscape (http://www.inkscape.org/) -->

<svg
   width="680mm"
   height="1000mm"
   viewBox="0 0 680 1000"
   version="1.1"
   id="svg1"
   inkscape:version="1.4.3 (0d15f75, 2025-12-25)"
   sodipodi:docname="template.svg"
   xmlns:inkscape="http://www.inkscape.org/namespaces/inkscape"
   xmlns:sodipodi="http://sodipodi.sourceforge.net/DTD/sodipodi-0.dtd"
   xmlns="http://www.w3.org/2000/svg"
   xmlns:svg="http://www.w3.org/2000/svg">
  <sodipodi:namedview
     id="namedview1"
     pagecolor="#505050"
     bordercolor="#eeeeee"
     borderopacity="1"
     inkscape:showpageshadow="0"
     inkscape:pageopacity="0"
     inkscape:pagecheckerboard="0"
     inkscape:deskcolor="#505050"
     inkscape:document-units="mm"
     inkscape:zoom="0.15208656"
     inkscape:cx="706.83434"
     inkscape:cy="2406.5243"
     inkscape:window-width="1710"
     inkscape:window-height="1045"
     inkscape:window-x="0"
     inkscape:window-y="62"
     inkscape:window-maximized="0"
     inkscape:current-layer="layer1" />
  <defs
     id="defs1">
    <inkscape:path-effect
       effect="fillet_chamfer"
       id="path-effect4"
       is_visible="true"
       lpeversion="1"
       nodesatellites_param="F,0,0,1,0,0,0,1 @ F,0,0,1,0,75,0,1 @ F,0,0,1,0,75,0,1 @ F,0,0,1,0,0,0,1"
       radius="0"
       unit="px"
       method="auto"
       mode="F"
       chamfer_steps="1"
       flexible="false"
       use_knot_distance="true"
       apply_no_radius="true"
       apply_with_radius="true"
       only_selected="false"
       hide_knots="false" />
    <inkscape:path-effect
       effect="fillet_chamfer"
       id="path-effect2"
       is_visible="true"
       lpeversion="1"
       nodesatellites_param="F,0,0,1,0,0,0,1 @ F,0,0,1,0,0,0,1 @ F,0,0,1,0,0,0,1 @ F,0,0,1,0,0,0,1"
       radius="0"
       unit="px"
       method="auto"
       mode="F"
       chamfer_steps="1"
       flexible="false"
       use_knot_distance="true"
       apply_no_radius="true"
       apply_with_radius="true"
       only_selected="false"
       hide_knots="false" />
    <inkscape:path-effect
       effect="fillet_chamfer"
       id="path-effect3"
       is_visible="true"
       lpeversion="1"
       nodesatellites_param="F,0,0,1,0,0,0,1 @ F,0,0,1,0,45.967641,0,1 @ F,0,0,1,0,0,0,1"
       radius="0"
       unit="px"
       method="auto"
       mode="F"
       chamfer_steps="1"
       flexible="false"
       use_knot_distance="true"
       apply_no_radius="true"
       apply_with_radius="true"
       only_selected="false"
       hide_knots="false" />
  </defs>
  <g
     inkscape:label="Layer 1"
     inkscape:groupmode="layer"
     id="layer1">
    <rect
       style="fill:#15151e;fill-opacity:1;stroke-width:0.653077"
       id="rect1"
       width="680"
       height="1000"
       x="-1.4210855e-14"
       y="0"
       ry="2.0972002"
       inkscape:label="background"
       sodipodi:insensitive="true" />
    <path
       d="M 89.999938,30 119.99994,0 H 101.94369 L 71.944312,30 Z M 85.698688,13.065 H 49.381813 c -11.068126,0 -13.005001,0.586875 -17.745626,5.3275 C 27.202437,22.82625 20.000562,30 20.000562,30 h 15.731876 l 3.753124,-3.753125 c 2.467501,-2.4675 3.740001,-2.723125 8.92125,-2.723125 h 26.83375 z M 31.151812,16.253125 C 27.877437,19.3425 20.753062,26.263125 16.913062,30 H -6.25e-5 c 0,0 13.5525005,-13.513125 21.0849995,-20.9275 C 28.845562,1.685 32.714312,0 46.948687,0 H 98.764313 L 87.544938,11.21875 H 48.001187 c -10.001874,0 -12.249375,0.693125 -16.849375,5.034375 z"
       id="Fill-1"
       style="fill:#201f2c;fill-rule:evenodd;stroke:none;stroke-width:1;fill-opacity:1"
       sodipodi:nodetypes="ccccccssccssccccccsccsc"
       inkscape:label="logo"
       transform="matrix(6.3326957,0,0,6.3326957,-39.961349,401.1145)" />
    <text
       xml:space="preserve"
       style="font-style:normal;font-variant:normal;font-weight:normal;font-stretch:normal;font-size:50.8px;line-height:100%;font-family:Formula1;-inkscape-font-specification:Formula1;text-align:start;word-spacing:0px;writing-mode:lr-tb;direction:ltr;text-anchor:start;opacity:1;fill:#ee0000;fill-opacity:1;stroke:none;stroke-width:0.223;stroke-opacity:1"
       x="21.697973"
       y="63.709557"
       id="text2"
       inkscape:label="round"><tspan
         sodipodi:role="line"
         style="font-style:normal;font-variant:normal;font-weight:normal;font-stretch:normal;font-size:50.8px;font-family:Formula1;-inkscape-font-specification:Formula1;fill:#ee0000;fill-opacity:1;stroke-width:0.223"
         x="21.697973"
         y="63.709557"
         id="tspan1">ROUND 16</tspan></text>
    <path
       style="display:inline;fill:none;fill-opacity:1;stroke:#ee0000;stroke-width:15;stroke-dasharray:none;stroke-opacity:1"
       d="M 352.06858,56.213936 H 580 a 75,75 45 0 1 75,75.000004 V 900 a 75,75 135 0 1 -75,75 H 0"
       id="path1"
       sodipodi:nodetypes="cccc"
       inkscape:path-effect="#path-effect4"
       inkscape:original-d="M 352.06858,56.213936 H 655 V 975 H 0" />
    <g
       id="g10"
       transform="translate(-61.769566,39.315292)"
       inkscape:label="info"
       style="display:inline">
      <g
         id="g9"
         transform="translate(0,-0.2293034)">
        
        <text
           xml:space="preserve"
           style="font-style:normal;font-variant:normal;font-weight:normal;font-stretch:normal;font-size:52.9167px;line-height:100%;font-family:Formula1;-inkscape-font-specification:Formula1;text-align:start;word-spacing:0px;writing-mode:lr-tb;direction:ltr;text-anchor:start;opacity:1;fill:#ffffff;fill-opacity:1;stroke:none;stroke-width:7.83601;stroke-linecap:butt;stroke-linejoin:miter;stroke-dasharray:none;stroke-opacity:1"
           x="206.93063"
           y="110.78185"
           id="text3"
           inkscape:label="location"><tspan
             sodipodi:role="line"
             id="tspan3"
             style="font-style:normal;font-variant:normal;font-weight:normal;font-stretch:normal;font-size:52.9167px;font-family:Formula1;-inkscape-font-specification:Formula1;stroke:none;stroke-width:7.836"
             x="206.93063"
             y="110.78185">SINGAPORE</tspan></text>
        <text
           xml:space="preserve"
           style="font-style:normal;font-variant:normal;font-weight:normal;font-stretch:normal;font-size:35.2778px;line-height:100%;font-family:Formula1;-inkscape-font-specification:Formula1;text-align:start;word-spacing:0px;writing-mode:lr-tb;direction:ltr;text-anchor:start;opacity:1;fill:#ffffff;fill-opacity:1;stroke:none;stroke-width:7.83601;stroke-linecap:butt;stroke-linejoin:miter;stroke-dasharray:none;stroke-opacity:1"
           x="205.16676"
           y="151.7265"
           id="text4"
           inkscape:label="session"><tspan
             sodipodi:role="line"
             id="tspan4"
             style="font-style:normal;font-variant:normal;font-weight:normal;font-stretch:normal;font-size:35.2778px;font-family:Formula1;-inkscape-font-specification:Formula1;fill:#ee0000;fill-opacity:1;stroke-width:7.836"
             x="205.16676"
             y="151.7265">SPRINT</tspan></text>
      </g>
      <g transform="translate(86.769573, 60.684713) scale(0.19690717578125)" inkscape:label="flag"><mask id="a"><circle cx="256" cy="256" r="256" fill="#fff"/></mask><g mask="url(#a)"><path fill="#d80027" d="M0 0h512v256l-256 32L0 256Z"/><path fill="#eee" d="M200 56a78 78 0 1 0 17 154 78 78 0 0 1 0-152q-8-2-17-2m56 5-5 17h-18l14 11-5 17 14-11 15 11-6-17 15-11h-18zm-43 34-6 17h-18l15 10-6 17 15-10 14 10-5-17 14-10h-18zm86 0-5 17h-18l14 10-5 17 14-10 15 10-6-17 15-10h-18zm-70 50-5 17h-18l14 10-5 17 14-10 15 10-6-17 15-10h-18zm54 0-6 17h-18l15 10-6 17 15-10 14 10-5-17 14-10h-18ZM0 256v256h512V256Z"/></g></g>
    </g>
    <g
       id="g8"
       inkscape:label="date"
       transform="translate(308.90368,536.87111)"
       style="display:inline">
      <text
         xml:space="preserve"
         style="font-style:normal;font-variant:normal;font-weight:normal;font-stretch:normal;font-size:88.1944px;line-height:100%;font-family:Formula1;-inkscape-font-specification:Formula1;text-align:center;word-spacing:0px;writing-mode:lr-tb;direction:ltr;text-anchor:middle;display:inline;opacity:1;fill:#ee0000;fill-opacity:1;stroke:none;stroke-width:7.83601;stroke-linecap:butt;stroke-linejoin:miter;stroke-dasharray:none;stroke-opacity:1"
         x="-122.88599"
         y="362.8576"
         id="text6"
         inkscape:label="day"><tspan
           sodipodi:role="line"
           id="tspan6"
           style="font-style:normal;font-variant:normal;font-weight:normal;font-stretch:normal;font-size:88.1944px;font-family:Formula1;-inkscape-font-specification:Formula1;fill:#ffffff;fill-opacity:1;stroke-width:7.836"
           x="-122.88599"
           y="362.8576">10</tspan></text>
      <g
         id="g7"
         inkscape:label="month"
         transform="translate(34.626847,5.5402955)"
         style="display:inline">
        <rect
           style="display:inline;opacity:1;fill:#ffffff;fill-opacity:1;stroke:none;stroke-width:16.1904;stroke-linecap:butt;stroke-linejoin:miter;stroke-dasharray:none;stroke-opacity:1"
           id="rect7"
           width="279.15674"
           height="119.34962"
           x="-59.869205"
           y="264.56961"
           ry="47.537582" />
        <text
           xml:space="preserve"
           style="font-style:normal;font-variant:normal;font-weight:normal;font-stretch:normal;font-size:88.1944px;line-height:100%;font-family:Formula1;-inkscape-font-specification:Formula1;text-align:center;word-spacing:0px;writing-mode:lr-tb;direction:ltr;text-anchor:middle;display:inline;opacity:1;fill:#15151e;fill-opacity:1;stroke:none;stroke-width:7.83601;stroke-linecap:butt;stroke-linejoin:miter;stroke-dasharray:none;stroke-opacity:1"
           x="78.165771"
           y="357.31732"
           id="text7"
           inkscape:label="month"><tspan
             sodipodi:role="line"
             id="tspan7"
             style="font-style:normal;font-variant:normal;font-weight:normal;font-stretch:normal;font-size:88.1944px;font-family:Formula1;-inkscape-font-specification:Formula1;fill:#15151e;fill-opacity:1;stroke-width:7.836"
             x="78.165771"
             y="357.31732">OCT</tspan></text>
      </g>
    </g>
    <g
       id="g3"
       inkscape:label="track"
       transform="matrix(1.2571293,0,0,1.2571293,-208.71205,272.34527)"
       style="display:inline">
      
      <text
         xml:space="preserve"
         style="font-style:normal;font-variant:normal;font-weight:normal;font-stretch:normal;font-size:25.8172px;line-height:100%;font-family:Formula1;-inkscape-font-specification:Formula1;text-align:center;word-spacing:0px;writing-mode:lr-tb;direction:ltr;text-anchor:middle;display:inline;opacity:1;fill:#ee0000;fill-opacity:1;stroke:none;stroke-width:7.83601;stroke-linecap:butt;stroke-linejoin:miter;stroke-dasharray:none;stroke-opacity:1"
         x="436.95645"
         y="394.58563"
         id="text5"
         inkscape:label="track-name"><tspan
           sodipodi:role="line"
           id="tspan5"
           style="font-style:normal;font-variant:normal;font-weight:normal;font-stretch:normal;font-size:25.8172px;font-family:Formula1;-inkscape-font-specification:Formula1;stroke-width:7.836"
           x="436.95645"
           y="394.58563">Marina Bay Street Circuit</tspan></text>
      <g inkscape:label="embedded-track" transform=" translate(273.8170104620706, 96.29017109164674) scale(0.650597321214402) rotate(0, 250.02131769356666, 250.04910242282145) " > <path style="fill: none; stroke: #fff; stroke-width: 20; stroke-linejoin: round; stroke-dasharray: none; stroke-opacity: 1;" d="M461.432 325.308c3.546.215 6.228-.46 8.285-3.467 2.658-3.883 10.644-15.694 13.506-20.689 2.248-3.924 1.906-8.228 1.362-12.25-.547-4.022-21.779-162.674-22.394-167.042-.55-3.905-2.982-6.455-8.02-5.625-5.037.832-10.535.682-15.509-2.08-5.826-3.236-7.566-5.548-9.382-9.324-2.012-4.185-5.031-6.738-7.791-6.78-4.919-.079-7.416 3.389-7.87 6.78-.944 7.05-1.516 14.7-1.89 19.263-.454 5.547.59 16.212 1.816 20.65 1.226 4.438 6.726 21.596 9.38 32.207 2.657 10.608 5.068 21.644 6.355 28.2 1.816 9.246-5.447 26.66-19.82 25.58-16.56-1.243-96.96-6.878-104.994-7.571-7.76-.67-17.023-1.387-24.511-4.784-9.874-4.479-92.876-54.296-99.618-58.388-4.267-2.589-5.307-2.724-7.762 1.528-11.374 19.692-20.682 35.827-31.12 56.305-1.838 3.606-3.541 4.266-6.334 1.284-4.19-4.477-26.419-27.808-32.683-34.534-5.78-6.204-20.57-6.21-25.67 4.612-6.504 13.799-56.755 104.28-59.206 108.974-1.382 2.644-2.983 6.481-2.427 10.392.47 3.318 2.756 6.781 5.287 8.641 3.575 2.63 8.469 6.402 12.552 9.457 2.35 1.759 5.615 2.859 10.003 3.783 3.281.692 4.549 2.145 4.69 10.942.077 4.74.304 10.324.304 14.178 0 5.64 3.442 6.28 6.278 8.59 8.916 7.264 16.457 13.176 21.79 17.106 1.07.79 6.672 4.662 8.285 7.396 3.404 5.78 5.447 8.784 7.15 11.096 2.722 3.694 7.75 2.688 8.625-2.08 1.93-10.519 14.526-87.49 17.477-105.29.646-3.9 2.514-10.388 3.065-11.788.098-.25 17.789-43.744 18.355-45.218.646-1.68 1.17-2.659 1.277-2.918 1.153-2.766 3.802-3.986 7.49-.75 5.372 4.713 45.155 39.55 51.182 44.959 5.529 4.963 13.647 8.282 20.848 8.815 2.986.222 39.063 1.437 74.063 3.358 33.248 1.827 65.538 4.368 67.03 4.47 3.065.208 6.169 2.43 6.129 6.819-.115 12.367 4.653 19.533 14.98 20.457 5.903.526 74.874 4.459 79.437 4.736z" /> <path style="fill: none; stroke: #000; stroke-width: 5; stroke-linejoin: round; stroke-dasharray: none; stroke-opacity: 1;" d="M461.432 325.308c3.546.215 6.228-.46 8.285-3.467 2.658-3.883 10.644-15.694 13.506-20.689 2.248-3.924 1.906-8.228 1.362-12.25-.547-4.022-21.779-162.674-22.394-167.042-.55-3.905-2.982-6.455-8.02-5.625-5.037.832-10.535.682-15.509-2.08-5.826-3.236-7.566-5.548-9.382-9.324-2.012-4.185-5.031-6.738-7.791-6.78-4.919-.079-7.416 3.389-7.87 6.78-.944 7.05-1.516 14.7-1.89 19.263-.454 5.547.59 16.212 1.816 20.65 1.226 4.438 6.726 21.596 9.38 32.207 2.657 10.608 5.068 21.644 6.355 28.2 1.816 9.246-5.447 26.66-19.82 25.58-16.56-1.243-96.96-6.878-104.994-7.571-7.76-.67-17.023-1.387-24.511-4.784-9.874-4.479-92.876-54.296-99.618-58.388-4.267-2.589-5.307-2.724-7.762 1.528-11.374 19.692-20.682 35.827-31.12 56.305-1.838 3.606-3.541 4.266-6.334 1.284-4.19-4.477-26.419-27.808-32.683-34.534-5.78-6.204-20.57-6.21-25.67 4.612-6.504 13.799-56.755 104.28-59.206 108.974-1.382 2.644-2.983 6.481-2.427 10.392.47 3.318 2.756 6.781 5.287 8.641 3.575 2.63 8.469 6.402 12.552 9.457 2.35 1.759 5.615 2.859 10.003 3.783 3.281.692 4.549 2.145 4.69 10.942.077 4.74.304 10.324.304 14.178 0 5.64 3.442 6.28 6.278 8.59 8.916 7.264 16.457 13.176 21.79 17.106 1.07.79 6.672 4.662 8.285 7.396 3.404 5.78 5.447 8.784 7.15 11.096 2.722 3.694 7.75 2.688 8.625-2.08 1.93-10.519 14.526-87.49 17.477-105.29.646-3.9 2.514-10.388 3.065-11.788.098-.25 17.789-43.744 18.355-45.218.646-1.68 1.17-2.659 1.277-2.918 1.153-2.766 3.802-3.986 7.49-.75 5.372 4.713 45.155 39.55 51.182 44.959 5.529 4.963 13.647 8.282 20.848 8.815 2.986.222 39.063 1.437 74.063 3.358 33.248 1.827 65.538 4.368 67.03 4.47 3.065.208 6.169 2.43 6.129 6.819-.115 12.367 4.653 19.533 14.98 20.457 5.903.526 74.874 4.459 79.437 4.736z" /> </g>
    </g>
    <text
       xml:space="preserve"
       style="font-size:202.494px;writing-mode:lr-tb;direction:ltr;display:inline;fill:none;fill-opacity:1;stroke:#ee0000;stroke-width:14.7;stroke-dasharray:none;stroke-opacity:1"
       x="48.206333"
       y="403.4614"
       id="text8"
       inkscape:label="year"><tspan
         sodipodi:role="line"
         id="tspan8"
         style="font-style:normal;font-variant:normal;font-weight:normal;font-stretch:normal;font-size:202.494px;font-family:Formula1;-inkscape-font-specification:Formula1;fill:#000000;fill-opacity:1;stroke:#ffffff;stroke-width:14.7;stroke-dasharray:none;stroke-opacity:1"
         x="48.206333"
         y="403.4614">2026</tspan></text>
  </g>
</svg>
