<?xml version="1.0" encoding="UTF-8" standalone="no"?>
<!-- Created with Inkscape (http://www.inkscape.org/) -->

<svg
   width="680mm"
   height="1000mm"
   viewBox="0 0 680 1000"
   version="1.1"
   id="svg1"
   inkscape:version="1.4.3 (0d15f75, 2025-12-25)"
   sodipodi:docname="template.svg"
   xmlns:inkscape="http://www.inkscape.org/namespaces/inkscape"
   xmlns:sodipodi="http://sodipodi.sourceforge.net/DTD/sodipodi-0.dtd"
   xmlns="http://www.w3.org/2000/svg"
   xmlns:svg="http://www.w3.org/2000/svg">
  <sodipodi:namedview
     id="namedview1"
     pagecolor="#505050"
     bordercolor="#eeeeee"
     borderopacity="1"
     inkscape:showpageshadow="0"
     inkscape:pageopacity="0"
     inkscape:pagecheckerboard="0"
     inkscape:deskcolor="#505050"
     inkscape:document-units="mm"
     inkscape:zoom="0.15208656"
     inkscape:cx="706.83434"
     inkscape:cy="2406.5243"
     inkscape:window-width="1710"
     inkscape:window-height="1045"
     inkscape:window-x="0"
     inkscape:window-y="62"
     inkscape:window-maximized="0"
     inkscape:current-layer="layer1" />
  <defs
     id="defs1">
    <inkscape:path-effect
       effect="fillet_chamfer"
       id="path-effect4"
       is_visible="true"
       lpeversion="1"
       nodesatellites_param="F,0,0,1,0,0,0,1 @ F,0,0,1,0,75,0,1 @ F,0,0,1,0,75,0,1 @ F,0,0,1,0,0,0,1"
       radius="0"
       unit="px"
       method="auto"
       mode="F"
       chamfer_steps="1"
       flexible="false"
       use_knot_distance="true"
       apply_no_radius="true"
       apply_with_radius="true"
       only_selected="false"
       hide_knots="false" />
    <inkscape:path-effect
       effect="fillet_chamfer"
       id="path-effect2"
       is_visible="true"
       lpeversion="1"
       nodesatellites_param="F,0,0,1,0,0,0,1 @ F,0,0,1,0,0,0,1 @ F,0,0,1,0,0,0,1 @ F,0,0,1,0,0,0,1"
       radius="0"
       unit="px"
       method="auto"
       mode="F"
       chamfer_steps="1"
       flexible="false"
       use_knot_distance="true"
       apply_no_radius="true"
       apply_with_radius="true"
       only_selected="false"
       hide_knots="false" />
    <inkscape:path-effect
       effect="fillet_chamfer"
       id="path-effect3"
       is_visible="true"
       lpeversion="1"
       nodesatellites_param="F,0,0,1,0,0,0,1 @ F,0,0,1,0,45.967641,0,1 @ F,0,0,1,0,0,0,1"
       radius="0"
       unit="px"
       method="auto"
       mode="F"
       chamfer_steps="1"
       flexible="false"
       use_knot_distance="true"
       apply_no_radius="true"
       apply_with_radius="true"
       only_selected="false"
       hide_knots="false" />
  </defs>
  <g
     inkscape:label="Layer 1"
     inkscape:groupmode="layer"
     id="layer1">
    <rect
       style="fill:#15151e;fill-opacity:1;stroke-width:0.653077"
       id="rect1"
       width="680"
       height="1000"
       x="-1.4210855e-14"
       y="0"
       ry="2.0972002"
       inkscape:label="background"
       sodipodi:insensitive="true" />
    <path
       d="M 89.999938,30 119.99994,0 H 101.94369 L 71.944312,30 Z M 85.698688,13.065 H 49.381813 c -11.068126,0 -13.005001,0.586875 -17.745626,5.3275 C 27.202437,22.82625 20.000562,30 20.000562,30 h 15.731876 l 3.753124,-3.753125 c 2.467501,-2.4675 3.740001,-2.723125 8.92125,-2.723125 h 26.83375 z M 31.151812,16.253125 C 27.877437,19.3425 20.753062,26.263125 16.913062,30 H -6.25e-5 c 0,0 13.5525005,-13.513125 21.0849995,-20.9275 C 28.845562,1.685 32.714312,0 46.948687,0 H 98.764313 L 87.544938,11.21875 H 48.001187 c -10.001874,0 -12.249375,0.693125 -16.849375,5.034375 z"
       id="Fill-1"
       style="fill:#201f2c;fill-rule:evenodd;stroke:none;stroke-width:1;fill-opacity:1"
       sodipodi:nodetypes="ccccccssccssccccccsccsc"
       inkscape:label="logo"
       transform="matrix(6.3326957,0,0,6.3326957,-39.961349,401.1145)" />
    <text
       xml:space="preserve"
       style="font-style:normal;font-variant:normal;font-weight:normal;font-stretch:normal;font-size:50.8px;line-height:100%;font-family:Formula1;-inkscape-font-specification:Formula1;text-align:start;word-spacing:0px;writing-mode:lr-tb;direction:ltr;text-anchor:start;opacity:1;fill:#ee0000;fill-opacity:1;stroke:none;stroke-width:0.223;stroke-opacity:1"
       x="21.697973"
       y="63.709557"
       id="text2"
       inkscape:label="round"><tspan
         sodipodi:role="line"
         style="font-style:normal;font-variant:normal;font-weight:normal;font-stretch:normal;font-size:50.8px;font-family:Formula1;-inkscape-font-specification:Formula1;fill:#ee0000;fill-opacity:1;stroke-width:0.223"
         x="21.697973"
         y="63.709557"
         id="tspan1">ROUND 06</tspan></text>
    <path
       style="display:inline;fill:none;fill-opacity:1;stroke:#ee0000;stroke-width:15;stroke-dasharray:none;stroke-opacity:1"
       d="M 352.06858,56.213936 H 580 a 75,75 45 0 1 75,75.000004 V 900 a 75,75 135 0 1 -75,75 H 0"
       id="path1"
       sodipodi:nodetypes="cccc"
       inkscape:path-effect="#path-effect4"
       inkscape:original-d="M 352.06858,56.213936 H 655 V 975 H 0" />
    <g
       id="g10"
       transform="translate(-61.769566,39.315292)"
       inkscape:label="info"
       style="display:inline">
      <g
         id="g9"
         transform="translate(0,-0.2293034)">
        
        <text
           xml:space="preserve"
           style="font-style:normal;font-variant:normal;font-weight:normal;font-stretch:normal;font-size:52.9167px;line-height:100%;font-family:Formula1;-inkscape-font-specification:Formula1;text-align:start;word-spacing:0px;writing-mode:lr-tb;direction:ltr;text-anchor:start;opacity:1;fill:#ffffff;fill-opacity:1;stroke:none;stroke-width:7.83601;stroke-linecap:butt;stroke-linejoin:miter;stroke-dasharray:none;stroke-opacity:1"
           x="206.93063"
           y="110.78185"
           id="text3"
           inkscape:label="location"><tspan
             sodipodi:role="line"
             id="tspan3"
             style="font-style:normal;font-variant:normal;font-weight:normal;font-stretch:normal;font-size:52.9167px;font-family:Formula1;-inkscape-font-specification:Formula1;stroke:none;stroke-width:7.836"
             x="206.93063"
             y="110.78185">MONACO</tspan></text>
        <text
           xml:space="preserve"
           style="font-style:normal;font-variant:normal;font-weight:normal;font-stretch:normal;font-size:35.2778px;line-height:100%;font-family:Formula1;-inkscape-font-specification:Formula1;text-align:start;word-spacing:0px;writing-mode:lr-tb;direction:ltr;text-anchor:start;opacity:1;fill:#ffffff;fill-opacity:1;stroke:none;stroke-width:7.83601;stroke-linecap:butt;stroke-linejoin:miter;stroke-dasharray:none;stroke-opacity:1"
           x="205.16676"
           y="151.7265"
           id="text4"
           inkscape:label="session"><tspan
             sodipodi:role="line"
             id="tspan4"
             style="font-style:normal;font-variant:normal;font-weight:normal;font-stretch:normal;font-size:35.2778px;font-family:Formula1;-inkscape-font-specification:Formula1;fill:#ee0000;fill-opacity:1;stroke-width:7.836"
             x="205.16676"
             y="151.7265">PRACTICE 03</tspan></text>
      </g>
      <g transform="translate(86.769573, 60.684713) scale(0.19690717578125)" inkscape:label="flag"><mask id="a"><circle cx="256" cy="256" r="256" fill="#fff"/></mask><g mask="url(#a)"><path fill="#eee" d="m0 256 258.2-43.3L512 256v256H0z"/><path fill="#a2001d" d="M0 0h512v256H0z"/></g></g>
    </g>
    <g
       id="g8"
       inkscape:label="date"
       transform="translate(308.90368,536.87111)"
       style="display:inline">
      <text
         xml:space="preserve"
         style="font-style:normal;font-variant:normal;font-weight:normal;font-stretch:normal;font-size:88.1944px;line-height:100%;font-family:Formula1;-inkscape-font-specification:Formula1;text-align:center;word-spacing:0px;writing-mode:lr-tb;direction:ltr;text-anchor:middle;display:inline;opacity:1;fill:#ee0000;fill-opacity:1;stroke:none;stroke-width:7.83601;stroke-linecap:butt;stroke-linejoin:miter;stroke-dasharray:none;stroke-opacity:1"
         x="-122.88599"
         y="362.8576"
         id="text6"
         inkscape:label="day"><tspan
           sodipodi:role="line"
           id="tspan6"
           style="font-style:normal;font-variant:normal;font-weight:normal;font-stretch:normal;font-size:88.1944px;font-family:Formula1;-inkscape-font-specification:Formula1;fill:#ffffff;fill-opacity:1;stroke-width:7.836"
           x="-122.88599"
           y="362.8576">06</tspan></text>
      <g
         id="g7"
         inkscape:label="month"
         transform="translate(34.626847,5.5402955)"
         style="display:inline">
        <rect
           style="display:inline;opacity:1;fill:#ffffff;fill-opacity:1;stroke:none;stroke-width:16.1904;stroke-linecap:butt;stroke-linejoin:miter;stroke-dasharray:none;stroke-opacity:1"
           id="rect7"
           width="279.15674"
           height="119.34962"
           x="-59.869205"
           y="264.56961"
           ry="47.537582" />
        <text
           xml:space="preserve"
           style="font-style:normal;font-variant:normal;font-weight:normal;font-stretch:normal;font-size:88.1944px;line-height:100%;font-family:Formula1;-inkscape-font-specification:Formula1;text-align:center;word-spacing:0px;writing-mode:lr-tb;direction:ltr;text-anchor:middle;display:inline;opacity:1;fill:#15151e;fill-opacity:1;stroke:none;stroke-width:7.83601;stroke-linecap:butt;stroke-linejoin:miter;stroke-dasharray:none;stroke-opacity:1"
           x="78.165771"
           y="357.31732"
           id="text7"
           inkscape:label="month"><tspan
             sodipodi:role="line"
             id="tspan7"
             style="font-style:normal;font-variant:normal;font-weight:normal;font-stretch:normal;font-size:88.1944px;font-family:Formula1;-inkscape-font-specification:Formula1;fill:#15151e;fill-opacity:1;stroke-width:7.836"
             x="78.165771"
             y="357.31732">JUN</tspan></text>
      </g>
    </g>
    <g
       id="g3"
       inkscape:label="track"
       transform="matrix(1.2571293,0,0,1.2571293,-208.71205,272.34527)"
       style="display:inline">
      
      <text
         xml:space="preserve"
         style="font-style:normal;font-variant:normal;font-weight:normal;font-stretch:normal;font-size:25.8172px;line-height:100%;font-family:Formula1;-inkscape-font-specification:Formula1;text-align:center;word-spacing:0px;writing-mode:lr-tb;direction:ltr;text-anchor:middle;display:inline;opacity:1;fill:#ee0000;fill-opacity:1;stroke:none;stroke-width:7.83601;stroke-linecap:butt;stroke-linejoin:miter;stroke-dasharray:none;stroke-opacity:1"
         x="436.95645"
         y="394.58563"
         id="text5"
         inkscape:label="track-name"><tspan
           sodipodi:role="line"
           id="tspan5"
           style="font-style:normal;font-variant:normal;font-weight:normal;font-stretch:normal;font-size:25.8172px;font-family:Formula1;-inkscape-font-specification:Formula1;stroke-width:7.836"
           x="436.95645"
           y="394.58563">Circuit de Monaco</tspan></text>
      <g inkscape:label="embedded-track" transform=" translate(226.7293267258807, 71.2408662480419) scale(0.7922114078129181) rotate(45, 250.08987740806816, 250.00204273325713) " > <path style="fill: none; stroke: #fff; stroke-width: 20; stroke-linejoin: round; stroke-dasharray: none; stroke-opacity: 1;" d="M118.34 246.687c-5.14.774-6.994 2.392-9.853 7.317-4.586 7.898-9.192 18.211-11.413 27.357-2.486 10.243-2.829 25.557-1.95 39.458.445 7.034 2.23 10.04 8.243 12.045 7.17 2.387 8.339 2.488 9.949 9.801 1.61 7.319 6.389 33.36 8.047 42.434 1.188 6.495 2.042 8.91-3.805 11.704-6.436 3.07-7.9 3.95-6.729 9.07 1.17 5.12 6.805 23.714 11.023 30.435 11.51 18.336 19.262 23.945 27.311 26.726 5.165 1.784 11.935 2.284 13.315 7.946 1.317 5.416 1.181 7.937-2.341 9.074-13.167 4.244-26.043 5.56-38.334 5.268-4.24-.102-4.829-.294-4.245-5.56.442-3.967.44-9.514-3.803-14.047-3.322-3.553-10.24-13.756-16.093-28.531-9.486-23.955-16.97-48.602-19.168-60.132-2.924-15.363-5.422-36.152-6.435-49.746-1.903-25.458-.928-45.988 3.217-55.89 5.267-12.585 6.437-17.12 5.999-21.07-.878-7.9-.355-10.97 4.242-12.437 14.192-4.535 27.36-4.242 37.456-5.852 10.094-1.609 27.134-4.495 33.651-6.439 8.34-2.486 23.423-7.227 36.577-9.363 11.704-1.903 21.801-3.073 32.774-8.34 6.195-2.974 21.8-11.119 28.384-13.169 6.585-2.046 18.713-4.606 25.75-6.143 8.048-1.759 17.221-3.118 23.994-4.534 9.32-1.953 25.118-13.113 27.46-27.898 2.535-15.996-2.563-24.582-12.876-33.749-7.022-6.243-11.658-11.657-12.68-15.461-1.987-7.38.472-12.368 3.803-16.97 4.974-6.877 50.625-68.034 53.99-72.277 3.366-4.244 6.436-3.658 9.95-.88 3.509 2.783 7.415 5.432 7.023 10.39-.438 5.56-.515 9.95 1.757 13.607 2.632 4.244 3.365 5.121 6.585 9.51 2.136 2.914 3.949 5.707 5.121 9.51 1.097 3.565 6.103 5.143 8.922 2.633 2.632-2.341 3.073-6.585-.876-9.51-1.636-1.211-3.58-2.506-5.269-5.12-2.926-4.537-5.415-7.9-7.168-10.681-1.389-2.204-3.13-11.026 2.778-12.73 8.632-2.487 19.607-5.853 25.31-7.608 2.719-.835 11.123-.146 11.123 8.34 0 8.485-.294 17.848-1.17 25.896-.394 3.597-3.482 47.7-22.192 77.593-23.132 36.952-62.28 63.471-70.912 68.28-19.604 10.923-39.682 17.952-46.525 19.703-12.584 3.218-28.287 4.485-42.725 6.437-3.529.476-5.299 3.87-5.074 5.463.586 4.098-.946 5.21-4.484 5.852-8.585 1.563-10.73 2.731-12.486-.388-1.8-3.2-3.085-2.424-7.805-1.759-15.215 2.147-86.663 12.827-97.344 14.435z" /> <path style="fill: none; stroke: #000; stroke-width: 5; stroke-linejoin: round; stroke-dasharray: none; stroke-opacity: 1;" d="M118.34 246.687c-5.14.774-6.994 2.392-9.853 7.317-4.586 7.898-9.192 18.211-11.413 27.357-2.486 10.243-2.829 25.557-1.95 39.458.445 7.034 2.23 10.04 8.243 12.045 7.17 2.387 8.339 2.488 9.949 9.801 1.61 7.319 6.389 33.36 8.047 42.434 1.188 6.495 2.042 8.91-3.805 11.704-6.436 3.07-7.9 3.95-6.729 9.07 1.17 5.12 6.805 23.714 11.023 30.435 11.51 18.336 19.262 23.945 27.311 26.726 5.165 1.784 11.935 2.284 13.315 7.946 1.317 5.416 1.181 7.937-2.341 9.074-13.167 4.244-26.043 5.56-38.334 5.268-4.24-.102-4.829-.294-4.245-5.56.442-3.967.44-9.514-3.803-14.047-3.322-3.553-10.24-13.756-16.093-28.531-9.486-23.955-16.97-48.602-19.168-60.132-2.924-15.363-5.422-36.152-6.435-49.746-1.903-25.458-.928-45.988 3.217-55.89 5.267-12.585 6.437-17.12 5.999-21.07-.878-7.9-.355-10.97 4.242-12.437 14.192-4.535 27.36-4.242 37.456-5.852 10.094-1.609 27.134-4.495 33.651-6.439 8.34-2.486 23.423-7.227 36.577-9.363 11.704-1.903 21.801-3.073 32.774-8.34 6.195-2.974 21.8-11.119 28.384-13.169 6.585-2.046 18.713-4.606 25.75-6.143 8.048-1.759 17.221-3.118 23.994-4.534 9.32-1.953 25.118-13.113 27.46-27.898 2.535-15.996-2.563-24.582-12.876-33.749-7.022-6.243-11.658-11.657-12.68-15.461-1.987-7.38.472-12.368 3.803-16.97 4.974-6.877 50.625-68.034 53.99-72.277 3.366-4.244 6.436-3.658 9.95-.88 3.509 2.783 7.415 5.432 7.023 10.39-.438 5.56-.515 9.95 1.757 13.607 2.632 4.244 3.365 5.121 6.585 9.51 2.136 2.914 3.949 5.707 5.121 9.51 1.097 3.565 6.103 5.143 8.922 2.633 2.632-2.341 3.073-6.585-.876-9.51-1.636-1.211-3.58-2.506-5.269-5.12-2.926-4.537-5.415-7.9-7.168-10.681-1.389-2.204-3.13-11.026 2.778-12.73 8.632-2.487 19.607-5.853 25.31-7.608 2.719-.835 11.123-.146 11.123 8.34 0 8.485-.294 17.848-1.17 25.896-.394 3.597-3.482 47.7-22.192 77.593-23.132 36.952-62.28 63.471-70.912 68.28-19.604 10.923-39.682 17.952-46.525 19.703-12.584 3.218-28.287 4.485-42.725 6.437-3.529.476-5.299 3.87-5.074 5.463.586 4.098-.946 5.21-4.484 5.852-8.585 1.563-10.73 2.731-12.486-.388-1.8-3.2-3.085-2.424-7.805-1.759-15.215 2.147-86.663 12.827-97.344 14.435z" /> </g>
    </g>
    <text
       xml:space="preserve"
       style="font-size:202.494px;writing-mode:lr-tb;direction:ltr;display:inline;fill:none;fill-opacity:1;stroke:#ee0000;stroke-width:14.7;stroke-dasharray:none;stroke-opacity:1"
       x="48.206333"
       y="403.4614"
       id="text8"
       inkscape:label="year"><tspan
         sodipodi:role="line"
         id="tspan8"
         style="font-style:normal;font-variant:normal;font-weight:normal;font-stretch:normal;font-size:202.494px;font-family:Formula1;-inkscape-font-specification:Formula1;fill:#000000;fill-opacity:1;stroke:#ffffff;stroke-width:14.7;stroke-dasharray:none;stroke-opacity:1"
         x="48.206333"
         y="403.4614">2026</tspan></text>
  </g>
</svg>
