<?xml version="1.0" encoding="UTF-8" standalone="no"?>
<!-- Created with Inkscape (http://www.inkscape.org/) -->

<svg
   width="720mm"
   height="405mm"
   viewBox="0 0 720 405"
   version="1.1"
   id="svg1"
   xml:space="preserve"
   inkscape:export-xdpi="45.18441"
   inkscape:export-ydpi="45.18441"
   inkscape:version="1.4.3 (0d15f75, 2025-12-25)"
   sodipodi:docname="template.svg"
   xmlns:inkscape="http://www.inkscape.org/namespaces/inkscape"
   xmlns:sodipodi="http://sodipodi.sourceforge.net/DTD/sodipodi-0.dtd"
   xmlns="http://www.w3.org/2000/svg"
   xmlns:svg="http://www.w3.org/2000/svg"><sodipodi:namedview
     id="namedview1"
     pagecolor="#ffffff"
     bordercolor="#111111"
     borderopacity="1"
     inkscape:showpageshadow="0"
     inkscape:pageopacity="0"
     inkscape:pagecheckerboard="1"
     inkscape:deskcolor="#d1d1d1"
     inkscape:document-units="mm"
     inkscape:zoom="0.25178368"
     inkscape:cx="1312.6347"
     inkscape:cy="969.08584"
     inkscape:window-width="1710"
     inkscape:window-height="1045"
     inkscape:window-x="0"
     inkscape:window-y="62"
     inkscape:window-maximized="0"
     inkscape:current-layer="layer1" /><defs
     id="defs1"><inkscape:path-effect
       effect="fillet_chamfer"
       id="path-effect3"
       is_visible="true"
       lpeversion="1"
       nodesatellites_param="F,0,0,1,0,0,0,1 @ F,0,0,1,0,45.967641,0,1 @ F,0,0,1,0,0,0,1"
       radius="0"
       unit="px"
       method="auto"
       mode="F"
       chamfer_steps="1"
       flexible="false"
       use_knot_distance="true"
       apply_no_radius="true"
       apply_with_radius="true"
       only_selected="false"
       hide_knots="false" /><path
       d="M101.086812,30 L101.711812,30 L101.711812,27.106875 L101.722437,27.106875 L102.761812,30 L103.302437,30 L104.341812,27.106875 L104.352437,27.106875 L104.352437,30 L104.977437,30 L104.977437,26.25125 L104.063687,26.25125 L103.055562,29.18625 L103.044937,29.18625 L102.011187,26.25125 L101.086812,26.25125 L101.086812,30 Z M97.6274375,26.818125 L98.8136875,26.818125 L98.8136875,30 L99.4699375,30 L99.4699375,26.818125 L100.661812,26.818125 L100.661812,26.25125 L97.6274375,26.25125 L97.6274375,26.818125 Z M89.9999375,30 L119.999937,0 L101.943687,0 L71.9443125,30 L89.9999375,30 Z M85.6986875,13.065 L49.3818125,13.065 C38.3136875,13.065 36.3768125,13.651875 31.6361875,18.3925 C27.2024375,22.82625 20.0005625,30 20.0005625,30 L35.7324375,30 L39.4855625,26.246875 C41.9530625,23.779375 43.2255625,23.52375 48.4068125,23.52375 L75.2405625,23.52375 L85.6986875,13.065 Z M31.1518125,16.253125 C27.8774375,19.3425 20.7530625,26.263125 16.9130625,30 L-6.25e-05,30 C-6.25e-05,30 13.5524375,16.486875 21.0849375,9.0725 C28.8455625,1.685 32.7143125,0 46.9486875,0 L98.7643125,0 L87.5449375,11.21875 L48.0011875,11.21875 C37.9993125,11.21875 35.7518125,11.911875 31.1518125,16.253125 Z"
       id="path-1" /></defs><g
     inkscape:label="Layer 1"
     inkscape:groupmode="layer"
     id="layer1"><rect
       style="opacity:1;fill:#15151e;stroke:none;stroke-width:0.459853"
       id="rect1"
       width="719.54016"
       height="404.54016"
       x="0.2299265"
       y="0.2299265"
       inkscape:export-filename="../png/template.png"
       inkscape:export-xdpi="45.18441"
       inkscape:export-ydpi="45.18441"
       inkscape:label="background" /><path
       d="M 549.98062,297.49087 739.9615,107.51 H 625.61677 L 435.63984,297.49087 Z M 522.74211,190.24667 H 292.75839 c -70.09107,0 -82.35671,3.7165 -112.37764,33.73744 -28.07759,28.07759 -73.68488,73.50676 -73.68488,73.50676 h 99.62519 l 23.76739,-23.7674 c 15.62593,-15.62592 23.68429,-17.24472 56.49556,-17.24472 h 169.92997 z m -345.42876,20.18942 c -20.73562,19.56408 -65.85212,63.39029 -90.16967,87.05478 H -19.962 c 0,0 85.82387,-85.57451 133.52489,-132.52749 C 162.70857,118.18059 187.20818,107.51 277.35015,107.51 h 328.13259 l -71.04889,71.04493 H 284.01531 c -63.33882,0 -77.57156,4.38935 -106.70196,31.88116 z"
       id="Fill-1-6"
       style="fill:#201f2c;fill-opacity:1;fill-rule:evenodd;stroke:none;stroke-width:6.3327"
       sodipodi:nodetypes="ccccccssccssccccccsccsc"
       inkscape:label="logo" /><text
       xml:space="preserve"
       style="font-style:normal;font-variant:normal;font-weight:normal;font-stretch:normal;font-size:31.75px;line-height:100%;font-family:Formula1;-inkscape-font-specification:Formula1;text-align:start;word-spacing:0px;writing-mode:lr-tb;direction:ltr;text-anchor:start;opacity:1;fill:#ee0000;fill-opacity:1;stroke:none;stroke-width:0.223;stroke-opacity:1"
       x="28.402561"
       y="46.197952"
       id="text2"
       inkscape:label="round"><tspan
         sodipodi:role="line"
         style="font-style:normal;font-variant:normal;font-weight:normal;font-stretch:normal;font-size:31.75px;font-family:Formula1;-inkscape-font-specification:Formula1;fill:#ee0000;fill-opacity:1;stroke-width:0.223"
         x="28.402561"
         y="46.197952"
         id="tspan1">ROUND 05</tspan></text><path
       style="opacity:1;fill:none;fill-opacity:1;stroke:#ee0000;stroke-width:7.83601;stroke-linecap:butt;stroke-linejoin:miter;stroke-dasharray:none;stroke-opacity:1"
       d="m 187.88728,39.21919 h 456.58523 a 45.967641,45.967641 45 0 1 45.96764,45.967641 V 413.1696"
       id="path3"
       sodipodi:nodetypes="ccc"
       inkscape:path-effect="#path-effect3"
       inkscape:original-d="M 187.88728,39.21919 H 690.44015 V 413.1696"
       transform="matrix(0.86982237,0,0,1.0007021,74.217474,3.230212)" /><g
       id="g10"
       transform="translate(1.3716371)"
       inkscape:label="info"><text
         xml:space="preserve"
         style="font-style:normal;font-variant:normal;font-weight:normal;font-stretch:normal;font-size:44.9794px;line-height:100%;font-family:Formula1;-inkscape-font-specification:Formula1;text-align:start;word-spacing:0px;writing-mode:lr-tb;direction:ltr;text-anchor:start;opacity:1;fill:#ffffff;fill-opacity:1;stroke:none;stroke-width:7.83604;stroke-linecap:butt;stroke-linejoin:miter;stroke-dasharray:none;stroke-opacity:1"
         x="205.8817"
         y="110.78199"
         id="text3"
         inkscape:label="location"><tspan
           sodipodi:role="line"
           id="tspan3"
           style="font-style:normal;font-variant:normal;font-weight:500;font-stretch:normal;font-size:44.9794px;font-family:Formula1;-inkscape-font-specification:'Formula1 Medium';stroke:none;stroke-width:7.83603"
           x="205.8817"
           y="110.78199">CANADA</tspan></text><text
         xml:space="preserve"
         style="font-style:normal;font-variant:normal;font-weight:500;font-stretch:normal;font-size:26.4583px;line-height:100%;font-family:Formula1;-inkscape-font-specification:'Formula1 Medium';text-align:start;word-spacing:0px;writing-mode:lr-tb;direction:ltr;text-anchor:start;opacity:1;fill:#ffffff;fill-opacity:1;stroke:none;stroke-width:7.83601;stroke-linecap:butt;stroke-linejoin:miter;stroke-dasharray:none;stroke-opacity:1"
         x="204.55881"
         y="147.57129"
         id="text4"
         inkscape:label="session"><tspan
           sodipodi:role="line"
           id="tspan4"
           style="font-style:normal;font-variant:normal;font-weight:normal;font-stretch:normal;font-size:26.4583px;font-family:Formula1;-inkscape-font-specification:Formula1;fill:#ee0000;fill-opacity:1;stroke-width:7.836"
           x="204.55881"
           y="147.57129">SPRINT QUALIFYING</tspan></text></g><g
       id="g3"
       inkscape:label="track"><text
         xml:space="preserve"
         style="font-style:normal;font-variant:normal;font-weight:normal;font-stretch:normal;font-size:19.0503px;line-height:100%;font-family:Formula1;-inkscape-font-specification:Formula1;text-align:center;word-spacing:0px;writing-mode:lr-tb;direction:ltr;text-anchor:middle;opacity:1;fill:#ee0000;fill-opacity:1;stroke:none;stroke-width:7.83615;stroke-linecap:butt;stroke-linejoin:miter;stroke-dasharray:none;stroke-opacity:1"
         x="436.95758"
         y="385.74637"
         id="text5"
         inkscape:label="track-name"><tspan
           sodipodi:role="line"
           id="tspan5"
           style="font-size:19.0503px;stroke-width:7.83614"
           x="436.95758"
           y="385.74637">Circuit Gilles Villeneuve</tspan></text><g inkscape:label="embedded-track" transform=" translate(198.14472961395583, 21.066455570939127) scale(0.9219137142797118) rotate(-65, 249.98912926109853, 249.96040442905488) " > <path style="fill: none; stroke: #fff; stroke-width: 20; stroke-linejoin: round; stroke-dasharray: none; stroke-opacity: 1;" d="M223.071 47.18c-2.536-11.336-4.35-19.461-5.519-25.208-.965-4.748 1.315-6.378 3.73-6.861 2.237-.448 4.69 1.63 5.07 6.115.597 7.01 1.045 10.441 1.641 16.11.352 3.346 1.416 7.836 4.624 14.468 2.238 4.624 6.862 13.871 12.679 28.638 2.265 5.75 12.827 32.666 15.512 39.676 1.843 4.812 4.475 14.32 5.52 20.137 1.043 5.817 24.312 118.88 31.173 151.843 1.025 4.926-1.742 6.349-2.983 7.01-2.237 1.194-3.729 2.686-2.834 7.757s18.197 84.722 19.39 90.39c1.194 5.668 3.282 16.259 2.835 27.744-.355 9.096-1.936 29.235-2.387 33.411-.596 5.52-.596 7.16 2.387 8.353 2.983 1.193 4.039 1.614 6.861 2.834 11.038 4.773 2.983 17.004-4.773 15.065-8.494-2.123-13.458-3.632-23.269-7.16-13.275-4.772-33.56-23.865-41.764-31.92-3.538-3.473-2.834-7.606-1.044-10.888 1.79-3.281 1.26-5.254-1.343-9.397-3.281-5.22-12.411-17.275-15.512-20.136-3.878-3.58-7.56-5.592-11.187-7.906-7.01-4.475-12.53-14.02-12.53-23.268 0-7.017.597-31.622.746-36.544.15-4.923-1.496-8.826-6.264-9.1-5.22-.297-10.143 3.58-14.916.3-4.773-3.282-7.866-5.35-9.696-15.662-3.281-18.496-5.518-40.273-5.37-52.206.127-10.143 1.776-35.995 4.923-50.416 1.79-8.203 8.502-34.455 10.143-39.527 1.133-3.505 3.878-4.624 7.458-4.325 5.37.447 10.292-2.983 12.827-11.635 2.974-10.145 9.546-34.754 10.441-41.167.924-6.623 5.074-31.195 5.221-40.72.15-9.696-.1-18.247-1.79-25.805z" /> <path style="fill: none; stroke: #000; stroke-width: 5; stroke-linejoin: round; stroke-dasharray: none; stroke-opacity: 1;" d="M223.071 47.18c-2.536-11.336-4.35-19.461-5.519-25.208-.965-4.748 1.315-6.378 3.73-6.861 2.237-.448 4.69 1.63 5.07 6.115.597 7.01 1.045 10.441 1.641 16.11.352 3.346 1.416 7.836 4.624 14.468 2.238 4.624 6.862 13.871 12.679 28.638 2.265 5.75 12.827 32.666 15.512 39.676 1.843 4.812 4.475 14.32 5.52 20.137 1.043 5.817 24.312 118.88 31.173 151.843 1.025 4.926-1.742 6.349-2.983 7.01-2.237 1.194-3.729 2.686-2.834 7.757s18.197 84.722 19.39 90.39c1.194 5.668 3.282 16.259 2.835 27.744-.355 9.096-1.936 29.235-2.387 33.411-.596 5.52-.596 7.16 2.387 8.353 2.983 1.193 4.039 1.614 6.861 2.834 11.038 4.773 2.983 17.004-4.773 15.065-8.494-2.123-13.458-3.632-23.269-7.16-13.275-4.772-33.56-23.865-41.764-31.92-3.538-3.473-2.834-7.606-1.044-10.888 1.79-3.281 1.26-5.254-1.343-9.397-3.281-5.22-12.411-17.275-15.512-20.136-3.878-3.58-7.56-5.592-11.187-7.906-7.01-4.475-12.53-14.02-12.53-23.268 0-7.017.597-31.622.746-36.544.15-4.923-1.496-8.826-6.264-9.1-5.22-.297-10.143 3.58-14.916.3-4.773-3.282-7.866-5.35-9.696-15.662-3.281-18.496-5.518-40.273-5.37-52.206.127-10.143 1.776-35.995 4.923-50.416 1.79-8.203 8.502-34.455 10.143-39.527 1.133-3.505 3.878-4.624 7.458-4.325 5.37.447 10.292-2.983 12.827-11.635 2.974-10.145 9.546-34.754 10.441-41.167.924-6.623 5.074-31.195 5.221-40.72.15-9.696-.1-18.247-1.79-25.805z" /> </g></g><g
       id="g8"
       inkscape:label="date"
       transform="translate(26.39625,4.4877724)"><text
         xml:space="preserve"
         style="font-style:normal;font-variant:normal;font-weight:normal;font-stretch:normal;font-size:38.1px;line-height:100%;font-family:Formula1;-inkscape-font-specification:Formula1;text-align:center;word-spacing:0px;writing-mode:lr-tb;direction:ltr;text-anchor:middle;opacity:1;fill:#ee0000;fill-opacity:1;stroke:none;stroke-width:7.83601;stroke-linecap:butt;stroke-linejoin:miter;stroke-dasharray:none;stroke-opacity:1"
         x="73.904526"
         y="296.20868"
         id="text6"
         inkscape:label="day"><tspan
           sodipodi:role="line"
           id="tspan6"
           style="font-style:normal;font-variant:normal;font-weight:500;font-stretch:normal;font-size:38.1px;font-family:Formula1;-inkscape-font-specification:'Formula1 Medium';fill:#ffffff;fill-opacity:1;stroke-width:7.836"
           x="73.904526"
           y="296.20868">22</tspan></text><g
         id="g7"
         inkscape:label="month"><rect
           style="opacity:1;fill:#ffffff;fill-opacity:1;stroke:none;stroke-width:7.83601;stroke-linecap:butt;stroke-linejoin:miter;stroke-dasharray:none;stroke-opacity:1"
           id="rect7"
           width="135.10905"
           height="57.764015"
           x="10.769562"
           y="306.44302"
           ry="23.007711" /><text
           xml:space="preserve"
           style="font-style:normal;font-variant:normal;font-weight:500;font-stretch:normal;font-size:38.1px;line-height:100%;font-family:Formula1;-inkscape-font-specification:'Formula1 Medium';text-align:center;word-spacing:0px;writing-mode:lr-tb;direction:ltr;text-anchor:middle;opacity:1;fill:#15151e;fill-opacity:1;stroke:none;stroke-width:7.83601;stroke-linecap:butt;stroke-linejoin:miter;stroke-dasharray:none;stroke-opacity:1"
           x="76.800072"
           y="349.61252"
           id="text7"
           inkscape:label="month"><tspan
             sodipodi:role="line"
             id="tspan7"
             style="fill:#15151e;fill-opacity:1;stroke-width:7.836"
             x="76.800072"
             y="349.61252">MAY</tspan></text></g></g><g transform="translate(71.964256, 72.019316) scale(0.15632884375)" inkscape:label="flag"><mask id="a"><circle cx="256" cy="256" r="256" fill="#fff"/></mask><g mask="url(#a)"><path fill="#d80027" d="M0 0v512h144l112-64 112 64h144V0H368L256 64 144 0Z"/><path fill="#eee" d="M144 0h224v512H144Z"/><path fill="#d80027" d="m301 289 44-22-22-11v-22l-45 22 23-44h-23l-22-34-22 33h-23l23 45-45-22v22l-22 11 45 22-12 23h45v33h22v-33h45z"/></g></g></g></svg>
