<?xml version="1.0" encoding="UTF-8" standalone="no"?>
<!-- Created with Inkscape (http://www.inkscape.org/) -->

<svg
   width="680mm"
   height="1000mm"
   viewBox="0 0 680 1000"
   version="1.1"
   id="svg1"
   inkscape:version="1.4.3 (0d15f75, 2025-12-25)"
   sodipodi:docname="template.svg"
   xmlns:inkscape="http://www.inkscape.org/namespaces/inkscape"
   xmlns:sodipodi="http://sodipodi.sourceforge.net/DTD/sodipodi-0.dtd"
   xmlns="http://www.w3.org/2000/svg"
   xmlns:svg="http://www.w3.org/2000/svg">
  <sodipodi:namedview
     id="namedview1"
     pagecolor="#505050"
     bordercolor="#eeeeee"
     borderopacity="1"
     inkscape:showpageshadow="0"
     inkscape:pageopacity="0"
     inkscape:pagecheckerboard="0"
     inkscape:deskcolor="#505050"
     inkscape:document-units="mm"
     inkscape:zoom="0.15208656"
     inkscape:cx="706.83434"
     inkscape:cy="2406.5243"
     inkscape:window-width="1710"
     inkscape:window-height="1045"
     inkscape:window-x="0"
     inkscape:window-y="62"
     inkscape:window-maximized="0"
     inkscape:current-layer="layer1" />
  <defs
     id="defs1">
    <inkscape:path-effect
       effect="fillet_chamfer"
       id="path-effect4"
       is_visible="true"
       lpeversion="1"
       nodesatellites_param="F,0,0,1,0,0,0,1 @ F,0,0,1,0,75,0,1 @ F,0,0,1,0,75,0,1 @ F,0,0,1,0,0,0,1"
       radius="0"
       unit="px"
       method="auto"
       mode="F"
       chamfer_steps="1"
       flexible="false"
       use_knot_distance="true"
       apply_no_radius="true"
       apply_with_radius="true"
       only_selected="false"
       hide_knots="false" />
    <inkscape:path-effect
       effect="fillet_chamfer"
       id="path-effect2"
       is_visible="true"
       lpeversion="1"
       nodesatellites_param="F,0,0,1,0,0,0,1 @ F,0,0,1,0,0,0,1 @ F,0,0,1,0,0,0,1 @ F,0,0,1,0,0,0,1"
       radius="0"
       unit="px"
       method="auto"
       mode="F"
       chamfer_steps="1"
       flexible="false"
       use_knot_distance="true"
       apply_no_radius="true"
       apply_with_radius="true"
       only_selected="false"
       hide_knots="false" />
    <inkscape:path-effect
       effect="fillet_chamfer"
       id="path-effect3"
       is_visible="true"
       lpeversion="1"
       nodesatellites_param="F,0,0,1,0,0,0,1 @ F,0,0,1,0,45.967641,0,1 @ F,0,0,1,0,0,0,1"
       radius="0"
       unit="px"
       method="auto"
       mode="F"
       chamfer_steps="1"
       flexible="false"
       use_knot_distance="true"
       apply_no_radius="true"
       apply_with_radius="true"
       only_selected="false"
       hide_knots="false" />
  </defs>
  <g
     inkscape:label="Layer 1"
     inkscape:groupmode="layer"
     id="layer1">
    <rect
       style="fill:#15151e;fill-opacity:1;stroke-width:0.653077"
       id="rect1"
       width="680"
       height="1000"
       x="-1.4210855e-14"
       y="0"
       ry="2.0972002"
       inkscape:label="background"
       sodipodi:insensitive="true" />
    <path
       d="M 89.999938,30 119.99994,0 H 101.94369 L 71.944312,30 Z M 85.698688,13.065 H 49.381813 c -11.068126,0 -13.005001,0.586875 -17.745626,5.3275 C 27.202437,22.82625 20.000562,30 20.000562,30 h 15.731876 l 3.753124,-3.753125 c 2.467501,-2.4675 3.740001,-2.723125 8.92125,-2.723125 h 26.83375 z M 31.151812,16.253125 C 27.877437,19.3425 20.753062,26.263125 16.913062,30 H -6.25e-5 c 0,0 13.5525005,-13.513125 21.0849995,-20.9275 C 28.845562,1.685 32.714312,0 46.948687,0 H 98.764313 L 87.544938,11.21875 H 48.001187 c -10.001874,0 -12.249375,0.693125 -16.849375,5.034375 z"
       id="Fill-1"
       style="fill:#201f2c;fill-rule:evenodd;stroke:none;stroke-width:1;fill-opacity:1"
       sodipodi:nodetypes="ccccccssccssccccccsccsc"
       inkscape:label="logo"
       transform="matrix(6.3326957,0,0,6.3326957,-39.961349,401.1145)" />
    <text
       xml:space="preserve"
       style="font-style:normal;font-variant:normal;font-weight:normal;font-stretch:normal;font-size:50.8px;line-height:100%;font-family:Formula1;-inkscape-font-specification:Formula1;text-align:start;word-spacing:0px;writing-mode:lr-tb;direction:ltr;text-anchor:start;opacity:1;fill:#ee0000;fill-opacity:1;stroke:none;stroke-width:0.223;stroke-opacity:1"
       x="21.697973"
       y="63.709557"
       id="text2"
       inkscape:label="round"><tspan
         sodipodi:role="line"
         style="font-style:normal;font-variant:normal;font-weight:normal;font-stretch:normal;font-size:50.8px;font-family:Formula1;-inkscape-font-specification:Formula1;fill:#ee0000;fill-opacity:1;stroke-width:0.223"
         x="21.697973"
         y="63.709557"
         id="tspan1">ROUND 09</tspan></text>
    <path
       style="display:inline;fill:none;fill-opacity:1;stroke:#ee0000;stroke-width:15;stroke-dasharray:none;stroke-opacity:1"
       d="M 352.06858,56.213936 H 580 a 75,75 45 0 1 75,75.000004 V 900 a 75,75 135 0 1 -75,75 H 0"
       id="path1"
       sodipodi:nodetypes="cccc"
       inkscape:path-effect="#path-effect4"
       inkscape:original-d="M 352.06858,56.213936 H 655 V 975 H 0" />
    <g
       id="g10"
       transform="translate(-61.769566,39.315292)"
       inkscape:label="info"
       style="display:inline">
      <g
         id="g9"
         transform="translate(0,-0.2293034)">
        
        <text
           xml:space="preserve"
           style="font-style:normal;font-variant:normal;font-weight:normal;font-stretch:normal;font-size:51.7978px;line-height:100%;font-family:Formula1;-inkscape-font-specification:Formula1;text-align:start;word-spacing:0px;writing-mode:lr-tb;direction:ltr;text-anchor:start;opacity:1;fill:#ffffff;fill-opacity:1;stroke:none;stroke-width:7.83601;stroke-linecap:butt;stroke-linejoin:miter;stroke-dasharray:none;stroke-opacity:1"
           x="206.93063"
           y="110.78185"
           id="text3"
           inkscape:label="location"><tspan
             sodipodi:role="line"
             id="tspan3"
             style="font-style:normal;font-variant:normal;font-weight:normal;font-stretch:normal;font-size:51.7978px;font-family:Formula1;-inkscape-font-specification:Formula1;stroke:none;stroke-width:7.836"
             x="206.93063"
             y="110.78185">GREAT BRITAIN</tspan></text>
        <text
           xml:space="preserve"
           style="font-style:normal;font-variant:normal;font-weight:normal;font-stretch:normal;font-size:35.2778px;line-height:100%;font-family:Formula1;-inkscape-font-specification:Formula1;text-align:start;word-spacing:0px;writing-mode:lr-tb;direction:ltr;text-anchor:start;opacity:1;fill:#ffffff;fill-opacity:1;stroke:none;stroke-width:7.83601;stroke-linecap:butt;stroke-linejoin:miter;stroke-dasharray:none;stroke-opacity:1"
           x="205.16676"
           y="151.7265"
           id="text4"
           inkscape:label="session"><tspan
             sodipodi:role="line"
             id="tspan4"
             style="font-style:normal;font-variant:normal;font-weight:normal;font-stretch:normal;font-size:35.2778px;font-family:Formula1;-inkscape-font-specification:Formula1;fill:#ee0000;fill-opacity:1;stroke-width:7.836"
             x="205.16676"
             y="151.7265">RACE</tspan></text>
      </g>
      <g transform="translate(86.769573, 60.684713) scale(0.19690717578125)" inkscape:label="flag"><mask id="a"><circle cx="256" cy="256" r="256" fill="#fff"/></mask><g mask="url(#a)"><path fill="#eee" d="m0 0 8 22-8 23v23l32 54-32 54v32l32 48-32 48v32l32 54-32 54v68l22-8 23 8h23l54-32 54 32h32l48-32 48 32h32l54-32 54 32h68l-8-22 8-23v-23l-32-54 32-54v-32l-32-48 32-48v-32l-32-54 32-54V0l-22 8-23-8h-23l-54 32-54-32h-32l-48 32-48-32h-32l-54 32L68 0H0z"/><path fill="#0052b4" d="M336 0v108L444 0Zm176 68L404 176h108zM0 176h108L0 68ZM68 0l108 108V0Zm108 512V404L68 512ZM0 444l108-108H0Zm512-108H404l108 108Zm-68 176L336 404v108z"/><path fill="#d80027" d="M0 0v45l131 131h45L0 0zm208 0v208H0v96h208v208h96V304h208v-96H304V0h-96zm259 0L336 131v45L512 0h-45zM176 336 0 512h45l131-131v-45zm160 0 176 176v-45L381 336h-45z"/></g></g>
    </g>
    <g
       id="g8"
       inkscape:label="date"
       transform="translate(308.90368,536.87111)"
       style="display:inline">
      <text
         xml:space="preserve"
         style="font-style:normal;font-variant:normal;font-weight:normal;font-stretch:normal;font-size:88.1944px;line-height:100%;font-family:Formula1;-inkscape-font-specification:Formula1;text-align:center;word-spacing:0px;writing-mode:lr-tb;direction:ltr;text-anchor:middle;display:inline;opacity:1;fill:#ee0000;fill-opacity:1;stroke:none;stroke-width:7.83601;stroke-linecap:butt;stroke-linejoin:miter;stroke-dasharray:none;stroke-opacity:1"
         x="-122.88599"
         y="362.8576"
         id="text6"
         inkscape:label="day"><tspan
           sodipodi:role="line"
           id="tspan6"
           style="font-style:normal;font-variant:normal;font-weight:normal;font-stretch:normal;font-size:88.1944px;font-family:Formula1;-inkscape-font-specification:Formula1;fill:#ffffff;fill-opacity:1;stroke-width:7.836"
           x="-122.88599"
           y="362.8576">05</tspan></text>
      <g
         id="g7"
         inkscape:label="month"
         transform="translate(34.626847,5.5402955)"
         style="display:inline">
        <rect
           style="display:inline;opacity:1;fill:#ffffff;fill-opacity:1;stroke:none;stroke-width:16.1904;stroke-linecap:butt;stroke-linejoin:miter;stroke-dasharray:none;stroke-opacity:1"
           id="rect7"
           width="279.15674"
           height="119.34962"
           x="-59.869205"
           y="264.56961"
           ry="47.537582" />
        <text
           xml:space="preserve"
           style="font-style:normal;font-variant:normal;font-weight:normal;font-stretch:normal;font-size:88.1944px;line-height:100%;font-family:Formula1;-inkscape-font-specification:Formula1;text-align:center;word-spacing:0px;writing-mode:lr-tb;direction:ltr;text-anchor:middle;display:inline;opacity:1;fill:#15151e;fill-opacity:1;stroke:none;stroke-width:7.83601;stroke-linecap:butt;stroke-linejoin:miter;stroke-dasharray:none;stroke-opacity:1"
           x="78.165771"
           y="357.31732"
           id="text7"
           inkscape:label="month"><tspan
             sodipodi:role="line"
             id="tspan7"
             style="font-style:normal;font-variant:normal;font-weight:normal;font-stretch:normal;font-size:88.1944px;font-family:Formula1;-inkscape-font-specification:Formula1;fill:#15151e;fill-opacity:1;stroke-width:7.836"
             x="78.165771"
             y="357.31732">JUL</tspan></text>
      </g>
    </g>
    <g
       id="g3"
       inkscape:label="track"
       transform="matrix(1.2571293,0,0,1.2571293,-208.71205,272.34527)"
       style="display:inline">
      
      <text
         xml:space="preserve"
         style="font-style:normal;font-variant:normal;font-weight:normal;font-stretch:normal;font-size:25.8172px;line-height:100%;font-family:Formula1;-inkscape-font-specification:Formula1;text-align:center;word-spacing:0px;writing-mode:lr-tb;direction:ltr;text-anchor:middle;display:inline;opacity:1;fill:#ee0000;fill-opacity:1;stroke:none;stroke-width:7.83601;stroke-linecap:butt;stroke-linejoin:miter;stroke-dasharray:none;stroke-opacity:1"
         x="436.95645"
         y="394.58563"
         id="text5"
         inkscape:label="track-name"><tspan
           sodipodi:role="line"
           id="tspan5"
           style="font-style:normal;font-variant:normal;font-weight:normal;font-stretch:normal;font-size:25.8172px;font-family:Formula1;-inkscape-font-specification:Formula1;stroke-width:7.836"
           x="436.95645"
           y="394.58563">Silverstone Circuit</tspan></text>
      <g inkscape:label="embedded-track" transform=" translate(264.1275318509411, 86.6073771310756) scale(0.6893691229133482) rotate(90, 250.01508251584852, 250.03160779887455) " > <path style="fill: none; stroke: #fff; stroke-width: 20; stroke-linejoin: round; stroke-dasharray: none; stroke-opacity: 1;" d="M187.132 258.577c2.83-3.815 6.413-9.565 13.577-10.593 13.554-1.944 21.828 1.404 35.111 3.348 16.012 2.344 24.823-.431 33.316-6.912 16.091-12.281 27.87-21.819 38.54-30.677 7.154-5.938 13.066-1.296 14.154 3.024 1.523 6.05 2.831 11.45 6.969 24.844 1.656 5.362 9.362 7.346 12.628.432 5.003-10.589 6.313-15.666 7.839-21.819 5.617-22.642-.695-28.128-2.83-30.029-29.832-26.571-120.874-108.733-128.253-115.577-10.017-9.29-28.416-4.536-29.233 4.861-.816 9.398-.899 12.315-1.306 17.985-.25 3.466-7.266 17.717-20.74 12.8-14.209-5.185-7.879-20.646-7.325-21.701 7.29-13.886 15.623-29.211 20.505-37.048 9.58-15.378 25.704-25.296 39.407-26.584 18.917-1.78 76.237-6.805 105.634-9.258 2.916-.243 5.556-.498 7.862-.65 7.843-.516 21.345 4.846 24.827 16.658 8.166 27.706 12.928 43.496 14.332 67.407 1.269 21.603 2.421 42.276 2.653 49.736.278 8.92 1.882 13.375 9.635 24.627.68.984 1.46 2.099 2.315 3.333 2.182 3.148 3.236 7.36-.247 16.434-3.793 9.88-9.554 20.467-9.145 29.812.546 12.475 4.325 13.683 9.363 19.66 10.017 11.882 7.186 25.707-4.62 32.755-4.323 2.58-8.564 4.969-12.364 7.211-9.437 5.57-13.513 9.501-18.29 19.28-12.957 26.518-83.893 152.682-99.075 173.203-12.588 17.013-38.433 10.532-43.659-6.643-1.42-4.666-16.26-30.392-20.577-34.403-10.234-9.505-16.766-16.417-20.25-21.17-3.42-4.668-7.676-9.398-13.882-17.337-2.815-3.6-6.621-5.117-10.615-.81-3.291 3.549-5.422 5.822-7.408 7.183-2.547 1.745-8.378 1.89-11.644-1.998-1.713-2.04-10.749-12.65-14.154-22.035-3.919-10.802-5.688-12.142 5.771-27.113 10.997-14.365 52.26-67.725 59.227-76.475 2.784-3.497 7.22-9.384 11.952-15.761z" /> <path style="fill: none; stroke: #000; stroke-width: 5; stroke-linejoin: round; stroke-dasharray: none; stroke-opacity: 1;" d="M187.132 258.577c2.83-3.815 6.413-9.565 13.577-10.593 13.554-1.944 21.828 1.404 35.111 3.348 16.012 2.344 24.823-.431 33.316-6.912 16.091-12.281 27.87-21.819 38.54-30.677 7.154-5.938 13.066-1.296 14.154 3.024 1.523 6.05 2.831 11.45 6.969 24.844 1.656 5.362 9.362 7.346 12.628.432 5.003-10.589 6.313-15.666 7.839-21.819 5.617-22.642-.695-28.128-2.83-30.029-29.832-26.571-120.874-108.733-128.253-115.577-10.017-9.29-28.416-4.536-29.233 4.861-.816 9.398-.899 12.315-1.306 17.985-.25 3.466-7.266 17.717-20.74 12.8-14.209-5.185-7.879-20.646-7.325-21.701 7.29-13.886 15.623-29.211 20.505-37.048 9.58-15.378 25.704-25.296 39.407-26.584 18.917-1.78 76.237-6.805 105.634-9.258 2.916-.243 5.556-.498 7.862-.65 7.843-.516 21.345 4.846 24.827 16.658 8.166 27.706 12.928 43.496 14.332 67.407 1.269 21.603 2.421 42.276 2.653 49.736.278 8.92 1.882 13.375 9.635 24.627.68.984 1.46 2.099 2.315 3.333 2.182 3.148 3.236 7.36-.247 16.434-3.793 9.88-9.554 20.467-9.145 29.812.546 12.475 4.325 13.683 9.363 19.66 10.017 11.882 7.186 25.707-4.62 32.755-4.323 2.58-8.564 4.969-12.364 7.211-9.437 5.57-13.513 9.501-18.29 19.28-12.957 26.518-83.893 152.682-99.075 173.203-12.588 17.013-38.433 10.532-43.659-6.643-1.42-4.666-16.26-30.392-20.577-34.403-10.234-9.505-16.766-16.417-20.25-21.17-3.42-4.668-7.676-9.398-13.882-17.337-2.815-3.6-6.621-5.117-10.615-.81-3.291 3.549-5.422 5.822-7.408 7.183-2.547 1.745-8.378 1.89-11.644-1.998-1.713-2.04-10.749-12.65-14.154-22.035-3.919-10.802-5.688-12.142 5.771-27.113 10.997-14.365 52.26-67.725 59.227-76.475 2.784-3.497 7.22-9.384 11.952-15.761z" /> </g>
    </g>
    <text
       xml:space="preserve"
       style="font-size:202.494px;writing-mode:lr-tb;direction:ltr;display:inline;fill:none;fill-opacity:1;stroke:#ee0000;stroke-width:14.7;stroke-dasharray:none;stroke-opacity:1"
       x="48.206333"
       y="403.4614"
       id="text8"
       inkscape:label="year"><tspan
         sodipodi:role="line"
         id="tspan8"
         style="font-style:normal;font-variant:normal;font-weight:normal;font-stretch:normal;font-size:202.494px;font-family:Formula1;-inkscape-font-specification:Formula1;fill:#000000;fill-opacity:1;stroke:#ffffff;stroke-width:14.7;stroke-dasharray:none;stroke-opacity:1"
         x="48.206333"
         y="403.4614">2026</tspan></text>
  </g>
</svg>
