<?xml version="1.0" encoding="UTF-8" standalone="no"?>
<!-- Created with Inkscape (http://www.inkscape.org/) -->

<svg
   width="720mm"
   height="405mm"
   viewBox="0 0 720 405"
   version="1.1"
   id="svg1"
   xml:space="preserve"
   inkscape:export-xdpi="45.18441"
   inkscape:export-ydpi="45.18441"
   inkscape:version="1.4.3 (0d15f75, 2025-12-25)"
   sodipodi:docname="template.svg"
   xmlns:inkscape="http://www.inkscape.org/namespaces/inkscape"
   xmlns:sodipodi="http://sodipodi.sourceforge.net/DTD/sodipodi-0.dtd"
   xmlns="http://www.w3.org/2000/svg"
   xmlns:svg="http://www.w3.org/2000/svg"><sodipodi:namedview
     id="namedview1"
     pagecolor="#ffffff"
     bordercolor="#111111"
     borderopacity="1"
     inkscape:showpageshadow="0"
     inkscape:pageopacity="0"
     inkscape:pagecheckerboard="1"
     inkscape:deskcolor="#d1d1d1"
     inkscape:document-units="mm"
     inkscape:zoom="0.25178368"
     inkscape:cx="1312.6347"
     inkscape:cy="969.08584"
     inkscape:window-width="1710"
     inkscape:window-height="1045"
     inkscape:window-x="0"
     inkscape:window-y="62"
     inkscape:window-maximized="0"
     inkscape:current-layer="layer1" /><defs
     id="defs1"><inkscape:path-effect
       effect="fillet_chamfer"
       id="path-effect3"
       is_visible="true"
       lpeversion="1"
       nodesatellites_param="F,0,0,1,0,0,0,1 @ F,0,0,1,0,45.967641,0,1 @ F,0,0,1,0,0,0,1"
       radius="0"
       unit="px"
       method="auto"
       mode="F"
       chamfer_steps="1"
       flexible="false"
       use_knot_distance="true"
       apply_no_radius="true"
       apply_with_radius="true"
       only_selected="false"
       hide_knots="false" /><path
       d="M101.086812,30 L101.711812,30 L101.711812,27.106875 L101.722437,27.106875 L102.761812,30 L103.302437,30 L104.341812,27.106875 L104.352437,27.106875 L104.352437,30 L104.977437,30 L104.977437,26.25125 L104.063687,26.25125 L103.055562,29.18625 L103.044937,29.18625 L102.011187,26.25125 L101.086812,26.25125 L101.086812,30 Z M97.6274375,26.818125 L98.8136875,26.818125 L98.8136875,30 L99.4699375,30 L99.4699375,26.818125 L100.661812,26.818125 L100.661812,26.25125 L97.6274375,26.25125 L97.6274375,26.818125 Z M89.9999375,30 L119.999937,0 L101.943687,0 L71.9443125,30 L89.9999375,30 Z M85.6986875,13.065 L49.3818125,13.065 C38.3136875,13.065 36.3768125,13.651875 31.6361875,18.3925 C27.2024375,22.82625 20.0005625,30 20.0005625,30 L35.7324375,30 L39.4855625,26.246875 C41.9530625,23.779375 43.2255625,23.52375 48.4068125,23.52375 L75.2405625,23.52375 L85.6986875,13.065 Z M31.1518125,16.253125 C27.8774375,19.3425 20.7530625,26.263125 16.9130625,30 L-6.25e-05,30 C-6.25e-05,30 13.5524375,16.486875 21.0849375,9.0725 C28.8455625,1.685 32.7143125,0 46.9486875,0 L98.7643125,0 L87.5449375,11.21875 L48.0011875,11.21875 C37.9993125,11.21875 35.7518125,11.911875 31.1518125,16.253125 Z"
       id="path-1" /></defs><g
     inkscape:label="Layer 1"
     inkscape:groupmode="layer"
     id="layer1"><rect
       style="opacity:1;fill:#15151e;stroke:none;stroke-width:0.459853"
       id="rect1"
       width="719.54016"
       height="404.54016"
       x="0.2299265"
       y="0.2299265"
       inkscape:export-filename="../png/template.png"
       inkscape:export-xdpi="45.18441"
       inkscape:export-ydpi="45.18441"
       inkscape:label="background" /><path
       d="M 549.98062,297.49087 739.9615,107.51 H 625.61677 L 435.63984,297.49087 Z M 522.74211,190.24667 H 292.75839 c -70.09107,0 -82.35671,3.7165 -112.37764,33.73744 -28.07759,28.07759 -73.68488,73.50676 -73.68488,73.50676 h 99.62519 l 23.76739,-23.7674 c 15.62593,-15.62592 23.68429,-17.24472 56.49556,-17.24472 h 169.92997 z m -345.42876,20.18942 c -20.73562,19.56408 -65.85212,63.39029 -90.16967,87.05478 H -19.962 c 0,0 85.82387,-85.57451 133.52489,-132.52749 C 162.70857,118.18059 187.20818,107.51 277.35015,107.51 h 328.13259 l -71.04889,71.04493 H 284.01531 c -63.33882,0 -77.57156,4.38935 -106.70196,31.88116 z"
       id="Fill-1-6"
       style="fill:#201f2c;fill-opacity:1;fill-rule:evenodd;stroke:none;stroke-width:6.3327"
       sodipodi:nodetypes="ccccccssccssccccccsccsc"
       inkscape:label="logo" /><text
       xml:space="preserve"
       style="font-style:normal;font-variant:normal;font-weight:normal;font-stretch:normal;font-size:31.75px;line-height:100%;font-family:Formula1;-inkscape-font-specification:Formula1;text-align:start;word-spacing:0px;writing-mode:lr-tb;direction:ltr;text-anchor:start;opacity:1;fill:#ee0000;fill-opacity:1;stroke:none;stroke-width:0.223;stroke-opacity:1"
       x="28.402561"
       y="46.197952"
       id="text2"
       inkscape:label="round"><tspan
         sodipodi:role="line"
         style="font-style:normal;font-variant:normal;font-weight:normal;font-stretch:normal;font-size:31.75px;font-family:Formula1;-inkscape-font-specification:Formula1;fill:#ee0000;fill-opacity:1;stroke-width:0.223"
         x="28.402561"
         y="46.197952"
         id="tspan1">ROUND 08</tspan></text><path
       style="opacity:1;fill:none;fill-opacity:1;stroke:#ee0000;stroke-width:7.83601;stroke-linecap:butt;stroke-linejoin:miter;stroke-dasharray:none;stroke-opacity:1"
       d="m 187.88728,39.21919 h 456.58523 a 45.967641,45.967641 45 0 1 45.96764,45.967641 V 413.1696"
       id="path3"
       sodipodi:nodetypes="ccc"
       inkscape:path-effect="#path-effect3"
       inkscape:original-d="M 187.88728,39.21919 H 690.44015 V 413.1696"
       transform="matrix(0.86982237,0,0,1.0007021,74.217474,3.230212)" /><g
       id="g10"
       transform="translate(1.3716371)"
       inkscape:label="info"><text
         xml:space="preserve"
         style="font-style:normal;font-variant:normal;font-weight:normal;font-stretch:normal;font-size:44.9794px;line-height:100%;font-family:Formula1;-inkscape-font-specification:Formula1;text-align:start;word-spacing:0px;writing-mode:lr-tb;direction:ltr;text-anchor:start;opacity:1;fill:#ffffff;fill-opacity:1;stroke:none;stroke-width:7.83604;stroke-linecap:butt;stroke-linejoin:miter;stroke-dasharray:none;stroke-opacity:1"
         x="205.8817"
         y="110.78199"
         id="text3"
         inkscape:label="location"><tspan
           sodipodi:role="line"
           id="tspan3"
           style="font-style:normal;font-variant:normal;font-weight:500;font-stretch:normal;font-size:44.9794px;font-family:Formula1;-inkscape-font-specification:'Formula1 Medium';stroke:none;stroke-width:7.83603"
           x="205.8817"
           y="110.78199">MONACO</tspan></text><text
         xml:space="preserve"
         style="font-style:normal;font-variant:normal;font-weight:500;font-stretch:normal;font-size:26.4583px;line-height:100%;font-family:Formula1;-inkscape-font-specification:'Formula1 Medium';text-align:start;word-spacing:0px;writing-mode:lr-tb;direction:ltr;text-anchor:start;opacity:1;fill:#ffffff;fill-opacity:1;stroke:none;stroke-width:7.83601;stroke-linecap:butt;stroke-linejoin:miter;stroke-dasharray:none;stroke-opacity:1"
         x="204.55881"
         y="147.57129"
         id="text4"
         inkscape:label="session"><tspan
           sodipodi:role="line"
           id="tspan4"
           style="font-style:normal;font-variant:normal;font-weight:normal;font-stretch:normal;font-size:26.4583px;font-family:Formula1;-inkscape-font-specification:Formula1;fill:#ee0000;fill-opacity:1;stroke-width:7.836"
           x="204.55881"
           y="147.57129">RACE</tspan></text></g><g
       id="g3"
       inkscape:label="track"><text
         xml:space="preserve"
         style="font-style:normal;font-variant:normal;font-weight:normal;font-stretch:normal;font-size:19.0503px;line-height:100%;font-family:Formula1;-inkscape-font-specification:Formula1;text-align:center;word-spacing:0px;writing-mode:lr-tb;direction:ltr;text-anchor:middle;opacity:1;fill:#ee0000;fill-opacity:1;stroke:none;stroke-width:7.83615;stroke-linecap:butt;stroke-linejoin:miter;stroke-dasharray:none;stroke-opacity:1"
         x="436.95758"
         y="385.74637"
         id="text5"
         inkscape:label="track-name"><tspan
           sodipodi:role="line"
           id="tspan5"
           style="font-size:19.0503px;stroke-width:7.83614"
           x="436.95758"
           y="385.74637">Circuit de Monaco</tspan></text><g inkscape:label="embedded-track" transform=" translate(226.7293267258807, 71.2408662480419) scale(0.7922114078129181) rotate(45, 250.08987740806816, 250.00204273325713) " > <path style="fill: none; stroke: #fff; stroke-width: 20; stroke-linejoin: round; stroke-dasharray: none; stroke-opacity: 1;" d="M118.34 246.687c-5.14.774-6.994 2.392-9.853 7.317-4.586 7.898-9.192 18.211-11.413 27.357-2.486 10.243-2.829 25.557-1.95 39.458.445 7.034 2.23 10.04 8.243 12.045 7.17 2.387 8.339 2.488 9.949 9.801 1.61 7.319 6.389 33.36 8.047 42.434 1.188 6.495 2.042 8.91-3.805 11.704-6.436 3.07-7.9 3.95-6.729 9.07 1.17 5.12 6.805 23.714 11.023 30.435 11.51 18.336 19.262 23.945 27.311 26.726 5.165 1.784 11.935 2.284 13.315 7.946 1.317 5.416 1.181 7.937-2.341 9.074-13.167 4.244-26.043 5.56-38.334 5.268-4.24-.102-4.829-.294-4.245-5.56.442-3.967.44-9.514-3.803-14.047-3.322-3.553-10.24-13.756-16.093-28.531-9.486-23.955-16.97-48.602-19.168-60.132-2.924-15.363-5.422-36.152-6.435-49.746-1.903-25.458-.928-45.988 3.217-55.89 5.267-12.585 6.437-17.12 5.999-21.07-.878-7.9-.355-10.97 4.242-12.437 14.192-4.535 27.36-4.242 37.456-5.852 10.094-1.609 27.134-4.495 33.651-6.439 8.34-2.486 23.423-7.227 36.577-9.363 11.704-1.903 21.801-3.073 32.774-8.34 6.195-2.974 21.8-11.119 28.384-13.169 6.585-2.046 18.713-4.606 25.75-6.143 8.048-1.759 17.221-3.118 23.994-4.534 9.32-1.953 25.118-13.113 27.46-27.898 2.535-15.996-2.563-24.582-12.876-33.749-7.022-6.243-11.658-11.657-12.68-15.461-1.987-7.38.472-12.368 3.803-16.97 4.974-6.877 50.625-68.034 53.99-72.277 3.366-4.244 6.436-3.658 9.95-.88 3.509 2.783 7.415 5.432 7.023 10.39-.438 5.56-.515 9.95 1.757 13.607 2.632 4.244 3.365 5.121 6.585 9.51 2.136 2.914 3.949 5.707 5.121 9.51 1.097 3.565 6.103 5.143 8.922 2.633 2.632-2.341 3.073-6.585-.876-9.51-1.636-1.211-3.58-2.506-5.269-5.12-2.926-4.537-5.415-7.9-7.168-10.681-1.389-2.204-3.13-11.026 2.778-12.73 8.632-2.487 19.607-5.853 25.31-7.608 2.719-.835 11.123-.146 11.123 8.34 0 8.485-.294 17.848-1.17 25.896-.394 3.597-3.482 47.7-22.192 77.593-23.132 36.952-62.28 63.471-70.912 68.28-19.604 10.923-39.682 17.952-46.525 19.703-12.584 3.218-28.287 4.485-42.725 6.437-3.529.476-5.299 3.87-5.074 5.463.586 4.098-.946 5.21-4.484 5.852-8.585 1.563-10.73 2.731-12.486-.388-1.8-3.2-3.085-2.424-7.805-1.759-15.215 2.147-86.663 12.827-97.344 14.435z" /> <path style="fill: none; stroke: #000; stroke-width: 5; stroke-linejoin: round; stroke-dasharray: none; stroke-opacity: 1;" d="M118.34 246.687c-5.14.774-6.994 2.392-9.853 7.317-4.586 7.898-9.192 18.211-11.413 27.357-2.486 10.243-2.829 25.557-1.95 39.458.445 7.034 2.23 10.04 8.243 12.045 7.17 2.387 8.339 2.488 9.949 9.801 1.61 7.319 6.389 33.36 8.047 42.434 1.188 6.495 2.042 8.91-3.805 11.704-6.436 3.07-7.9 3.95-6.729 9.07 1.17 5.12 6.805 23.714 11.023 30.435 11.51 18.336 19.262 23.945 27.311 26.726 5.165 1.784 11.935 2.284 13.315 7.946 1.317 5.416 1.181 7.937-2.341 9.074-13.167 4.244-26.043 5.56-38.334 5.268-4.24-.102-4.829-.294-4.245-5.56.442-3.967.44-9.514-3.803-14.047-3.322-3.553-10.24-13.756-16.093-28.531-9.486-23.955-16.97-48.602-19.168-60.132-2.924-15.363-5.422-36.152-6.435-49.746-1.903-25.458-.928-45.988 3.217-55.89 5.267-12.585 6.437-17.12 5.999-21.07-.878-7.9-.355-10.97 4.242-12.437 14.192-4.535 27.36-4.242 37.456-5.852 10.094-1.609 27.134-4.495 33.651-6.439 8.34-2.486 23.423-7.227 36.577-9.363 11.704-1.903 21.801-3.073 32.774-8.34 6.195-2.974 21.8-11.119 28.384-13.169 6.585-2.046 18.713-4.606 25.75-6.143 8.048-1.759 17.221-3.118 23.994-4.534 9.32-1.953 25.118-13.113 27.46-27.898 2.535-15.996-2.563-24.582-12.876-33.749-7.022-6.243-11.658-11.657-12.68-15.461-1.987-7.38.472-12.368 3.803-16.97 4.974-6.877 50.625-68.034 53.99-72.277 3.366-4.244 6.436-3.658 9.95-.88 3.509 2.783 7.415 5.432 7.023 10.39-.438 5.56-.515 9.95 1.757 13.607 2.632 4.244 3.365 5.121 6.585 9.51 2.136 2.914 3.949 5.707 5.121 9.51 1.097 3.565 6.103 5.143 8.922 2.633 2.632-2.341 3.073-6.585-.876-9.51-1.636-1.211-3.58-2.506-5.269-5.12-2.926-4.537-5.415-7.9-7.168-10.681-1.389-2.204-3.13-11.026 2.778-12.73 8.632-2.487 19.607-5.853 25.31-7.608 2.719-.835 11.123-.146 11.123 8.34 0 8.485-.294 17.848-1.17 25.896-.394 3.597-3.482 47.7-22.192 77.593-23.132 36.952-62.28 63.471-70.912 68.28-19.604 10.923-39.682 17.952-46.525 19.703-12.584 3.218-28.287 4.485-42.725 6.437-3.529.476-5.299 3.87-5.074 5.463.586 4.098-.946 5.21-4.484 5.852-8.585 1.563-10.73 2.731-12.486-.388-1.8-3.2-3.085-2.424-7.805-1.759-15.215 2.147-86.663 12.827-97.344 14.435z" /> </g></g><g
       id="g8"
       inkscape:label="date"
       transform="translate(26.39625,4.4877724)"><text
         xml:space="preserve"
         style="font-style:normal;font-variant:normal;font-weight:normal;font-stretch:normal;font-size:38.1px;line-height:100%;font-family:Formula1;-inkscape-font-specification:Formula1;text-align:center;word-spacing:0px;writing-mode:lr-tb;direction:ltr;text-anchor:middle;opacity:1;fill:#ee0000;fill-opacity:1;stroke:none;stroke-width:7.83601;stroke-linecap:butt;stroke-linejoin:miter;stroke-dasharray:none;stroke-opacity:1"
         x="73.904526"
         y="296.20868"
         id="text6"
         inkscape:label="day"><tspan
           sodipodi:role="line"
           id="tspan6"
           style="font-style:normal;font-variant:normal;font-weight:500;font-stretch:normal;font-size:38.1px;font-family:Formula1;-inkscape-font-specification:'Formula1 Medium';fill:#ffffff;fill-opacity:1;stroke-width:7.836"
           x="73.904526"
           y="296.20868">07</tspan></text><g
         id="g7"
         inkscape:label="month"><rect
           style="opacity:1;fill:#ffffff;fill-opacity:1;stroke:none;stroke-width:7.83601;stroke-linecap:butt;stroke-linejoin:miter;stroke-dasharray:none;stroke-opacity:1"
           id="rect7"
           width="135.10905"
           height="57.764015"
           x="10.769562"
           y="306.44302"
           ry="23.007711" /><text
           xml:space="preserve"
           style="font-style:normal;font-variant:normal;font-weight:500;font-stretch:normal;font-size:38.1px;line-height:100%;font-family:Formula1;-inkscape-font-specification:'Formula1 Medium';text-align:center;word-spacing:0px;writing-mode:lr-tb;direction:ltr;text-anchor:middle;opacity:1;fill:#15151e;fill-opacity:1;stroke:none;stroke-width:7.83601;stroke-linecap:butt;stroke-linejoin:miter;stroke-dasharray:none;stroke-opacity:1"
           x="76.800072"
           y="349.61252"
           id="text7"
           inkscape:label="month"><tspan
             sodipodi:role="line"
             id="tspan7"
             style="fill:#15151e;fill-opacity:1;stroke-width:7.836"
             x="76.800072"
             y="349.61252">JUN</tspan></text></g></g><g transform="translate(71.964256, 72.019316) scale(0.15632884375)" inkscape:label="flag"><mask id="a"><circle cx="256" cy="256" r="256" fill="#fff"/></mask><g mask="url(#a)"><path fill="#eee" d="m0 256 258.2-43.3L512 256v256H0z"/><path fill="#a2001d" d="M0 0h512v256H0z"/></g></g></g></svg>
