<?xml version="1.0" encoding="UTF-8" standalone="no"?>
<!-- Created with Inkscape (http://www.inkscape.org/) -->

<svg
   width="680mm"
   height="1000mm"
   viewBox="0 0 680 1000"
   version="1.1"
   id="svg1"
   inkscape:version="1.4.3 (0d15f75, 2025-12-25)"
   sodipodi:docname="template.svg"
   xmlns:inkscape="http://www.inkscape.org/namespaces/inkscape"
   xmlns:sodipodi="http://sodipodi.sourceforge.net/DTD/sodipodi-0.dtd"
   xmlns="http://www.w3.org/2000/svg"
   xmlns:svg="http://www.w3.org/2000/svg">
  <sodipodi:namedview
     id="namedview1"
     pagecolor="#505050"
     bordercolor="#eeeeee"
     borderopacity="1"
     inkscape:showpageshadow="0"
     inkscape:pageopacity="0"
     inkscape:pagecheckerboard="0"
     inkscape:deskcolor="#505050"
     inkscape:document-units="mm"
     inkscape:zoom="0.15208656"
     inkscape:cx="706.83434"
     inkscape:cy="2406.5243"
     inkscape:window-width="1710"
     inkscape:window-height="1045"
     inkscape:window-x="0"
     inkscape:window-y="62"
     inkscape:window-maximized="0"
     inkscape:current-layer="layer1" />
  <defs
     id="defs1">
    <inkscape:path-effect
       effect="fillet_chamfer"
       id="path-effect4"
       is_visible="true"
       lpeversion="1"
       nodesatellites_param="F,0,0,1,0,0,0,1 @ F,0,0,1,0,75,0,1 @ F,0,0,1,0,75,0,1 @ F,0,0,1,0,0,0,1"
       radius="0"
       unit="px"
       method="auto"
       mode="F"
       chamfer_steps="1"
       flexible="false"
       use_knot_distance="true"
       apply_no_radius="true"
       apply_with_radius="true"
       only_selected="false"
       hide_knots="false" />
    <inkscape:path-effect
       effect="fillet_chamfer"
       id="path-effect2"
       is_visible="true"
       lpeversion="1"
       nodesatellites_param="F,0,0,1,0,0,0,1 @ F,0,0,1,0,0,0,1 @ F,0,0,1,0,0,0,1 @ F,0,0,1,0,0,0,1"
       radius="0"
       unit="px"
       method="auto"
       mode="F"
       chamfer_steps="1"
       flexible="false"
       use_knot_distance="true"
       apply_no_radius="true"
       apply_with_radius="true"
       only_selected="false"
       hide_knots="false" />
    <inkscape:path-effect
       effect="fillet_chamfer"
       id="path-effect3"
       is_visible="true"
       lpeversion="1"
       nodesatellites_param="F,0,0,1,0,0,0,1 @ F,0,0,1,0,45.967641,0,1 @ F,0,0,1,0,0,0,1"
       radius="0"
       unit="px"
       method="auto"
       mode="F"
       chamfer_steps="1"
       flexible="false"
       use_knot_distance="true"
       apply_no_radius="true"
       apply_with_radius="true"
       only_selected="false"
       hide_knots="false" />
  </defs>
  <g
     inkscape:label="Layer 1"
     inkscape:groupmode="layer"
     id="layer1">
    <rect
       style="fill:#15151e;fill-opacity:1;stroke-width:0.653077"
       id="rect1"
       width="680"
       height="1000"
       x="-1.4210855e-14"
       y="0"
       ry="2.0972002"
       inkscape:label="background"
       sodipodi:insensitive="true" />
    <path
       d="M 89.999938,30 119.99994,0 H 101.94369 L 71.944312,30 Z M 85.698688,13.065 H 49.381813 c -11.068126,0 -13.005001,0.586875 -17.745626,5.3275 C 27.202437,22.82625 20.000562,30 20.000562,30 h 15.731876 l 3.753124,-3.753125 c 2.467501,-2.4675 3.740001,-2.723125 8.92125,-2.723125 h 26.83375 z M 31.151812,16.253125 C 27.877437,19.3425 20.753062,26.263125 16.913062,30 H -6.25e-5 c 0,0 13.5525005,-13.513125 21.0849995,-20.9275 C 28.845562,1.685 32.714312,0 46.948687,0 H 98.764313 L 87.544938,11.21875 H 48.001187 c -10.001874,0 -12.249375,0.693125 -16.849375,5.034375 z"
       id="Fill-1"
       style="fill:#201f2c;fill-rule:evenodd;stroke:none;stroke-width:1;fill-opacity:1"
       sodipodi:nodetypes="ccccccssccssccccccsccsc"
       inkscape:label="logo"
       transform="matrix(6.3326957,0,0,6.3326957,-39.961349,401.1145)" />
    <text
       xml:space="preserve"
       style="font-style:normal;font-variant:normal;font-weight:normal;font-stretch:normal;font-size:50.8px;line-height:100%;font-family:Formula1;-inkscape-font-specification:Formula1;text-align:start;word-spacing:0px;writing-mode:lr-tb;direction:ltr;text-anchor:start;opacity:1;fill:#ee0000;fill-opacity:1;stroke:none;stroke-width:0.223;stroke-opacity:1"
       x="21.697973"
       y="63.709557"
       id="text2"
       inkscape:label="round"><tspan
         sodipodi:role="line"
         style="font-style:normal;font-variant:normal;font-weight:normal;font-stretch:normal;font-size:50.8px;font-family:Formula1;-inkscape-font-specification:Formula1;fill:#ee0000;fill-opacity:1;stroke-width:0.223"
         x="21.697973"
         y="63.709557"
         id="tspan1">ROUND 17</tspan></text>
    <path
       style="display:inline;fill:none;fill-opacity:1;stroke:#ee0000;stroke-width:15;stroke-dasharray:none;stroke-opacity:1"
       d="M 352.06858,56.213936 H 580 a 75,75 45 0 1 75,75.000004 V 900 a 75,75 135 0 1 -75,75 H 0"
       id="path1"
       sodipodi:nodetypes="cccc"
       inkscape:path-effect="#path-effect4"
       inkscape:original-d="M 352.06858,56.213936 H 655 V 975 H 0" />
    <g
       id="g10"
       transform="translate(-61.769566,39.315292)"
       inkscape:label="info"
       style="display:inline">
      <g
         id="g9"
         transform="translate(0,-0.2293034)">
        
        <text
           xml:space="preserve"
           style="font-style:normal;font-variant:normal;font-weight:normal;font-stretch:normal;font-size:50.9309px;line-height:100%;font-family:Formula1;-inkscape-font-specification:Formula1;text-align:start;word-spacing:0px;writing-mode:lr-tb;direction:ltr;text-anchor:start;opacity:1;fill:#ffffff;fill-opacity:1;stroke:none;stroke-width:7.83601;stroke-linecap:butt;stroke-linejoin:miter;stroke-dasharray:none;stroke-opacity:1"
           x="206.93063"
           y="110.78185"
           id="text3"
           inkscape:label="location"><tspan
             sodipodi:role="line"
             id="tspan3"
             style="font-style:normal;font-variant:normal;font-weight:normal;font-stretch:normal;font-size:50.9309px;font-family:Formula1;-inkscape-font-specification:Formula1;stroke:none;stroke-width:7.836"
             x="206.93063"
             y="110.78185">UNITED STATES</tspan></text>
        <text
           xml:space="preserve"
           style="font-style:normal;font-variant:normal;font-weight:normal;font-stretch:normal;font-size:35.2778px;line-height:100%;font-family:Formula1;-inkscape-font-specification:Formula1;text-align:start;word-spacing:0px;writing-mode:lr-tb;direction:ltr;text-anchor:start;opacity:1;fill:#ffffff;fill-opacity:1;stroke:none;stroke-width:7.83601;stroke-linecap:butt;stroke-linejoin:miter;stroke-dasharray:none;stroke-opacity:1"
           x="205.16676"
           y="151.7265"
           id="text4"
           inkscape:label="session"><tspan
             sodipodi:role="line"
             id="tspan4"
             style="font-style:normal;font-variant:normal;font-weight:normal;font-stretch:normal;font-size:35.2778px;font-family:Formula1;-inkscape-font-specification:Formula1;fill:#ee0000;fill-opacity:1;stroke-width:7.836"
             x="205.16676"
             y="151.7265">RACE</tspan></text>
      </g>
      <g transform="translate(86.769573, 60.684713) scale(0.19690717578125)" inkscape:label="flag"><mask id="a"><circle cx="256" cy="256" r="256" fill="#fff"/></mask><g mask="url(#a)"><path fill="#eee" d="M256 0h256v64l-32 32 32 32v64l-32 32 32 32v64l-32 32 32 32v64l-256 32L0 448v-64l32-32-32-32v-64z"/><path fill="#d80027" d="M224 64h288v64H224Zm0 128h288v64H256ZM0 320h512v64H0Zm0 128h512v64H0Z"/><path fill="#0052b4" d="M0 0h256v256H0Z"/><path fill="#eee" d="m187 243 57-41h-70l57 41-22-67zm-81 0 57-41H93l57 41-22-67zm-81 0 57-41H12l57 41-22-67zm162-81 57-41h-70l57 41-22-67zm-81 0 57-41H93l57 41-22-67zm-81 0 57-41H12l57 41-22-67Zm162-82 57-41h-70l57 41-22-67Zm-81 0 57-41H93l57 41-22-67zm-81 0 57-41H12l57 41-22-67Z"/></g></g>
    </g>
    <g
       id="g8"
       inkscape:label="date"
       transform="translate(308.90368,536.87111)"
       style="display:inline">
      <text
         xml:space="preserve"
         style="font-style:normal;font-variant:normal;font-weight:normal;font-stretch:normal;font-size:88.1944px;line-height:100%;font-family:Formula1;-inkscape-font-specification:Formula1;text-align:center;word-spacing:0px;writing-mode:lr-tb;direction:ltr;text-anchor:middle;display:inline;opacity:1;fill:#ee0000;fill-opacity:1;stroke:none;stroke-width:7.83601;stroke-linecap:butt;stroke-linejoin:miter;stroke-dasharray:none;stroke-opacity:1"
         x="-122.88599"
         y="362.8576"
         id="text6"
         inkscape:label="day"><tspan
           sodipodi:role="line"
           id="tspan6"
           style="font-style:normal;font-variant:normal;font-weight:normal;font-stretch:normal;font-size:88.1944px;font-family:Formula1;-inkscape-font-specification:Formula1;fill:#ffffff;fill-opacity:1;stroke-width:7.836"
           x="-122.88599"
           y="362.8576">25</tspan></text>
      <g
         id="g7"
         inkscape:label="month"
         transform="translate(34.626847,5.5402955)"
         style="display:inline">
        <rect
           style="display:inline;opacity:1;fill:#ffffff;fill-opacity:1;stroke:none;stroke-width:16.1904;stroke-linecap:butt;stroke-linejoin:miter;stroke-dasharray:none;stroke-opacity:1"
           id="rect7"
           width="279.15674"
           height="119.34962"
           x="-59.869205"
           y="264.56961"
           ry="47.537582" />
        <text
           xml:space="preserve"
           style="font-style:normal;font-variant:normal;font-weight:normal;font-stretch:normal;font-size:88.1944px;line-height:100%;font-family:Formula1;-inkscape-font-specification:Formula1;text-align:center;word-spacing:0px;writing-mode:lr-tb;direction:ltr;text-anchor:middle;display:inline;opacity:1;fill:#15151e;fill-opacity:1;stroke:none;stroke-width:7.83601;stroke-linecap:butt;stroke-linejoin:miter;stroke-dasharray:none;stroke-opacity:1"
           x="78.165771"
           y="357.31732"
           id="text7"
           inkscape:label="month"><tspan
             sodipodi:role="line"
             id="tspan7"
             style="font-style:normal;font-variant:normal;font-weight:normal;font-stretch:normal;font-size:88.1944px;font-family:Formula1;-inkscape-font-specification:Formula1;fill:#15151e;fill-opacity:1;stroke-width:7.836"
             x="78.165771"
             y="357.31732">OCT</tspan></text>
      </g>
    </g>
    <g
       id="g3"
       inkscape:label="track"
       transform="matrix(1.2571293,0,0,1.2571293,-208.71205,272.34527)"
       style="display:inline">
      
      <text
         xml:space="preserve"
         style="font-style:normal;font-variant:normal;font-weight:normal;font-stretch:normal;font-size:25.8172px;line-height:100%;font-family:Formula1;-inkscape-font-specification:Formula1;text-align:center;word-spacing:0px;writing-mode:lr-tb;direction:ltr;text-anchor:middle;display:inline;opacity:1;fill:#ee0000;fill-opacity:1;stroke:none;stroke-width:7.83601;stroke-linecap:butt;stroke-linejoin:miter;stroke-dasharray:none;stroke-opacity:1"
         x="436.95645"
         y="394.58563"
         id="text5"
         inkscape:label="track-name"><tspan
           sodipodi:role="line"
           id="tspan5"
           style="font-style:normal;font-variant:normal;font-weight:normal;font-stretch:normal;font-size:25.8172px;font-family:Formula1;-inkscape-font-specification:Formula1;stroke-width:7.836"
           x="436.95645"
           y="394.58563">Circuit of the Americas</tspan></text>
      <g inkscape:label="embedded-track" transform=" translate(259.6878577214412, 60.1005728191665) scale(0.6706955224579944) rotate(26, 250.01081660007844, 250.08964646645884) " > <path style="fill: none; stroke: #fff; stroke-width: 20; stroke-linejoin: round; stroke-dasharray: none; stroke-opacity: 1;" d="M463.201 42.551c-3.095-4.166-9.585-4.959-13.542-1.491-105.774 92.51-189.942 140.467-271.342 186.844l-1.43.818a8.786 8.786 0 0 0-4.448 7.319 8.868 8.868 0 0 0 3.861 7.726c10.004 6.86 18.037 11.893 24.491 15.937 9.44 5.913 15.39 9.643 19.06 13.81l-12.113 5.437c-1.335.598-2.524.903-3.537.903-1.238 0-2.939-.402-5.131-3.54l-4.563-6.535a13.107 13.107 0 0 0-5.448-4.483l-11.76-5.206a13.065 13.065 0 0 0-9.396-.459l-11.38 3.769c-3.1 1.023-5.339 3.555-5.99 6.772a9.12 9.12 0 0 0 2.897 8.64c6.81 5.996 14.065 10.876 21.083 15.595 7.814 5.256 15.205 10.224 20.324 15.78 1.003 1.77 5.673 10.775 4.745 22.995a9.66 9.66 0 0 1-2.139 5.317c-3.422 4.198-9.976 11.888-15.405 16.219a9.094 9.094 0 0 1-3.476 1.72c-2.734.69-8.336 1.847-15.156 1.847-3.105 0-6.165-.238-9.102-.709-.999-.161-2.029-.56-3.066-1.183l-47.373-28.484c-5.617-3.377-13.355-2.265-17.802 2.544l-48.214 52.06a10.688 10.688 0 0 0-2.47 10.18c1 3.624 3.746 6.404 7.344 7.44l211.465 60.794c.8.23 1.623.349 2.44.349h.004c3.202 0 6.146-1.782 7.68-4.652 1.537-2.871 1.379-6.22-.42-8.954-4.86-7.388-12.923-18.609-23.722-30.107-15.686-16.704-17.69-29.534-6.913-44.286 8.675-11.876 21.268-28.367 28.003-37.141a19.362 19.362 0 0 0 4.016-11.282l.466-15.142a19.583 19.583 0 0 1 6.562-14.018l.715-.63c7.37-6.527 10.504-16.54 8.18-26.134l-3.371-13.905c-.474-1.951-.171-4.007.844-5.789 2.62-4.578 8.053-13.095 15.02-18.7 1.572-1.26 3.69-1.957 5.968-1.957l26.805 1.295.957.022c8.28 0 15.724-5.263 18.53-13.093l8.343-23.295c1.584-4.427 5.797-7.398 10.481-7.398 1.941 0 3.789.498 5.5 1.482l7.665 4.404c3.18 1.826 7.308 1.64 10.303-.463l40.179-28.161a14.041 14.041 0 0 0 5.38-7.511L464.63 50.736c.84-2.853.317-5.836-1.428-8.185z" /> <path style="fill: none; stroke: #000; stroke-width: 5; stroke-linejoin: round; stroke-dasharray: none; stroke-opacity: 1;" d="M463.201 42.551c-3.095-4.166-9.585-4.959-13.542-1.491-105.774 92.51-189.942 140.467-271.342 186.844l-1.43.818a8.786 8.786 0 0 0-4.448 7.319 8.868 8.868 0 0 0 3.861 7.726c10.004 6.86 18.037 11.893 24.491 15.937 9.44 5.913 15.39 9.643 19.06 13.81l-12.113 5.437c-1.335.598-2.524.903-3.537.903-1.238 0-2.939-.402-5.131-3.54l-4.563-6.535a13.107 13.107 0 0 0-5.448-4.483l-11.76-5.206a13.065 13.065 0 0 0-9.396-.459l-11.38 3.769c-3.1 1.023-5.339 3.555-5.99 6.772a9.12 9.12 0 0 0 2.897 8.64c6.81 5.996 14.065 10.876 21.083 15.595 7.814 5.256 15.205 10.224 20.324 15.78 1.003 1.77 5.673 10.775 4.745 22.995a9.66 9.66 0 0 1-2.139 5.317c-3.422 4.198-9.976 11.888-15.405 16.219a9.094 9.094 0 0 1-3.476 1.72c-2.734.69-8.336 1.847-15.156 1.847-3.105 0-6.165-.238-9.102-.709-.999-.161-2.029-.56-3.066-1.183l-47.373-28.484c-5.617-3.377-13.355-2.265-17.802 2.544l-48.214 52.06a10.688 10.688 0 0 0-2.47 10.18c1 3.624 3.746 6.404 7.344 7.44l211.465 60.794c.8.23 1.623.349 2.44.349h.004c3.202 0 6.146-1.782 7.68-4.652 1.537-2.871 1.379-6.22-.42-8.954-4.86-7.388-12.923-18.609-23.722-30.107-15.686-16.704-17.69-29.534-6.913-44.286 8.675-11.876 21.268-28.367 28.003-37.141a19.362 19.362 0 0 0 4.016-11.282l.466-15.142a19.583 19.583 0 0 1 6.562-14.018l.715-.63c7.37-6.527 10.504-16.54 8.18-26.134l-3.371-13.905c-.474-1.951-.171-4.007.844-5.789 2.62-4.578 8.053-13.095 15.02-18.7 1.572-1.26 3.69-1.957 5.968-1.957l26.805 1.295.957.022c8.28 0 15.724-5.263 18.53-13.093l8.343-23.295c1.584-4.427 5.797-7.398 10.481-7.398 1.941 0 3.789.498 5.5 1.482l7.665 4.404c3.18 1.826 7.308 1.64 10.303-.463l40.179-28.161a14.041 14.041 0 0 0 5.38-7.511L464.63 50.736c.84-2.853.317-5.836-1.428-8.185z" /> </g>
    </g>
    <text
       xml:space="preserve"
       style="font-size:202.494px;writing-mode:lr-tb;direction:ltr;display:inline;fill:none;fill-opacity:1;stroke:#ee0000;stroke-width:14.7;stroke-dasharray:none;stroke-opacity:1"
       x="48.206333"
       y="403.4614"
       id="text8"
       inkscape:label="year"><tspan
         sodipodi:role="line"
         id="tspan8"
         style="font-style:normal;font-variant:normal;font-weight:normal;font-stretch:normal;font-size:202.494px;font-family:Formula1;-inkscape-font-specification:Formula1;fill:#000000;fill-opacity:1;stroke:#ffffff;stroke-width:14.7;stroke-dasharray:none;stroke-opacity:1"
         x="48.206333"
         y="403.4614">2026</tspan></text>
  </g>
</svg>
