<?xml version="1.0" encoding="UTF-8" standalone="no"?>
<!-- Created with Inkscape (http://www.inkscape.org/) -->

<svg
   width="720mm"
   height="405mm"
   viewBox="0 0 720 405"
   version="1.1"
   id="svg1"
   xml:space="preserve"
   inkscape:export-xdpi="45.18441"
   inkscape:export-ydpi="45.18441"
   inkscape:version="1.4.3 (0d15f75, 2025-12-25)"
   sodipodi:docname="template.svg"
   xmlns:inkscape="http://www.inkscape.org/namespaces/inkscape"
   xmlns:sodipodi="http://sodipodi.sourceforge.net/DTD/sodipodi-0.dtd"
   xmlns="http://www.w3.org/2000/svg"
   xmlns:svg="http://www.w3.org/2000/svg"><sodipodi:namedview
     id="namedview1"
     pagecolor="#ffffff"
     bordercolor="#111111"
     borderopacity="1"
     inkscape:showpageshadow="0"
     inkscape:pageopacity="0"
     inkscape:pagecheckerboard="1"
     inkscape:deskcolor="#d1d1d1"
     inkscape:document-units="mm"
     inkscape:zoom="0.25178368"
     inkscape:cx="1312.6347"
     inkscape:cy="969.08584"
     inkscape:window-width="1710"
     inkscape:window-height="1045"
     inkscape:window-x="0"
     inkscape:window-y="62"
     inkscape:window-maximized="0"
     inkscape:current-layer="layer1" /><defs
     id="defs1"><inkscape:path-effect
       effect="fillet_chamfer"
       id="path-effect3"
       is_visible="true"
       lpeversion="1"
       nodesatellites_param="F,0,0,1,0,0,0,1 @ F,0,0,1,0,45.967641,0,1 @ F,0,0,1,0,0,0,1"
       radius="0"
       unit="px"
       method="auto"
       mode="F"
       chamfer_steps="1"
       flexible="false"
       use_knot_distance="true"
       apply_no_radius="true"
       apply_with_radius="true"
       only_selected="false"
       hide_knots="false" /><path
       d="M101.086812,30 L101.711812,30 L101.711812,27.106875 L101.722437,27.106875 L102.761812,30 L103.302437,30 L104.341812,27.106875 L104.352437,27.106875 L104.352437,30 L104.977437,30 L104.977437,26.25125 L104.063687,26.25125 L103.055562,29.18625 L103.044937,29.18625 L102.011187,26.25125 L101.086812,26.25125 L101.086812,30 Z M97.6274375,26.818125 L98.8136875,26.818125 L98.8136875,30 L99.4699375,30 L99.4699375,26.818125 L100.661812,26.818125 L100.661812,26.25125 L97.6274375,26.25125 L97.6274375,26.818125 Z M89.9999375,30 L119.999937,0 L101.943687,0 L71.9443125,30 L89.9999375,30 Z M85.6986875,13.065 L49.3818125,13.065 C38.3136875,13.065 36.3768125,13.651875 31.6361875,18.3925 C27.2024375,22.82625 20.0005625,30 20.0005625,30 L35.7324375,30 L39.4855625,26.246875 C41.9530625,23.779375 43.2255625,23.52375 48.4068125,23.52375 L75.2405625,23.52375 L85.6986875,13.065 Z M31.1518125,16.253125 C27.8774375,19.3425 20.7530625,26.263125 16.9130625,30 L-6.25e-05,30 C-6.25e-05,30 13.5524375,16.486875 21.0849375,9.0725 C28.8455625,1.685 32.7143125,0 46.9486875,0 L98.7643125,0 L87.5449375,11.21875 L48.0011875,11.21875 C37.9993125,11.21875 35.7518125,11.911875 31.1518125,16.253125 Z"
       id="path-1" /></defs><g
     inkscape:label="Layer 1"
     inkscape:groupmode="layer"
     id="layer1"><rect
       style="opacity:1;fill:#15151e;stroke:none;stroke-width:0.459853"
       id="rect1"
       width="719.54016"
       height="404.54016"
       x="0.2299265"
       y="0.2299265"
       inkscape:export-filename="../png/template.png"
       inkscape:export-xdpi="45.18441"
       inkscape:export-ydpi="45.18441"
       inkscape:label="background" /><path
       d="M 549.98062,297.49087 739.9615,107.51 H 625.61677 L 435.63984,297.49087 Z M 522.74211,190.24667 H 292.75839 c -70.09107,0 -82.35671,3.7165 -112.37764,33.73744 -28.07759,28.07759 -73.68488,73.50676 -73.68488,73.50676 h 99.62519 l 23.76739,-23.7674 c 15.62593,-15.62592 23.68429,-17.24472 56.49556,-17.24472 h 169.92997 z m -345.42876,20.18942 c -20.73562,19.56408 -65.85212,63.39029 -90.16967,87.05478 H -19.962 c 0,0 85.82387,-85.57451 133.52489,-132.52749 C 162.70857,118.18059 187.20818,107.51 277.35015,107.51 h 328.13259 l -71.04889,71.04493 H 284.01531 c -63.33882,0 -77.57156,4.38935 -106.70196,31.88116 z"
       id="Fill-1-6"
       style="fill:#201f2c;fill-opacity:1;fill-rule:evenodd;stroke:none;stroke-width:6.3327"
       sodipodi:nodetypes="ccccccssccssccccccsccsc"
       inkscape:label="logo" /><text
       xml:space="preserve"
       style="font-style:normal;font-variant:normal;font-weight:normal;font-stretch:normal;font-size:31.75px;line-height:100%;font-family:Formula1;-inkscape-font-specification:Formula1;text-align:start;word-spacing:0px;writing-mode:lr-tb;direction:ltr;text-anchor:start;opacity:1;fill:#ee0000;fill-opacity:1;stroke:none;stroke-width:0.223;stroke-opacity:1"
       x="28.402561"
       y="46.197952"
       id="text2"
       inkscape:label="round"><tspan
         sodipodi:role="line"
         style="font-style:normal;font-variant:normal;font-weight:normal;font-stretch:normal;font-size:31.75px;font-family:Formula1;-inkscape-font-specification:Formula1;fill:#ee0000;fill-opacity:1;stroke-width:0.223"
         x="28.402561"
         y="46.197952"
         id="tspan1">ROUND 04</tspan></text><path
       style="opacity:1;fill:none;fill-opacity:1;stroke:#ee0000;stroke-width:7.83601;stroke-linecap:butt;stroke-linejoin:miter;stroke-dasharray:none;stroke-opacity:1"
       d="m 187.88728,39.21919 h 456.58523 a 45.967641,45.967641 45 0 1 45.96764,45.967641 V 413.1696"
       id="path3"
       sodipodi:nodetypes="ccc"
       inkscape:path-effect="#path-effect3"
       inkscape:original-d="M 187.88728,39.21919 H 690.44015 V 413.1696"
       transform="matrix(0.86982237,0,0,1.0007021,74.217474,3.230212)" /><g
       id="g10"
       transform="translate(1.3716371)"
       inkscape:label="info"><text
         xml:space="preserve"
         style="font-style:normal;font-variant:normal;font-weight:normal;font-stretch:normal;font-size:44.9794px;line-height:100%;font-family:Formula1;-inkscape-font-specification:Formula1;text-align:start;word-spacing:0px;writing-mode:lr-tb;direction:ltr;text-anchor:start;opacity:1;fill:#ffffff;fill-opacity:1;stroke:none;stroke-width:7.83604;stroke-linecap:butt;stroke-linejoin:miter;stroke-dasharray:none;stroke-opacity:1"
         x="205.8817"
         y="110.78199"
         id="text3"
         inkscape:label="location"><tspan
           sodipodi:role="line"
           id="tspan3"
           style="font-style:normal;font-variant:normal;font-weight:500;font-stretch:normal;font-size:44.9794px;font-family:Formula1;-inkscape-font-specification:'Formula1 Medium';stroke:none;stroke-width:7.83603"
           x="205.8817"
           y="110.78199">MIAMI</tspan></text><text
         xml:space="preserve"
         style="font-style:normal;font-variant:normal;font-weight:500;font-stretch:normal;font-size:26.4583px;line-height:100%;font-family:Formula1;-inkscape-font-specification:'Formula1 Medium';text-align:start;word-spacing:0px;writing-mode:lr-tb;direction:ltr;text-anchor:start;opacity:1;fill:#ffffff;fill-opacity:1;stroke:none;stroke-width:7.83601;stroke-linecap:butt;stroke-linejoin:miter;stroke-dasharray:none;stroke-opacity:1"
         x="204.55881"
         y="147.57129"
         id="text4"
         inkscape:label="session"><tspan
           sodipodi:role="line"
           id="tspan4"
           style="font-style:normal;font-variant:normal;font-weight:normal;font-stretch:normal;font-size:26.4583px;font-family:Formula1;-inkscape-font-specification:Formula1;fill:#ee0000;fill-opacity:1;stroke-width:7.836"
           x="204.55881"
           y="147.57129">RACE</tspan></text></g><g
       id="g3"
       inkscape:label="track"><text
         xml:space="preserve"
         style="font-style:normal;font-variant:normal;font-weight:normal;font-stretch:normal;font-size:19.0503px;line-height:100%;font-family:Formula1;-inkscape-font-specification:Formula1;text-align:center;word-spacing:0px;writing-mode:lr-tb;direction:ltr;text-anchor:middle;opacity:1;fill:#ee0000;fill-opacity:1;stroke:none;stroke-width:7.83615;stroke-linecap:butt;stroke-linejoin:miter;stroke-dasharray:none;stroke-opacity:1"
         x="436.95758"
         y="385.74637"
         id="text5"
         inkscape:label="track-name"><tspan
           sodipodi:role="line"
           id="tspan5"
           style="font-size:19.0503px;stroke-width:7.83614"
           x="436.95758"
           y="385.74637">Miami International Autodrome</tspan></text><g inkscape:label="embedded-track" transform=" translate(186.84348063853912, 9.311448348845971) scale(0.9986523889097608) rotate(0, 249.97359655244193, 249.99689754280809) " > <path style="fill: none; stroke: #fff; stroke-width: 20; stroke-linejoin: round; stroke-dasharray: none; stroke-opacity: 1;" d="M253.178 217.953s37.841 21.485 43.997 24.88c6.096 3.396 9.778 7.26 9.597 9.835-.182 2.518-2.777 5.913-5.613 7.61-2.777 1.698-7.665 4.04-9.596 6.616-1.932 2.517-3.501 4.566-3.682 11.006-.181 6.44-.181 11.532-1.57 15.396-1.146 3.161-5.25 10.479-19.312 15.22-13.64 4.567-17.925 3.513-29.211 3.22-10.441-.292-20.762-5.912-20.762-5.912s-53.774-29.622-58.965-32.49c-5.25-2.87-13.64-4.391-20.4-2.87-7 1.523-8.81 2.928-12.734 5.738-3.259 2.342-8.027 5.913-12.553 6.44-4.527.526-10.2.234-14.666-1.698-4.044-1.756-9.415-7.142-12.01-9.835-2.595-2.693-8.148-6.264-16.054-6.44-6.458-.175-20.64 1.347-28.789 10.713-3.38 3.864-5.854 6.85-5.854 14.284 0 5.503 5.19 12.88 10.2 12.938 10.2.176 7.725-1.288 15.51-1.522 9.597-.293 13.64.702 19.012 2.693 5.371 1.99 20.218 5.503 28.124 5.561 10.502.117 73.692-1.17 77.856-1.17 10.38-.06 18.83 2.048 25.107 4.741 6.277 2.693 19.192 8.606 24.443 10.128 5.25 1.522 14.666 5.093 28.97 4.917 14.303-.175 39.953-1.697 54.438-6.79 14.485-5.094 60.051-20.139 72.967-25.583 12.916-5.444 39.29-18.03 44.661-21.485 3.38-2.166 5.432-3.395 5.613-6.44.181-3.043-4.888-6.439-7.484-7.61-2.595-1.17-4.466-1.931-7.664-4.566-3.5-2.868-5.13-6.146-5.13-9.717 0-6.616 4.526-11.475 10.018-11.65 3.5-.117 14.183.175 17.14-.351 2.958-.527 7.303-2.05 9.597-5.562 2.293-3.512 4.949-8.722 5.794-10.01 1.448-2.166 1.026-3.396-1.57-4.567-2.595-1.17-4.043-3.044-2.776-6.615 1.268-3.57 3.742-13.347 4.225-15.923.422-2.4-.181-5.561-3.863-5.561-4.707 0-118.654-4.215-132.777-4.567-14.364-.234-209.968-7.61-232.963-8.898-7.242-.41-8.932 3.805-8.45 5.971.906 4.04 11.166 10.655 17.443 14.226 6.276 3.57 8.57 4.39 16.054 4.742 7.483.35 11.89-1.698 16.054-4.215 4.164-2.518 12.734-7.26 22.873-9.484 7.182-1.58 20.4-1.288 25.47-.527 7.181 1.112 14.303 4.04 20.76 7.61 6.459 3.572 48.525 27.573 48.525 27.573z" /> <path style="fill: none; stroke: #000; stroke-width: 5; stroke-linejoin: round; stroke-dasharray: none; stroke-opacity: 1;" d="M253.178 217.953s37.841 21.485 43.997 24.88c6.096 3.396 9.778 7.26 9.597 9.835-.182 2.518-2.777 5.913-5.613 7.61-2.777 1.698-7.665 4.04-9.596 6.616-1.932 2.517-3.501 4.566-3.682 11.006-.181 6.44-.181 11.532-1.57 15.396-1.146 3.161-5.25 10.479-19.312 15.22-13.64 4.567-17.925 3.513-29.211 3.22-10.441-.292-20.762-5.912-20.762-5.912s-53.774-29.622-58.965-32.49c-5.25-2.87-13.64-4.391-20.4-2.87-7 1.523-8.81 2.928-12.734 5.738-3.259 2.342-8.027 5.913-12.553 6.44-4.527.526-10.2.234-14.666-1.698-4.044-1.756-9.415-7.142-12.01-9.835-2.595-2.693-8.148-6.264-16.054-6.44-6.458-.175-20.64 1.347-28.789 10.713-3.38 3.864-5.854 6.85-5.854 14.284 0 5.503 5.19 12.88 10.2 12.938 10.2.176 7.725-1.288 15.51-1.522 9.597-.293 13.64.702 19.012 2.693 5.371 1.99 20.218 5.503 28.124 5.561 10.502.117 73.692-1.17 77.856-1.17 10.38-.06 18.83 2.048 25.107 4.741 6.277 2.693 19.192 8.606 24.443 10.128 5.25 1.522 14.666 5.093 28.97 4.917 14.303-.175 39.953-1.697 54.438-6.79 14.485-5.094 60.051-20.139 72.967-25.583 12.916-5.444 39.29-18.03 44.661-21.485 3.38-2.166 5.432-3.395 5.613-6.44.181-3.043-4.888-6.439-7.484-7.61-2.595-1.17-4.466-1.931-7.664-4.566-3.5-2.868-5.13-6.146-5.13-9.717 0-6.616 4.526-11.475 10.018-11.65 3.5-.117 14.183.175 17.14-.351 2.958-.527 7.303-2.05 9.597-5.562 2.293-3.512 4.949-8.722 5.794-10.01 1.448-2.166 1.026-3.396-1.57-4.567-2.595-1.17-4.043-3.044-2.776-6.615 1.268-3.57 3.742-13.347 4.225-15.923.422-2.4-.181-5.561-3.863-5.561-4.707 0-118.654-4.215-132.777-4.567-14.364-.234-209.968-7.61-232.963-8.898-7.242-.41-8.932 3.805-8.45 5.971.906 4.04 11.166 10.655 17.443 14.226 6.276 3.57 8.57 4.39 16.054 4.742 7.483.35 11.89-1.698 16.054-4.215 4.164-2.518 12.734-7.26 22.873-9.484 7.182-1.58 20.4-1.288 25.47-.527 7.181 1.112 14.303 4.04 20.76 7.61 6.459 3.572 48.525 27.573 48.525 27.573z" /> </g></g><g
       id="g8"
       inkscape:label="date"
       transform="translate(26.39625,4.4877724)"><text
         xml:space="preserve"
         style="font-style:normal;font-variant:normal;font-weight:normal;font-stretch:normal;font-size:38.1px;line-height:100%;font-family:Formula1;-inkscape-font-specification:Formula1;text-align:center;word-spacing:0px;writing-mode:lr-tb;direction:ltr;text-anchor:middle;opacity:1;fill:#ee0000;fill-opacity:1;stroke:none;stroke-width:7.83601;stroke-linecap:butt;stroke-linejoin:miter;stroke-dasharray:none;stroke-opacity:1"
         x="73.904526"
         y="296.20868"
         id="text6"
         inkscape:label="day"><tspan
           sodipodi:role="line"
           id="tspan6"
           style="font-style:normal;font-variant:normal;font-weight:500;font-stretch:normal;font-size:38.1px;font-family:Formula1;-inkscape-font-specification:'Formula1 Medium';fill:#ffffff;fill-opacity:1;stroke-width:7.836"
           x="73.904526"
           y="296.20868">03</tspan></text><g
         id="g7"
         inkscape:label="month"><rect
           style="opacity:1;fill:#ffffff;fill-opacity:1;stroke:none;stroke-width:7.83601;stroke-linecap:butt;stroke-linejoin:miter;stroke-dasharray:none;stroke-opacity:1"
           id="rect7"
           width="135.10905"
           height="57.764015"
           x="10.769562"
           y="306.44302"
           ry="23.007711" /><text
           xml:space="preserve"
           style="font-style:normal;font-variant:normal;font-weight:500;font-stretch:normal;font-size:38.1px;line-height:100%;font-family:Formula1;-inkscape-font-specification:'Formula1 Medium';text-align:center;word-spacing:0px;writing-mode:lr-tb;direction:ltr;text-anchor:middle;opacity:1;fill:#15151e;fill-opacity:1;stroke:none;stroke-width:7.83601;stroke-linecap:butt;stroke-linejoin:miter;stroke-dasharray:none;stroke-opacity:1"
           x="76.800072"
           y="349.61252"
           id="text7"
           inkscape:label="month"><tspan
             sodipodi:role="line"
             id="tspan7"
             style="fill:#15151e;fill-opacity:1;stroke-width:7.836"
             x="76.800072"
             y="349.61252">MAY</tspan></text></g></g><g transform="translate(71.964256, 72.019316) scale(0.15632884375)" inkscape:label="flag"><mask id="a"><circle cx="256" cy="256" r="256" fill="#fff"/></mask><g mask="url(#a)"><path fill="#eee" d="M256 0h256v64l-32 32 32 32v64l-32 32 32 32v64l-32 32 32 32v64l-256 32L0 448v-64l32-32-32-32v-64z"/><path fill="#d80027" d="M224 64h288v64H224Zm0 128h288v64H256ZM0 320h512v64H0Zm0 128h512v64H0Z"/><path fill="#0052b4" d="M0 0h256v256H0Z"/><path fill="#eee" d="m187 243 57-41h-70l57 41-22-67zm-81 0 57-41H93l57 41-22-67zm-81 0 57-41H12l57 41-22-67zm162-81 57-41h-70l57 41-22-67zm-81 0 57-41H93l57 41-22-67zm-81 0 57-41H12l57 41-22-67Zm162-82 57-41h-70l57 41-22-67Zm-81 0 57-41H93l57 41-22-67zm-81 0 57-41H12l57 41-22-67Z"/></g></g></g></svg>
